<svg width="24" height="24" viewBox="0 0 24 24" fill="none" xmlns="http://www.w3.org/2000/svg">
<path id="Quotes" fill-rule="evenodd" clip-rule="evenodd" d="M15.0857 24V18.5143C16.3368 18.5143 18.5407 18.4103 18.5408 13.4021V10.8L13.2 10.8L13.2 0H24L24 10.8V13.4021C24 17.3396 22.981 20.2635 20.7548 22.0929C19.2147 23.3584 17.3902 24 15.0857 24ZM1.88576 24V18.5143C3.13684 18.5143 5.34074 18.4103 5.34087 13.4021V10.8L4.95911e-05 10.8L4.95911e-05 0L10.8 0L10.8 10.8V13.4021C10.8 17.3396 9.78107 20.2635 7.55482 22.0929C6.01478 23.3584 4.19029 24 1.88576 24Z" fill="#EBEBEB"/>
</svg>
