<svg width="632" height="604" viewBox="0 0 632 604" fill="none" xmlns="http://www.w3.org/2000/svg">
<path d="M316 577.11C469.112 577.11 593.233 508.023 593.233 422.8C593.233 337.577 469.112 268.49 316 268.49C162.889 268.49 38.7671 337.577 38.7671 422.8C38.7671 508.023 162.889 577.11 316 577.11Z" fill="#F5F5F5"/>
<path d="M472.318 488.793C516.801 488.793 552.861 468.896 552.861 444.351C552.861 419.806 516.801 399.908 472.318 399.908C427.836 399.908 391.776 419.806 391.776 444.351C391.776 468.896 427.836 488.793 472.318 488.793Z" fill="#E6E6E6"/>
<path d="M316 503.41C366.234 503.41 406.957 480.943 406.957 453.23C406.957 425.516 366.234 403.049 316 403.049C265.766 403.049 225.042 425.516 225.042 453.23C225.042 480.943 265.766 503.41 316 503.41Z" fill="#E6E6E6"/>
<path d="M156.951 488.793C201.433 488.793 237.493 468.896 237.493 444.351C237.493 419.806 201.433 399.908 156.951 399.908C112.469 399.908 76.4087 419.806 76.4087 444.351C76.4087 468.896 112.469 488.793 156.951 488.793Z" fill="#E6E6E6"/>
<path d="M124.883 385.666C125.857 375.06 119.827 352.41 109.589 337.66C99.3505 322.91 82.1601 311.326 68.9007 314.454C56.5515 317.366 56.4756 332.502 70.0889 343.676C83.7022 354.85 104.432 369.189 109.273 386.947L120.75 409.186L124.883 385.666Z" fill="#166FFF"/>
<path opacity="0.1" d="M124.883 385.666C125.857 375.06 119.827 352.41 109.589 337.66C99.3505 322.91 82.1601 311.326 68.9007 314.454C56.5515 317.366 56.4756 332.502 70.0889 343.676C83.7022 354.85 104.432 369.189 109.273 386.947L120.75 409.186L124.883 385.666Z" fill="black"/>
<path d="M124.365 400.259C124.191 400.228 124.031 400.145 123.91 400.021C123.79 399.897 123.714 399.739 123.695 399.57C119.587 362.726 91.64 330.714 73.8808 322.669C73.7841 322.625 73.6974 322.563 73.6259 322.487C73.5544 322.411 73.4994 322.322 73.4641 322.225C73.4288 322.129 73.414 322.026 73.4204 321.924C73.4269 321.822 73.4545 321.722 73.5016 321.63C73.5506 321.542 73.6175 321.464 73.6983 321.401C73.7792 321.338 73.8724 321.291 73.9724 321.263C74.0725 321.235 74.1774 321.226 74.2811 321.237C74.3847 321.249 74.485 321.279 74.576 321.328C92.6765 329.518 121.142 362.062 125.313 399.474C125.325 399.574 125.316 399.677 125.286 399.774C125.257 399.872 125.207 399.963 125.139 400.042C125.072 400.12 124.989 400.186 124.895 400.233C124.801 400.281 124.698 400.31 124.593 400.319C124.514 400.312 124.437 400.291 124.365 400.259Z" fill="white"/>
<path d="M116.591 422.969C115.327 416.857 108.628 406.371 97.05 397.202C84.2331 387.067 67.3587 381.498 64.0217 374.154C60.0148 365.335 68.1676 358.015 82.0211 360.866C95.8745 363.717 118.816 384.023 120.244 411.856L116.591 422.969Z" fill="#166FFF"/>
<path d="M119.878 416.941C119.722 416.914 119.577 416.845 119.461 416.743C119.345 416.64 119.261 416.508 119.221 416.361C110.448 384.361 86.6725 371.388 75.3345 369.008C75.2189 368.997 75.107 368.962 75.0063 368.907C74.9056 368.852 74.8184 368.777 74.7503 368.687C74.6822 368.597 74.6348 368.494 74.6113 368.385C74.5877 368.277 74.5886 368.164 74.6138 368.056C74.639 367.948 74.688 367.846 74.7574 367.757C74.8269 367.668 74.9154 367.594 75.0169 367.54C75.1184 367.486 75.2308 367.453 75.3465 367.444C75.4623 367.435 75.5788 367.449 75.6884 367.486C88.2273 370.119 111.839 383.298 120.801 415.975C120.83 416.1 120.828 416.23 120.793 416.355C120.759 416.479 120.694 416.593 120.603 416.688C120.513 416.783 120.399 416.856 120.273 416.9C120.147 416.944 120.011 416.958 119.878 416.941Z" fill="white"/>
<path d="M495.236 399.92C494.212 388.771 500.911 352.893 511.668 337.406C522.424 321.92 541.915 306.276 555.845 309.562C568.813 312.63 568.902 328.528 554.581 340.269C540.259 352.011 518.506 367.087 513.45 385.726L500.81 417.255L495.236 399.92Z" fill="#166FFF"/>
<path opacity="0.1" d="M495.236 399.92C494.212 388.771 500.911 352.893 511.668 337.406C522.424 321.92 541.915 306.276 555.845 309.562C568.813 312.63 568.902 328.528 554.581 340.269C540.259 352.011 518.506 367.087 513.45 385.726L500.81 417.255L495.236 399.92Z" fill="black"/>
<path d="M497.587 399.727C497.77 399.695 497.938 399.607 498.066 399.476C498.193 399.346 498.273 399.18 498.294 399.002C502.605 360.286 531.98 326.655 550.624 318.199C550.726 318.154 550.817 318.09 550.893 318.01C550.969 317.931 551.027 317.838 551.065 317.737C551.102 317.635 551.118 317.528 551.112 317.421C551.106 317.314 551.078 317.209 551.029 317.112C550.983 317.014 550.916 316.925 550.833 316.852C550.75 316.779 550.653 316.722 550.546 316.686C550.44 316.65 550.327 316.635 550.214 316.642C550.102 316.648 549.992 316.677 549.891 316.726C530.931 325.339 500.962 359.525 496.588 398.87C496.576 398.976 496.586 399.084 496.617 399.186C496.649 399.289 496.702 399.385 496.772 399.468C496.843 399.551 496.93 399.62 497.028 399.671C497.127 399.721 497.235 399.753 497.346 399.763C497.428 399.764 497.509 399.751 497.587 399.727Z" fill="white"/>
<path d="M505.764 423.585C507.028 417.159 512.464 406.25 523.852 395.801C537.756 382.984 560.041 376.727 563.555 369.02C567.764 359.767 559.838 352.857 545.403 356.384C526.014 361.12 503.401 382.694 501.922 411.952L505.764 423.585Z" fill="#166FFF"/>
<path d="M502.302 417.243C502.465 417.219 502.617 417.15 502.74 417.045C502.864 416.94 502.953 416.803 502.997 416.651C512.211 383.021 542.042 366.266 553.961 363.765C554.072 363.742 554.176 363.699 554.269 363.637C554.362 363.575 554.441 363.497 554.502 363.406C554.563 363.315 554.605 363.214 554.625 363.107C554.645 363.001 554.643 362.892 554.619 362.787C554.596 362.68 554.552 362.579 554.488 362.49C554.424 362.4 554.341 362.324 554.246 362.265C554.15 362.207 554.043 362.167 553.932 362.149C553.82 362.13 553.705 362.134 553.595 362.158C540.411 364.937 510.745 381.909 501.341 416.228C501.31 416.332 501.302 416.441 501.316 416.548C501.33 416.655 501.367 416.758 501.423 416.852C501.48 416.945 501.555 417.027 501.645 417.092C501.735 417.157 501.838 417.204 501.948 417.231C502.063 417.259 502.184 417.263 502.302 417.243Z" fill="white"/>
<path d="M510.782 182.468C502.983 174.785 490.027 156.871 490.027 156.871L482.038 130.464C481.849 130.536 486.108 130.549 487.398 130.464C496.031 131.02 498.572 131.672 503.944 137.338C508.203 141.795 523.965 165.218 529.628 172.369L545.125 151.906C548.714 146.712 548.133 140.901 550.004 136.649C551.874 132.397 554.883 130.536 557.297 126.707C559.711 122.878 560.293 120.365 562.277 122.322C564.262 124.279 561.974 129.57 561.67 130.778C561.367 131.986 558.359 135.61 563.402 133.701C568.445 131.793 576.257 122.999 578.279 121.199C580.302 119.399 581.351 122.189 580.896 124.4C580.441 126.61 582.615 131.648 581.819 135.272C580.984 139.15 580.39 140.925 576.484 144.682C572.831 148.197 563.92 152.498 560.432 157.1C556.943 161.703 549.498 176.006 544.948 184.631C539.159 195.587 532.813 201.821 525.33 195.696C519.592 190.924 513.676 185.319 510.782 182.468Z" fill="#FFBDA7"/>
<path d="M490.836 130.259C497.447 130.839 500.948 132.276 507.546 140.539C514.144 148.801 529.464 170.558 529.464 170.558L542.698 155.083C542.698 155.083 551.811 161.715 556.602 169.47C556.602 169.47 543.798 190.006 538.666 195.189C533.534 200.371 529.565 200.782 522.588 195.189C515.61 189.596 495.487 168.383 495.487 168.383L490.836 130.259Z" fill="#F0F0F0"/>
<path d="M529.464 170.558C526.468 174.701 524.534 181.43 525.065 184.824C525.065 184.824 520.894 180.234 527.909 168.359L529.464 170.558Z" fill="#E0E0E0"/>
<path d="M432.516 438.383H447.545L450.54 412.955H432.516V438.383Z" fill="#FFBDA7"/>
<path d="M482.165 412.23L498.18 412.737L497.889 386.415L479.776 386.077L482.165 412.23Z" fill="#FFBDA7"/>
<path d="M432.679 233.99C432.388 247.93 429.292 340.185 429.292 340.185C428.221 347.724 427.584 355.314 427.383 362.919C426.978 381.354 431.023 425.107 431.023 425.107C431.921 429.082 447.455 430.7 449.516 427.113C449.516 427.113 458.01 363.644 460.424 345.403C462.522 329.482 469.461 277.417 469.461 277.417L474.821 328.576C474.616 334.539 474.764 340.508 475.263 346.454C475.883 354.91 480.319 404.668 480.319 404.668C480.395 407.772 496.549 410.333 499.279 405.767C499.279 405.767 504.335 333.094 504.55 325.351C504.727 316.52 503.438 232.987 503.438 232.987L432.679 233.99Z" fill="#37474F"/>
<path d="M448.404 431.075L448.657 428.913C449.491 428.913 449.858 429.806 450.199 431.715C450.906 435.785 452.248 439.731 454.181 443.421C456.709 448.434 458.225 450.524 463.256 456.564C464.444 458.001 467.137 460.284 468.085 461.879C469.033 463.473 469.349 467.919 467.756 468.946C461.891 472.678 452.98 472.787 446.672 471.023C444.282 470.468 442.125 469.23 440.49 467.473C438.855 465.716 437.819 463.524 437.521 461.19C436.497 455.706 435.954 452.311 433.034 448.168C431.959 446.646 430.228 445.414 429.507 443.723C428.243 440.666 429.242 437.236 430.076 434.191C430.797 431.57 431.58 428.683 432.516 428.925V430.543C433.641 431.751 437.572 432.959 441.111 433.056C443.386 433.14 448.429 432.742 448.404 431.075Z" fill="#263238"/>
<path d="M498.129 408.582C498.521 408.836 499.393 409.79 501.049 411.264C502.698 412.634 504.428 413.912 506.231 415.093C509.897 417.659 513.75 419.972 517.759 422.015C522.524 424.515 526.822 426.037 532.522 428.49C533.121 428.72 533.663 429.065 534.115 429.504C534.46 429.894 534.699 430.358 534.81 430.857C534.977 431.886 534.842 432.939 534.42 433.898C533.998 434.858 533.306 435.687 532.421 436.293C530.635 437.486 528.607 438.309 526.468 438.709C521.632 440.007 516.537 440.152 511.629 439.132C507.387 437.984 503.361 436.207 499.696 433.865C496.643 431.796 493.167 430.368 489.496 429.674C486.298 429.239 482.367 429.384 479.586 427.56C476.515 425.53 477.741 421.193 478.613 417.461C479.561 413.402 479.776 407.193 481.71 407.326L481.861 408.956C482.038 410.708 486.488 411.517 489.926 411.517C492.782 411.517 498.18 410.805 498.154 409.524L498.129 408.582Z" fill="#263238"/>
<path d="M471.105 257.896C477.235 255.627 482.824 252.201 487.537 247.821C487.537 247.821 484.921 255.069 474.189 261.109L474.897 324.771L469.487 277.393L471.105 257.896Z" fill="#263238"/>
<path d="M456.898 128.7C454.18 129.316 445.522 131.551 438.494 133.919C434.95 135.212 431.876 137.461 429.646 140.394C424.59 147.509 429.14 163.346 432.894 193.111C432.616 212.342 432.035 236.261 432.035 236.261C441.287 242.699 484.453 247.072 503.931 233.482C503.931 233.482 504.576 161.304 503.287 151.918C500.759 133.943 493.465 129.147 478.272 128.302L456.898 128.7Z" fill="#166FFF"/>
<path opacity="0.6" d="M456.898 128.7C454.18 129.316 445.522 131.551 438.494 133.919C434.95 135.212 431.876 137.461 429.646 140.394C424.59 147.509 429.14 163.346 432.894 193.111C432.616 212.342 432.035 236.261 432.035 236.261C441.287 242.699 484.453 247.072 503.931 233.482C503.931 233.482 504.576 161.304 503.287 151.918C500.759 133.943 493.465 129.147 478.272 128.302L456.898 128.7Z" fill="white"/>
<path d="M483.429 149.792C484.795 154.286 492.872 185.863 491.734 196.976C490.867 202.68 489.253 208.256 486.931 213.574C483.43 221.487 481.091 214.408 479.145 209.733C477.498 205.374 476.395 200.845 475.858 196.24C475.213 190.272 477.729 172.14 476.756 150.879C477.49 149.89 478.606 149.22 479.857 149.016C481.108 148.812 482.393 149.091 483.429 149.792Z" fill="#166FFF"/>
<path opacity="0.2" d="M483.429 149.792C484.795 154.286 492.872 185.863 491.734 196.976C490.867 202.68 489.253 208.256 486.931 213.574C483.43 221.487 481.091 214.408 479.145 209.733C477.498 205.374 476.395 200.845 475.858 196.24C475.213 190.272 477.729 172.14 476.756 150.879C477.49 149.89 478.606 149.22 479.857 149.016C481.108 148.812 482.393 149.091 483.429 149.792Z" fill="black"/>
<path d="M483.733 139.645C486.93 142.254 483.429 149.78 483.429 149.78C481.141 149.309 478.751 149.698 476.755 150.867C476.755 150.867 470.435 148.27 470.372 143.752C470.372 139.645 474.935 140.962 478.184 140.418C481.584 139.85 483.353 137.446 483.733 139.645Z" fill="#166FFF"/>
<path opacity="0.2" d="M483.733 139.645C486.93 142.254 483.429 149.78 483.429 149.78C481.141 149.309 478.751 149.698 476.755 150.867C476.755 150.867 470.435 148.27 470.372 143.752C470.372 139.645 474.935 140.962 478.184 140.418C481.584 139.85 483.353 137.446 483.733 139.645Z" fill="black"/>
<path opacity="0.2" d="M483.429 149.792C482.911 148.028 480.396 148.197 478.373 147.593C477.239 147.164 476.29 146.381 475.681 145.371C474.644 143.667 475.681 140.841 477.122 140.539C474.025 140.744 470.347 140.068 470.359 143.752C470.359 148.27 476.743 150.867 476.743 150.867C478.743 149.699 481.139 149.314 483.429 149.792Z" fill="black"/>
<path d="M461.448 86.976C461.559 90.688 462.818 94.2853 465.066 97.3142C467.314 100.343 470.451 102.668 474.08 103.995C477.709 105.322 481.668 105.592 485.457 104.771C489.247 103.949 492.697 102.074 495.372 99.3809C498.047 96.6879 499.828 93.2978 500.489 89.6385C501.15 85.9793 500.663 82.2148 499.088 78.8201C497.513 75.4254 494.921 72.5527 491.639 70.5643C488.358 68.576 484.533 67.5612 480.649 67.648C478.058 67.7059 475.505 68.2525 473.136 69.2564C470.767 70.2603 468.629 71.7017 466.845 73.4978C465.06 75.2939 463.665 77.4092 462.739 79.7222C461.813 82.0353 461.374 84.5004 461.448 86.976Z" fill="#455A64"/>
<path d="M447.456 100.626C447.456 100.626 451.008 114.857 452.335 117.176C453.215 118.605 454.636 119.656 456.304 120.111L455.836 110.049L447.456 100.626Z" fill="#455A64"/>
<path d="M450.944 80.03C449.833 79.9372 448.714 80.0869 447.671 80.4677C446.629 80.8486 445.691 81.4507 444.928 82.2286C442.4 84.8499 444.03 92.8348 447.456 100.626L453.472 101.146L450.944 80.03Z" fill="#455A64"/>
<path d="M455.28 101.11C454.092 101.822 452.322 99.6479 450.793 98.1983C449.263 96.7487 444.384 94.8401 442.084 99.7567C439.783 104.673 444.51 111.221 448.404 112.284C455.027 114.108 455.912 110.049 455.912 110.049L457.037 135.707C461.726 141.179 472.761 141.481 478.234 140.418C482.607 139.572 482.671 136.613 478.36 132.071L478.158 124.714C481.09 125.097 484.056 125.178 487.006 124.956C491.822 124.122 494.792 120.413 496.12 115.376C498.142 107.681 498.648 99.0922 496.613 85.0311C494.085 67.7446 472.913 68.1191 461.701 75.1618C450.489 82.2044 455.28 101.11 455.28 101.11Z" fill="#FFBDA7"/>
<path d="M455.331 103.042C454.724 103.042 452.322 99.4184 450.793 98.2104C448.682 96.4588 450.945 80.0904 450.945 80.0904C450.201 78.6639 449.923 77.0562 450.149 75.4769C450.374 73.8976 451.092 72.4197 452.209 71.2358C454.977 68.1795 458.845 64.4347 471.788 65.5944C481.015 66.4279 491.102 68.9406 499.09 64.9542C499.904 67.459 499.917 70.1391 499.126 72.6507C498.336 75.1624 496.778 77.3912 494.654 79.0515C494.654 79.0515 491.759 80.9239 484.087 81.987C476.414 83.05 464.381 82.2648 462.738 82.0957C460.5 81.8541 460.071 83.9318 459.009 89.6094C458.023 94.5381 457.366 102.958 455.331 103.042Z" fill="#455A64"/>
<path d="M450.995 81.3105L443.613 77.6865C443.834 77.2119 444.153 76.7853 444.552 76.4324C444.951 76.0795 445.42 75.8078 445.932 75.6338C446.444 75.4598 446.988 75.3871 447.53 75.4202C448.072 75.4533 448.602 75.5914 449.086 75.8262C450.087 76.3249 450.846 77.1758 451.202 78.1993C451.558 79.2227 451.484 80.3383 450.995 81.3105Z" fill="#455A64"/>
<path d="M478.108 124.714C478.108 124.714 467.263 122.89 463.445 121.09C461.197 120.032 459.337 118.347 458.111 116.258C458.734 118.354 459.792 120.31 461.221 122.008C464.065 125.318 478.184 127.686 478.184 127.686L478.108 124.714Z" fill="#F0997A"/>
<path d="M474.48 98.5849C474.44 98.9875 474.277 99.3701 474.012 99.685C473.746 100 473.39 100.234 472.987 100.357C472.584 100.48 472.152 100.487 471.744 100.378C471.337 100.269 470.972 100.047 470.695 99.7418C470.418 99.4361 470.241 99.0594 470.185 98.6584C470.13 98.2574 470.2 97.8498 470.385 97.486C470.57 97.1223 470.862 96.8185 471.226 96.6122C471.59 96.406 472.01 96.3065 472.432 96.3259C473.017 96.3662 473.562 96.6267 473.946 97.0503C474.33 97.4739 474.522 98.0259 474.48 98.5849Z" fill="#263238"/>
<path d="M473.077 90.8054L468.324 93.016C468.024 92.3941 467.989 91.6854 468.224 91.0389C468.46 90.3923 468.949 89.8583 469.588 89.549C469.901 89.3976 470.243 89.3101 470.593 89.2919C470.943 89.2738 471.294 89.3254 471.622 89.4436C471.95 89.5617 472.249 89.7438 472.499 89.9782C472.75 90.2127 472.946 90.4943 473.077 90.8054Z" fill="#263238"/>
<path d="M475.718 112.501L482.468 114.265C482.362 114.691 482.168 115.093 481.897 115.446C481.626 115.8 481.283 116.098 480.89 116.323C480.496 116.548 480.06 116.695 479.606 116.757C479.152 116.818 478.69 116.793 478.246 116.681C477.346 116.424 476.583 115.848 476.113 115.071C475.643 114.294 475.502 113.374 475.718 112.501Z" fill="#F0997A"/>
<path d="M495.488 92.7261L490.432 91.0711C490.519 90.7467 490.675 90.4432 490.892 90.1797C491.108 89.9163 491.379 89.6988 491.688 89.5409C491.997 89.383 492.337 89.2882 492.687 89.2626C493.036 89.237 493.387 89.281 493.718 89.392C494.411 89.6157 494.985 90.0902 495.315 90.7136C495.646 91.337 495.708 92.0596 495.488 92.7261Z" fill="#263238"/>
<path d="M492.96 98.005C492.992 98.2795 492.966 98.5572 492.886 98.8223C492.805 99.0874 492.67 99.3348 492.49 99.5501C492.309 99.7655 492.086 99.9448 491.832 100.078C491.579 100.21 491.301 100.294 491.014 100.324C490.429 100.361 489.854 100.176 489.411 99.8098C488.969 99.4435 488.695 98.9253 488.65 98.3675C488.625 98.097 488.656 97.8245 488.741 97.5655C488.827 97.3065 488.965 97.0661 489.147 96.858C489.33 96.6499 489.553 96.4782 489.805 96.3527C490.057 96.2272 490.332 96.1504 490.615 96.1266C490.898 96.1028 491.184 96.1325 491.455 96.2141C491.726 96.2956 491.977 96.4273 492.195 96.6017C492.413 96.7762 492.592 96.9899 492.724 97.2307C492.855 97.4714 492.935 97.7346 492.96 98.005Z" fill="#263238"/>
<path d="M481.293 96.8333L482.077 109.264L488.852 107.017L481.293 96.8333Z" fill="#F0997A"/>
<path d="M478.183 140.418C472.179 139.21 457.959 133.907 456.619 127.275L456.442 123.651C454.104 123.651 453.042 126.127 451.892 129.691C451.412 139.065 461.764 147.63 472.116 149.937C472.464 147.763 473.24 145.673 474.404 143.776C475.287 142.323 476.602 141.154 478.183 140.418Z" fill="#166FFF"/>
<path d="M478.133 125.632C479.718 126.096 481.159 126.926 482.329 128.048C490.103 135.743 485.666 145.83 485.666 145.83C485.265 144.152 484.263 142.661 482.835 141.614C481.469 140.727 479.831 140.302 478.183 140.406C480.092 138.461 479.346 135.066 478.31 132.059L478.133 125.632Z" fill="#166FFF"/>
<path d="M500.734 92.3878L499.685 92.2912C496.174 91.8832 492.62 91.9891 489.143 92.6053C485.755 93.4871 484.529 94.4656 482.671 94.4897C480.813 94.5139 479.461 93.5113 475.921 92.6415C472.207 92.0458 468.424 91.9604 464.684 92.3878L463.547 92.5086L447.456 96.64C448.839 96.8485 450.111 97.4901 451.071 98.4641L462.801 95.432C462.965 95.6494 463.13 95.8427 463.243 95.9756C463.405 96.2025 463.521 96.4566 463.585 96.7245C463.809 98.4631 464.202 100.178 464.76 101.846C465.091 102.535 465.554 103.158 466.125 103.683C466.344 103.883 466.581 104.065 466.833 104.226L467.25 104.468C467.653 104.676 468.077 104.846 468.514 104.975L468.729 105.036L469.058 105.12L469.412 105.193C469.779 105.263 470.151 105.311 470.524 105.338H470.992H471.586C476.212 105.338 478.209 103.453 479.435 101.508C480.661 99.5633 480.472 96.8212 482.595 96.8212H482.797H482.987C484.554 97.1232 484.251 99.6479 485.186 101.448C485.539 102.206 486.031 102.898 486.64 103.489L486.981 103.791L487.171 103.936L487.373 104.081L487.55 104.19L487.74 104.311L487.891 104.395H488.005C488.578 104.686 489.19 104.898 489.825 105.024H489.99C490.726 105.161 491.476 105.226 492.227 105.217C496.55 105.217 498.13 103.006 498.888 101.593C499.551 99.9276 500.059 98.2095 500.405 96.4588C500.486 96.2019 500.633 95.969 500.835 95.7823C501.375 95.2691 501.74 94.6124 501.884 93.8978C501.895 93.5598 501.788 93.2278 501.58 92.9544C501.371 92.681 501.074 92.4816 500.734 92.3878ZM478.285 99.7083C477.973 100.749 477.365 101.685 476.528 102.414C475.115 103.536 473.304 104.094 471.472 103.973C470.572 104.035 469.669 103.889 468.84 103.549C468.011 103.208 467.279 102.683 466.707 102.016L466.555 101.822C466.508 101.761 466.466 101.696 466.429 101.629C466.382 101.574 466.343 101.513 466.315 101.448L466.214 101.291L466.151 101.158C466.151 101.158 466.151 101.073 466.087 101.037C466.024 101.001 466.024 100.916 465.999 100.844C465.91 100.651 465.847 100.457 465.784 100.276C465.784 100.155 465.708 100.047 465.683 99.9378C465.658 99.8291 465.582 99.5513 465.544 99.3821C465.506 99.213 465.544 99.3217 465.544 99.2855V99.1768C465.241 97.8238 464.925 95.1662 465.746 94.5622C466.568 93.9582 468.691 93.3542 472.066 93.5958H472.433C472.955 93.6419 473.475 93.7185 473.987 93.8253L474.594 93.9461C475.107 94.0622 475.613 94.2033 476.111 94.3689L476.566 94.5381L477.072 94.7434H477.173L477.35 94.8401C477.731 95.0033 478.071 95.2421 478.348 95.5407C479.056 96.4346 478.727 98.1983 478.285 99.7083ZM498.37 99.056C498.189 99.986 497.786 100.864 497.192 101.62C496.598 102.376 495.829 102.991 494.945 103.417C494.143 103.736 493.284 103.9 492.417 103.9C491.464 104.001 490.5 103.869 489.616 103.516C488.731 103.163 487.955 102.601 487.361 101.883C487.327 101.845 487.297 101.805 487.272 101.762C487.234 101.716 487.2 101.668 487.171 101.617V101.544L487.045 101.327L486.918 101.073C486.916 101.033 486.916 100.993 486.918 100.953V100.844C486.911 100.816 486.911 100.787 486.918 100.759C486.784 100.436 486.686 100.1 486.627 99.7566C486.324 98.2466 486.21 96.4829 486.893 95.6494C487.575 94.8159 490.141 93.8978 492.593 93.6321C493.162 93.6321 493.693 93.5354 494.173 93.5233H495.577H495.994C496.261 93.5452 496.527 93.5815 496.79 93.6321H496.967H497.093H497.283L497.51 93.6925L497.877 93.8253C498.178 93.9321 498.459 94.0829 498.711 94.2723C499.28 95.0454 498.749 97.7151 498.37 99.056Z" fill="#37474F"/>
<path d="M456.644 127.674C456.644 127.674 461.22 149.623 463.192 164.469C465.164 179.316 464.797 221.245 463.736 247.821C462.977 267.149 459.944 303.003 459.944 303.003C459.944 303.003 454.888 303.969 442.867 302.06C432.578 300.442 427.37 297.53 425.171 296.262C425.171 296.262 427.08 241.817 428.533 222.804C429.86 205.275 429.797 195.636 429.797 195.636L425.474 155.615C425.474 155.615 425.803 130.464 433.968 129.401C442.399 128.302 456.644 127.674 456.644 127.674Z" fill="#FAFAFA"/>
<path d="M448.834 163.672C448.834 162.754 448.733 160.773 448.568 158.26C447.759 145.999 448.935 128.253 453.258 127.372L453.65 129.063C450.477 129.715 449.984 152.196 450.376 158.151C450.553 160.712 450.679 162.73 450.641 163.744L448.834 163.672Z" fill="#166FFF"/>
<path d="M432.414 258.355C430.329 254.96 430.215 252.424 427.068 249.392C425.72 248.146 424.739 246.584 424.224 244.862C423.263 242.144 423.314 239.305 423.086 236.333L404.821 237.142C404.974 243.636 405.727 250.104 407.071 256.47C410.535 271.051 413.884 277.188 420.444 278.601C430.91 280.86 433.489 276.547 429.811 269.336C428.231 266.328 427.099 263.124 426.448 259.817C427.581 261.093 428.896 262.211 430.354 263.139C431.097 263.669 432.023 263.91 432.945 263.813C433.867 263.717 434.716 263.29 435.322 262.619C435.777 261.979 434.058 261.025 432.414 258.355Z" fill="#FFBDA7"/>
<path d="M437.344 129.401C437.344 129.401 427.624 129.268 422.176 133.955C416.728 138.642 413.833 151.181 410.307 163.756C406.78 176.332 403.645 188.533 402.723 197.278C401.939 204.526 404.492 243.013 404.492 243.013C404.492 243.013 415.603 245.248 424.148 240.766L424.514 198.064L438.608 155.252C441.181 146.738 440.737 137.649 437.344 129.401Z" fill="#F0F0F0"/>
<path d="M456.303 120.522C455.039 120.269 453.864 120.909 452.827 122.6C451.791 124.291 449.503 127.843 449.503 127.843C449.503 127.843 448.327 139.633 449.503 142.568C450.527 145.105 457.314 157.064 457.314 157.064C457.314 157.064 456.872 168.709 456.758 172.188C456.645 175.667 463.698 190.188 464.494 196.928C464.494 196.928 464.848 169.519 463.799 161.896C461.979 148.608 459.703 132.783 456.632 127.347L456.303 120.522Z" fill="#EBEBEB"/>
<path d="M446.192 204.345H446.04V203.137C447.539 203.026 448.976 202.516 450.186 201.664C448.888 200.838 447.725 199.832 446.736 198.68C444.701 196.155 440.239 178.144 441.604 173.952C442.767 170.437 446.382 162.681 449.592 162.548H449.681C452.891 162.548 457.126 169.881 458.529 173.263C460.273 177.334 457.429 195.636 455.622 198.317C454.741 199.547 453.671 200.642 452.449 201.567C453.726 202.326 455.204 202.721 456.709 202.702L456.873 203.91C454.907 203.938 452.977 203.4 451.337 202.364C449.848 203.47 448.067 204.156 446.192 204.345ZM449.744 163.744C447.848 163.817 444.46 169.579 442.906 174.29C441.642 178.144 445.939 195.575 447.823 197.907C448.84 199.074 450.043 200.08 451.387 200.89C452.662 199.979 453.776 198.878 454.686 197.629C456.355 195.152 459.085 177.443 457.48 173.698C455.533 169.12 451.69 163.744 449.782 163.744H449.744Z" fill="#455A64"/>
<path d="M458.832 203.222C458.844 203.454 458.807 203.687 458.724 203.906C458.642 204.125 458.515 204.327 458.35 204.498C458.185 204.67 457.987 204.809 457.766 204.907C457.545 205.005 457.306 205.061 457.062 205.07C456.818 205.08 456.574 205.045 456.345 204.965C456.115 204.885 455.904 204.763 455.724 204.605C455.544 204.448 455.398 204.258 455.295 204.046C455.191 203.835 455.133 203.606 455.122 203.373C455.111 203.14 455.148 202.907 455.232 202.687C455.315 202.468 455.443 202.266 455.608 202.094C455.773 201.922 455.972 201.783 456.193 201.684C456.414 201.585 456.654 201.529 456.898 201.519C457.142 201.509 457.386 201.545 457.615 201.626C457.844 201.706 458.055 201.829 458.234 201.987C458.414 202.145 458.559 202.336 458.662 202.548C458.764 202.759 458.822 202.989 458.832 203.222Z" fill="#263238"/>
<path d="M447.961 203.657C447.971 203.89 447.933 204.123 447.849 204.342C447.765 204.561 447.637 204.762 447.471 204.934C447.305 205.106 447.106 205.244 446.884 205.342C446.663 205.44 446.423 205.496 446.179 205.505C445.935 205.516 445.692 205.481 445.463 205.402C445.234 205.323 445.023 205.202 444.843 205.045C444.663 204.887 444.518 204.698 444.415 204.486C444.313 204.275 444.255 204.047 444.245 203.814C444.234 203.581 444.272 203.348 444.355 203.128C444.438 202.909 444.566 202.707 444.731 202.535C444.896 202.363 445.095 202.223 445.316 202.125C445.537 202.026 445.777 201.97 446.021 201.959C446.265 201.949 446.509 201.985 446.738 202.065C446.968 202.144 447.179 202.266 447.359 202.424C447.539 202.582 447.685 202.772 447.788 202.983C447.892 203.195 447.95 203.424 447.961 203.657Z" fill="#263238"/>
<path d="M458.971 181.2L457.909 181.128C457.854 181.124 457.801 181.111 457.751 181.088C457.702 181.065 457.658 181.033 457.621 180.994C457.585 180.955 457.557 180.909 457.539 180.859C457.521 180.81 457.514 180.757 457.517 180.705C457.732 177.322 457.619 174.834 457.189 173.843C455.318 169.47 451.438 163.998 449.756 164.071C448.075 164.143 444.7 169.905 443.209 174.411C442.892 176.697 442.986 179.017 443.487 181.272C443.505 181.377 443.48 181.483 443.416 181.569C443.352 181.656 443.255 181.714 443.146 181.732L442.084 181.889C442.029 181.895 441.973 181.892 441.92 181.878C441.867 181.864 441.817 181.84 441.773 181.807C441.73 181.774 441.694 181.734 441.667 181.688C441.64 181.642 441.623 181.591 441.616 181.538C441.035 177.781 440.959 175.196 441.401 173.867C442.185 171.451 445.914 162.404 449.668 162.246C453.422 162.089 457.947 170.811 458.946 173.118C459.502 174.411 459.666 176.984 459.413 180.777C459.417 180.834 459.408 180.89 459.387 180.943C459.366 180.996 459.334 181.044 459.292 181.084C459.25 181.124 459.2 181.155 459.145 181.175C459.089 181.195 459.03 181.204 458.971 181.2Z" fill="#166FFF"/>
<path d="M478.107 124.714C479.776 124.859 481.229 127.214 485.072 128.338C492.251 130.367 498.774 133.484 500.783 137.7C504.12 144.682 504.664 146.059 505.839 177.153C507.015 208.247 507.432 296.745 507.432 296.745C503.985 298.234 500.229 298.957 496.448 298.859C496.448 298.859 496.739 201.132 496.056 179.158C495.373 157.185 491.885 146.458 486.905 139.21C485.502 133.17 481.027 129.135 478.057 126.188L478.107 124.714Z" fill="#FAFAFA"/>
<path d="M486.93 139.234C491.91 146.482 495.386 157.197 496.082 179.183C496.157 181.792 496.233 185.464 496.297 189.873C496.297 189.873 500.392 169.966 499.671 165.713C498.951 161.461 494.148 152.715 494.148 152.715C494.767 145.467 492.997 137.18 490.078 132.179C489.398 131.014 488.547 129.948 487.55 129.014C486.579 128.263 485.543 127.592 484.453 127.009C482.584 125.739 480.41 124.937 478.133 124.678V126.176C481.053 129.159 485.527 133.17 486.93 139.234Z" fill="#EBEBEB"/>
<path d="M336.527 129.256C346.071 129.111 351.202 133.206 358.205 143.752C364.184 152.715 378.024 174.182 381.918 180.644C386.316 187.892 386.974 190.912 383.485 196.348C380.211 201.543 349.167 235.802 349.167 235.802L341.166 222.224L361.112 190.357L337.728 157.342L336.527 129.256Z" fill="#B16668"/>
<path d="M335.908 128.809C342.81 128.459 347.107 129.824 351.266 133.641C355.424 137.458 376.849 171.838 376.849 171.838C376.849 171.838 373.765 178.881 355.69 188.086L337.994 165.134L335.908 128.809Z" fill="#166FFF"/>
<path opacity="0.2" d="M335.908 128.809C342.81 128.459 347.107 129.824 351.266 133.641C355.424 137.458 376.849 171.838 376.849 171.838C376.849 171.838 373.765 178.881 355.69 188.086L337.994 165.134L335.908 128.809Z" fill="black"/>
<path d="M383.308 444.387C383.637 444.387 384.142 447.938 382.322 449.436C380.211 451.176 374.018 454.039 365.827 453.06C357.636 452.082 353.187 449.63 349.939 447.02C346.69 444.411 342.064 440.703 338.36 439.917C334.922 439.193 331.193 437.707 330.094 436.692C328.994 435.677 329.146 431.159 329.146 431.159L383.308 444.387Z" fill="#455A64"/>
<path d="M332.433 413.728C332.124 413.725 331.825 413.831 331.592 414.025C331.359 414.218 331.209 414.486 331.169 414.779C330.916 415.987 330.65 419.611 330.107 421.689C329.254 425.288 328.981 428.991 329.298 432.669C329.753 434.977 335.352 436.583 338.942 437.888C343.154 439.657 347.065 442.019 350.546 444.894C354.338 447.926 362.491 451.079 367.825 451.043C374.145 451.043 381.236 449.05 382.866 446.211C384.889 442.744 383.309 440.739 373.942 436.547C372.173 435.762 365.954 432.234 363.83 430.966C358.092 427.511 352.454 422.703 349.762 416.591C349.552 415.842 349.079 415.186 348.422 414.731C347.848 414.497 347.211 414.442 346.602 414.574C345.042 414.784 343.525 415.22 342.102 415.866C340.838 416.446 339.056 417.074 339.081 418.644C339.118 419.178 339.237 419.703 339.435 420.203C339.549 420.517 339.637 420.94 339.347 421.121C339.056 421.302 338.715 421.121 338.475 420.891C337.554 419.989 336.709 419.02 335.947 417.992C335.513 417.461 335.016 416.978 334.468 416.555C333.914 416.253 333.378 415.922 332.862 415.564C332.294 415.117 332.433 414.441 332.433 413.728Z" fill="#166FFF"/>
<path opacity="0.9" d="M332.433 413.728C332.124 413.725 331.825 413.831 331.592 414.025C331.359 414.218 331.209 414.486 331.169 414.779C330.916 415.987 330.65 419.611 330.107 421.689C329.254 425.288 328.981 428.991 329.298 432.669C329.753 434.977 335.352 436.583 338.942 437.888C343.154 439.657 347.065 442.019 350.546 444.894C354.338 447.926 362.491 451.079 367.825 451.043C374.145 451.043 381.236 449.05 382.866 446.211C384.889 442.744 383.309 440.739 373.942 436.547C372.173 435.762 365.954 432.234 363.83 430.966C358.092 427.511 352.454 422.703 349.762 416.591C349.552 415.842 349.079 415.186 348.422 414.731C347.848 414.497 347.211 414.442 346.602 414.574C345.042 414.784 343.525 415.22 342.102 415.866C340.838 416.446 339.056 417.074 339.081 418.644C339.118 419.178 339.237 419.703 339.435 420.203C339.549 420.517 339.637 420.94 339.347 421.121C339.056 421.302 338.715 421.121 338.475 420.891C337.554 419.989 336.709 419.02 335.947 417.992C335.513 417.461 335.016 416.978 334.468 416.555C333.914 416.253 333.378 415.922 332.862 415.564C332.294 415.117 332.433 414.441 332.433 413.728Z" fill="white"/>
<path d="M350.545 444.894C348.915 443.614 347.183 442.37 345.489 441.27C345.489 441.27 356.499 447.673 360.948 444.761C363.817 442.901 362.452 440.618 362.376 439.929C362.3 439.241 369.379 436.1 372.16 435.786C372.943 436.197 373.588 436.523 373.992 436.704C383.359 440.848 384.939 442.853 382.916 446.368C381.286 449.159 376.141 451.345 367.988 451.345C362.591 451.236 354.388 447.926 350.545 444.894Z" fill="#166FFF"/>
<path opacity="0.8" d="M350.545 444.894C348.915 443.614 347.183 442.37 345.489 441.27C345.489 441.27 356.499 447.673 360.948 444.761C363.817 442.901 362.452 440.618 362.376 439.929C362.3 439.241 369.379 436.1 372.16 435.786C372.943 436.197 373.588 436.523 373.992 436.704C383.359 440.848 384.939 442.853 382.916 446.368C381.286 449.159 376.141 451.345 367.988 451.345C362.591 451.236 354.388 447.926 350.545 444.894Z" fill="white"/>
<path d="M361.504 437.755C367.331 439.978 364.841 441.017 363.223 441.246C361.605 441.476 351.847 435.991 345.818 431.473C339.586 426.762 335.706 421.616 333.342 419.889C332.483 419.236 331.547 418.451 330.726 417.702C330.877 416.494 331.004 415.371 331.117 414.779C331.158 414.486 331.308 414.218 331.541 414.025C331.774 413.831 332.073 413.725 332.381 413.728C332.381 414.441 332.268 415.117 332.836 415.661C333.352 416.019 333.888 416.349 334.442 416.651C334.99 417.075 335.487 417.557 335.921 418.089C336.683 419.117 337.528 420.086 338.449 420.988C343.555 427.149 355.74 435.532 361.504 437.755Z" fill="#166FFF"/>
<path d="M362.857 440.425C362.748 440.426 362.64 440.398 362.548 440.342C362.455 440.287 362.381 440.208 362.335 440.114C362.288 440.019 362.271 439.914 362.285 439.811C362.299 439.708 362.344 439.61 362.414 439.531C363.785 438.17 365.446 437.107 367.285 436.413C369.123 435.719 371.096 435.41 373.07 435.508C373.211 435.537 373.336 435.614 373.42 435.726C373.505 435.838 373.543 435.975 373.527 436.112C373.511 436.249 373.443 436.376 373.335 436.468C373.227 436.559 373.088 436.609 372.943 436.607C371.16 436.537 369.382 436.823 367.721 437.447C366.061 438.071 364.554 439.02 363.299 440.231C363.244 440.292 363.176 440.341 363.1 440.374C363.024 440.408 362.941 440.425 362.857 440.425Z" fill="#FAFAFA"/>
<path d="M357.776 437.441C357.642 437.437 357.513 437.39 357.409 437.308C357.294 437.214 357.221 437.081 357.207 436.936C357.192 436.792 357.238 436.648 357.333 436.535C358.71 435.182 360.372 434.124 362.209 433.432C364.046 432.741 366.017 432.431 367.989 432.524C368.065 432.53 368.139 432.551 368.206 432.585C368.274 432.619 368.334 432.665 368.382 432.721C368.43 432.778 368.466 432.843 368.488 432.913C368.509 432.983 368.516 433.056 368.507 433.128C368.499 433.2 368.477 433.269 368.441 433.332C368.404 433.395 368.356 433.451 368.297 433.496C368.238 433.541 368.171 433.574 368.098 433.594C368.026 433.614 367.95 433.62 367.875 433.612C366.091 433.543 364.311 433.83 362.648 434.454C360.986 435.078 359.477 436.025 358.218 437.236C358.166 437.3 358.099 437.352 358.022 437.387C357.945 437.423 357.861 437.441 357.776 437.441Z" fill="#FAFAFA"/>
<path d="M352.656 434.614C352.525 434.612 352.399 434.565 352.302 434.481C352.242 434.437 352.193 434.381 352.156 434.318C352.119 434.254 352.096 434.185 352.087 434.113C352.079 434.041 352.086 433.968 352.108 433.898C352.129 433.829 352.165 433.764 352.213 433.708C353.588 432.35 355.252 431.288 357.092 430.597C358.933 429.905 360.907 429.598 362.882 429.698C363.032 429.714 363.17 429.786 363.265 429.9C363.36 430.013 363.404 430.157 363.387 430.302C363.37 430.446 363.294 430.578 363.176 430.668C363.057 430.759 362.906 430.801 362.755 430.785C360.972 430.714 359.193 431 357.533 431.624C355.872 432.248 354.366 433.196 353.111 434.409C353.056 434.473 352.987 434.525 352.908 434.561C352.829 434.597 352.743 434.615 352.656 434.614Z" fill="#FAFAFA"/>
<path d="M347.992 431.377C347.859 431.378 347.729 431.335 347.625 431.256C347.509 431.162 347.437 431.029 347.422 430.884C347.408 430.74 347.454 430.596 347.549 430.483C348.924 429.127 350.586 428.067 352.423 427.374C354.261 426.68 356.232 426.369 358.205 426.46C358.287 426.459 358.368 426.475 358.443 426.506C358.518 426.537 358.585 426.583 358.64 426.64C358.695 426.698 358.737 426.766 358.763 426.84C358.789 426.914 358.798 426.993 358.79 427.071C358.782 427.148 358.757 427.223 358.716 427.291C358.676 427.359 358.621 427.418 358.555 427.464C358.489 427.51 358.414 427.543 358.334 427.559C358.254 427.575 358.171 427.576 358.091 427.559C356.306 427.487 354.525 427.772 352.862 428.396C351.199 429.02 349.691 429.969 348.434 431.183C348.381 431.246 348.314 431.296 348.237 431.33C348.16 431.364 348.076 431.38 347.992 431.377Z" fill="#FAFAFA"/>
<path d="M343.379 428.151C343.25 428.15 343.125 428.107 343.025 428.031C342.965 427.986 342.915 427.93 342.878 427.867C342.842 427.804 342.818 427.734 342.81 427.662C342.802 427.59 342.809 427.517 342.83 427.448C342.852 427.378 342.888 427.313 342.936 427.258C345.186 424.527 350.293 422.74 354.578 423.187C354.652 423.194 354.725 423.216 354.79 423.251C354.856 423.286 354.914 423.332 354.961 423.388C355.008 423.445 355.043 423.509 355.064 423.578C355.085 423.647 355.091 423.719 355.083 423.791C355.075 423.862 355.052 423.931 355.016 423.994C354.979 424.057 354.931 424.112 354.872 424.157C354.813 424.202 354.746 424.236 354.674 424.256C354.601 424.275 354.526 424.282 354.451 424.274C350.596 423.875 345.843 425.482 343.834 427.898C343.784 427.971 343.717 428.033 343.638 428.077C343.559 428.121 343.47 428.146 343.379 428.151Z" fill="#FAFAFA"/>
<path d="M294.778 458.182C295.018 463.498 294.525 467.085 292.894 470.383C291.264 473.681 287.649 474.998 283.806 474.454C279.964 473.91 274.895 471.941 273.34 467.484C271.786 463.026 271.672 459.874 272.013 454.884L294.778 458.182Z" fill="#455A64"/>
<path d="M275.83 421.314C274.288 421.58 274.566 428.731 274.44 435.919C274.288 443.638 272.24 447.02 272.038 453.35C271.823 460.598 272.544 463.727 275.615 467.846C278.687 471.966 288.394 475.251 292.313 468.631C295.511 463.232 295.068 457.627 293.981 450.511C292.856 443.179 292.009 438.021 291.731 432.391C291.466 427.016 291.314 421.797 289.911 421.326C289.911 422.123 289.911 423.126 289.911 423.911C289.911 424.515 290.037 427.427 289.178 427.535C289.038 426.871 288.962 426.196 288.95 425.518C288.979 424.905 288.762 424.305 288.344 423.839C287.827 423.466 287.196 423.267 286.549 423.271C285 423.112 283.443 423.032 281.885 423.029C281.101 423.029 280.33 423.029 279.559 423.162C278.893 423.217 278.24 423.372 277.625 423.621C277.445 423.694 277.285 423.802 277.154 423.94C277.023 424.078 276.925 424.241 276.867 424.419C276.816 424.69 276.816 424.968 276.867 425.24C276.93 425.734 276.93 426.233 276.867 426.726C276.867 426.943 276.715 427.221 276.487 427.185C276.26 427.149 276.209 426.955 276.184 426.774C276.095 425.917 276.184 425.276 276.07 424.274C276.07 423.815 276.07 423.174 276.07 422.703C276.07 422.232 275.843 421.773 275.83 421.314Z" fill="#166FFF"/>
<path opacity="0.9" d="M275.83 421.314C274.288 421.58 274.566 428.731 274.44 435.919C274.288 443.638 272.24 447.02 272.038 453.35C271.823 460.598 272.544 463.727 275.615 467.846C278.687 471.966 288.394 475.251 292.313 468.631C295.511 463.232 295.068 457.627 293.981 450.511C292.856 443.179 292.009 438.021 291.731 432.391C291.466 427.016 291.314 421.797 289.911 421.326C289.911 422.123 289.911 423.126 289.911 423.911C289.911 424.515 290.037 427.427 289.178 427.535C289.038 426.871 288.962 426.196 288.95 425.518C288.979 424.905 288.762 424.305 288.344 423.839C287.827 423.466 287.196 423.267 286.549 423.271C285 423.112 283.443 423.032 281.885 423.029C281.101 423.029 280.33 423.029 279.559 423.162C278.893 423.217 278.24 423.372 277.625 423.621C277.445 423.694 277.285 423.802 277.154 423.94C277.023 424.078 276.925 424.241 276.867 424.419C276.816 424.69 276.816 424.968 276.867 425.24C276.93 425.734 276.93 426.233 276.867 426.726C276.867 426.943 276.715 427.221 276.487 427.185C276.26 427.149 276.209 426.955 276.184 426.774C276.095 425.917 276.184 425.276 276.07 424.274C276.07 423.815 276.07 423.174 276.07 422.703C276.07 422.232 275.843 421.773 275.83 421.314Z" fill="white"/>
<path d="M272.177 451.285C272.177 452.323 271.937 459.233 274.01 460.272C276.083 461.311 276.841 455.935 276.841 455.935C276.841 455.935 281.632 454.015 289.127 456.322C288.875 457.47 290.391 461.009 292.249 460.055C294.107 459.1 294.07 451.2 294.07 451.103C295.093 457.904 295.409 463.34 292.313 468.583C288.394 475.203 278.687 471.857 275.615 467.798C272.544 463.739 271.823 460.55 272.038 453.302C272.063 452.625 272.114 451.937 272.177 451.285Z" fill="#166FFF"/>
<path opacity="0.8" d="M272.177 451.285C272.177 452.323 271.937 459.233 274.01 460.272C276.083 461.311 276.841 455.935 276.841 455.935C276.841 455.935 281.632 454.015 289.127 456.322C288.875 457.47 290.391 461.009 292.249 460.055C294.107 459.1 294.07 451.2 294.07 451.103C295.093 457.904 295.409 463.34 292.313 468.583C288.394 475.203 278.687 471.857 275.615 467.798C272.544 463.739 271.823 460.55 272.038 453.302C272.063 452.625 272.114 451.937 272.177 451.285Z" fill="white"/>
<path d="M277.461 456.334C277.701 458.919 274.933 458.303 274.44 454.667C273.947 451.031 275.123 442.188 274.44 435.919C274.579 428.731 274.288 421.58 275.83 421.314C275.83 421.411 275.83 421.495 275.83 421.58L276.007 425.204C276.007 425.735 276.007 426.194 276.083 426.75C276.601 432.029 276.892 442.273 276.93 447.129C276.93 450.204 277.107 453.277 277.461 456.334Z" fill="#166FFF"/>
<path d="M288.281 456.334C288.63 453.281 288.803 450.212 288.799 447.141C288.799 442.309 289.128 432.186 289.633 426.895C289.824 425.908 289.901 424.903 289.861 423.899C289.861 423.174 289.861 422.256 289.861 421.483C289.867 421.431 289.867 421.378 289.861 421.326C290.885 421.676 291.238 424.527 291.466 428.115C291.466 430.193 291.394 432.794 291.251 435.919C290.569 442.188 291.757 451.091 291.251 454.715C290.745 458.339 288.041 458.919 288.281 456.334Z" fill="#166FFF"/>
<path d="M289.292 456.515H289.077C285.184 455.224 280.949 455.224 277.057 456.515C276.984 456.553 276.904 456.576 276.821 456.583C276.738 456.589 276.655 456.578 276.577 456.551C276.499 456.524 276.428 456.481 276.369 456.426C276.31 456.37 276.264 456.304 276.234 456.23C276.204 456.156 276.191 456.077 276.195 455.998C276.2 455.919 276.222 455.841 276.261 455.771C276.299 455.701 276.353 455.639 276.418 455.591C276.483 455.542 276.559 455.507 276.639 455.488C280.776 454.055 285.303 454.029 289.456 455.416C289.528 455.441 289.593 455.48 289.648 455.53C289.703 455.58 289.747 455.64 289.778 455.706C289.809 455.772 289.825 455.844 289.826 455.917C289.827 455.989 289.813 456.061 289.785 456.129C289.75 456.231 289.685 456.322 289.597 456.391C289.51 456.459 289.404 456.502 289.292 456.515Z" fill="#FAFAFA"/>
<path d="M290 450.801C289.933 450.813 289.864 450.813 289.797 450.801C285.414 449.495 280.719 449.495 276.336 450.801C276.262 450.838 276.18 450.859 276.097 450.863C276.014 450.867 275.931 450.853 275.854 450.824C275.776 450.795 275.706 450.75 275.649 450.692C275.591 450.635 275.547 450.566 275.52 450.491C275.492 450.416 275.482 450.336 275.49 450.256C275.497 450.177 275.523 450.1 275.564 450.031C275.606 449.962 275.662 449.903 275.73 449.856C275.797 449.81 275.875 449.778 275.956 449.763C280.587 448.357 285.559 448.357 290.189 449.763C290.332 449.812 290.45 449.913 290.516 450.044C290.582 450.175 290.592 450.325 290.543 450.463C290.496 450.564 290.42 450.649 290.324 450.709C290.227 450.769 290.115 450.801 290 450.801Z" fill="#FAFAFA"/>
<path d="M276.146 445.378C276.018 445.373 275.894 445.327 275.795 445.248C275.697 445.169 275.628 445.061 275.601 444.941C275.573 444.821 275.588 444.695 275.644 444.584C275.699 444.473 275.791 444.382 275.906 444.327C282.605 441.415 289.81 444.121 290.101 444.242C290.172 444.267 290.237 444.306 290.292 444.356C290.348 444.406 290.392 444.466 290.422 444.532C290.453 444.599 290.47 444.67 290.471 444.743C290.472 444.815 290.458 444.887 290.429 444.955C290.368 445.089 290.255 445.195 290.114 445.251C289.972 445.307 289.814 445.309 289.671 445.257C289.671 445.257 282.618 442.611 276.386 445.329C276.309 445.357 276.228 445.373 276.146 445.378Z" fill="#FAFAFA"/>
<path d="M276.02 440.316C275.911 440.318 275.803 440.289 275.711 440.233C275.619 440.178 275.546 440.097 275.502 440.002C275.467 439.937 275.447 439.866 275.442 439.794C275.437 439.721 275.447 439.649 275.471 439.58C275.496 439.511 275.535 439.448 275.586 439.394C275.637 439.34 275.698 439.296 275.767 439.265C278.035 438.277 280.495 437.754 282.987 437.729C285.48 437.704 287.95 438.178 290.24 439.12C290.379 439.183 290.486 439.296 290.538 439.434C290.59 439.572 290.583 439.724 290.518 439.857C290.45 439.987 290.331 440.087 290.187 440.135C290.042 440.182 289.884 440.173 289.747 440.111C287.606 439.256 285.306 438.829 282.986 438.856C280.667 438.883 278.378 439.364 276.26 440.268C276.185 440.301 276.103 440.318 276.02 440.316Z" fill="#FAFAFA"/>
<path d="M275.893 434.638C275.785 434.637 275.679 434.607 275.587 434.552C275.496 434.496 275.422 434.418 275.375 434.324C275.309 434.193 275.3 434.042 275.35 433.904C275.4 433.766 275.504 433.652 275.641 433.587C282.517 430.35 289.924 433.442 290.227 433.587C290.296 433.617 290.358 433.659 290.41 433.711C290.462 433.763 290.503 433.825 290.53 433.892C290.557 433.96 290.569 434.031 290.567 434.103C290.565 434.175 290.549 434.246 290.518 434.312C290.487 434.378 290.443 434.437 290.388 434.487C290.334 434.537 290.269 434.575 290.199 434.601C290.128 434.627 290.053 434.639 289.978 434.637C289.903 434.635 289.828 434.619 289.759 434.59C289.684 434.59 282.529 431.57 276.146 434.59C276.067 434.624 275.98 434.641 275.893 434.638Z" fill="#EBEBEB"/>
<path d="M285.323 201.603C281.088 210.912 278.336 220.773 277.158 230.861C274.2 267.56 275.792 320.253 275.792 320.253C275.451 324.094 272.91 332.804 271.204 349.68C269.182 369.624 271.722 437.211 271.722 437.211C271.722 437.211 284.198 444.327 293.918 436.233C293.918 436.233 305.206 343.326 307.822 323.49C310.11 306.192 316.493 268.744 316.493 268.744L323.963 324.119C323.963 324.119 323.268 339.69 323.761 349.752C324.317 361.458 327.743 421.097 327.743 421.097C327.743 421.097 344.895 426.641 352.555 418.765C352.555 418.765 354.375 336.041 354.641 321.956C355.146 294.329 354.641 243.98 349.951 215L285.323 201.603Z" fill="#166FFF"/>
<path opacity="0.2" d="M285.323 201.603C281.088 210.912 278.336 220.773 277.158 230.861C274.2 267.56 275.792 320.253 275.792 320.253C275.451 324.094 272.91 332.804 271.204 349.68C269.182 369.624 271.722 437.211 271.722 437.211C271.722 437.211 284.198 444.327 293.918 436.233C293.918 436.233 305.206 343.326 307.822 323.49C310.11 306.192 316.493 268.744 316.493 268.744L323.963 324.119C323.963 324.119 323.268 339.69 323.761 349.752C324.317 361.458 327.743 421.097 327.743 421.097C327.743 421.097 344.895 426.641 352.555 418.765C352.555 418.765 354.375 336.041 354.641 321.956C355.146 294.329 354.641 243.98 349.951 215L285.323 201.603Z" fill="black"/>
<path opacity="0.2" d="M316.493 268.732L319.173 251.119C319.173 251.119 334.745 249.126 341.798 242.796C339.778 245.817 337.086 248.376 333.914 250.29C330.742 252.205 327.168 253.428 323.445 253.873L320.702 269.807L323.066 317.474L316.493 268.732Z" fill="black"/>
<path d="M348.776 175.088C348.093 182.335 347.929 196.481 347.929 196.481C350.672 214.988 352.871 233.059 352.871 233.059C323.951 247.809 280.305 235.874 274.807 229.786C277.524 211.666 283.516 200.383 287.447 190.188L280.204 159.347C280.204 159.347 292.68 149.43 291.58 129.316L308.669 127.613L324.975 128.06L336.566 128.845C342.384 134.237 347.48 140.3 351.734 146.893C357.283 155.566 357.498 166.354 348.776 175.088Z" fill="#166FFF"/>
<path opacity="0.1" d="M329.146 173.952C329.146 173.952 321.562 180.33 312.334 177.806C309.741 177.19 307.358 175.947 305.414 174.195C303.47 172.443 302.031 170.241 301.237 167.803C301.237 167.803 300.933 177.757 312.613 180.439C315.732 181.197 319.024 180.976 322.001 179.808C324.979 178.639 327.484 176.586 329.146 173.952Z" fill="black"/>
<path d="M305.067 117.828C305.067 115.062 300.997 109.3 297.28 102.837C293.564 96.3742 289.557 85.9854 297.28 76.261C305.003 66.5366 322.472 60.7141 332.761 65.389C343.05 70.064 345.919 81.238 345.919 81.238L305.067 117.828Z" fill="#37474F"/>
<path d="M294.006 94.8159C294.012 94.7921 294.012 94.7672 294.006 94.7434C293.635 94.1591 293.049 93.7283 292.363 93.5354C291.592 93.2615 290.772 93.1343 289.949 93.1609C288.976 93.1609 287.118 93.8253 287.181 95.0333C287.244 96.4588 289.709 96.6158 290.771 96.5675C291.691 96.5535 292.605 96.4193 293.488 96.1688C293.503 97.8542 293.251 99.5321 292.742 101.146C292.43 101.884 291.936 102.538 291.301 103.054C290.876 103.371 290.381 103.592 289.853 103.699C289.325 103.805 288.779 103.796 288.255 103.671C287.661 103.574 287.914 104.383 288.255 104.504C289.243 104.766 290.296 104.692 291.232 104.293C292.169 103.894 292.931 103.195 293.387 102.318C294.651 100.179 294.183 97.703 294.727 95.3836C294.853 95.0454 294.386 94.7676 294.006 94.8159ZM289.191 95.5648C289.001 95.5648 288.508 95.444 288.394 95.2628C288.28 95.0816 288.457 95.0092 288.571 94.8884C289.024 94.5488 289.561 94.326 290.129 94.2414C290.698 94.1568 291.28 94.2132 291.82 94.4052C292.126 94.4681 292.427 94.557 292.717 94.6709C292.874 94.7375 293.026 94.8142 293.172 94.9004L293.362 94.9971H293.475C292.688 95.3653 291.824 95.5593 290.947 95.5648C290.365 95.643 289.773 95.643 289.191 95.5648Z" fill="#166FFF"/>
<path d="M338.955 72.5646C342.747 74.4491 348.207 78.4717 347.373 97.2561C346.715 111.933 341.053 118.698 338.525 119.979C335.997 121.259 332.66 121.573 327.528 121.054V129.401C327.528 129.401 333.443 144.404 329.854 152.027C325.103 149.571 320.659 146.609 316.607 143.196C307.911 135.211 305.307 131.467 305.307 131.467L304.991 109.252C304.991 109.252 301.578 111.668 296.244 107.705C291.833 104.444 290.05 98.6332 293.109 95.2871C293.911 94.443 294.926 93.8098 296.057 93.4482C297.187 93.0865 298.397 93.0084 299.568 93.2214C300.849 93.4919 302.047 94.04 303.07 94.8233C304.094 95.6067 304.915 96.6044 305.471 97.7393C305.711 98.1863 306.078 98.6574 306.596 98.7057C306.793 98.7137 306.99 98.6775 307.17 98.5999C307.35 98.5223 307.508 98.4054 307.633 98.2587C307.874 97.9614 308.051 97.6203 308.151 97.2561C309.251 94.1395 308.732 90.8779 309.503 87.7008C310.104 85.2506 311.232 82.9467 312.815 80.936C316.575 76.322 322.046 73.2646 328.097 72.3955C331.7 71.8596 335.372 71.9168 338.955 72.5646Z" fill="#B16668"/>
<path d="M346.058 81.5883C340.914 78.5574 334.832 77.3198 328.842 78.0851C322.293 79.0898 316.035 81.3853 310.464 84.8258C311.089 83.4497 311.873 82.1449 312.802 80.936C316.572 76.3214 322.051 73.2646 328.109 72.3954C331.703 71.8555 335.367 71.9086 338.942 72.5525C341.343 73.688 344.352 75.7295 346.058 81.5883Z" fill="#B16668"/>
<path d="M323.799 93.016C323.87 93.5878 323.701 94.1632 323.329 94.6161C322.957 95.0691 322.413 95.3625 321.814 95.432C321.53 95.4708 321.239 95.4538 320.961 95.3821C320.683 95.3104 320.424 95.1855 320.198 95.0149C319.972 94.8443 319.785 94.6316 319.648 94.3897C319.511 94.1478 319.426 93.8819 319.4 93.6079C319.354 93.048 319.535 92.4926 319.908 92.058C320.28 91.6234 320.814 91.3433 321.397 91.2765C321.675 91.239 321.957 91.2544 322.228 91.3217C322.499 91.389 322.754 91.5069 322.977 91.6686C323.2 91.8303 323.388 92.0326 323.529 92.2638C323.67 92.4951 323.762 92.7507 323.799 93.016Z" fill="black"/>
<path d="M324.444 107.077L332.18 108.949C332.074 109.446 331.865 109.918 331.563 110.335C331.261 110.752 330.874 111.107 330.425 111.377C329.976 111.646 329.474 111.826 328.95 111.906C328.426 111.985 327.891 111.961 327.376 111.837C326.341 111.556 325.458 110.905 324.912 110.019C324.366 109.132 324.198 108.079 324.444 107.077Z" fill="#9A4A4D"/>
<path d="M343.669 88.0874L339.182 85.9613C339.312 85.6759 339.502 85.4189 339.739 85.2058C339.977 84.9927 340.257 84.828 340.563 84.7218C340.87 84.6156 341.195 84.57 341.521 84.5879C341.846 84.6058 342.164 84.6867 342.455 84.8258C343.054 85.1193 343.514 85.6203 343.739 86.2265C343.965 86.8327 343.94 87.4983 343.669 88.0874Z" fill="black"/>
<path d="M321.891 86.4565L317.366 88.486C317.214 88.2107 317.122 87.9088 317.096 87.5986C317.07 87.2884 317.11 86.9763 317.214 86.6814C317.318 86.3865 317.484 86.1149 317.701 85.8831C317.918 85.6513 318.183 85.4642 318.478 85.3331C319.089 85.0657 319.784 85.0332 320.419 85.2423C321.055 85.4515 321.582 85.8863 321.891 86.4565Z" fill="black"/>
<path d="M341.672 92.0375C341.722 92.5962 341.543 93.1516 341.173 93.5866C340.802 94.0216 340.27 94.3021 339.687 94.369C339.404 94.406 339.116 94.3881 338.841 94.3164C338.565 94.2446 338.307 94.1204 338.083 93.9512C337.859 93.782 337.673 93.5713 337.536 93.3318C337.399 93.0922 337.314 92.8287 337.286 92.557C337.232 91.9963 337.41 91.4378 337.78 91.0002C338.151 90.5626 338.685 90.2803 339.27 90.2135C339.554 90.1764 339.843 90.1947 340.12 90.2672C340.396 90.3398 340.654 90.465 340.878 90.6355C341.103 90.8059 341.289 91.018 341.425 91.259C341.562 91.4999 341.645 91.7648 341.672 92.0375Z" fill="black"/>
<path d="M330.41 91.6147L331.51 103.634L338.019 101.279L330.41 91.6147Z" fill="#9A4A4D"/>
<path d="M327.478 121.054C322.068 120.293 310.603 117.526 308.619 113.467C309.436 115.785 310.969 117.811 313.017 119.278C316.481 121.778 327.478 124.013 327.478 124.013V121.054Z" fill="#9A4A4D"/>
<path d="M346.058 81.5883C346.058 81.5883 343.252 77.312 330.41 78.4354C323.352 79.1536 316.544 81.3388 310.464 84.8378C306.669 87.0469 303.47 90.0755 301.123 93.6804C300.616 93.4697 300.086 93.3157 299.543 93.2213C298.365 93.0042 297.149 93.0801 296.011 93.4419C294.874 93.8036 293.852 94.439 293.046 95.287L292.983 95.3595C290.644 91.2644 288.912 87.1089 289.886 81.0447C291.251 72.5041 300.112 66.5487 309.958 62.6106C321.6 57.8753 334.366 59.0833 339.472 63.6978C344.579 68.3124 345.919 81.1534 346.058 81.5883Z" fill="#166FFF"/>
<path d="M291.769 235.222C288.233 232.984 285.049 230.275 282.315 227.176C284.603 227.435 286.915 227.435 289.203 227.176C292.338 226.548 292.995 225.292 292.793 224.205C292.679 223.359 290.505 223.625 287.055 222.598C283.133 221.302 279.084 220.388 274.971 219.868C272.968 219.417 271.209 218.278 270.028 216.667C268.941 215.374 262.52 204.587 256.858 193.135L283.035 162.186C289.57 155.192 297.381 142.641 289.545 129.788C271.558 133.412 271.697 132.989 235.724 183.882C229.517 192.664 230.023 196.795 252.156 222.985C256.619 228.294 261.419 233.336 266.527 238.085C279.306 249.476 288.546 250.298 293.855 247.217C301.123 242.953 298.759 239.619 291.769 235.222Z" fill="#B16668"/>
<path d="M291.529 129.316C281.682 129.739 274.427 131.08 267.513 139.162C260.093 147.799 242.916 171.524 242.916 171.524C242.916 171.524 247.517 185.09 266.021 189.644L289.33 161.051C289.33 161.051 297.836 145.093 291.529 129.316Z" fill="#166FFF"/>
<path opacity="0.2" d="M291.529 129.316C281.682 129.739 274.427 131.08 267.513 139.162C260.093 147.799 242.916 171.524 242.916 171.524C242.916 171.524 247.517 185.09 266.021 189.644L289.33 161.051C289.33 161.051 297.836 145.093 291.529 129.316Z" fill="black"/>
<path d="M147.029 139.766C138.181 139.995 135.653 143.39 130.369 150.638C125.086 157.886 106.922 185.452 106.922 185.452L81.25 194.875L84.6881 209.201C84.6881 209.201 106.404 205.07 117.552 202.896C119.003 202.704 120.388 202.195 121.598 201.407C122.809 200.619 123.812 199.574 124.529 198.354C125.958 196.288 140.228 174.834 140.228 174.834L147.029 139.766Z" fill="#E6E6E6"/>
<path d="M153.803 139.995C145.448 138.002 141.757 142.411 138.977 147.34C134.527 155.143 131.848 171.089 131.469 200.226C131.228 218.962 124.403 241.612 123.189 259.418C121.344 286.091 120.484 306.832 120.484 306.832C137.013 304.788 153.671 303.852 170.337 304.029L153.803 139.995Z" fill="#E0E0E0"/>
<path d="M201.962 411.711C201.962 411.711 207.018 378.913 204.882 359.694C203.087 343.205 200.546 336.307 200.192 332.55C200.192 332.55 197.285 293.894 198.081 261.049C198.448 245.502 197.626 228.36 186.048 210.035L185.631 209.31C184.607 215.35 174.912 219.216 166.266 220.182C157.941 221.068 147.576 219.494 135.172 215.459C132.404 231.006 129.269 260.638 126.059 292.928C124.504 308.716 124.795 322.004 124.491 332.152C124.125 345.923 125.439 399.872 125.439 399.872V402.155C125.351 404.668 124.719 406.42 122.911 410.406C120.605 415.548 117.39 420.271 113.406 424.37C112.142 425.578 103.635 432.234 102.485 433.684C98.7815 437.55 106.087 440.014 111.598 439.495C117.413 438.939 126.463 437.079 129.13 433.829C130.912 431.643 132.454 423.827 134.275 421.604C140.43 414.127 142.958 410.901 143.123 408.461C143.35 404.028 141.859 402.228 141.34 399.715C141.985 394.509 153.058 367.256 153.791 352.047C154.145 344.799 152.527 331.946 152.527 331.946L162.095 279.048C164.257 293.906 168.415 327.368 169.844 338.059C171.904 352.736 179.488 377.56 184.266 397.058C186.061 404.39 186.946 407.652 187.388 412.435L187.502 414.151C187.502 416.313 187.729 439.422 188.462 444.351C189.979 454.582 199.472 453.604 201.279 445.426C202.809 438.468 201.949 416.76 202 414.09L201.962 411.711Z" fill="#FFA8A7"/>
<path d="M202.24 411.566C204.907 411.699 202.809 421.507 203.276 427.886C203.782 434.711 205.943 439.76 206.411 445.353C206.955 451.756 206.272 454.413 203.694 459.572C201.696 463.594 192.153 468.885 188.804 462.942C185.454 456.999 184.923 450.318 185.555 443.976C186.2 437.429 186.819 432.645 187.097 427.656C187.363 423.259 184.177 412.822 187.666 412.303L187.767 414.018C188.93 416.434 200.711 418.439 202.278 413.921L202.24 411.566Z" fill="#37474F"/>
<path d="M143.717 413.655C144.424 416.857 143.274 425.554 143.274 425.554C143.274 425.554 141.732 428.514 136.524 430.386L134.641 418.185L143.717 413.655Z" fill="#263238"/>
<path d="M136.525 430.35L125.325 426.436L122.937 416.748L135.437 423.307L136.525 430.35Z" fill="black"/>
<path d="M125.73 401.974V399.691C124.175 400.355 120.383 412.085 115.517 420.058C111.093 427.306 102.662 431.196 99.8685 434.336C96.0765 438.54 102.915 444.327 114.215 442.382C119.814 441.427 128.372 438.287 130.773 434.771C133.175 431.256 134.186 424.685 136.145 422.099C138.104 419.514 142.655 416.627 143.729 413.643C144.556 410.944 144.647 408.087 143.995 405.344C143.211 402.578 142.554 399.304 141.568 399.522L141.429 401.6C140.632 403.037 137.864 404.656 132.189 404.765C129.471 404.825 126.88 404.354 125.73 401.974Z" fill="#37474F"/>
<path d="M155.181 357.834C155.836 349.515 155.518 341.152 154.233 332.901L162.399 280.957C162.399 280.957 167.96 330.485 168.896 338.119C169.831 345.754 184.746 428.526 184.746 428.526C192.33 432.851 202.177 431.474 208.548 428.248C208.548 394.787 207.46 361.252 206.196 351.987C205.08 345.656 203.565 339.395 201.659 333.239C201.659 333.239 200.85 284.424 200.888 265.893C200.926 247.362 199.472 234.968 195.832 226.633C192.975 220.579 189.593 214.764 185.72 209.25C185.72 209.25 182.888 218.394 160.44 218.419C137.991 218.443 135.514 212.995 135.514 212.995C135.514 212.995 128.941 234.944 126.754 268.091C124.984 294.8 124.58 306.953 124.049 318.827C123.594 328.975 123.316 340.692 123.076 361.192C122.886 376.654 120.548 410.72 120.548 410.72C120.548 410.72 131.507 416.204 149.62 409.947C149.544 409.899 154.056 371.17 155.181 357.834Z" fill="#455A64"/>
<path d="M162.399 280.908L157.962 249.5C151.449 248.857 145.374 246.064 140.784 241.6C140.784 241.6 143.312 249.21 153.829 253.487L159.782 281.065L155.472 325.278L162.399 280.908Z" fill="#37474F"/>
<path d="M172.902 142.182L183.469 143.257C190.497 144.9 193.657 147.859 194.378 153.803C195.675 160.199 195.55 166.784 194.011 173.131C191.787 181.49 185.871 201.966 185.871 201.966C185.871 201.966 193.544 220.388 197.171 229.75C172.233 245.297 141.441 239.16 131.102 229.75C131.974 220.847 135.273 212.572 136.006 204.635C136.006 204.635 135.463 192.241 134.439 186.866C126.552 178.639 127.55 170.763 131.102 164.409C137.637 152.691 147.534 142.387 150.694 142.399L172.902 142.182Z" fill="#166FFF"/>
<path opacity="0.6" d="M172.902 142.182L183.469 143.257C190.497 144.9 193.657 147.859 194.378 153.803C195.675 160.199 195.55 166.784 194.011 173.131C191.787 181.49 185.871 201.966 185.871 201.966C185.871 201.966 193.544 220.388 197.171 229.75C172.233 245.297 141.441 239.16 131.102 229.75C131.974 220.847 135.273 212.572 136.006 204.635C136.006 204.635 135.463 192.241 134.439 186.866C126.552 178.639 127.55 170.763 131.102 164.409C137.637 152.691 147.534 142.387 150.694 142.399L172.902 142.182Z" fill="white"/>
<path d="M153.69 135.079C150.555 135.079 150.201 135.586 147.496 139.029C145.891 141.082 135.753 157.064 135.753 157.064C135.753 157.064 143.83 146.929 149.91 143.861C151.09 143.2 152.369 142.716 153.702 142.423L153.69 135.079Z" fill="#EBEBEB"/>
<path d="M173.497 142.182C173.497 142.182 164.788 164.071 162.803 178.929C160.819 193.787 167.632 238.665 168.681 265.265C169.452 284.593 171.373 312.522 171.373 312.522C177.553 313.1 183.786 312.913 189.916 311.966C200.154 310.118 203.327 308.511 209.179 304.863C209.179 304.863 204.123 256.217 201.595 237.312C199.257 219.518 189.246 201.966 189.246 201.966L201.279 154.358C201.279 154.358 200.685 146.337 192.773 144.09C185.277 141.952 173.497 142.182 173.497 142.182Z" fill="#FAFAFA"/>
<path d="M188.905 186.672C188.905 186.672 187.274 181.007 185.024 171.331C182.775 161.655 183.128 156.049 183.899 151.821L196.982 170.111L189.271 201.953C194.516 211.55 198.389 221.777 200.787 232.359C192.912 211.062 184.279 204.671 184.279 204.671L188.905 186.672Z" fill="#F5F5F5"/>
<path d="M176.783 169.12C176.783 168.202 176.872 166.209 177.036 163.708C177.857 151.435 178.237 140.358 173.901 139.464L173.522 141.155C176.682 141.807 175.633 157.632 175.241 163.599C175.064 166.16 174.925 168.178 174.976 169.193L176.783 169.12Z" fill="#166FFF"/>
<path d="M200.559 268.526C202.24 265.47 202.215 263.272 204.831 260.505C205.953 259.369 206.738 257.968 207.107 256.446C207.653 253.99 207.861 251.477 207.726 248.969L222.717 249.186C222.831 253.946 223.501 260.783 222.565 265.857C220.176 278.698 217.509 284.17 211.872 285.668C202.86 288.084 200.433 284.46 203.315 277.961C204.568 275.269 205.419 272.423 205.843 269.505C204.906 270.661 203.809 271.689 202.581 272.561C201.956 273.049 201.161 273.294 200.355 273.247C199.55 273.2 198.792 272.864 198.233 272.307C197.791 271.8 199.257 270.906 200.559 268.526Z" fill="#FFA8A7"/>
<path d="M185.947 142.81C185.947 142.81 195.629 142.23 201.305 146.663C206.98 151.097 210.494 163.491 214.653 175.885C218.811 188.279 222.54 200.335 223.905 209.02C225.055 216.268 223.564 254.719 223.564 254.719C217.617 255.254 211.63 254.244 206.234 251.796L202.24 210.796L186.01 168.697C183.001 160.311 182.979 151.209 185.947 142.81Z" fill="#F0F0F0"/>
<path d="M65.6901 172.454L113.722 188.653L126.944 243.279L125.869 244.366L80.2008 228.07L64.6157 173.541L65.6901 172.454Z" fill="#166FFF"/>
<path opacity="0.35" d="M112.648 189.741L125.869 244.366L126.944 243.279L113.722 188.653L112.648 189.741Z" fill="black"/>
<path opacity="0.25" d="M64.6157 173.541L112.648 189.741L125.869 244.366L80.2008 228.07L64.6157 173.541Z" fill="black"/>
<g opacity="0.2">
<path d="M87.3424 216.969C86.9 218.032 83.2218 220.4 77.8877 219.977L76.9902 216.824L87.3424 216.969Z" fill="black"/>
</g>
<g opacity="0.1">
<path d="M79.0757 184.739L78.6839 182.903C78.469 181.889 81.2877 182.42 85.0039 184.111L93.6749 186.624C97.3784 188.291 100.867 189.535 101.082 190.538L101.486 192.374L79.0757 184.739Z" fill="black"/>
</g>
<path d="M76.2317 176.453C76.0926 175.812 77.1797 175.945 78.7597 176.332L81.5278 177.238C81.5278 177.238 80.3902 174.58 86.9378 176.271C94.1426 178.144 94.2942 181.574 94.2942 181.574C95.423 182.042 96.5794 182.445 97.7576 182.782C100.147 183.531 100.412 183.991 100.614 184.619L100.968 185.827L76.4466 177.576C76.4466 177.576 76.3707 177.081 76.2317 176.453Z" fill="#37474F"/>
<path d="M78.7976 179.992C81.0728 180.971 82.0082 181.454 82.3495 183.012C82.7287 184.788 82.8171 185.537 82.8171 185.537L95.5709 190.369C95.5709 190.369 94.8757 187.747 94.7114 186.866C94.5471 185.984 96.2282 185.984 98.4276 186.962L97.9093 184.776L78.0771 177.733L78.7976 179.992Z" fill="#37474F"/>
<path d="M78.3682 184.824L77.9764 183C77.7615 181.985 80.5802 182.517 84.2964 184.208L92.9674 186.709C96.6583 188.376 100.16 189.62 100.374 190.635L100.766 192.471L78.3682 184.824Z" fill="#37474F"/>
<path d="M69.9499 192.229C69.9499 192.229 71.6563 198.269 72.0987 199.743C72.5411 201.217 80.4158 204.72 84.3595 205.191C91.9435 206.097 92.7398 207.607 90.9323 212.765C89.2638 217.476 84.3595 219.252 77.5592 218.491C75.4295 218.091 73.448 217.161 71.8146 215.795C70.1811 214.429 68.9537 212.676 68.2562 210.711C66.0442 204.671 67.2323 198.257 66.3602 194.73C65.488 191.202 68.0413 190.139 69.9499 192.229Z" fill="#FFA8A7"/>
<path d="M191.268 88.5827L184.544 93.8616C184.177 93.4604 183.9 92.9919 183.729 92.4846C183.558 91.9774 183.497 91.4421 183.55 90.9117C183.604 90.3812 183.77 89.8668 184.038 89.3998C184.307 88.9329 184.673 88.5233 185.113 88.1961C185.996 87.4962 187.126 87.1462 188.271 87.2181C189.416 87.29 190.489 87.7783 191.268 88.5827Z" fill="#455A64"/>
<path d="M173.623 135.876C173.623 131.829 183.495 125.765 188.589 117.236C193.683 108.708 191.117 94.7314 184.165 92.5811C184.165 92.5811 184.026 79.8488 166.052 76.4664C148.078 73.084 142.44 69.2909 139.255 68.7473C136.07 68.2037 135.463 79.0274 139.647 81.8662C136.638 80.7358 133.89 79.0532 131.557 76.9134C128.941 74.4974 127.904 87.0847 133.554 91.506C133.554 91.506 128.878 94.1274 129.446 100.747C129.557 103.158 130.491 105.468 132.105 107.324C133.718 109.181 135.923 110.481 138.383 111.027L173.623 135.876Z" fill="#455A64"/>
<path d="M142.971 88.184C138.636 89.9839 134.515 96.3139 134.578 114.035C134.578 129.051 139.445 132.856 141.884 133.967C144.324 135.079 149.064 134.523 153.69 133.834V142.472C153.69 142.472 150.239 145.721 151.44 147.775C152.641 149.828 157.153 151.544 164.08 149.454C171.98 147.038 173.788 142.049 173.788 142.049L173.939 123.156C173.939 123.156 176.606 125.825 181.271 121.948C185.138 118.722 186.529 113.178 183.622 110.133C180.714 107.089 176.998 106.848 173.649 110.254L171.222 109.046C166.937 108.563 160.579 107.838 155.978 105.64C144.096 99.7567 142.832 93.4509 142.971 88.184Z" fill="#FFA8A7"/>
<path d="M173.623 107.717V116.065C173.061 116.083 172.501 115.991 171.978 115.794C171.455 115.598 170.98 115.301 170.582 114.921C170.183 114.542 169.871 114.088 169.664 113.589C169.456 113.09 169.358 112.555 169.376 112.018C169.377 110.919 169.818 109.862 170.607 109.062C171.396 108.263 172.475 107.782 173.623 107.717Z" fill="#455A64"/>
<path d="M142.554 108.889C142.569 109.155 142.529 109.421 142.436 109.673C142.343 109.924 142.199 110.155 142.012 110.352C141.826 110.55 141.6 110.71 141.348 110.824C141.096 110.938 140.822 111.003 140.544 111.015C140.114 111.044 139.685 110.949 139.312 110.743C138.939 110.537 138.638 110.229 138.45 109.859C138.261 109.488 138.193 109.072 138.253 108.665C138.314 108.257 138.501 107.875 138.79 107.57C139.078 107.264 139.456 107.048 139.875 106.949C140.293 106.85 140.733 106.873 141.138 107.015C141.542 107.157 141.893 107.411 142.146 107.745C142.398 108.079 142.54 108.477 142.554 108.889Z" fill="#263238"/>
<path d="M159.188 109.771C159.207 110.057 159.166 110.344 159.068 110.614C158.97 110.885 158.816 111.135 158.616 111.348C158.416 111.562 158.174 111.735 157.903 111.858C157.632 111.982 157.339 112.052 157.039 112.066C156.577 112.1 156.114 112 155.711 111.78C155.308 111.561 154.983 111.231 154.778 110.833C154.573 110.435 154.497 109.988 154.56 109.549C154.622 109.109 154.821 108.698 155.131 108.368C155.44 108.037 155.846 107.803 156.296 107.694C156.745 107.586 157.219 107.609 157.655 107.76C158.092 107.911 158.471 108.183 158.744 108.541C159.017 108.9 159.172 109.328 159.188 109.771Z" fill="#263238"/>
<path d="M155.788 122.068L149.063 124.074C149.167 124.509 149.363 124.919 149.639 125.279C149.914 125.639 150.264 125.942 150.667 126.168C151.069 126.395 151.516 126.54 151.979 126.595C152.442 126.65 152.913 126.614 153.361 126.49C154.271 126.176 155.024 125.548 155.474 124.73C155.923 123.911 156.035 122.962 155.788 122.068Z" fill="#F28F8F"/>
<path d="M137.031 105.181L142.415 103.139C142.291 102.786 142.09 102.462 141.827 102.188C141.564 101.913 141.243 101.694 140.886 101.545C140.529 101.396 140.143 101.32 139.753 101.322C139.364 101.324 138.979 101.404 138.623 101.557C137.928 101.857 137.377 102.397 137.082 103.07C136.786 103.742 136.768 104.496 137.031 105.181Z" fill="#263238"/>
<path d="M147.648 107.258L147.913 119.568L140.999 118.094L147.648 107.258Z" fill="#F28F8F"/>
<path d="M153.69 133.786C158.556 133.242 168.592 130.573 170.223 126.683C169.57 128.636 168.32 130.357 166.633 131.624C163.6 134.112 153.677 136.697 153.677 136.697L153.69 133.786Z" fill="#F28F8F"/>
<path d="M173.851 135.139C175.115 134.897 176.265 135.417 177.301 137.108C178.338 138.799 180.626 142.351 180.626 142.351C180.626 142.351 181.801 154.141 180.626 157.064C179.602 159.613 168.327 169.144 168.327 169.144C168.327 169.144 171.272 179.738 171.373 183.205C171.474 186.672 164.383 199.876 163.587 206.628C163.587 206.628 161.362 185.404 162.399 177.781C164.219 164.493 170.729 147.424 173.775 142L173.851 135.139Z" fill="#EBEBEB"/>
<path d="M174.141 208.078C172.5 209.113 170.571 209.652 168.605 209.624L168.769 208.416C170.274 208.434 171.752 208.04 173.029 207.281C171.807 206.356 170.737 205.261 169.856 204.031C168.049 201.349 165.205 183.048 166.949 178.977C168.39 175.595 172.625 168.262 175.797 168.262H175.873C179.096 168.395 182.711 176.151 183.862 179.666C185.239 183.858 180.777 201.869 178.742 204.394C177.75 205.543 176.587 206.548 175.292 207.377C176.502 208.229 177.939 208.74 179.438 208.851V210.059H179.286C177.411 209.87 175.629 209.184 174.141 208.078ZM168.112 179.436C166.519 183.181 169.25 200.89 170.918 203.367C171.827 204.613 172.936 205.714 174.205 206.628C175.555 205.826 176.759 204.818 177.769 203.645C179.665 201.313 183.963 183.882 182.699 180.028C181.144 175.317 177.756 169.555 175.86 169.482C173.914 169.47 170.071 174.894 168.112 179.436Z" fill="#455A64"/>
<path d="M166.848 208.984C166.838 209.217 166.876 209.45 166.96 209.669C167.044 209.888 167.172 210.09 167.338 210.261C167.504 210.433 167.703 210.572 167.925 210.67C168.146 210.768 168.386 210.823 168.63 210.832C169.123 210.849 169.604 210.68 169.968 210.361C170.332 210.042 170.55 209.6 170.577 209.129C170.597 208.648 170.416 208.18 170.075 207.826C169.734 207.473 169.259 207.264 168.757 207.244C168.254 207.225 167.763 207.398 167.394 207.724C167.024 208.05 166.805 208.503 166.785 208.984H166.848Z" fill="#263238"/>
<path d="M177.642 209.383C177.621 209.854 177.796 210.314 178.129 210.661C178.462 211.009 178.926 211.216 179.418 211.237C179.911 211.258 180.392 211.091 180.756 210.772C181.12 210.454 181.337 210.011 181.359 209.54C181.369 209.307 181.332 209.074 181.249 208.854C181.165 208.635 181.037 208.433 180.872 208.261C180.708 208.089 180.509 207.949 180.287 207.851C180.066 207.752 179.827 207.696 179.583 207.685C179.339 207.675 179.095 207.711 178.865 207.791C178.636 207.87 178.425 207.992 178.245 208.15C178.065 208.308 177.919 208.498 177.815 208.709C177.712 208.921 177.653 209.149 177.642 209.383Z" fill="#263238"/>
<path d="M166.633 186.914L167.695 186.841C167.75 186.838 167.803 186.825 167.853 186.802C167.902 186.779 167.946 186.747 167.983 186.708C168.019 186.668 168.047 186.623 168.065 186.573C168.083 186.523 168.09 186.471 168.087 186.419C167.783 184.13 167.894 181.809 168.415 179.557C170.286 175.184 174.154 169.712 175.848 169.784C177.542 169.857 180.904 175.619 182.395 180.125C182.737 181.152 182.623 183.64 182.117 186.986C182.099 187.09 182.125 187.197 182.189 187.283C182.253 187.369 182.35 187.428 182.459 187.445L183.52 187.602C183.575 187.609 183.631 187.605 183.684 187.591C183.737 187.577 183.787 187.553 183.831 187.521C183.874 187.488 183.911 187.448 183.938 187.402C183.965 187.355 183.982 187.305 183.988 187.252C184.569 183.495 184.645 180.91 184.203 179.581C183.419 177.165 179.69 168.117 175.936 167.96C172.182 167.803 167.657 176.525 166.659 178.832C166.102 180.125 165.938 182.698 166.191 186.491C166.187 186.548 166.196 186.604 166.217 186.657C166.238 186.71 166.27 186.758 166.312 186.798C166.354 186.838 166.404 186.869 166.46 186.889C166.515 186.909 166.574 186.917 166.633 186.914Z" fill="#166FFF"/>
<path d="M56.0586 104.625V119.628L69.6592 112.127V127.142L83.2599 119.628V104.625L96.8605 97.1231V82.1077L83.222 89.6456L83.2599 74.606L69.6592 82.1077V97.1231L56.0586 104.625Z" fill="#166FFF"/>
<path d="M56.0585 119.628L50.2314 116.415V101.412L56.0585 104.625V119.628Z" fill="#166FFF"/>
<path d="M69.6591 97.1231L63.8321 93.9099L50.2314 101.412L56.0585 104.625L69.6591 97.1231Z" fill="#166FFF"/>
<path d="M69.6591 82.1077L63.832 78.8944V93.9099L69.6591 97.1231V82.1077Z" fill="#166FFF"/>
<path d="M83.2597 74.606L77.4327 71.3928L63.832 78.8944L69.6591 82.1077L83.2597 74.606Z" fill="#166FFF"/>
<path d="M69.6591 127.142L63.832 123.917V115.34L69.6591 112.127V127.142Z" fill="#166FFF"/>
<g opacity="0.2">
<path d="M56.0585 119.628L50.2314 116.415V101.411L56.0585 104.625V119.628Z" fill="black"/>
<path d="M69.6591 82.1077L63.832 78.8944V93.9099L69.6591 97.1231V82.1077Z" fill="black"/>
<path d="M69.6591 127.142L63.832 123.917V115.34L69.6591 112.126V127.142Z" fill="black"/>
</g>
<path d="M96.8602 82.1077L91.0332 78.8944L83.2343 83.1707L83.2217 89.6456L96.8602 82.1077Z" fill="#166FFF"/>
<g opacity="0.5">
<path d="M69.6591 97.1231L63.8321 93.9099L50.2314 101.412L56.0585 104.625L69.6591 97.1231Z" fill="white"/>
<path d="M83.2597 74.606L77.4327 71.3928L63.832 78.8944L69.6591 82.1077L83.2597 74.606Z" fill="white"/>
<path d="M96.8602 82.1077L91.0332 78.8944L83.2343 83.1707L83.2217 89.6456L96.8602 82.1077Z" fill="white"/>
</g>
<path d="M552.368 81.8661C552.368 83.3399 553.392 84.8258 555.44 85.9492C557.735 87.0633 560.272 87.6439 562.847 87.6439C565.421 87.6439 567.959 87.0633 570.254 85.9492C572.301 84.8258 573.325 83.3399 573.325 81.8661V68.6989C573.325 66.0398 572.22 63.4895 570.252 61.6092C568.285 59.7289 565.616 58.6725 562.834 58.6725C560.052 58.6725 557.383 59.7289 555.416 61.6092C553.448 63.4895 552.343 66.0398 552.343 68.6989L552.368 81.8661Z" fill="#F5F5F5"/>
<path d="M552.368 99.2493C552.368 101.908 553.473 104.459 555.441 106.339C557.408 108.219 560.077 109.276 562.859 109.276C565.642 109.276 568.31 108.219 570.278 106.339C572.245 104.459 573.351 101.908 573.351 99.2493V81.8661C573.351 83.3399 572.327 84.8258 570.279 85.9492C567.984 87.0633 565.446 87.6439 562.872 87.6439C560.298 87.6439 557.76 87.0633 555.465 85.9492C553.405 84.8258 552.368 83.352 552.368 81.8661V99.2493Z" fill="#166FFF"/>
<path opacity="0.4" d="M566.866 104.649C566.339 104.651 565.817 104.553 565.329 104.361C564.841 104.169 564.398 103.887 564.025 103.532C563.651 103.176 563.355 102.753 563.153 102.288C562.951 101.823 562.847 101.324 562.847 100.82V80.4166C565.431 80.3633 567.986 80.9457 570.266 82.1078C570.494 82.2286 570.683 82.3494 570.886 82.4822V100.82C570.882 101.836 570.457 102.81 569.704 103.528C568.95 104.246 567.93 104.649 566.866 104.649Z" fill="white"/>
<path d="M552.368 81.8661C552.368 83.3399 553.392 84.8258 555.44 85.9492C557.735 87.0633 560.272 87.6439 562.847 87.6439C565.421 87.6439 567.959 87.0633 570.254 85.9492C572.301 84.8258 573.325 83.3399 573.325 81.8661V68.6989C573.325 66.0398 572.22 63.4895 570.252 61.6092C568.285 59.7289 565.616 58.6725 562.834 58.6725C560.052 58.6725 557.383 59.7289 555.416 61.6092C553.448 63.4895 552.343 66.0398 552.343 68.6989L552.368 81.8661Z" fill="#F5F5F5"/>
<path opacity="0.1" d="M570.266 85.9492C567.971 87.0633 565.434 87.6439 562.859 87.6439C560.285 87.6439 557.747 87.0633 555.452 85.9492C553.405 84.8258 552.368 83.352 552.368 81.8661V83.352C552.368 84.8378 553.392 86.3116 555.44 87.4471C557.735 88.5612 560.273 89.1419 562.847 89.1419C565.421 89.1419 567.959 88.5612 570.254 87.4471C572.301 86.3116 573.325 84.8378 573.325 83.352V81.9024C573.338 83.352 572.314 84.8258 570.266 85.9492Z" fill="black"/>
<path d="M569.015 60.6053C567.452 59.5177 565.605 58.8645 563.678 58.718C561.751 58.5714 559.819 58.9373 558.095 59.775C556.372 60.6128 554.925 61.8898 553.914 63.4648C552.904 65.0398 552.369 66.8513 552.368 68.6989V81.8661C552.368 83.3399 553.392 84.8258 555.44 85.9492C556.383 86.4759 557.394 86.882 558.448 87.1572V66.899C558.461 61.1248 566.019 59.0108 569.015 60.6053Z" fill="#E0E0E0"/>
<path d="M566.866 63.4079C565.8 63.4079 564.778 63.8126 564.024 64.533C563.27 65.2534 562.847 66.2305 562.847 67.2493V87.6525C565.432 87.7015 567.987 87.115 570.266 85.9492C570.494 85.8284 570.683 85.7076 570.886 85.5868V67.2493C570.886 66.2305 570.462 65.2534 569.708 64.533C568.955 63.8126 567.932 63.4079 566.866 63.4079Z" fill="white"/>
<path opacity="0.1" d="M564.161 109.191L564.755 109.094L565.172 109.022L565.64 108.901L566.12 108.768L566.348 108.684C567.037 108.455 567.698 108.155 568.32 107.79C568.544 107.667 568.76 107.53 568.964 107.379C565.969 108.962 558.41 106.86 558.41 101.085V87.1089C557.356 86.8337 556.345 86.4276 555.402 85.9009C553.405 84.8258 552.368 83.352 552.368 81.8661V99.2493C552.372 101.907 553.478 104.456 555.445 106.335C557.411 108.215 560.078 109.272 562.859 109.276C563.188 109.276 563.517 109.276 563.833 109.276L564.161 109.191Z" fill="black"/>
</svg>
