<svg width="632" height="632" viewBox="0 0 632 632" fill="none" xmlns="http://www.w3.org/2000/svg">
<g clip-path="url(#clip0_1411_9575)">
<g style="mix-blend-mode:color-dodge" opacity="0.5">
<path opacity="0.1" d="M316 596C470.64 596 596 470.64 596 316C596 161.36 470.64 36 316 36C161.36 36 36 161.36 36 316C36 470.64 161.36 596 316 596Z" fill="white"/>
<path opacity="0.1" d="M316 632C490.522 632 632 490.522 632 316C632 141.478 490.522 0 316 0C141.478 0 0 141.478 0 316C0 490.522 141.478 632 316 632Z" fill="white"/>
<path opacity="0.1" d="M316 558C449.653 558 558 449.653 558 316C558 182.347 449.653 74 316 74C182.347 74 74 182.347 74 316C74 449.653 182.347 558 316 558Z" fill="white"/>
</g>
<path d="M279.389 388.581L278.462 394.278L277.474 400.401L268.402 456.233H253.575L262.636 400.401L263.634 394.278L264.562 388.581H279.389Z" fill="#EBEBEB"/>
<path d="M277.242 388.581C276.456 394.238 275.62 399.885 274.773 405.521L272.152 422.452L269.41 439.353L267.999 447.793L266.527 456.233L267.737 447.752L268.997 439.282L271.648 422.361L274.39 405.461C275.287 399.824 276.234 394.197 277.242 388.581Z" fill="#C7C7C7"/>
<path d="M278.462 394.278L277.474 400.401H262.636L263.634 394.278H278.462Z" fill="#C7C7C7"/>
<path d="M352.611 388.581L353.538 394.278L354.526 400.401L363.598 456.233H378.425L369.364 400.401L368.366 394.278L367.438 388.581H352.611Z" fill="#EBEBEB"/>
<path d="M354.808 388.581C355.584 394.238 356.431 399.885 357.278 405.521L359.888 422.452L362.63 439.353L364.051 447.793L365.523 456.233L364.314 447.752L363.054 439.282L360.433 422.361L357.691 405.461C356.754 399.824 355.806 394.197 354.808 388.581Z" fill="#C7C7C7"/>
<path d="M353.538 394.278H368.366L369.364 400.401H354.526L353.538 394.278Z" fill="#C7C7C7"/>
<path d="M278.845 372.874H267.092L268.554 361.864H277.384L278.845 372.874Z" fill="#C7C7C7"/>
<path d="M283.766 355.931C284.818 349.948 280.84 344.242 274.88 343.186C268.921 342.13 263.238 346.124 262.186 352.106C261.134 358.089 265.112 363.796 271.071 364.852C277.031 365.908 282.714 361.914 283.766 355.931Z" fill="#DBDBDB"/>
<path d="M281.08 355.933C282.142 351.435 279.371 346.925 274.891 345.859C270.411 344.794 265.919 347.576 264.857 352.074C263.796 356.571 266.567 361.081 271.047 362.147C275.527 363.213 280.019 360.43 281.08 355.933Z" fill="white"/>
<path d="M279.934 353.515C279.856 352.518 279.575 351.547 279.106 350.664C278.638 349.781 277.993 349.005 277.212 348.384C276.426 347.771 275.523 347.325 274.56 347.073C273.597 346.82 272.592 346.767 271.608 346.917C270.63 347.071 269.696 347.43 268.866 347.971C268.036 348.511 267.329 349.221 266.789 350.054C266.22 350.944 265.848 351.947 265.696 352.994C265.545 354.042 265.619 355.109 265.912 356.126C266.413 357.882 267.583 359.369 269.168 360.265C270.715 361.146 272.53 361.427 274.269 361.054C275.951 360.693 277.459 359.764 278.543 358.423C279.613 357.097 280.231 355.462 280.307 353.758C280.307 353.687 280.307 353.616 280.236 353.616C280.166 353.616 280.166 353.677 280.166 353.758C280.127 354.447 279.995 355.128 279.772 355.782C279.54 356.423 279.232 357.035 278.855 357.603C278.458 358.154 277.998 358.657 277.484 359.101C276.957 359.544 276.378 359.921 275.761 360.224C274.873 360.644 273.909 360.874 272.928 360.898C271.947 360.922 270.972 360.741 270.065 360.366C269.156 359.979 268.34 359.399 267.676 358.665C267.011 357.931 266.513 357.061 266.215 356.116C265.909 355.144 265.815 354.118 265.941 353.106C266.066 352.095 266.407 351.123 266.941 350.256C267.456 349.434 268.141 348.732 268.95 348.198C269.758 347.663 270.672 347.309 271.628 347.159C272.92 346.953 274.243 347.101 275.459 347.588C276.674 348.074 277.736 348.88 278.533 349.922C278.916 350.459 279.228 351.045 279.46 351.663C279.685 352.29 279.833 352.943 279.904 353.606C279.904 353.606 279.934 353.545 279.934 353.515Z" fill="#EBEBEB"/>
<path d="M278.956 353.525C278.884 352.671 278.637 351.841 278.232 351.087C277.826 350.333 277.269 349.671 276.597 349.143C275.923 348.623 275.153 348.242 274.331 348.023C273.509 347.804 272.652 347.751 271.809 347.868C270.967 347.994 270.161 348.297 269.444 348.757C268.726 349.218 268.114 349.825 267.646 350.539C267.149 351.302 266.82 352.162 266.681 353.063C266.542 353.963 266.596 354.884 266.84 355.761C267.048 356.521 267.405 357.232 267.889 357.853C268.374 358.473 268.977 358.99 269.662 359.374C271.009 360.147 272.595 360.386 274.108 360.042C275.567 359.726 276.874 358.915 277.807 357.745C278.731 356.593 279.265 355.175 279.329 353.697C279.329 353.636 279.329 353.575 279.269 353.575C279.208 353.575 279.188 353.626 279.188 353.697C279.106 354.883 278.709 356.025 278.039 357.006C277.369 357.986 276.45 358.769 275.378 359.273C274.615 359.646 273.781 359.851 272.933 359.876C272.085 359.9 271.242 359.743 270.459 359.415C269.671 359.08 268.965 358.577 268.391 357.941C267.816 357.305 267.387 356.551 267.132 355.731C266.871 354.89 266.795 354.001 266.91 353.127C267.024 352.254 267.327 351.415 267.797 350.671C268.241 349.969 268.832 349.372 269.528 348.921C270.224 348.47 271.009 348.177 271.829 348.06C272.927 347.896 274.048 348.027 275.078 348.44C276.109 348.852 277.012 349.531 277.696 350.408C278.025 350.865 278.296 351.361 278.502 351.885C278.691 352.423 278.823 352.98 278.896 353.545L278.956 353.525Z" fill="#EBEBEB"/>
<path d="M277.978 353.535C277.906 352.824 277.69 352.135 277.343 351.51C276.996 350.885 276.527 350.338 275.962 349.902C274.829 349.037 273.403 348.652 271.991 348.829C271.284 348.923 270.605 349.166 269.998 349.543C269.392 349.92 268.872 350.422 268.473 351.015C268.041 351.656 267.753 352.383 267.626 353.146C267.499 353.909 267.537 354.691 267.737 355.438C267.907 356.089 268.206 356.699 268.616 357.231C269.027 357.763 269.54 358.207 270.126 358.534C271.282 359.183 272.636 359.378 273.926 359.081C275.17 358.791 276.275 358.075 277.051 357.057C277.819 356.08 278.269 354.889 278.341 353.646C278.341 353.586 278.341 353.535 278.271 353.535C278.259 353.536 278.247 353.54 278.237 353.546C278.226 353.551 278.217 353.559 278.209 353.569C278.202 353.578 278.196 353.589 278.193 353.601C278.19 353.612 278.189 353.624 278.19 353.636C278.112 354.632 277.774 355.59 277.212 356.414C276.649 357.238 275.881 357.899 274.985 358.332C274.342 358.651 273.639 358.828 272.923 358.852C272.207 358.877 271.494 358.748 270.832 358.474C270.162 358.196 269.562 357.772 269.076 357.233C268.59 356.694 268.229 356.053 268.019 355.357C267.81 354.648 267.756 353.902 267.861 353.17C267.965 352.438 268.226 351.738 268.624 351.116C269.005 350.538 269.505 350.048 270.091 349.681C270.678 349.314 271.336 349.079 272.021 348.991C272.927 348.884 273.845 348.991 274.702 349.305C275.565 349.633 276.322 350.193 276.89 350.924C277.17 351.297 277.401 351.705 277.575 352.138C277.744 352.582 277.863 353.044 277.928 353.515C277.928 353.515 277.988 353.545 277.978 353.535Z" fill="#EBEBEB"/>
<path d="M277.011 353.545C276.862 352.404 276.272 351.368 275.368 350.661C274.463 349.981 273.336 349.671 272.213 349.791C271.641 349.858 271.09 350.044 270.595 350.339C270.1 350.634 269.672 351.03 269.34 351.501C268.979 352.021 268.732 352.612 268.618 353.235C268.503 353.858 268.522 354.499 268.674 355.114C268.808 355.655 269.052 356.163 269.39 356.605C269.728 357.047 270.154 357.415 270.64 357.684C271.598 358.217 272.719 358.372 273.785 358.119C274.798 357.873 275.698 357.288 276.335 356.46C276.942 355.651 277.293 354.678 277.343 353.667C277.345 353.656 277.344 353.645 277.341 353.635C277.338 353.624 277.334 353.615 277.327 353.606C277.32 353.598 277.312 353.591 277.303 353.585C277.294 353.58 277.283 353.577 277.273 353.576C277.273 353.576 277.202 353.576 277.192 353.656C277.132 354.458 276.869 355.231 276.428 355.902C275.987 356.574 275.382 357.121 274.672 357.492C274.153 357.764 273.581 357.92 272.996 357.948C272.412 357.976 271.828 357.875 271.285 357.654C270.735 357.426 270.244 357.077 269.848 356.632C269.451 356.187 269.161 355.657 268.997 355.083C268.836 354.508 268.801 353.904 268.895 353.313C268.989 352.722 269.209 352.159 269.541 351.663C269.853 351.206 270.259 350.822 270.733 350.537C271.206 350.252 271.735 350.074 272.283 350.013C273 349.948 273.723 350.041 274.4 350.287C275.081 350.539 275.682 350.969 276.144 351.531C276.365 351.829 276.551 352.152 276.698 352.493C276.841 352.848 276.946 353.218 277.011 353.596V353.545Z" fill="#EBEBEB"/>
<path d="M364.656 372.874H352.893L354.354 361.864H363.195L364.656 372.874Z" fill="#C7C7C7"/>
<path d="M369.789 354.969C370.696 348.955 366.576 343.34 360.585 342.429C354.594 341.517 349.002 345.655 348.094 351.669C347.186 357.684 351.307 363.298 357.298 364.21C363.289 365.121 368.881 360.984 369.789 354.969Z" fill="#DBDBDB"/>
<path d="M367.008 355.26C367.702 350.691 364.575 346.422 360.024 345.725C355.472 345.028 351.22 348.168 350.526 352.737C349.832 357.306 352.959 361.575 357.51 362.272C362.062 362.969 366.314 359.83 367.008 355.26Z" fill="white"/>
<path d="M365.745 353.515C365.666 352.518 365.383 351.548 364.915 350.665C364.447 349.783 363.803 349.006 363.023 348.384C362.237 347.771 361.334 347.326 360.371 347.073C359.408 346.821 358.403 346.768 357.419 346.917C356.441 347.071 355.507 347.43 354.677 347.971C353.847 348.511 353.14 349.221 352.601 350.054C352.027 350.943 351.652 351.945 351.501 352.993C351.349 354.041 351.425 355.11 351.724 356.126C352.22 357.884 353.391 359.372 354.979 360.265C356.526 361.147 358.341 361.428 360.08 361.054C361.762 360.693 363.27 359.764 364.354 358.423C365.424 357.097 366.042 355.462 366.118 353.758C366.118 353.687 366.118 353.616 366.047 353.616C365.977 353.616 365.977 353.677 365.967 353.758C365.927 354.446 365.798 355.126 365.584 355.782C365.352 356.426 365.041 357.038 364.656 357.603C363.868 358.731 362.802 359.634 361.562 360.224C360.677 360.647 359.714 360.878 358.734 360.902C357.755 360.927 356.781 360.744 355.877 360.366C354.965 359.98 354.148 359.4 353.482 358.666C352.815 357.932 352.315 357.062 352.016 356.116C351.711 355.143 351.62 354.116 351.747 353.105C351.874 352.094 352.216 351.122 352.752 350.256C353.267 349.434 353.952 348.732 354.761 348.198C355.569 347.663 356.483 347.309 357.439 347.159C358.731 346.953 360.054 347.101 361.27 347.588C362.485 348.074 363.547 348.88 364.344 349.922C364.723 350.462 365.035 351.046 365.271 351.663C365.492 352.291 365.638 352.943 365.705 353.606C365.705 353.606 365.745 353.545 365.745 353.515Z" fill="#EBEBEB"/>
<path d="M364.767 353.525C364.69 352.672 364.442 351.844 364.036 351.091C363.631 350.337 363.077 349.675 362.408 349.143C361.734 348.623 360.964 348.242 360.142 348.023C359.32 347.804 358.463 347.751 357.62 347.868C356.776 347.992 355.968 348.295 355.249 348.755C354.53 349.216 353.916 349.824 353.447 350.539C352.95 351.302 352.621 352.162 352.482 353.063C352.343 353.963 352.397 354.884 352.641 355.761C352.849 356.521 353.206 357.232 353.69 357.853C354.175 358.473 354.778 358.99 355.463 359.374C356.81 360.145 358.396 360.384 359.908 360.042C361.372 359.728 362.682 358.917 363.618 357.745C364.538 356.591 365.071 355.174 365.14 353.697C365.14 353.636 365.14 353.575 365.069 353.575C364.999 353.575 364.999 353.626 364.989 353.697C364.908 354.882 364.514 356.024 363.845 357.005C363.177 357.985 362.26 358.768 361.189 359.273C360.426 359.646 359.592 359.851 358.744 359.876C357.896 359.9 357.053 359.743 356.27 359.415C355.48 359.082 354.772 358.58 354.195 357.944C353.619 357.307 353.188 356.552 352.933 355.731C352.675 354.889 352.601 354.001 352.716 353.128C352.83 352.255 353.131 351.417 353.598 350.671C354.044 349.971 354.635 349.375 355.331 348.924C356.027 348.474 356.811 348.179 357.63 348.06C358.731 347.891 359.856 348.02 360.891 348.433C361.925 348.845 362.832 349.527 363.517 350.408C363.85 350.862 364.121 351.359 364.324 351.885C364.522 352.42 364.654 352.978 364.717 353.545C364.726 353.545 364.735 353.544 364.744 353.54C364.752 353.537 364.76 353.531 364.767 353.525Z" fill="#EBEBEB"/>
<path d="M363.789 353.535C363.712 352.825 363.494 352.137 363.148 351.513C362.801 350.889 362.334 350.341 361.773 349.902C360.639 349.039 359.214 348.654 357.802 348.829C357.098 348.926 356.423 349.17 355.82 349.547C355.217 349.924 354.701 350.424 354.304 351.015C353.873 351.656 353.584 352.383 353.455 353.145C353.327 353.908 353.362 354.689 353.558 355.437C353.732 356.088 354.035 356.697 354.447 357.229C354.858 357.761 355.372 358.204 355.957 358.534C357.109 359.182 358.46 359.377 359.747 359.081C360.994 358.79 362.102 358.075 362.882 357.057C363.652 356.082 364.1 354.889 364.162 353.646C364.162 353.586 364.162 353.535 364.102 353.535C364.09 353.536 364.078 353.54 364.068 353.546C364.057 353.551 364.048 353.559 364.04 353.569C364.033 353.578 364.027 353.589 364.024 353.6C364.021 353.612 364.02 353.624 364.021 353.636C363.941 354.631 363.603 355.588 363.041 356.412C362.478 357.236 361.711 357.898 360.816 358.332C360.173 358.65 359.471 358.828 358.754 358.852C358.038 358.877 357.325 358.748 356.663 358.473C355.993 358.196 355.394 357.772 354.907 357.233C354.421 356.694 354.06 356.053 353.85 355.357C353.642 354.648 353.588 353.902 353.692 353.17C353.796 352.438 354.057 351.738 354.455 351.116C354.833 350.537 355.331 350.047 355.916 349.68C356.501 349.313 357.158 349.078 357.842 348.991C358.751 348.883 359.673 348.99 360.533 349.305C361.396 349.633 362.153 350.193 362.721 350.924C363.002 351.297 363.232 351.705 363.406 352.138C363.566 352.585 363.684 353.046 363.759 353.515C363.767 353.524 363.777 353.531 363.789 353.535Z" fill="#EBEBEB"/>
<path d="M362.812 353.545C362.742 352.98 362.562 352.434 362.282 351.939C362.002 351.444 361.627 351.01 361.179 350.661C360.274 349.982 359.147 349.671 358.024 349.791C357.451 349.853 356.898 350.038 356.403 350.333C355.907 350.628 355.48 351.026 355.151 351.501C354.79 352.021 354.543 352.612 354.429 353.235C354.314 353.858 354.333 354.499 354.486 355.114C354.619 355.655 354.863 356.163 355.201 356.605C355.539 357.047 355.965 357.415 356.451 357.684C357.406 358.216 358.523 358.371 359.586 358.119C360.601 357.871 361.503 357.286 362.146 356.46C362.753 355.651 363.104 354.678 363.154 353.666C363.157 353.656 363.158 353.646 363.157 353.636C363.155 353.625 363.151 353.615 363.146 353.607C363.14 353.598 363.132 353.591 363.123 353.585C363.114 353.58 363.104 353.576 363.094 353.575C363.072 353.575 363.052 353.584 363.037 353.599C363.022 353.614 363.013 353.635 363.013 353.656C362.94 354.462 362.661 355.236 362.204 355.902C361.747 356.568 361.126 357.105 360.402 357.461C359.885 357.732 359.315 357.887 358.732 357.915C358.149 357.943 357.567 357.843 357.026 357.623C356.476 357.396 355.984 357.047 355.588 356.601C355.192 356.156 354.901 355.627 354.738 355.053C354.576 354.477 354.541 353.873 354.635 353.283C354.729 352.692 354.95 352.129 355.282 351.632C355.593 351.175 355.999 350.791 356.473 350.506C356.946 350.221 357.475 350.043 358.024 349.983C358.737 349.918 359.457 350.011 360.13 350.256C360.813 350.506 361.415 350.936 361.874 351.501C362.102 351.796 362.292 352.119 362.439 352.462C362.582 352.818 362.687 353.187 362.751 353.565C362.751 353.565 362.822 353.555 362.812 353.545Z" fill="#EBEBEB"/>
<path d="M389.886 367.268H242.104V395.644H389.886V367.268Z" fill="#DBDBDB"/>
<path d="M272.485 367.268L261.76 395.644H242.668L253.393 367.268H272.485Z" fill="#EBEBEB"/>
<path d="M311.605 367.268L300.88 395.644H281.789L292.514 367.268H311.605Z" fill="#EBEBEB"/>
<path d="M350.716 367.268L340 395.644H320.909L331.634 367.268H350.716Z" fill="#EBEBEB"/>
<path d="M389.846 367.268L379.121 395.644H360.029L370.755 367.268H389.846Z" fill="#EBEBEB"/>
<path d="M386.903 421.885H245.097V439.848H386.903V421.885Z" fill="#DBDBDB"/>
<path d="M274.239 421.885L263.957 439.838H245.642L255.933 421.885H274.239Z" fill="#EBEBEB"/>
<path d="M311.787 421.885L301.495 439.838H283.169L293.461 421.885H311.787Z" fill="#EBEBEB"/>
<path d="M349.314 421.885L339.023 439.838H320.707L330.999 421.885H349.314Z" fill="#EBEBEB"/>
<path d="M386.852 421.885L376.561 439.838H358.245L368.537 421.885H386.852Z" fill="#EBEBEB"/>
<path d="M535.542 232.115H421.457C421.457 232.115 432.767 201.097 450.175 201.097C467.583 201.097 473.036 222.501 473.036 222.501C473.036 222.501 484.78 210.873 494.436 210.873C504.093 210.873 512.469 226.246 512.469 226.246C512.469 226.246 526.108 217.978 535.542 232.115Z" fill="#EBEBEB"/>
<path d="M229.786 159.363H176.473C176.473 159.363 188.377 142.037 197.772 142.037C207.166 142.037 209.928 153.584 209.928 153.584C209.928 153.584 216.551 148.2 222.689 149.162C228.828 150.123 229.786 159.363 229.786 159.363Z" fill="#EBEBEB"/>
<path d="M517.378 284.132H464.065C464.065 284.132 475.98 266.807 485.364 266.807C494.749 266.807 497.521 278.354 497.521 278.354C497.521 278.354 504.143 272.96 510.282 273.931C516.421 274.903 517.378 284.132 517.378 284.132Z" fill="#EBEBEB"/>
<path d="M200.312 202.787H96.4575C96.4575 202.787 110.681 170.909 125.891 168.916C141.102 166.922 148.38 192.597 148.38 192.597C148.38 192.597 158.198 183.489 165.909 183.489C173.62 183.489 179.577 195.44 179.577 195.44C179.577 195.44 195.04 187.284 200.312 202.787Z" fill="#EBEBEB"/>
<path d="M100.197 456.486L153.641 456.243L207.096 456.152L313.984 455.98L420.882 456.152L474.327 456.243L527.771 456.486L474.327 456.729L420.882 456.82L313.984 456.992L207.096 456.82L153.641 456.729L100.197 456.486Z" fill="#263238"/>
<path d="M316 536.242C432.958 536.242 527.771 525.145 527.771 511.458C527.771 497.77 432.958 486.674 316 486.674C199.042 486.674 104.229 497.77 104.229 511.458C104.229 525.145 199.042 536.242 316 536.242Z" fill="#EBEBEB"/>
<path d="M343.69 516.083C345.786 516.791 405.803 517.004 408.101 515.556C408.978 515.01 409.512 506.236 409.865 495.62C409.946 493.323 410.006 490.955 410.067 488.536L414.925 456.405L374.807 456.142L371.017 488.293L371.168 495.377C371.168 495.377 348.155 505.619 345.807 507.47C343.458 509.322 341.603 515.364 343.69 516.083Z" fill="#EB9481"/>
<path d="M343.69 516.083C345.786 516.791 405.803 517.004 408.101 515.556C409.159 514.888 409.744 502.077 410.067 488.546L371.017 488.303L371.168 495.387C371.168 495.387 348.155 505.629 345.807 507.481C343.458 509.333 341.603 515.364 343.69 516.083Z" fill="white"/>
<path d="M343.69 516.083C345.786 516.791 405.803 517.004 408.101 515.556C408.978 515.01 409.512 506.236 409.865 495.62L371.168 495.367C371.168 495.367 348.155 505.608 345.807 507.46C343.458 509.312 341.603 515.364 343.69 516.083Z" fill="#166FFF"/>
<path d="M344.567 513.673C354.647 513.461 395.229 513.552 405.188 514.108C405.269 514.108 405.269 514.169 405.188 514.179C395.219 514.604 354.616 514.179 344.557 513.835C344.345 513.825 344.355 513.673 344.567 513.673Z" fill="#263238"/>
<path d="M349.677 505.305C350.803 505.273 351.922 505.478 352.964 505.907C354.005 506.335 354.946 506.978 355.725 507.794C357.133 509.241 357.934 511.176 357.963 513.198C357.963 513.259 357.842 513.259 357.832 513.198C357.503 511.204 356.54 509.37 355.086 507.971C353.632 506.571 351.767 505.682 349.768 505.436C349.751 505.448 349.729 505.453 349.708 505.449C349.688 505.445 349.669 505.434 349.657 505.416C349.645 505.399 349.64 505.377 349.644 505.356C349.648 505.335 349.66 505.317 349.677 505.305Z" fill="#263238"/>
<path d="M367.267 496.359C371.299 496.359 375.956 497.765 378.446 501.075C378.546 501.206 378.365 501.338 378.244 501.277C374.715 499.413 370.998 497.93 367.156 496.855C367.091 496.84 367.034 496.8 366.998 496.743C366.962 496.686 366.95 496.617 366.965 496.551C366.979 496.485 367.019 496.428 367.076 496.392C367.133 496.356 367.201 496.344 367.267 496.359Z" fill="#263238"/>
<path d="M364.152 497.563C368.184 497.563 372.841 498.97 375.331 502.289C375.432 502.41 375.25 502.552 375.129 502.481C371.602 500.614 367.885 499.135 364.041 498.069C363.984 498.045 363.938 498.002 363.909 497.948C363.881 497.893 363.872 497.83 363.886 497.769C363.899 497.709 363.933 497.655 363.982 497.618C364.03 497.58 364.091 497.56 364.152 497.563Z" fill="#263238"/>
<path d="M361.037 498.777C365.069 498.727 369.726 500.174 372.226 503.493C372.317 503.615 372.136 503.756 372.015 503.696C368.49 501.821 364.772 500.338 360.927 499.273C360.861 499.259 360.804 499.218 360.768 499.161C360.732 499.104 360.72 499.035 360.735 498.97C360.75 498.904 360.79 498.847 360.847 498.811C360.903 498.775 360.972 498.763 361.037 498.777Z" fill="#263238"/>
<path d="M357.923 499.982C361.955 499.982 366.622 501.378 369.112 504.697C369.202 504.819 369.021 504.961 368.9 504.9C365.375 503.025 361.657 501.542 357.812 500.477C357.746 500.463 357.689 500.422 357.654 500.365C357.618 500.308 357.606 500.24 357.62 500.174C357.635 500.108 357.675 500.051 357.732 500.015C357.789 499.979 357.857 499.967 357.923 499.982Z" fill="#263238"/>
<path d="M402.688 504.505C407.214 504.505 407.174 511.589 402.688 511.589C398.202 511.589 398.132 504.475 402.688 504.505Z" fill="#263238"/>
<path d="M363.255 491.481C365.412 494.304 368.718 496.096 371.581 498.089C371.648 498.128 371.723 498.149 371.801 498.153C371.878 498.157 371.955 498.143 372.025 498.111C372.096 498.08 372.158 498.032 372.207 497.972C372.256 497.912 372.29 497.841 372.307 497.765C372.323 497.769 372.339 497.768 372.354 497.764C372.37 497.76 372.384 497.752 372.396 497.741C372.408 497.73 372.417 497.717 372.422 497.702C372.428 497.686 372.43 497.67 372.428 497.654C372.148 493.944 370.9 490.374 368.809 487.301C367.559 485.53 364.999 483.871 362.953 485.561C360.906 487.251 361.985 489.842 363.255 491.481ZM363.074 488.131C363.497 483.739 367.438 487.119 368.305 488.465C368.851 489.343 369.34 490.256 369.767 491.198C370.615 493.159 371.366 495.162 372.015 497.199C370.674 496.126 369.243 495.175 367.862 494.163C366.219 492.958 362.852 490.56 363.074 488.131Z" fill="#263238"/>
<path d="M386.741 495.124C386.439 492.483 383.435 491.906 381.318 492.301C377.692 493.064 374.328 494.766 371.561 497.239C371.546 497.248 371.534 497.261 371.526 497.276C371.518 497.291 371.513 497.308 371.513 497.325C371.513 497.342 371.518 497.359 371.526 497.374C371.534 497.389 371.546 497.402 371.561 497.411C371.518 497.476 371.492 497.551 371.484 497.628C371.476 497.706 371.487 497.784 371.516 497.857C371.545 497.929 371.59 497.994 371.649 498.045C371.708 498.096 371.778 498.132 371.853 498.15C375.301 498.696 378.909 499.719 382.427 499.162C384.484 498.879 387.034 497.624 386.741 495.124ZM377.256 497.907C375.553 497.684 373.879 497.371 372.216 497.209C374.121 496.247 375.976 495.185 377.972 494.446C378.931 494.064 379.914 493.746 380.915 493.495C382.468 493.141 387.649 493.434 384.947 496.895C383.365 498.798 379.282 498.16 377.256 497.907Z" fill="#263238"/>
<path d="M473.893 307.843C473.893 307.843 427.293 387.427 426.043 393.013C424.128 401.605 413.947 486.39 413.947 486.39L365.463 485.52C365.463 485.52 373.819 410.754 381.732 386.132C387.437 368.391 428.553 309.554 428.553 309.554L473.893 307.843Z" fill="#37474F"/>
<path d="M369.888 478.052C376.853 478.001 401.529 477.728 410.792 478.588C410.811 478.588 410.829 478.595 410.842 478.609C410.855 478.622 410.863 478.64 410.863 478.659C410.863 478.678 410.855 478.696 410.842 478.709C410.829 478.722 410.811 478.73 410.792 478.73C407.607 479.185 376.853 478.466 369.888 478.244C369.873 478.249 369.856 478.25 369.841 478.248C369.825 478.245 369.81 478.239 369.797 478.23C369.784 478.22 369.774 478.208 369.766 478.194C369.759 478.179 369.755 478.164 369.755 478.148C369.755 478.132 369.759 478.116 369.766 478.102C369.774 478.087 369.784 478.075 369.797 478.066C369.81 478.056 369.825 478.05 369.841 478.048C369.856 478.045 369.873 478.047 369.888 478.052Z" fill="#263238"/>
<path d="M465.94 315.15C462.916 319.957 459.66 324.663 456.535 329.429C453.411 334.196 450.306 338.973 447.232 343.78C441.096 353.373 435.102 363.055 429.249 372.824C426.411 377.32 423.979 382.062 421.981 386.992C420.162 391.947 418.795 397.059 417.899 402.263C416.941 407.495 416.316 412.768 415.732 418.04C415.1 423.653 414.475 429.267 413.857 434.88C412.58 446.349 411.303 457.839 410.026 469.348C409.865 470.755 409.714 472.172 409.573 473.579C409.573 473.791 409.915 473.832 409.946 473.579C411.367 462.163 412.556 450.718 413.857 439.282L415.792 422.26C416.387 416.967 416.961 411.675 417.808 406.402C418.565 401.216 419.707 396.095 421.225 391.08C422.887 385.885 425.122 380.891 427.888 376.194C433.503 366.469 439.45 356.905 445.397 347.372C451.344 337.839 457.443 328.144 463.722 318.702C464.488 317.538 465.275 316.375 466.081 315.231C466.192 315.14 466 315.059 465.94 315.15Z" fill="#263238"/>
<path d="M432.696 522.772C434.904 522.914 494.456 507.157 496.311 505.173C496.393 505.053 496.441 504.913 496.452 504.768C496.684 502.805 493.64 495.468 491.503 486.067C491.372 485.469 490.253 482.616 488.681 478.76C484.356 468.185 476.645 450.009 476.645 450.009L437.766 460.028L452.08 488.92L454.015 495.711C454.015 495.711 434.349 511.508 432.555 513.927C430.761 516.346 430.499 522.61 432.696 522.772Z" fill="#EB9481"/>
<path d="M432.696 522.772C434.904 522.914 494.456 507.157 496.311 505.173C496.393 505.053 496.441 504.913 496.452 504.768C496.684 502.805 493.64 495.468 491.503 486.067C491.372 485.47 490.253 482.616 488.68 478.76L452.09 488.88L454.025 495.671C454.025 495.671 434.359 511.468 432.565 513.887C430.771 516.305 430.499 522.61 432.696 522.772Z" fill="white"/>
<path d="M432.696 522.762C434.904 522.924 494.456 507.157 496.311 505.173C497.017 504.424 495.474 496.338 491.503 486.067L454.025 495.721C454.025 495.721 434.359 511.498 432.565 513.937C430.771 516.376 430.499 522.61 432.696 522.762Z" fill="#166FFF"/>
<path d="M432.928 520.212C442.605 517.439 481.897 507.157 491.674 505.143C491.755 505.143 491.765 505.143 491.674 505.214C482.149 508.169 442.776 518.137 432.958 520.394C432.767 520.424 432.726 520.272 432.928 520.212Z" fill="#263238"/>
<path d="M435.76 510.82C436.835 510.509 437.963 510.425 439.072 510.575C440.181 510.725 441.247 511.105 442.202 511.69C443.927 512.732 445.19 514.398 445.73 516.346C445.73 516.406 445.629 516.437 445.609 516.346C444.779 514.495 443.373 512.964 441.603 511.984C439.832 511.004 437.793 510.627 435.791 510.911C435.784 510.921 435.776 510.928 435.765 510.933C435.755 510.937 435.744 510.939 435.732 510.938C435.721 510.936 435.711 510.931 435.702 510.924C435.693 510.917 435.687 510.907 435.683 510.897C435.679 510.886 435.679 510.874 435.682 510.863C435.684 510.852 435.69 510.842 435.698 510.834C435.706 510.826 435.716 510.821 435.727 510.818C435.738 510.816 435.75 510.816 435.76 510.82Z" fill="#263238"/>
<path d="M450.497 497.674C454.378 496.602 459.257 496.804 462.503 499.375C462.634 499.476 462.503 499.658 462.362 499.628C458.491 498.715 454.533 498.223 450.558 498.16C450.503 498.153 450.451 498.127 450.412 498.088C450.373 498.048 450.348 497.996 450.341 497.941C450.334 497.885 450.346 497.829 450.374 497.781C450.402 497.733 450.446 497.695 450.497 497.674Z" fill="#263238"/>
<path d="M447.796 499.637C451.677 498.565 456.555 498.767 459.801 501.338C459.932 501.439 459.801 501.621 459.65 501.591C455.777 500.697 451.82 500.226 447.846 500.184C447.774 500.191 447.702 500.168 447.647 500.122C447.591 500.075 447.556 500.009 447.549 499.936C447.542 499.864 447.565 499.791 447.611 499.735C447.657 499.679 447.724 499.644 447.796 499.637Z" fill="#263238"/>
<path d="M445.084 501.601C448.975 500.528 453.844 500.731 457.1 503.301C457.221 503.402 457.1 503.574 456.949 503.554C453.078 502.644 449.12 502.155 445.145 502.097C445.085 502.095 445.028 502.071 444.984 502.03C444.94 501.99 444.911 501.934 444.904 501.875C444.897 501.815 444.911 501.755 444.944 501.704C444.977 501.654 445.027 501.618 445.084 501.601Z" fill="#263238"/>
<path d="M442.383 503.554C446.264 502.491 451.143 502.694 454.388 505.264C454.519 505.366 454.388 505.538 454.247 505.507C450.375 504.606 446.418 504.121 442.443 504.06C442.377 504.068 442.309 504.049 442.256 504.007C442.203 503.966 442.169 503.905 442.161 503.837C442.153 503.77 442.172 503.703 442.214 503.65C442.255 503.596 442.316 503.562 442.383 503.554Z" fill="#263238"/>
<path d="M486.795 496.51C491.17 495.377 492.924 502.208 488.539 503.331C484.154 504.455 482.411 497.634 486.795 496.51Z" fill="#263238"/>
<path d="M445.377 493.98C448.189 496.156 451.838 497.016 455.104 498.241C455.179 498.262 455.257 498.264 455.333 498.249C455.409 498.233 455.481 498.2 455.542 498.152C455.602 498.104 455.651 498.042 455.684 497.971C455.716 497.9 455.732 497.823 455.729 497.745C455.745 497.745 455.762 497.74 455.776 497.732C455.791 497.724 455.803 497.713 455.812 497.699C455.821 497.685 455.826 497.669 455.828 497.652C455.829 497.635 455.826 497.619 455.82 497.603C454.608 494.08 452.494 490.939 449.691 488.495C448.038 487.109 445.135 486.148 443.582 488.313C442.03 490.479 443.744 492.715 445.377 493.98ZM444.369 490.793C443.663 486.431 448.33 488.708 449.51 489.781C450.263 490.487 450.967 491.244 451.616 492.048C452.94 493.722 454.174 495.465 455.316 497.269C453.743 496.581 452.12 496.035 450.528 495.397C448.612 494.648 444.752 493.191 444.359 490.793H444.369Z" fill="#263238"/>
<path d="M469.014 491.501C468.057 489.022 464.983 489.234 463.057 490.165C459.74 491.823 456.917 494.329 454.872 497.431C454.862 497.444 454.854 497.46 454.851 497.476C454.848 497.493 454.849 497.51 454.854 497.526C454.859 497.542 454.868 497.557 454.88 497.568C454.892 497.58 454.906 497.589 454.923 497.593C454.901 497.667 454.896 497.745 454.91 497.822C454.923 497.898 454.954 497.97 455 498.031C455.046 498.093 455.106 498.144 455.175 498.178C455.244 498.213 455.319 498.231 455.396 498.231C458.874 497.877 462.624 497.937 465.88 496.531C467.785 495.711 469.932 493.839 469.014 491.501ZM460.547 496.622C458.854 496.834 457.15 496.966 455.507 497.239C457.06 495.778 458.684 494.396 460.376 493.1C461.206 492.487 462.074 491.929 462.977 491.43C464.388 490.681 469.478 489.649 467.704 493.687C466.686 495.923 462.583 496.369 460.547 496.622Z" fill="#263238"/>
<path d="M449.419 487.028L492.985 475.552C492.985 475.552 451.274 393.145 451.657 387.457C451.959 382.397 482.209 338.193 483.913 329.915C486.644 316.364 480.072 304.261 473.702 296.772L428.644 309.523C428.644 309.523 432.232 317.346 438.825 322.284C438.825 322.284 410.51 369.747 409.784 385.373C409.059 400.998 449.419 487.028 449.419 487.028Z" fill="#37474F"/>
<path d="M448.592 478.932C454.902 477.12 453.068 477.556 459.408 475.805C462.513 474.955 482.905 469.358 485.929 469.065C485.999 469.065 486.029 469.166 485.929 469.197C483.147 470.451 462.664 475.694 459.549 476.483C453.179 478.102 454.983 477.566 448.592 479.124C448.522 479.134 448.471 478.932 448.592 478.932Z" fill="#263238"/>
<path d="M431.839 320.493C436.156 322.102 440.328 324.079 444.308 326.403C444.34 326.42 444.365 326.448 444.376 326.482C444.387 326.516 444.385 326.553 444.369 326.586C444.353 326.618 444.325 326.642 444.291 326.654C444.257 326.665 444.219 326.662 444.187 326.646C439.984 324.804 435.69 323.044 431.597 320.979C431.541 320.943 431.5 320.887 431.483 320.822C431.465 320.757 431.472 320.688 431.502 320.628C431.532 320.567 431.583 320.521 431.645 320.496C431.707 320.471 431.777 320.47 431.839 320.493Z" fill="#263238"/>
<path d="M437.131 319.38C437.451 320.175 437.721 320.99 437.938 321.819C438.174 322.466 438.28 323.154 438.25 323.843C438.237 323.866 438.218 323.885 438.195 323.899C438.172 323.912 438.146 323.919 438.119 323.919C438.093 323.919 438.067 323.912 438.044 323.899C438.021 323.885 438.001 323.866 437.988 323.843C437.61 323.238 437.325 322.58 437.141 321.89C436.869 321.131 436.577 320.382 436.335 319.623C436.164 319.137 436.96 318.894 437.131 319.38Z" fill="#263238"/>
<path d="M437.131 315.282C436.95 314.583 436.769 313.895 436.577 313.197C436.385 312.499 436.123 311.78 435.982 311.051C435.982 310.94 435.781 310.991 435.811 311.051C435.982 311.75 436.063 312.478 436.184 313.187C436.305 313.895 436.446 314.604 436.587 315.302C436.853 316.628 437.189 317.939 437.595 319.228C436.886 319.177 436.197 318.966 435.579 318.611C434.978 318.112 434.548 317.436 434.349 316.678C434.067 315.889 433.815 315.089 433.523 314.31C433.16 313.456 432.87 312.572 432.656 311.669C432.656 311.547 432.454 311.598 432.474 311.669C432.822 313.577 433.359 315.445 434.077 317.245C434.39 317.953 434.621 318.682 435.317 319.026C436.082 319.351 436.906 319.513 437.736 319.502C437.827 319.502 437.968 319.502 437.948 319.37C437.736 318.075 437.474 316.648 437.131 315.282Z" fill="#263238"/>
<path d="M437.877 323.863C436.164 326.97 434.208 329.935 432.374 332.971C430.539 336.007 428.886 338.962 427.213 341.998C423.846 348.131 420.721 354.426 417.868 360.822C416.457 363.986 415.113 367.187 413.836 370.425C412.508 373.648 411.414 376.962 410.56 380.343C409.759 383.717 409.608 387.214 410.117 390.645C410.754 394.163 411.658 397.628 412.818 401.008C415.154 408.751 417.996 416.33 421.326 423.697C421.437 423.94 421.84 423.758 421.749 423.505C419.37 416.765 416.911 410.046 414.764 403.266C412.697 396.647 410.238 389.786 411.377 382.753C412.013 379.379 412.972 376.074 414.24 372.885C415.463 369.606 416.766 366.364 418.151 363.159C420.892 356.834 423.957 350.691 427.102 344.569C428.856 341.138 430.7 337.748 432.484 334.327C434.269 330.907 436.023 327.366 438.028 324.046C438.089 323.854 437.968 323.772 437.877 323.863Z" fill="#263238"/>
<path d="M470.688 317.225C469.871 317.093 468.672 317.376 465.154 317.134C464.176 317.047 463.205 316.888 462.251 316.658C461.282 316.506 460.361 316.132 459.559 315.565C458.282 314.351 457.239 312.91 456.485 311.315C455.542 309.67 454.82 307.907 454.338 306.072C454.338 305.961 454.146 306.012 454.167 306.123C454.358 307.135 454.459 308.147 454.731 309.22C454.99 310.183 455.327 311.124 455.739 312.033C456.386 313.831 457.471 315.438 458.894 316.708C460.487 317.913 462.714 318.135 464.64 318.277C465.759 318.358 470.143 318.277 470.688 317.609C470.849 317.498 470.839 317.255 470.688 317.225Z" fill="#263238"/>
<path d="M482.169 466.14C476.672 454.927 471.296 443.643 466.041 432.289C460.786 420.934 455.685 409.495 450.739 397.972C449.371 395.266 448.28 392.428 447.483 389.501C446.808 386.293 447.796 383.429 449.147 380.525C451.66 375.258 454.47 370.139 457.563 365.193C460.587 360.214 463.853 355.346 467.049 350.459C470.353 345.671 473.382 340.697 476.121 335.562C478.6 330.593 479.981 325.3 479.276 319.734C478.57 314.168 476.181 309.027 473.631 304.139C472.956 302.854 472.26 301.579 471.615 300.284C471.565 300.192 471.413 300.284 471.474 300.375C474.316 305.495 477.048 310.869 478.379 316.567C479.064 319.406 479.275 322.341 479.004 325.25C478.649 328.186 477.826 331.047 476.564 333.72C474.195 338.942 470.889 343.759 467.774 348.546C464.66 353.333 461.343 358.312 458.239 363.27C455.085 368.234 452.188 373.359 449.56 378.622C448.411 380.98 447.151 383.44 446.869 386.081C446.566 388.985 447.604 391.758 448.723 394.379C453.562 405.774 458.662 417.078 463.843 428.322C469.024 439.565 474.397 450.849 479.85 462.021L481.866 466.241C481.997 466.474 482.249 466.312 482.169 466.14Z" fill="#263238"/>
<path d="M427.646 212.371C428.654 207.746 433.775 197.282 443.885 199.327C458.32 202.251 460.406 230.172 467.593 238.875C480.606 254.642 481.03 270.248 470.365 272.747C458.41 275.54 446.778 262.627 447.181 234.797C447.453 217.37 442.565 209.649 439.117 210.165C435.67 210.681 433.765 215.083 433.765 215.083L427.646 212.371Z" fill="#263238"/>
<path d="M428.13 210.641C428.844 208.483 429.815 206.421 431.023 204.498C432.234 202.528 433.841 200.832 435.74 199.519C437.707 198.185 440.041 197.505 442.413 197.576C444.765 197.647 447.066 198.289 449.116 199.448C451.116 200.649 452.835 202.268 454.156 204.194C455.463 206.087 456.549 208.125 457.392 210.266C458.993 214.512 460.116 218.925 460.739 223.422C459.64 219.074 458.218 214.815 456.485 210.681C455.586 208.66 454.481 206.737 453.189 204.943C451.934 203.173 450.319 201.69 448.451 200.592C446.581 199.521 444.483 198.914 442.333 198.821C440.204 198.72 438.095 199.271 436.285 200.399C434.428 201.575 432.815 203.101 431.537 204.893C430.869 205.787 430.253 206.72 429.692 207.686C429.128 208.617 428.614 209.619 428.13 210.641Z" fill="#263238"/>
<path d="M447.131 225.193C447.282 227.956 447.131 230.729 447.07 233.492C447.01 236.255 446.899 239.007 446.889 241.76C446.879 244.512 446.969 247.255 447.252 249.977C447.482 252.687 447.975 255.368 448.723 257.982C449.432 260.579 450.626 263.018 452.241 265.167C453.936 267.26 455.983 269.038 458.289 270.42C460.598 271.827 463.206 272.666 465.9 272.869C467.247 272.973 468.603 272.902 469.932 272.656C470.615 272.528 471.289 272.352 471.948 272.13C472.604 271.935 473.229 271.645 473.802 271.27C472.678 272.091 471.399 272.673 470.043 272.98C468.69 273.334 467.297 273.507 465.9 273.496C464.489 273.47 463.088 273.27 461.727 272.899C460.369 272.516 459.06 271.976 457.826 271.29C456.589 270.609 455.42 269.81 454.338 268.902L453.542 268.213L452.776 267.495C452.256 267.003 451.771 266.476 451.324 265.916C449.591 263.659 448.304 261.089 447.534 258.346C446.138 252.929 445.6 247.325 445.941 241.74C446.022 238.967 446.234 236.204 446.476 233.451C446.717 230.699 447.04 227.956 447.131 225.193Z" fill="#263238"/>
<path d="M426.82 212.452C426.658 211.167 427.434 209.416 428.241 209.103C429.047 208.789 435.478 210.863 436.154 212.412C436.829 213.96 434.228 215.61 434.228 215.61L426.82 212.452Z" fill="#166FFF"/>
<path d="M434.521 258.033C430.559 263.71 401.912 287.198 386.288 288.069C379.232 288.453 351.633 285.438 345.484 282.897C337.934 279.78 352.863 261.008 357.58 261.807C363.487 262.819 384.433 265.036 388.606 265.147C395.299 265.319 415.822 254.015 429.642 251.07C436.789 249.562 437.585 253.661 434.521 258.033Z" fill="#EB9481"/>
<path d="M434.208 259.105C429.833 266.766 414.391 279.902 414.391 279.902L411.76 275.024L403.051 258.923C403.051 258.923 417.687 253.074 427.394 250.23C428.534 249.879 429.7 249.622 430.882 249.461C437.152 248.651 437.968 252.527 434.208 259.105Z" fill="#DBDBDB"/>
<path d="M434.208 259.105C429.834 266.766 414.391 279.902 414.391 279.902L411.76 275.024L409.966 271.705L403.041 258.933C403.041 258.933 417.687 253.064 427.394 250.22C428.536 249.879 429.702 249.625 430.882 249.461C431.006 249.452 431.131 249.452 431.255 249.461C437.182 248.813 437.908 252.659 434.208 259.105Z" fill="#DBDBDB"/>
<path d="M415.953 254.966C416.289 256.363 416.289 257.82 415.953 259.217C415.617 257.82 415.617 256.363 415.953 254.966ZM411.81 263.305C411.1 263.294 410.391 263.379 409.704 263.558C410.392 263.733 411.1 263.818 411.81 263.811C412.524 263.817 413.235 263.732 413.927 263.558C413.236 263.379 412.524 263.294 411.81 263.305ZM433.22 251.424C432.507 251.413 431.795 251.499 431.104 251.677C431.795 251.856 432.507 251.941 433.22 251.93C433.93 251.935 434.638 251.85 435.327 251.677C434.638 251.504 433.93 251.419 433.22 251.424ZM424.975 261.99C425.474 262.499 426.036 262.941 426.648 263.305C426.286 262.691 425.845 262.126 425.338 261.625C424.837 261.118 424.275 260.676 423.665 260.31C424.03 260.922 424.47 261.487 424.975 261.99ZM416.84 272.11C417.339 272.622 417.901 273.068 418.514 273.435C418.154 272.818 417.714 272.253 417.203 271.755C416.705 271.243 416.142 270.797 415.53 270.43C415.877 271.044 416.305 271.608 416.8 272.11H416.84Z" fill="white"/>
<path d="M417.082 276.309C415.621 273.344 409.17 261.403 407.607 258.913C407.496 258.741 407.365 258.761 407.446 258.913C410.304 264.88 413.48 270.687 416.961 276.309C417.002 276.431 417.123 276.39 417.082 276.309Z" fill="#263238"/>
<path d="M434.208 259.105C429.833 266.766 414.391 279.902 414.391 279.902L411.76 275.024L409.966 271.705C418.342 263.406 428.432 253.195 431.255 249.441C437.182 248.813 437.908 252.659 434.208 259.105Z" fill="#A6A6A6"/>
<path d="M419.925 294.394L422.213 319.694C425.295 319.551 428.367 319.24 431.416 318.763C439.456 317.552 447.422 315.886 455.275 313.774C463.067 311.75 472.2 308.956 482.643 305.232C482.643 305.232 459.025 262.465 442.726 250.665C442.353 250.392 441.99 250.139 441.617 249.906C441.546 249.846 441.476 249.815 441.405 249.765C433.997 245.059 427.293 248.753 423.584 253.995C422.646 255.31 413.574 276.016 414.028 282.958C414.441 289.061 419.925 294.394 419.925 294.394Z" fill="#DBDBDB"/>
<path d="M433.029 267.313C433.208 268.003 433.292 268.715 433.281 269.428C433.292 270.144 433.207 270.859 433.029 271.553C432.851 270.859 432.766 270.144 432.777 269.428C432.77 268.715 432.855 268.004 433.029 267.313ZM438.522 293.807C438.517 294.523 438.601 295.237 438.774 295.932C438.957 295.239 439.042 294.524 439.026 293.807C439.037 293.09 438.952 292.376 438.774 291.682C438.601 292.377 438.517 293.091 438.522 293.807ZM456.112 278.728C456.101 279.445 456.186 280.159 456.364 280.853C456.7 279.457 456.7 278 456.364 276.603C456.186 277.297 456.101 278.012 456.112 278.728ZM423.856 290.579C423.845 291.295 423.93 292.01 424.108 292.704C424.444 291.307 424.444 289.85 424.108 288.453C423.93 289.147 423.845 289.862 423.856 290.579ZM444.177 271.927C443.464 271.922 442.753 272.007 442.061 272.18C443.452 272.518 444.903 272.518 446.294 272.18C445.605 272.007 444.897 271.922 444.187 271.927H444.177ZM459.176 290.801C458.462 290.785 457.75 290.871 457.06 291.054C458.451 291.391 459.902 291.391 461.293 291.054C460.605 290.876 459.897 290.791 459.186 290.801H459.176ZM436.375 305.759C435.665 305.747 434.956 305.832 434.269 306.012C434.956 306.191 435.665 306.276 436.375 306.265C437.089 306.275 437.801 306.19 438.492 306.012C437.803 305.839 437.096 305.754 436.385 305.759H436.375ZM462.936 302.844C462.226 302.838 461.518 302.923 460.829 303.097C462.217 303.435 463.665 303.435 465.053 303.097C464.361 302.923 463.65 302.838 462.936 302.844ZM433.22 251.394C432.507 251.383 431.795 251.468 431.104 251.647C431.795 251.826 432.507 251.911 433.22 251.9C433.93 251.905 434.638 251.82 435.327 251.647C434.637 251.484 433.929 251.409 433.22 251.424V251.394ZM444.006 256.08C444.504 256.592 445.067 257.038 445.679 257.405C445.323 256.787 444.881 256.221 444.369 255.725C443.87 255.213 443.308 254.767 442.696 254.4C443.059 255.025 443.503 255.601 444.016 256.11L444.006 256.08ZM466.031 279.75C466.529 280.263 467.092 280.708 467.704 281.076C467.344 280.46 466.903 279.895 466.394 279.396C465.893 278.886 465.331 278.44 464.72 278.07C465.081 278.696 465.521 279.271 466.031 279.781V279.75ZM430.811 282.28C431.31 282.793 431.872 283.238 432.485 283.606C431.732 282.366 430.695 281.326 429.461 280.57C429.832 281.208 430.286 281.793 430.811 282.311V282.28ZM451.072 299.413C451.57 299.926 452.133 300.372 452.745 300.739C451.993 299.5 450.956 298.459 449.721 297.703C450.095 298.33 450.549 298.905 451.072 299.413ZM425.025 261.969C425.524 262.479 426.086 262.921 426.699 263.285C426.336 262.67 425.896 262.106 425.388 261.605C424.887 261.098 424.325 260.656 423.715 260.289C424.063 260.906 424.486 261.478 424.975 261.99L425.025 261.969ZM423.594 275.267C424.102 274.765 424.546 274.2 424.914 273.587C424.3 273.948 423.737 274.39 423.241 274.903C422.731 275.403 422.287 275.968 421.921 276.583C422.512 276.218 423.057 275.783 423.544 275.287L423.594 275.267ZM471.424 293.341C471.934 292.843 472.375 292.278 472.734 291.661C471.496 292.413 470.459 293.455 469.71 294.697C470.319 294.326 470.878 293.877 471.373 293.362L471.424 293.341ZM426.205 300.587C426.712 300.087 427.153 299.522 427.515 298.907C426.278 299.659 425.24 300.701 424.491 301.943C425.101 301.572 425.66 301.123 426.154 300.608L426.205 300.587ZM453.199 265.704C453.709 265.203 454.153 264.639 454.519 264.024C453.905 264.389 453.342 264.835 452.846 265.349C452.336 265.85 451.892 266.415 451.526 267.029C452.119 266.665 452.664 266.226 453.149 265.724L453.199 265.704ZM446.506 311.142C447.019 310.644 447.463 310.079 447.826 309.463C447.212 309.827 446.649 310.273 446.153 310.788C445.642 311.289 445.199 311.853 444.833 312.468C445.426 312.103 445.971 311.665 446.455 311.163L446.506 311.142ZM446.506 283.818C447.022 283.323 447.466 282.757 447.826 282.139C446.592 282.894 445.555 283.935 444.802 285.175C445.419 284.797 445.982 284.338 446.476 283.808L446.506 283.818Z" fill="white"/>
<path d="M436.779 249.33C436.637 250.342 432.626 256.92 428.251 257.092C426.82 257.142 426.184 249.35 426.184 249.35L426.003 248.783L423.513 240.879L432.424 234.028L433.724 233.107C433.724 233.107 434.259 235.323 434.904 238.076L434.994 238.471C434.994 238.623 435.075 238.764 435.105 238.916L435.408 240.161C435.478 240.485 435.549 240.798 435.609 241.173L435.821 242.185C436.302 244.542 436.622 246.929 436.779 249.33Z" fill="#EB9481"/>
<path d="M434.944 238.076C434.329 240.411 433.214 242.583 431.677 244.441C430.139 246.299 428.217 247.798 426.043 248.834L423.554 240.93L432.424 234.028L433.724 233.107C433.724 233.107 434.259 235.273 434.944 238.076Z" fill="#263238"/>
<path d="M412.466 228.968C412.395 243.521 421.074 245.211 424.199 245.221C427.031 245.221 436.698 244.907 438.311 230.435C439.924 215.964 433.16 211.339 426.678 210.965C420.197 210.59 412.536 214.385 412.466 228.968Z" fill="#EB9481"/>
<path d="M437.474 231.417C435.105 231.66 434.45 226.671 434.45 226.671C434.45 226.671 429.622 226.812 427.858 219.87C428.045 221.959 428.837 223.946 430.136 225.588C430.136 225.588 421.578 224.92 417.808 217.836C417.808 217.836 419.33 221.449 420.701 222.714C418.525 222.097 416.618 220.764 415.288 218.929C415.288 218.929 413.897 223.098 412.778 224.262C412.778 224.262 411.125 216.935 414.159 213.13C420.55 205.034 431.043 212.118 431.043 212.118C431.043 212.118 436.91 213.009 439.006 217.421C442.242 224.171 437.474 231.417 437.474 231.417Z" fill="#263238"/>
<path d="M435.952 231.508C435.952 231.508 438.734 226.721 440.881 227.683C443.028 228.644 441.183 235.404 438.865 236.497C438.579 236.659 438.262 236.762 437.936 236.798C437.609 236.835 437.278 236.805 436.963 236.711C436.648 236.616 436.355 236.459 436.101 236.249C435.848 236.038 435.64 235.778 435.488 235.485L435.952 231.508Z" fill="#EB9481"/>
<path d="M414.28 226.023C414.621 225.964 414.957 225.883 415.288 225.78C415.644 225.74 415.977 225.584 416.236 225.335C416.307 225.244 416.345 225.132 416.345 225.016C416.345 224.901 416.307 224.788 416.236 224.697C416.063 224.546 415.854 224.443 415.629 224.398C415.405 224.354 415.172 224.37 414.955 224.444C414.494 224.532 414.081 224.788 413.796 225.163C413.741 225.248 413.71 225.347 413.706 225.449C413.703 225.551 413.728 225.652 413.778 225.741C413.828 225.829 413.901 225.903 413.99 225.952C414.078 226.002 414.179 226.027 414.28 226.023Z" fill="#263238"/>
<path d="M423.735 227.157C423.396 227.123 423.06 227.069 422.727 226.995C422.359 226.988 422.003 226.856 421.719 226.62C421.646 226.53 421.606 226.417 421.606 226.301C421.606 226.185 421.646 226.073 421.719 225.983C421.877 225.817 422.076 225.697 422.297 225.637C422.517 225.576 422.749 225.577 422.969 225.639C423.436 225.69 423.869 225.91 424.189 226.256C424.254 226.339 424.294 226.439 424.305 226.545C424.315 226.65 424.295 226.757 424.248 226.851C424.2 226.946 424.127 227.025 424.036 227.079C423.945 227.133 423.841 227.16 423.735 227.157Z" fill="#263238"/>
<path d="M421.84 230.132C421.84 230.132 421.911 230.132 421.911 230.223C421.911 231.235 422.042 232.368 422.919 232.682V232.743C421.84 232.601 421.628 231.083 421.84 230.132Z" fill="#263238"/>
<path d="M422.677 229.079C424.269 228.928 424.451 232.115 422.969 232.288C421.487 232.46 421.336 229.201 422.677 229.079Z" fill="#263238"/>
<path d="M423.312 229.211C423.604 229.383 423.896 229.687 424.239 229.707C424.582 229.727 424.904 229.363 425.146 229.029H425.197C425.197 229.646 425.035 230.294 424.39 230.425C423.745 230.557 423.382 230.021 423.14 229.413C423.11 229.322 423.201 229.15 423.312 229.211Z" fill="#263238"/>
<path d="M416.286 230.182C416.286 230.182 416.205 230.233 416.215 230.273C416.306 231.285 416.215 232.429 415.369 232.814C416.467 232.642 416.528 231.113 416.286 230.182Z" fill="#263238"/>
<path d="M415.328 229.201C413.726 229.201 413.806 232.399 415.328 232.419C416.85 232.439 416.679 229.221 415.328 229.201Z" fill="#263238"/>
<path d="M414.673 229.423C414.421 229.606 414.179 229.919 413.877 229.95C413.574 229.98 413.252 229.636 413.02 229.302H412.97C412.97 229.919 413.191 230.557 413.786 230.658C414.381 230.759 414.703 230.213 414.794 229.595C414.865 229.525 414.784 229.353 414.673 229.423Z" fill="#263238"/>
<path d="M417.949 234.595C417.949 234.595 417.808 236.052 417.808 236.791C419.165 236.749 420.521 236.892 421.84 237.216C422.153 237.307 422.132 237.044 421.78 236.851C420.728 236.283 419.532 236.04 418.342 236.153C418.292 235.961 418.604 233.856 418.493 233.856C417.952 233.924 417.423 234.067 416.921 234.281C417.123 231.154 417.828 228.077 417.979 224.96C417.979 224.936 417.97 224.913 417.953 224.896C417.936 224.879 417.913 224.869 417.889 224.869C417.865 224.869 417.842 224.879 417.825 224.896C417.808 224.913 417.798 224.936 417.798 224.96C416.946 228.226 416.419 231.569 416.225 234.939C416.256 235.313 417.677 234.726 417.949 234.595Z" fill="#263238"/>
<path d="M419.451 236.791C419.956 237.457 420.664 237.94 421.467 238.167C422.687 238.289 422.767 237.155 421.407 236.639C420.753 236.509 420.077 236.562 419.451 236.791Z" fill="#263238"/>
<path d="M421.487 238.167C421.028 238.09 420.599 237.887 420.247 237.58C420.469 237.186 421.034 236.74 422.364 237.378C422.576 237.843 422.263 238.248 421.487 238.167Z" fill="#FF99BA"/>
<path d="M434.652 247.589C436.426 247.589 439.409 248.034 443.441 251.111C443.441 251.111 435.035 257.901 427.213 257.901C424.42 257.901 423.584 253.985 423.584 253.985C423.584 253.985 427.344 247.65 434.652 247.589Z" fill="#EB9481"/>
<path d="M567.456 538.964H534.524C510.594 538.964 495.958 522.357 493.327 492.209C492.027 477.343 491.231 459.35 490.394 440.304C487.814 381.78 484.276 301.66 461.586 301.66H435.509V295.588H461.586C490.051 295.588 493.297 369.029 496.432 440.051C497.269 459.036 498.065 476.969 499.355 491.663C500.998 510.466 508.427 532.882 534.524 532.882H567.456V538.964Z" fill="#166FFF"/>
<path opacity="0.2" d="M454.661 295.568L453.37 301.64H435.509V295.568H454.661Z" fill="black"/>
<path d="M386.358 262.263H375.815V336.23H386.358V262.263Z" fill="#166FFF"/>
<path d="M375.825 267.728H335.737V330.006H375.825V267.728Z" fill="#166FFF"/>
<path opacity="0.2" d="M375.815 267.738V330.016H365.856L361.39 267.738H375.815Z" fill="black"/>
<path d="M304.973 278.91H335.727V288.221H304.973C303.919 288.221 302.909 287.8 302.164 287.053C301.419 286.305 301.001 285.291 301.001 284.233V282.908C301 282.383 301.101 281.864 301.3 281.379C301.499 280.894 301.792 280.453 302.161 280.082C302.53 279.71 302.968 279.416 303.45 279.215C303.933 279.014 304.45 278.91 304.973 278.91Z" fill="#DBDBDB"/>
<path d="M335.727 278.91H324.931V288.21H335.727V278.91Z" fill="#A6A6A6"/>
<path d="M304.973 309.523H335.727V318.834H304.973C303.919 318.834 302.909 318.413 302.164 317.666C301.419 316.918 301.001 315.904 301.001 314.846V313.521C301 312.996 301.101 312.477 301.3 311.992C301.499 311.507 301.792 311.066 302.161 310.695C302.53 310.323 302.968 310.029 303.45 309.828C303.933 309.627 304.45 309.523 304.973 309.523Z" fill="#DBDBDB"/>
<path d="M335.727 309.523H324.931V318.823H335.727V309.523Z" fill="#A6A6A6"/>
<path d="M448.663 292.927H417.344V305.344H448.663V292.927Z" fill="#166FFF"/>
<path d="M448.663 292.938H417.344V305.354H448.663V292.938Z" fill="#166FFF"/>
<path opacity="0.2" d="M428.342 292.938L427.313 305.354H417.344V292.938H428.342Z" fill="black"/>
<path d="M386.358 270.075H411.145C412.789 270.075 414.366 270.731 415.529 271.898C416.691 273.066 417.344 274.649 417.344 276.299V321.445C417.344 323.095 416.691 324.678 415.529 325.845C414.366 327.013 412.789 327.668 411.145 327.668H386.358V270.075Z" fill="#166FFF"/>
<path opacity="0.2" d="M399.543 270.075L395.078 327.668H386.369V270.075H399.543Z" fill="black"/>
<g opacity="0.2">
<path d="M397.235 281.713H395.259V316.02H397.235V281.713Z" fill="black"/>
<path d="M402.839 281.713H400.864V316.02H402.839V281.713Z" fill="black"/>
<path d="M408.444 281.713H406.468V316.02H408.444V281.713Z" fill="black"/>
</g>
<path d="M445.76 258.184C449.227 267.95 444.258 303.724 438.381 311.304C429.652 322.537 412.405 332.87 405.813 336.098C402.93 337.505 390.017 316.779 392.83 314.846C398.878 310.687 418.141 300.759 419.774 298.786C421.407 296.812 430.196 277.858 433.714 267.201C438.442 252.892 444.016 253.256 445.76 258.184Z" fill="#EB9481"/>
<path d="M405.793 336.159C396.65 341.401 378.456 340.632 375.976 339.873L372.771 338.861C368.95 337.778 367.922 335.663 367.922 335.663C367.922 335.663 363.144 335.724 362.62 332.829C362.035 329.581 368.86 330.127 372.801 328.124C381.873 323.539 393.384 314.472 395.854 312.893L405.793 336.159Z" fill="#EB9481"/>
<path d="M385.633 330.006C383.008 331.387 380.29 332.58 377.498 333.579C374.383 334.485 371.206 335.162 367.993 335.603C367.977 335.608 367.964 335.619 367.955 335.632C367.945 335.646 367.94 335.662 367.94 335.678C367.94 335.695 367.945 335.711 367.955 335.725C367.964 335.738 367.977 335.749 367.993 335.754C374.299 335.582 380.439 333.678 385.744 330.249C385.875 330.168 385.764 329.945 385.633 330.006Z" fill="#263238"/>
<path d="M389.181 335.076C386.5 336.189 381.772 338.112 372.76 338.78C372.76 338.78 372.76 338.831 372.76 338.841C378.483 339.238 384.204 338.029 389.282 335.349C389.443 335.228 389.362 335.005 389.181 335.076Z" fill="#263238"/>
<path d="M383.334 321.92C384.272 320.908 383.717 320.362 381.238 320.807C378.758 321.252 369.333 325.159 368.255 321.748C367.176 318.338 380.562 313.015 384.746 312.579C388.525 312.383 392.314 312.495 396.076 312.913C393.676 314.472 387.991 318.803 383.334 321.92Z" fill="#EB9481"/>
<path d="M436.033 260.644C442.131 247.761 447.695 251.171 448.229 263.912C448.409 272.76 448.012 281.611 447.04 290.407L424.935 284.051C424.935 284.051 432.132 268.892 436.033 260.644Z" fill="#DBDBDB"/>
<path d="M441.536 253.135C442.771 253.89 443.808 254.931 444.56 256.171C443.326 255.415 442.289 254.374 441.536 253.135ZM432.777 269.448C432.766 270.164 432.851 270.879 433.029 271.573C433.207 270.879 433.292 270.164 433.281 269.448C433.292 268.735 433.207 268.023 433.029 267.333C432.855 268.024 432.77 268.735 432.777 269.448ZM444.187 271.948C443.474 271.942 442.763 272.027 442.071 272.201C443.462 272.538 444.913 272.538 446.304 272.201C445.613 272.02 444.902 271.928 444.187 271.927V271.948ZM430.811 282.31C431.31 282.823 431.872 283.269 432.484 283.636C431.732 282.397 430.695 281.356 429.46 280.6C429.834 281.228 430.288 281.803 430.811 282.31ZM446.475 283.808C446.991 283.313 447.436 282.747 447.796 282.128C446.561 282.884 445.525 283.925 444.772 285.164C445.399 284.792 445.972 284.336 446.475 283.808Z" fill="white"/>
<path d="M433.936 264.57C433.109 266.26 432.243 267.92 431.376 269.63C431.524 268.841 431.644 268.041 431.739 267.232H431.678C431.557 267.859 431.406 268.487 431.285 269.114C431.235 269.418 431.174 269.721 431.114 270.025C431.114 270.086 431.114 270.146 431.114 270.217C430.438 271.512 429.773 272.818 429.098 274.134C428.332 275.712 427.616 277.301 426.89 278.89C426.164 280.479 425.489 282.422 424.672 284.031C425.367 284.321 426.09 284.538 426.83 284.679C427.021 284.749 427.122 284.557 426.92 284.527C426.719 284.496 425.066 283.839 425.045 283.828C425.771 282.219 426.668 280.701 427.434 279.123C428.2 277.544 428.987 275.985 429.723 274.397C431.214 271.178 432.525 267.869 434.007 264.641C434.007 264.56 433.936 264.53 433.936 264.57Z" fill="#263238"/>
<path d="M449.147 272.241C448.945 272.899 448.713 273.557 448.542 274.265C448.482 274.549 448.411 274.822 448.34 275.105C448.421 272.798 448.495 270.497 448.562 268.203C448.25 271.968 447.927 275.723 447.685 279.487C447.334 283.092 447.17 286.713 447.191 290.336C446.529 290.178 445.854 290.073 445.175 290.022C445.908 290.335 446.677 290.556 447.463 290.68C448.018 287.037 448.058 283.009 448.24 279.345C448.29 278.333 448.32 277.321 448.361 276.239C448.482 275.601 448.663 274.974 448.834 274.346C449.006 273.719 449.137 272.99 449.278 272.322C449.227 272.221 449.157 272.201 449.147 272.241Z" fill="#263238"/>
<path d="M446.143 287.047C443.028 285.934 430.126 281.845 427.283 281.147C427.082 281.096 427.001 281.208 427.203 281.278C433.387 283.586 439.693 285.549 446.093 287.158C446.173 287.188 446.224 287.067 446.143 287.047Z" fill="#263238"/>
<path d="M337.773 283.616C340.797 284.547 340.182 280.398 340.182 280.398C340.182 280.398 342.551 286.146 346.069 285.893C349.587 285.64 348.498 280.651 348.437 280.286C348.558 280.59 350.877 285.812 354.385 285.195C357.892 284.577 356.209 279.7 356.088 279.396C356.3 279.639 359.112 282.867 361.693 281.784C366.088 279.922 359.072 271.462 359.586 267.616L365.765 267.798C365.968 267.779 366.17 267.748 366.37 267.707L366.602 264.54C364.627 263.735 362.719 262.774 360.896 261.666C358.568 260.35 356.32 259.156 354.647 259.115C353.896 259.075 353.152 259.279 352.526 259.696C351.9 260.114 351.424 260.723 351.169 261.433C351.169 261.433 349.355 258.559 346.573 258.964C345.151 259.176 344.224 261.656 344.224 261.656C343.777 261.021 343.164 260.523 342.452 260.217C341.74 259.912 340.958 259.811 340.192 259.925C338.237 260.33 337.612 262.759 337.612 262.759C337.612 262.759 335.132 261.291 333.267 262.364C329.527 264.449 331.241 281.592 337.773 283.616Z" fill="#EB9481"/>
<path d="M360.352 267.252L365.735 267.748C365.938 267.728 366.14 267.698 366.34 267.657C373.133 266.422 377.367 258.609 372.388 258.053C368.648 257.618 364.596 262.607 360.816 261.605L360.352 267.252Z" fill="#EB9481"/>
<path d="M337.48 263.073H337.39C336.533 269.059 337.51 275.165 340.192 280.58C340.283 280.752 340.595 280.671 340.535 280.469C338.68 274.85 337.651 268.989 337.48 263.073Z" fill="#263238"/>
<path d="M344.224 261.524C344.224 261.453 344.113 261.453 344.103 261.524C343.195 268.124 344.668 274.833 348.256 280.438C348.387 280.631 348.7 280.671 348.558 280.438C346.321 276.532 344.224 267.08 344.224 261.524Z" fill="#263238"/>
<path d="M356.491 279.639C353.014 274.133 351.633 268.061 351.119 261.625C351.119 261.544 350.998 261.564 350.978 261.625C350.383 264.843 351.139 268.912 351.986 272.029C352.725 274.935 354.209 277.597 356.29 279.75C356.391 279.841 356.572 279.76 356.491 279.639Z" fill="#263238"/>
<path d="M271.346 510.304C269.259 511.002 209.515 510.83 207.237 509.383C206.38 508.837 205.896 500.093 205.614 489.518C205.543 487.241 205.503 484.883 205.463 482.484C205.463 479.651 205.382 476.777 205.362 473.983C205.291 461.455 205.463 450.424 205.463 450.424H244.361V473.983V482.484L244.16 489.518C244.16 489.518 267.001 499.86 269.36 501.722C271.719 503.584 273.432 509.656 271.346 510.304Z" fill="#AD6359"/>
<path d="M271.346 510.304C269.259 511.002 209.515 510.83 207.237 509.383C206.38 508.837 205.896 500.093 205.614 489.518C205.543 487.241 205.503 484.883 205.463 482.484C205.463 479.651 205.382 476.777 205.362 473.983H244.341V482.484L244.14 489.518C244.14 489.518 266.981 499.86 269.34 501.722C271.698 503.584 273.432 509.656 271.346 510.304Z" fill="white"/>
<path d="M271.527 510.436C270.166 510.891 244.724 510.982 226.167 510.598C221.873 510.496 217.952 510.385 214.797 510.243C210.432 510.041 207.509 509.808 207.035 509.505C205.977 508.827 205.483 495.994 205.241 482.454H244.321L244.12 489.538C244.12 489.538 267.092 499.941 269.43 501.813C271.769 503.686 273.664 509.727 271.527 510.436Z" fill="#166FFF"/>
<path d="M270.64 508.027C260.56 507.744 219.938 507.582 209.958 508.078C209.878 508.078 209.878 508.128 209.958 508.138C219.938 508.634 260.57 508.462 270.64 508.189C270.882 508.179 270.892 508.027 270.64 508.027Z" fill="#263238"/>
<path d="M245.581 487.291C241.62 486.542 236.771 487.139 233.737 489.963C233.616 490.074 233.737 490.236 233.909 490.196C237.699 488.976 241.609 488.172 245.571 487.797C245.638 487.798 245.703 487.773 245.751 487.727C245.799 487.68 245.827 487.616 245.828 487.549C245.829 487.482 245.804 487.417 245.758 487.369C245.712 487.32 245.648 487.292 245.581 487.291Z" fill="#263238"/>
<path d="M248.464 489.052C244.503 488.293 239.654 488.89 236.61 491.724C236.499 491.825 236.61 491.997 236.781 491.956C240.577 490.73 244.494 489.919 248.464 489.538C248.516 489.522 248.562 489.491 248.595 489.447C248.628 489.403 248.645 489.35 248.645 489.295C248.645 489.24 248.628 489.187 248.595 489.143C248.562 489.099 248.516 489.067 248.464 489.052Z" fill="#263238"/>
<path d="M251.296 490.772C247.335 490.013 242.487 490.61 239.452 493.434C239.331 493.545 239.452 493.717 239.614 493.677C243.405 492.461 247.315 491.654 251.276 491.268C251.334 491.259 251.387 491.23 251.425 491.187C251.464 491.143 251.487 491.087 251.489 491.029C251.491 490.97 251.474 490.913 251.438 490.866C251.403 490.819 251.353 490.786 251.296 490.772Z" fill="#263238"/>
<path d="M254.149 492.513C250.188 491.754 245.339 492.351 242.305 495.175C242.184 495.286 242.305 495.458 242.476 495.418C246.263 494.196 250.17 493.389 254.129 493.009C254.187 493 254.239 492.971 254.278 492.927C254.317 492.884 254.339 492.828 254.342 492.769C254.344 492.711 254.326 492.653 254.291 492.607C254.256 492.56 254.206 492.527 254.149 492.513Z" fill="#263238"/>
<path d="M252.929 478.112C251.377 475.957 248.474 476.918 246.821 478.304C244.018 480.748 241.904 483.889 240.692 487.412C240.686 487.428 240.683 487.444 240.684 487.461C240.685 487.478 240.691 487.494 240.7 487.508C240.709 487.522 240.721 487.533 240.736 487.541C240.75 487.549 240.766 487.554 240.783 487.554C240.783 487.858 241.065 488.182 241.398 488.05C244.674 486.846 248.333 485.965 251.135 483.779C252.778 482.504 254.401 480.156 252.929 478.112ZM245.994 485.196C244.402 485.824 242.779 486.38 241.206 487.068C242.35 485.262 243.585 483.516 244.906 481.836C245.552 481.03 246.256 480.273 247.012 479.569C248.192 478.487 252.869 476.21 252.153 480.581C251.76 482.98 247.899 484.437 245.994 485.196Z" fill="#263238"/>
<path d="M230.622 486.33C233.878 487.736 237.678 487.676 241.106 488.03C241.183 488.029 241.259 488.011 241.328 487.977C241.397 487.942 241.457 487.892 241.504 487.83C241.55 487.769 241.582 487.697 241.597 487.621C241.612 487.545 241.61 487.467 241.589 487.392C241.602 487.383 241.612 487.371 241.619 487.357C241.626 487.342 241.63 487.327 241.63 487.311C241.63 487.296 241.626 487.28 241.619 487.266C241.612 487.252 241.602 487.24 241.589 487.23C239.555 484.129 236.747 481.617 233.445 479.944C231.489 479.013 228.405 478.81 227.477 481.29C226.55 483.769 228.717 485.51 230.622 486.33ZM228.838 483.496C227.064 479.448 232.155 480.46 233.566 481.219C234.471 481.723 235.343 482.284 236.177 482.899C237.873 484.193 239.502 485.574 241.055 487.038C239.362 486.765 237.658 486.633 235.955 486.421C233.919 486.168 229.816 485.722 228.838 483.496Z" fill="#263238"/>
<path d="M249.885 479.701L201.683 480.571C201.683 480.571 195.121 437.754 190.806 411.128C189.173 401.119 187.883 393.388 187.359 391.06C186.109 385.504 161.685 297.318 161.685 297.318L196.723 297.268H208.698C208.698 297.268 207.932 312.013 208.386 313.561C214.636 334.904 227.407 372.753 231.399 385.939C237.517 406.21 249.885 479.701 249.885 479.701Z" fill="#A6A6A6"/>
<path d="M245.5 472.283C238.586 472.233 214.051 471.959 204.838 472.82C204.825 472.825 204.813 472.834 204.805 472.846C204.798 472.857 204.793 472.871 204.793 472.885C204.793 472.9 204.798 472.913 204.805 472.925C204.813 472.937 204.825 472.946 204.838 472.951C208.013 473.407 238.586 472.698 245.511 472.476C245.526 472.48 245.542 472.48 245.558 472.477C245.573 472.473 245.588 472.466 245.6 472.456C245.612 472.446 245.622 472.433 245.629 472.419C245.635 472.404 245.638 472.388 245.637 472.372C245.636 472.357 245.632 472.341 245.624 472.327C245.616 472.313 245.605 472.302 245.591 472.293C245.578 472.284 245.563 472.279 245.547 472.277C245.531 472.275 245.515 472.278 245.5 472.283Z" fill="#263238"/>
<path d="M202.469 435.79C200.802 424.719 198.944 413.675 196.895 402.657C195.887 397.243 194.788 391.839 193.377 386.465C191.966 381.092 190.171 375.779 188.337 370.506C184.728 360.022 181.281 349.487 178.045 338.881C174.809 328.275 171.796 317.629 168.973 306.892C168.61 305.536 168.257 304.18 167.864 302.844C167.864 302.733 167.673 302.783 167.693 302.844C168.792 308.248 170.213 313.601 171.574 318.945C172.935 324.288 174.396 329.611 175.918 334.914C178.983 345.56 182.306 356.132 185.887 366.63C187.672 371.852 189.526 377.064 191.109 382.357C192.691 387.65 193.921 393.013 195.02 398.417C197.248 409.387 199.143 420.428 200.897 431.469C202.65 442.51 204.152 453.733 205.624 464.865C205.816 466.272 205.997 467.689 206.178 469.105C206.229 469.5 206.854 469.5 206.813 469.105C205.674 458.004 204.112 446.882 202.469 435.79Z" fill="#263238"/>
<path d="M196.723 297.248L190.806 411.128C189.173 401.119 187.883 393.388 187.359 391.06C186.109 385.504 161.685 297.318 161.685 297.318L196.723 297.248Z" fill="#263238"/>
<path d="M211.561 519.898C209.475 520.596 149.73 520.424 147.452 518.967C146.596 518.43 146.112 509.687 145.829 499.111C145.759 496.824 145.719 494.476 145.678 492.078C145.678 489.234 145.598 486.37 145.577 483.577C145.507 471.049 145.678 460.018 145.678 460.018H184.567V492.088L184.365 499.122C184.365 499.122 207.207 509.464 209.565 511.326C211.924 513.188 213.648 519.21 211.561 519.898Z" fill="#AD6359"/>
<path d="M211.561 519.898C209.475 520.596 149.73 520.424 147.452 518.967C146.595 518.43 146.112 509.687 145.829 499.111C145.759 496.824 145.719 494.476 145.678 492.078C145.678 489.234 145.598 486.37 145.577 483.577H184.557V492.088L184.355 499.121C184.355 499.121 207.196 509.464 209.555 511.326C211.914 513.188 213.648 519.21 211.561 519.898Z" fill="white"/>
<path d="M211.743 519.989C210.382 520.434 184.93 520.525 166.383 520.141C162.099 520.05 158.177 519.928 155.012 519.797C150.658 519.594 147.735 519.351 147.251 519.048C146.243 518.37 145.698 505.548 145.467 492.007H184.547L184.345 499.091C184.345 499.091 207.338 509.484 209.676 511.316C212.015 513.148 213.839 519.28 211.743 519.989Z" fill="#166FFF"/>
<path d="M210.886 517.57C200.806 517.297 160.173 517.125 150.204 517.621C150.124 517.621 150.124 517.681 150.204 517.691C160.173 518.177 200.816 518.015 210.886 517.742C211.097 517.732 211.097 517.58 210.886 517.57Z" fill="#263238"/>
<path d="M185.797 496.844C181.835 496.085 176.987 496.683 173.953 499.506C173.832 499.617 173.953 499.789 174.114 499.749C177.905 498.533 181.815 497.726 185.777 497.34C185.834 497.331 185.887 497.302 185.926 497.259C185.964 497.215 185.987 497.159 185.989 497.101C185.992 497.042 185.974 496.985 185.939 496.938C185.904 496.891 185.853 496.858 185.797 496.844Z" fill="#263238"/>
<path d="M188.649 498.585C184.688 497.826 179.839 498.423 176.805 501.247C176.684 501.358 176.805 501.53 176.977 501.49C180.766 500.267 184.677 499.46 188.639 499.081C188.696 499.071 188.748 499.041 188.786 498.996C188.824 498.952 188.845 498.896 188.846 498.837C188.847 498.779 188.828 498.722 188.793 498.676C188.757 498.63 188.706 498.598 188.649 498.585Z" fill="#263238"/>
<path d="M191.512 500.316C187.551 499.567 182.702 500.164 179.658 502.987C179.547 503.099 179.658 503.26 179.829 503.22C183.621 502.007 187.53 501.203 191.492 500.822C191.559 500.824 191.624 500.8 191.673 500.755C191.722 500.709 191.751 500.646 191.754 500.579C191.757 500.512 191.733 500.446 191.687 500.397C191.642 500.347 191.579 500.318 191.512 500.316Z" fill="#263238"/>
<path d="M194.365 502.056C190.403 501.307 185.555 501.904 182.521 504.728C182.4 504.839 182.521 505.001 182.682 504.961C186.474 503.748 190.383 502.944 194.344 502.562C194.411 502.565 194.476 502.541 194.526 502.495C194.575 502.45 194.604 502.386 194.607 502.319C194.609 502.252 194.585 502.187 194.54 502.137C194.494 502.088 194.431 502.059 194.365 502.056Z" fill="#263238"/>
<path d="M193.145 487.666C191.593 485.5 188.69 486.461 187.026 487.858C184.223 490.302 182.11 493.443 180.898 496.966C180.893 496.982 180.892 496.999 180.895 497.015C180.898 497.032 180.905 497.047 180.914 497.061C180.924 497.075 180.937 497.086 180.951 497.094C180.966 497.102 180.982 497.107 180.999 497.107C180.994 497.185 181.008 497.262 181.039 497.333C181.071 497.404 181.118 497.466 181.179 497.515C181.239 497.563 181.31 497.597 181.385 497.612C181.461 497.627 181.539 497.624 181.613 497.603C184.889 496.399 188.538 495.519 191.351 493.333C193.024 492.088 194.607 489.7 193.145 487.666ZM186.21 494.75C184.607 495.387 182.994 495.934 181.422 496.632C182.621 494.861 183.74 493.049 185.111 491.4C185.763 490.595 186.467 489.835 187.218 489.123C188.407 488.05 193.074 485.773 192.369 490.135C192.016 492.533 188.115 493.99 186.21 494.739V494.75Z" fill="#263238"/>
<path d="M170.848 495.883C174.114 497.29 177.904 497.229 181.341 497.583C181.419 497.584 181.497 497.566 181.566 497.53C181.636 497.495 181.697 497.444 181.743 497.381C181.789 497.318 181.82 497.244 181.832 497.167C181.845 497.089 181.839 497.01 181.815 496.935C181.831 496.93 181.845 496.922 181.857 496.91C181.869 496.899 181.878 496.884 181.884 496.869C181.89 496.853 181.892 496.837 181.89 496.82C181.889 496.804 181.884 496.788 181.876 496.774C179.822 493.676 176.996 491.171 173.68 489.507C171.725 488.576 168.64 488.374 167.713 490.853C166.786 493.333 168.923 495.063 170.848 495.883ZM169.074 493.039C167.3 488.991 172.39 490.003 173.801 490.772C174.708 491.269 175.581 491.827 176.412 492.442C178.107 493.742 179.735 495.127 181.291 496.591C179.587 496.308 177.884 496.187 176.18 495.974C174.134 495.721 170.032 495.276 169.054 493.039H169.074Z" fill="#263238"/>
<path d="M190 488.678H142.836C142.836 488.678 153.087 341.857 151.434 333.629C148.722 320.159 150.527 304.686 156.877 297.197H198.84C198.84 297.197 199.677 309.017 195.342 316.081C195.342 316.081 191.401 318.581 189.496 319.684L190 488.678Z" fill="#A6A6A6"/>
<path d="M185.605 481.017C179.073 480.855 180.958 480.804 174.416 480.713C171.221 480.663 150.224 480.369 147.2 480.845C147.13 480.845 147.13 480.966 147.2 480.976C150.224 481.492 171.211 481.422 174.416 481.401C180.948 481.401 179.073 481.31 185.605 481.209C185.625 481.202 185.643 481.19 185.655 481.172C185.668 481.155 185.675 481.134 185.675 481.113C185.675 481.092 185.668 481.071 185.655 481.054C185.643 481.036 185.625 481.023 185.605 481.017Z" fill="#263238"/>
<path d="M197.963 314.229C193.837 316.226 189.889 318.572 186.16 321.242C186.129 321.261 186.107 321.291 186.098 321.326C186.09 321.361 186.095 321.399 186.114 321.429C186.133 321.46 186.163 321.482 186.198 321.491C186.233 321.499 186.27 321.494 186.301 321.475C190.333 319.259 194.365 317.113 198.235 314.684C198.295 314.648 198.339 314.589 198.356 314.521C198.373 314.453 198.362 314.38 198.326 314.32C198.29 314.26 198.231 314.216 198.163 314.199C198.095 314.182 198.023 314.193 197.963 314.229Z" fill="#263238"/>
<path d="M192.611 313.622C192.372 314.439 192.183 315.271 192.046 316.111C191.875 316.772 191.831 317.459 191.915 318.135C191.915 318.267 192.127 318.257 192.187 318.135C192.504 317.498 192.721 316.815 192.833 316.111C193.034 315.332 193.256 314.563 193.427 313.784C193.548 313.288 192.772 313.116 192.611 313.622Z" fill="#263238"/>
<path d="M192.238 309.564C192.349 308.855 192.459 308.157 192.591 307.459C192.722 306.761 192.903 306.002 192.974 305.273C192.974 305.151 193.175 305.192 193.155 305.273C193.044 305.981 193.034 306.71 192.974 307.418C192.913 308.127 192.853 308.845 192.782 309.554C192.64 310.889 192.432 312.216 192.157 313.531C192.853 313.412 193.514 313.139 194.092 312.731C194.628 312.177 194.98 311.47 195.1 310.707C195.302 309.898 195.483 309.088 195.695 308.279C195.981 307.402 196.186 306.501 196.31 305.587C196.31 305.465 196.512 305.506 196.491 305.587C196.328 307.511 195.97 309.413 195.423 311.264C195.305 311.998 194.93 312.666 194.365 313.146C193.637 313.536 192.838 313.774 192.016 313.845C191.925 313.845 191.784 313.845 191.794 313.733C191.873 312.337 192.021 310.945 192.238 309.564Z" fill="#263238"/>
<path d="M158.248 333.093C157.946 329.996 157.442 326.92 157.109 323.823C156.479 317.623 156.853 311.362 158.218 305.283C158.218 305.172 158.067 305.121 158.046 305.283C156.853 310.622 156.298 316.085 156.393 321.556C156.665 327.021 157.633 332.405 157.714 337.88C157.794 343.354 157.371 348.961 157.018 354.486C156.665 360.012 156.303 365.618 155.95 371.174C154.518 393.529 153.198 415.884 151.837 438.25C151.461 444.484 151.098 450.724 150.748 456.972C150.386 463.317 149.942 469.672 149.74 476.038C149.74 476.584 150.527 476.544 150.577 476.038C151.525 464.815 152.069 453.551 152.785 442.328C153.5 431.105 154.135 420.064 154.801 408.932C155.466 397.8 156.141 386.668 156.817 375.536C157.139 369.977 157.475 364.418 157.825 358.858C158.147 353.323 158.55 347.777 158.631 342.231C158.675 339.18 158.548 336.129 158.248 333.093Z" fill="#263238"/>
<path d="M173.106 304.868C173.097 304.853 173.084 304.841 173.069 304.833C173.054 304.824 173.037 304.82 173.02 304.82C173.003 304.82 172.986 304.824 172.971 304.833C172.956 304.841 172.944 304.853 172.935 304.868C172.684 305.601 172.551 306.37 172.541 307.145C172.411 307.975 172.219 308.793 171.967 309.594C171.504 311.204 170.636 312.668 169.447 313.844C166.806 316.324 163.268 317.245 159.861 318.075C159.838 318.082 159.819 318.096 159.805 318.115C159.791 318.134 159.783 318.157 159.783 318.181C159.783 318.205 159.791 318.228 159.805 318.247C159.819 318.266 159.838 318.28 159.861 318.287C161.885 318.379 163.907 318.062 165.808 317.356C167.503 316.836 169.067 315.956 170.394 314.775C171.661 313.565 172.527 311.993 172.874 310.272C173.054 309.372 173.149 308.457 173.156 307.54C173.156 307.104 173.156 306.669 173.156 306.224C173.229 305.773 173.211 305.312 173.106 304.868Z" fill="#263238"/>
<path d="M192.863 248.075C193.73 254.956 207.156 280.54 221.45 291.874C226.691 296.033 254.482 298.492 261.437 297.946C269.571 297.319 270.791 277.878 266.235 276.36C260.54 274.468 234.191 272.13 229.02 270.288C222.73 268.001 211.279 253.317 200.392 244.229C194.798 239.523 192.197 242.782 192.863 248.075Z" fill="#AD6359"/>
<path d="M261.437 297.956C264.007 297.885 275.771 296.529 278.966 295.416C282.161 294.303 291.062 290.437 290.498 287.897C289.933 285.357 287.191 286.278 287.191 286.278C287.191 286.278 290.709 284.041 289.873 281.541C289.036 279.042 284.833 280.62 284.833 280.62C284.833 280.62 288.28 278.06 287.262 275.621C286.244 273.182 282.323 275.48 282.323 275.48C282.323 275.48 285.589 273.283 283.915 271.624C281.899 269.6 276.335 274.366 272.727 275.328C271.9 275.55 255.772 278.576 255.772 278.576L261.437 297.956Z" fill="#AD6359"/>
<path d="M282.736 275.287C278.633 278.748 276.245 279.558 271.023 280.277C271.005 280.283 270.99 280.294 270.979 280.31C270.968 280.325 270.962 280.344 270.962 280.363C270.962 280.381 270.968 280.4 270.979 280.415C270.99 280.431 271.005 280.442 271.023 280.449C276.194 280.206 279.339 279.629 282.907 275.48C283.059 275.277 282.897 275.125 282.736 275.287Z" fill="#263238"/>
<path d="M285.185 280.337C280.619 283.616 278.039 284.456 272.656 285.64C272.585 285.64 272.606 285.792 272.656 285.782C278.059 285.084 281.184 284.436 285.327 280.61C285.498 280.418 285.397 280.185 285.185 280.337Z" fill="#263238"/>
<path d="M286.909 286.328C282.262 289.132 279.47 290.235 274.067 290.69C274.04 290.69 274.015 290.701 273.996 290.72C273.977 290.739 273.966 290.764 273.966 290.791C273.966 290.818 273.977 290.844 273.996 290.863C274.015 290.882 274.04 290.892 274.067 290.892C278.778 291.177 283.412 289.593 286.97 286.48C287.242 286.268 287.201 286.156 286.909 286.328Z" fill="#263238"/>
<path d="M252.042 276.451C254.757 274.69 257.598 273.13 260.54 271.786C263.382 270.774 275.378 270.774 275.509 273.385C275.69 276.745 268.765 278.091 265.287 278.313C265.287 278.313 265.721 286.075 260.953 288.13C256.185 290.184 252.042 276.451 252.042 276.451Z" fill="#AD6359"/>
<path d="M275.267 274.326C273.251 277.504 268.644 277.494 265.287 277.959C265.237 277.962 265.187 277.977 265.144 278.004C265.101 278.031 265.065 278.068 265.04 278.112C265.015 278.157 265.001 278.207 265 278.258C265 278.309 265.012 278.359 265.035 278.404C265.035 281.673 264.027 286.268 261.155 288.2C261.064 288.261 261.155 288.393 261.225 288.342C264.562 286.682 265.912 282.27 265.721 278.657C269.168 278.242 273.785 278.05 275.297 274.336C275.307 274.316 275.277 274.306 275.267 274.326Z" fill="#263238"/>
<path d="M237.426 297.582C237.426 297.582 223.193 293.675 221.46 292.309C219.568 290.816 217.764 289.215 216.057 287.512C203.104 274.731 195.282 257.304 193.165 251.232C190.927 244.765 192.984 238.572 198.981 242.741C199.464 243.084 199.928 243.453 200.372 243.845C207.428 250.018 226.298 268.79 228.596 269.752C230.895 270.713 241.973 272.17 241.973 272.17L237.426 297.582Z" fill="#455A64"/>
<path d="M216.057 287.512C203.104 274.731 195.282 257.304 193.165 251.232C190.927 244.765 192.984 238.572 198.981 242.741L216.057 287.512Z" fill="#263238"/>
<path d="M237.376 271.725C236.713 273.678 236.165 275.668 235.733 277.686C235.239 279.71 234.725 281.734 234.312 283.758C233.414 287.727 232.741 291.745 232.296 295.79C232.296 295.815 232.305 295.838 232.322 295.855C232.339 295.872 232.362 295.881 232.386 295.881C232.41 295.881 232.433 295.872 232.451 295.855C232.468 295.838 232.477 295.815 232.477 295.79C233.566 291.823 234.372 287.765 235.199 283.737C235.612 281.713 235.985 279.75 236.398 277.767C236.811 275.783 237.305 273.719 237.527 271.755C237.531 271.735 237.527 271.714 237.516 271.697C237.504 271.68 237.487 271.668 237.467 271.664C237.447 271.66 237.426 271.664 237.409 271.676C237.392 271.687 237.38 271.705 237.376 271.725Z" fill="#263238"/>
<path d="M206.672 262.091C207.005 263.589 207.267 265.127 207.469 266.706C207.464 266.645 207.464 266.584 207.469 266.523C207.549 265.663 207.61 264.783 207.761 263.933C207.761 263.933 207.842 263.882 207.842 263.933C207.894 264.808 207.86 265.686 207.741 266.554C207.69 266.969 207.64 267.384 207.579 267.788C207.65 268.487 207.711 269.185 207.751 269.873C207.831 271.189 208.083 276.805 208.053 277.767C208.053 277.969 207.821 277.989 207.771 277.767C207.579 276.755 207.075 270.996 206.934 269.671C206.671 267.143 206.543 264.602 206.551 262.061C206.571 262.03 206.652 262.04 206.672 262.091Z" fill="#263238"/>
<path d="M208.275 304.129C206.259 305.951 203.799 308.613 189.647 309.604C188.76 309.604 187.853 309.675 186.946 309.604C173.318 309.22 154.196 298.472 153.057 297.622C153.057 297.622 167.743 257.729 187.167 242.418C189.939 240.222 195.887 241.304 199.606 243.561C200.937 244.371 205.332 251.748 206.219 258.468C207.106 265.188 210.281 302.308 208.275 304.129Z" fill="#455A64"/>
<path d="M197.237 253.56C193.81 253.843 188.901 247.892 187.288 243.44C187.178 243.136 188.065 240.232 188.972 236.649C189.516 234.473 190.071 232.045 190.413 229.788C190.484 229.322 191.925 230.415 191.925 230.415L194.728 231.569L204.001 235.394C202.762 238.093 201.858 240.934 201.31 243.855C201.28 244.171 201.28 244.489 201.31 244.806C201.314 244.856 201.314 244.907 201.31 244.958C201.28 246.749 200.544 253.256 197.237 253.56Z" fill="#AD6359"/>
<path d="M201.269 244.796C201.274 244.846 201.274 244.897 201.269 244.948C200.779 244.941 200.29 244.894 199.808 244.806C190.333 243.136 191.008 230.82 191.008 230.82L194.738 231.559L204.011 235.384C202.772 238.083 201.868 240.924 201.32 243.845C201.273 244.159 201.256 244.478 201.269 244.796Z" fill="#263238"/>
<path d="M189.456 214.962C187.651 219.961 189.577 234.757 193.004 238.238C197.973 243.298 206.491 244.138 210.815 238.046C215.019 232.156 212.166 212.908 208.305 209.71C202.61 205.024 192.117 207.584 189.456 214.962Z" fill="#AD6359"/>
<path d="M202.882 225.203C202.882 225.203 202.812 225.264 202.822 225.305C202.973 226.317 202.993 227.46 202.126 227.905C202.126 227.905 202.126 227.966 202.126 227.956C203.225 227.663 203.195 226.114 202.882 225.203Z" fill="#263238"/>
<path d="M201.864 224.272C200.251 224.353 200.534 227.582 202.025 227.511C203.517 227.44 203.215 224.202 201.864 224.272Z" fill="#263238"/>
<path d="M208.991 224.535C208.991 224.535 209.071 224.535 209.071 224.616C209.132 225.628 209.364 226.762 210.291 227.025C209.152 227.015 208.88 225.497 208.991 224.535Z" fill="#263238"/>
<path d="M209.797 223.412C211.39 223.159 211.813 226.377 210.311 226.62C208.809 226.863 208.456 223.635 209.797 223.412Z" fill="#263238"/>
<path d="M200.614 221.884C201.038 221.732 201.411 221.52 201.824 221.327C202.274 221.196 202.667 220.918 202.943 220.538C203.01 220.402 203.029 220.247 202.998 220.099C202.967 219.95 202.887 219.816 202.771 219.718C202.509 219.567 202.212 219.487 201.91 219.487C201.607 219.487 201.31 219.567 201.048 219.718C200.469 219.938 199.994 220.368 199.717 220.923C199.667 221.051 199.653 221.191 199.679 221.327C199.705 221.462 199.769 221.588 199.863 221.689C199.956 221.789 200.077 221.861 200.21 221.896C200.343 221.93 200.483 221.926 200.614 221.884Z" fill="#263238"/>
<path d="M210.805 222.319C210.364 222.27 209.927 222.196 209.495 222.096C209.023 222.081 208.57 221.911 208.205 221.611C208.115 221.491 208.066 221.346 208.066 221.196C208.066 221.046 208.115 220.9 208.205 220.781C208.412 220.56 208.675 220.399 208.967 220.317C209.258 220.235 209.566 220.235 209.858 220.315C210.475 220.379 211.046 220.672 211.46 221.135C211.547 221.249 211.599 221.387 211.61 221.53C211.62 221.673 211.589 221.817 211.519 221.943C211.449 222.068 211.345 222.171 211.218 222.238C211.091 222.305 210.948 222.333 210.805 222.319Z" fill="#263238"/>
<path d="M207.59 229.98C207.691 230.708 207.755 231.441 207.781 232.176C206.418 232.182 205.062 232.372 203.749 232.743C203.447 232.844 203.447 232.581 203.749 232.379C204.776 231.765 205.964 231.479 207.156 231.559C207.156 231.367 206.813 229.272 206.924 229.262C207.466 229.317 207.998 229.443 208.507 229.636C208.194 226.519 207.388 223.473 207.116 220.366C207.116 220.255 207.267 220.214 207.297 220.316C208.271 223.551 208.916 226.877 209.223 230.243C209.313 230.638 207.872 230.091 207.59 229.98Z" fill="#263238"/>
<path d="M190.524 227.298C193.064 227.116 192.742 220.882 192.742 220.882C192.742 220.882 196.613 220.133 198.437 214.81C198.437 214.81 203.477 217.846 207.64 217.077C214.172 215.802 213.89 207.25 211.42 205.54C207.912 203.111 201.763 206.785 201.763 206.785C201.763 206.785 192.369 204.285 189.667 210.681C188.455 210.781 187.324 211.339 186.505 212.242C185.686 213.145 185.238 214.327 185.252 215.549C185.01 220.153 188.639 227.43 190.524 227.298Z" fill="#263238"/>
<path d="M191.845 221.631C193.724 221.282 195.434 220.313 196.703 218.878C197.385 218.103 197.87 217.173 198.118 216.169C198.365 215.165 198.368 214.115 198.124 213.11C198.131 213.092 198.142 213.077 198.158 213.066C198.173 213.055 198.191 213.049 198.21 213.049C198.229 213.049 198.247 213.055 198.263 213.066C198.278 213.077 198.29 213.092 198.296 213.11C198.598 214.163 198.664 215.269 198.489 216.35C198.315 217.432 197.905 218.461 197.288 219.364C196.672 220.22 195.843 220.9 194.885 221.337C193.927 221.774 192.872 221.952 191.824 221.854C191.764 221.803 191.734 221.651 191.845 221.631Z" fill="#263238"/>
<path d="M201.511 207.068C202.321 205.726 203.589 204.726 205.08 204.255C206.892 203.739 208.83 203.912 210.523 204.741C211.196 205.095 211.765 205.621 212.172 206.266C212.579 206.911 212.81 207.652 212.841 208.414C212.862 210.184 212.274 211.906 211.178 213.292C211.178 213.292 211.087 213.292 211.118 213.292C211.992 211.984 212.44 210.435 212.398 208.86C212.37 208.11 212.133 207.384 211.712 206.764C211.291 206.145 210.704 205.657 210.019 205.358C207.317 204.194 203.386 204.437 201.652 207.2C201.602 207.261 201.451 207.159 201.511 207.068Z" fill="#263238"/>
<path d="M192.016 227.065C192.016 227.065 188.861 222.218 186.674 223.341C184.486 224.465 186.774 231.437 189.264 232.449C189.574 232.601 189.911 232.689 190.256 232.707C190.6 232.725 190.945 232.672 191.268 232.553C191.592 232.434 191.889 232.251 192.14 232.014C192.392 231.777 192.593 231.491 192.732 231.174L192.016 227.065Z" fill="#AD6359"/>
<path d="M187.329 225.315C187.329 225.315 187.329 225.365 187.329 225.386C188.126 225.816 188.824 226.409 189.378 227.127C189.932 227.846 190.329 228.673 190.544 229.555C190.448 229.373 190.313 229.215 190.149 229.091C189.986 228.967 189.797 228.88 189.596 228.837C189.396 228.793 189.188 228.794 188.988 228.84C188.788 228.885 188.6 228.974 188.438 229.1C188.438 229.1 188.438 229.201 188.438 229.191C188.751 229.101 189.084 229.112 189.391 229.221C189.698 229.329 189.963 229.531 190.151 229.798C190.464 230.247 190.728 230.729 190.937 231.235C191.018 231.397 191.3 231.316 191.25 231.134C191.391 228.836 189.738 225.618 187.329 225.315Z" fill="#263238"/>
<path d="M96.9314 538.964H64V532.892H96.9314C123.018 532.892 130.457 510.476 132.1 491.673C133.391 476.949 134.177 459.016 135.014 440.061C138.148 369.039 141.394 295.598 169.86 295.598H195.947V301.67H169.84C147.16 301.67 143.632 381.81 141.041 440.314C140.195 459.37 139.398 477.363 138.108 492.23C135.487 522.357 120.861 538.964 96.9314 538.964Z" fill="#166FFF"/>
<path opacity="0.2" d="M195.947 295.568V301.64H175.142L173.852 295.568H195.947Z" fill="black"/>
<path d="M286.445 337.829H297.554V259.925H286.445V337.829Z" fill="#166FFF"/>
<path d="M286.445 263.619H244.23V333.325H286.445V263.619Z" fill="#166FFF"/>
<path opacity="0.2" d="M286.445 263.619V333.325H275.962L271.255 263.619H286.445Z" fill="black"/>
<path d="M180.283 304.807H211.601V292.39H180.283V304.807Z" fill="#166FFF"/>
<path d="M211.601 292.4H180.283V304.817H211.601V292.4Z" fill="#166FFF"/>
<path opacity="0.2" d="M200.604 304.807L201.632 292.4H211.601V304.807H200.604Z" fill="black"/>
<path d="M244.23 329.197H217.801C216.157 329.197 214.58 328.541 213.417 327.374C212.255 326.206 211.601 324.623 211.601 322.973V274.761C211.601 273.11 212.255 271.527 213.417 270.36C214.58 269.193 216.157 268.537 217.801 268.537H244.23V329.197Z" fill="#166FFF"/>
<path opacity="0.2" d="M230.34 329.197L235.048 268.547H244.23V329.197H230.34Z" fill="black"/>
<g opacity="0.2">
<path d="M232.77 316.931H234.856V280.803H232.77V316.931Z" fill="black"/>
<path d="M226.873 316.931H228.959V280.803H226.873V316.931Z" fill="black"/>
<path d="M220.966 316.931H223.052V280.803H220.966V316.931Z" fill="black"/>
</g>
<path d="M178.358 256.444C177.35 271.057 176.2 300.82 182.632 309.554C191.069 321.01 214.888 327.962 221.944 330.047C224.968 330.947 232.215 310.819 230.421 307.924C228.627 305.03 204.041 298.816 202.106 297.116C200.171 295.416 194.042 271.695 191.129 259.611C187.359 244.371 178.771 250.676 178.358 256.444Z" fill="#AD6359"/>
<path d="M248.585 315.656C252.466 316.587 258.352 314.583 258.544 317.569C258.715 320.22 254.512 321.202 254.512 321.202C254.512 321.202 259.612 321.637 258.987 324.541C258.363 327.446 253.524 327.577 253.524 327.577C253.524 327.577 258.201 328.215 257.365 331.069C256.528 333.922 252.042 334.317 252.042 334.317C252.042 334.317 253.222 335.198 251.73 336.948C249.603 339.458 242.507 339.165 238.848 338.132C235.189 337.1 222.518 330.583 220.593 329.54L227.014 305.86C227.014 305.86 234.382 304.686 238.192 304.544C242.003 304.402 254.673 307.438 254.139 310.616C253.605 313.794 244.684 311.527 242.376 311.446C240.067 311.365 239.664 311.881 240.672 312.731C241.327 313.328 246.861 315.241 248.585 315.656Z" fill="#AD6359"/>
<path d="M254.28 321.151C248.323 322.163 245.541 321.495 240.077 319.127C239.967 319.076 239.876 319.228 239.987 319.289C245.128 322.072 248.504 323.337 254.341 321.424C254.633 321.343 254.573 321.111 254.28 321.151Z" fill="#263238"/>
<path d="M253.756 327.476C247.476 327.932 244.462 327.294 238.555 325.25C238.475 325.25 238.414 325.361 238.495 325.402C244.13 327.881 247.516 329.085 253.736 327.8C254.018 327.749 254.048 327.456 253.756 327.476Z" fill="#263238"/>
<path d="M251.962 334.277C245.843 334.277 242.507 333.71 237.023 330.998C236.998 330.985 236.969 330.983 236.942 330.991C236.915 330.999 236.892 331.017 236.878 331.042C236.864 331.066 236.86 331.095 236.866 331.123C236.872 331.15 236.889 331.174 236.912 331.19C242.235 334.51 246.398 335.238 251.942 334.469C252.315 334.408 252.345 334.277 251.962 334.277Z" fill="#263238"/>
<path d="M203.346 325.3C203.346 325.3 184.123 315.605 181.17 308.177C177.541 298.907 176.059 271.877 177.471 258.012C178.882 244.148 188.498 245.868 191.583 258.124C194.607 270.086 201.431 293.979 202.136 295.102C203.033 296.549 214 299.272 214 299.272" fill="#455A64"/>
<path d="M201.421 292.006C201.088 290.862 200.503 288.281 200.171 287.168C199.495 284.942 198.82 282.705 198.155 280.479C197.489 278.252 196.774 276.016 196.038 273.8C195.907 273.425 195.786 273.041 195.665 272.666C195.725 272.423 195.453 269.489 195.473 268.77C195.473 268.659 195.292 268.649 195.302 268.77C195.329 269.489 195.305 270.21 195.232 270.926C195.232 271.057 195.232 271.199 195.232 271.33C194.768 269.873 194.304 268.426 193.83 267.009C193.83 266.908 193.629 266.948 193.659 267.009C194.566 270.045 195.01 271.958 195.675 274.417C196.34 276.876 197.026 279.163 197.691 281.501C198.356 283.839 199.133 286.217 199.868 288.585C200.282 289.988 200.767 291.37 201.32 292.724C201.743 293.635 201.763 293.21 201.421 292.006Z" fill="#263238"/>
<path d="M179.739 300.172C179.345 297.673 178.952 295.112 178.65 292.643C178.035 287.583 177.642 282.604 177.42 277.544C177.289 274.65 177.077 271.776 176.916 268.891C176.916 268.862 176.904 268.834 176.884 268.813C176.863 268.792 176.835 268.78 176.805 268.78C176.776 268.78 176.748 268.792 176.727 268.813C176.706 268.834 176.694 268.862 176.694 268.891C176.694 271.462 176.604 274.022 176.694 276.593C176.694 276.967 176.694 277.342 176.694 277.716L176.573 277.19C176.2 275.722 175.676 274.285 175.354 272.798C175.345 272.78 175.33 272.767 175.312 272.76C175.295 272.752 175.275 272.752 175.257 272.758C175.238 272.764 175.223 272.776 175.213 272.793C175.203 272.81 175.199 272.829 175.203 272.848C175.565 274.326 175.757 275.884 176.1 277.331C176.281 278.07 176.463 278.809 176.664 279.548L176.765 279.861C176.825 281.339 176.896 282.816 176.997 284.294C177.27 289.365 177.852 294.414 178.741 299.413C179.35 302.683 180.23 305.895 181.372 309.017C181.377 309.033 181.388 309.046 181.401 309.055C181.415 309.065 181.431 309.07 181.447 309.07C181.464 309.07 181.48 309.065 181.493 309.055C181.507 309.046 181.517 309.033 181.523 309.017C180.928 306.518 180.142 302.672 179.739 300.172Z" fill="#263238"/>
<path d="M210.432 299.262C209.379 301.078 208.437 302.957 207.61 304.888C206.723 306.791 205.826 308.693 204.989 310.616C203.293 314.403 201.808 318.281 200.544 322.234C200.541 322.256 200.546 322.278 200.558 322.297C200.569 322.317 200.587 322.331 200.607 322.339C200.628 322.347 200.651 322.348 200.672 322.342C200.693 322.336 200.712 322.323 200.725 322.305C202.6 318.56 204.203 314.664 205.836 310.809C206.642 308.906 207.418 306.983 208.215 305.081C209.011 303.178 209.918 301.265 210.533 299.302C210.553 299.241 210.462 299.211 210.432 299.262Z" fill="#263238"/>
<path d="M316.161 246.89C316.028 246.89 315.899 246.837 315.805 246.742C315.71 246.647 315.657 246.519 315.657 246.384V232.146C315.657 232.011 315.71 231.883 315.805 231.788C315.899 231.693 316.028 231.64 316.161 231.64C316.295 231.64 316.423 231.693 316.518 231.788C316.612 231.883 316.665 232.011 316.665 232.146V246.384C316.665 246.519 316.612 246.647 316.518 246.742C316.423 246.837 316.295 246.89 316.161 246.89Z" fill="#263238"/>
<path d="M290.498 253.711C290.408 253.712 290.32 253.688 290.242 253.644C290.165 253.6 290.1 253.536 290.054 253.458L282.998 241.122C282.957 241.065 282.928 241 282.913 240.93C282.898 240.861 282.898 240.79 282.913 240.72C282.927 240.651 282.956 240.586 282.997 240.528C283.039 240.471 283.091 240.423 283.152 240.387C283.213 240.352 283.281 240.329 283.351 240.322C283.421 240.314 283.492 240.321 283.559 240.343C283.627 240.364 283.688 240.4 283.741 240.447C283.794 240.494 283.836 240.552 283.865 240.616L290.921 252.952C290.955 253.009 290.977 253.073 290.987 253.138C290.996 253.204 290.992 253.271 290.975 253.335C290.958 253.399 290.929 253.459 290.888 253.512C290.848 253.564 290.797 253.608 290.74 253.641C290.667 253.686 290.583 253.71 290.498 253.711Z" fill="#263238"/>
<path d="M283.119 355.235C283.03 355.236 282.943 355.211 282.867 355.164C282.811 355.128 282.762 355.08 282.725 355.024C282.688 354.968 282.662 354.905 282.65 354.838C282.637 354.772 282.639 354.704 282.654 354.638C282.668 354.572 282.697 354.51 282.736 354.456L289.792 342.13C289.825 342.072 289.869 342.021 289.922 341.981C289.974 341.94 290.035 341.91 290.099 341.893C290.163 341.875 290.23 341.871 290.296 341.879C290.361 341.888 290.425 341.909 290.483 341.943C290.54 341.976 290.591 342.02 290.631 342.073C290.672 342.126 290.701 342.186 290.719 342.25C290.736 342.315 290.741 342.382 290.732 342.448C290.724 342.514 290.702 342.578 290.669 342.636L283.613 354.962C283.567 355.052 283.496 355.126 283.408 355.174C283.32 355.223 283.219 355.244 283.119 355.235Z" fill="#263238"/>
<path d="M315.839 364.12C315.705 364.12 315.577 364.067 315.482 363.972C315.388 363.877 315.335 363.749 315.335 363.614V349.396C315.335 349.262 315.388 349.133 315.482 349.038C315.577 348.943 315.705 348.89 315.839 348.89C315.972 348.892 316.098 348.947 316.192 349.041C316.286 349.135 316.34 349.263 316.343 349.396V363.635C316.338 363.765 316.282 363.889 316.188 363.98C316.094 364.07 315.969 364.121 315.839 364.12Z" fill="#263238"/>
<path d="M348.599 355.397C348.511 355.396 348.425 355.373 348.349 355.328C348.272 355.284 348.209 355.221 348.165 355.144L341.109 342.818C341.076 342.76 341.055 342.696 341.046 342.63C341.038 342.564 341.042 342.497 341.06 342.432C341.077 342.368 341.107 342.308 341.147 342.255C341.188 342.202 341.238 342.158 341.296 342.125C341.353 342.091 341.417 342.07 341.483 342.061C341.549 342.053 341.616 342.057 341.68 342.075C341.744 342.092 341.804 342.122 341.857 342.163C341.909 342.203 341.953 342.254 341.986 342.312L349.042 354.638C349.076 354.695 349.099 354.758 349.108 354.824C349.117 354.89 349.114 354.956 349.097 355.021C349.08 355.085 349.05 355.145 349.01 355.197C348.969 355.25 348.919 355.294 348.861 355.326C348.782 355.375 348.691 355.4 348.599 355.397Z" fill="#263238"/>
<path d="M341.785 253.873C341.696 253.874 341.608 253.849 341.533 253.802C341.475 253.77 341.424 253.726 341.384 253.674C341.343 253.621 341.314 253.561 341.297 253.497C341.28 253.433 341.276 253.366 341.285 253.3C341.295 253.234 341.317 253.171 341.351 253.114L348.407 240.778C348.481 240.677 348.589 240.606 348.711 240.58C348.833 240.555 348.96 240.575 349.068 240.638C349.176 240.701 349.257 240.802 349.295 240.921C349.333 241.041 349.326 241.17 349.274 241.284L342.218 253.62C342.173 253.695 342.109 253.758 342.034 253.802C341.958 253.846 341.872 253.871 341.785 253.873Z" fill="#263238"/>
</g>
<defs>
<clipPath id="clip0_1411_9575">
<rect width="632" height="632" fill="white"/>
</clipPath>
</defs>
</svg>
