<svg width="632" height="632" viewBox="0 0 632 632" fill="none" xmlns="http://www.w3.org/2000/svg">
<g style="mix-blend-mode:color-dodge" opacity="0.5">
<circle opacity="0.1" cx="316" cy="316" r="280" fill="white"/>
<circle opacity="0.1" cx="316" cy="316" r="316" fill="white"/>
<circle opacity="0.1" cx="316" cy="316" r="242" fill="white"/>
</g>
<path d="M568 449.989H64V450.242H568V449.989Z" fill="#EBEBEB"/>
<path d="M382.195 456.88H356.532V457.133H382.195V456.88Z" fill="#EBEBEB"/>
<path d="M523.084 462.355H462.271V462.608H523.084V462.355Z" fill="#EBEBEB"/>
<path d="M351.068 457.002H288.24V457.255H351.068V457.002Z" fill="#EBEBEB"/>
<path d="M247.496 464.572H234.352V464.825H247.496V464.572Z" fill="#EBEBEB"/>
<path d="M320.123 464.572H260.268V464.825H320.123V464.572Z" fill="#EBEBEB"/>
<path d="M155.637 460.301H116.88V460.554H155.637V460.301Z" fill="#EBEBEB"/>
<path d="M302.896 404.854H108.261C106.736 404.851 105.275 404.241 104.198 403.158C103.121 402.074 102.516 400.606 102.516 399.075V124.388C102.529 122.866 103.14 121.411 104.216 120.338C105.291 119.266 106.745 118.663 108.261 118.66H302.896C304.422 118.66 305.886 119.269 306.966 120.352C308.045 121.436 308.652 122.906 308.652 124.438V399.075C308.652 400.608 308.045 402.077 306.966 403.161C305.886 404.245 304.422 404.854 302.896 404.854ZM108.261 118.862C106.803 118.865 105.406 119.448 104.376 120.484C103.346 121.52 102.768 122.924 102.768 124.388V399.075C102.768 400.539 103.346 401.943 104.376 402.979C105.406 404.015 106.803 404.598 108.261 404.601H302.896C304.355 404.598 305.753 404.015 306.785 402.979C307.816 401.944 308.397 400.54 308.4 399.075V124.388C308.397 122.923 307.816 121.519 306.785 120.484C305.753 119.448 304.355 118.865 302.896 118.862H108.261Z" fill="#EBEBEB"/>
<path d="M520.936 404.854H326.292C324.766 404.851 323.304 404.241 322.225 403.158C321.146 402.075 320.539 400.607 320.536 399.075V124.388C320.552 122.865 321.165 121.41 322.242 120.337C323.32 119.265 324.775 118.663 326.292 118.66H520.936C522.451 118.665 523.902 119.269 524.976 120.342C526.049 121.414 526.659 122.868 526.672 124.388V399.075C526.672 400.604 526.068 402.071 524.993 403.154C523.918 404.237 522.46 404.848 520.936 404.854ZM326.292 118.862C324.833 118.865 323.435 119.448 322.403 120.484C321.371 121.519 320.791 122.923 320.788 124.388V399.075C320.791 400.54 321.371 401.944 322.403 402.979C323.435 404.015 324.833 404.598 326.292 404.601H520.936C522.395 404.598 523.794 404.015 524.825 402.979C525.857 401.944 526.438 400.54 526.44 399.075V124.388C526.438 122.923 525.857 121.519 524.825 120.484C523.794 119.448 522.395 118.865 520.936 118.862H326.292Z" fill="#EBEBEB"/>
<path d="M261.528 362.218H194.596L190.534 315.16H257.465L261.528 362.218Z" fill="#E6E6E6"/>
<path d="M264.995 362.218H198.064L194.002 315.16H260.933L264.995 362.218Z" fill="#F0F0F0"/>
<path d="M207.217 352.108L204.979 325.26H251.78L254.018 352.108H207.217Z" fill="white"/>
<path d="M276.577 362.218H268.725V449.989H276.577V362.218Z" fill="#E6E6E6"/>
<path d="M279.057 362.218H273.604V449.989H279.057V362.218Z" fill="#F0F0F0"/>
<path d="M203.043 371.903H279.057V362.218H203.043V371.903Z" fill="#F0F0F0"/>
<path d="M205.725 371.903H197.872V449.989H205.725V371.903Z" fill="#E6E6E6"/>
<path d="M208.205 371.903H202.751V449.989H208.205V371.903Z" fill="#F0F0F0"/>
<path d="M149.831 371.903H141.979V449.989H149.831V371.903Z" fill="#E6E6E6"/>
<path d="M152.311 371.903H146.858V449.989H152.311V371.903Z" fill="#F0F0F0"/>
<path d="M226.883 371.903H219.03V449.989H226.883V371.903Z" fill="#E6E6E6"/>
<path d="M229.352 371.903H223.899V449.989H229.352V371.903Z" fill="#F0F0F0"/>
<path d="M203.044 362.218H141.979V371.903H203.044V362.218Z" fill="#E6E6E6"/>
<path d="M430.751 143.363H194.546V275.388H430.751V143.363Z" fill="#E0E0E0"/>
<path d="M443.724 143.363H195.735V275.388H443.724V143.363Z" fill="#F5F5F5"/>
<path d="M439.671 271.32V147.431L199.788 147.431V271.32H439.671Z" fill="white"/>
<path d="M296.919 271.32L342.208 147.431H267.465L222.175 271.32H296.919Z" fill="#F5F5F5"/>
<path d="M368.86 271.32L414.149 147.431H357.761L312.472 271.32H368.86Z" fill="#F5F5F5"/>
<path d="M505.615 323.894H485.536V449.989H505.615V323.894Z" fill="#E6E6E6"/>
<path d="M500.333 449.989H505.615V440.284H494.799L500.333 449.989Z" fill="#FAFAFA"/>
<path d="M320.486 323.894H300.406V449.989H320.486V323.894Z" fill="#E6E6E6"/>
<path d="M505.615 323.894H315.879V447.368H505.615V323.894Z" fill="#FAFAFA"/>
<path d="M502.026 363.736H319.478V328.862H502.026V363.736ZM320.486 362.724H501.018V329.874H320.486V362.724Z" fill="#E6E6E6"/>
<path d="M469.891 345.793H355.151C349.829 345.793 344.698 341.482 341.039 333.953L340.696 333.234H484.336L483.993 333.953C480.304 341.482 475.264 345.793 469.891 345.793ZM342.349 334.216C345.756 340.926 350.413 344.751 355.151 344.751H469.891C474.649 344.751 479.286 340.926 482.693 334.216H342.349Z" fill="#E6E6E6"/>
<path d="M321.161 449.989H315.879V440.284H326.695L321.161 449.989Z" fill="#FAFAFA"/>
<path d="M502.026 403.032H319.478V368.199H502.026V403.032ZM320.486 402.02H501.018V369.211H320.486V402.02Z" fill="#E6E6E6"/>
<path d="M469.891 385.13H355.151C349.829 385.13 344.698 380.808 341.039 373.289L340.696 372.561H484.336L483.993 373.289C480.304 380.768 475.264 385.13 469.891 385.13ZM342.349 373.573C345.756 380.282 350.413 384.118 355.151 384.118H469.891C474.649 384.118 479.286 380.282 482.693 373.573H342.349Z" fill="#E6E6E6"/>
<path d="M502.026 442.399H319.478V407.525H502.026V442.399ZM320.486 441.387H501.018V408.537H320.486V441.387Z" fill="#E6E6E6"/>
<path d="M469.891 424.456H355.151C349.829 424.456 344.698 420.145 341.039 412.626L340.696 411.897H484.336L483.993 412.626C480.304 420.145 475.264 424.456 469.891 424.456ZM342.349 412.909C345.756 419.619 350.413 423.444 355.151 423.444H469.891C474.649 423.444 479.286 419.619 482.693 412.909H342.349Z" fill="#E6E6E6"/>
<path d="M185.948 340.571V343.02H184.395L183.105 362.218H164.115L162.834 343.02H161.272V340.571H185.948Z" fill="#E6E6E6"/>
<path d="M179.698 292.937C178.146 281.501 162.774 278.242 143.269 277.817C124.712 277.423 118.765 270.834 118.765 270.834C118.765 270.834 118.825 297.521 145.567 307.196C170.959 316.364 181.261 304.392 179.698 292.937Z" fill="#E6E6E6"/>
<path d="M170.223 318.854C170.546 314.158 178.025 305.516 196.018 309.442C209.021 312.286 213.859 305.516 213.859 305.516C213.859 305.516 212.65 324.622 193.095 330.36C174.517 335.815 169.648 327.132 170.223 318.854Z" fill="#E6E6E6"/>
<path d="M174.326 347.777C174.427 347.778 174.527 347.757 174.619 347.715C174.712 347.673 174.794 347.611 174.86 347.534C176.16 345.986 175.092 342.282 173.62 337.151C171.725 330.573 169.366 322.376 171.362 316.435C172.468 313.297 173.761 310.229 175.233 307.246C178.055 301.255 180.495 296.114 178.458 290.67C178.427 290.583 178.378 290.504 178.316 290.436C178.253 290.368 178.178 290.314 178.094 290.275C178.01 290.237 177.92 290.216 177.828 290.213C177.736 290.21 177.645 290.225 177.559 290.258C177.473 290.291 177.394 290.34 177.327 290.404C177.261 290.467 177.207 290.543 177.17 290.628C177.133 290.712 177.112 290.803 177.11 290.895C177.108 290.988 177.125 291.08 177.158 291.165C178.983 296.013 176.775 300.709 173.973 306.659C172.482 309.69 171.17 312.805 170.042 315.99C167.915 322.345 170.334 330.775 172.279 337.535C173.428 341.583 174.618 345.631 173.801 346.643C173.737 346.713 173.687 346.796 173.656 346.886C173.624 346.976 173.612 347.072 173.62 347.167C173.627 347.262 173.655 347.355 173.7 347.439C173.745 347.523 173.807 347.597 173.882 347.655C174.011 347.747 174.168 347.79 174.326 347.777Z" fill="#E6E6E6"/>
<path d="M316 495.691C423.939 495.691 511.441 490.562 511.441 484.235C511.441 477.908 423.939 472.779 316 472.779C208.061 472.779 120.559 477.908 120.559 484.235C120.559 490.562 208.061 495.691 316 495.691Z" fill="#F5F5F5"/>
<path d="M315.96 428.383H172.824L164.992 197.272H308.128L315.96 428.383Z" fill="#166FFF"/>
<path d="M323.106 421.208H179.97L172.128 190.097H315.264L323.106 421.208Z" fill="#166FFF"/>
<path opacity="0.3" d="M323.106 421.208H179.97L172.128 190.097H315.264L323.106 421.208Z" fill="white"/>
<path d="M275.148 285.199C290.474 269.547 289.822 243.953 273.692 228.033C257.562 212.114 232.062 211.897 216.736 227.549C201.41 243.201 202.062 268.795 218.192 284.714C234.323 300.634 259.823 300.851 275.148 285.199Z" fill="#166FFF"/>
<path d="M279.178 256.383C279.384 261.89 278.187 267.359 275.7 272.271C273.016 277.566 268.916 282.005 263.859 285.09C258.803 288.175 252.99 289.785 247.073 289.739C241.017 289.706 235.076 288.075 229.846 285.009C224.616 281.943 220.281 277.55 217.276 272.271C214.475 267.434 212.909 261.976 212.72 256.383C212.534 252.047 213.229 247.718 214.761 243.659C216.293 239.6 218.631 235.897 221.632 232.773C224.634 229.65 228.237 227.171 232.222 225.489C236.208 223.807 240.492 222.956 244.815 222.987C253.721 223.05 262.26 226.556 268.659 232.775C275.059 238.994 278.825 247.449 279.178 256.383Z" fill="white"/>
<path opacity="0.6" d="M275.68 272.271C272.996 277.566 268.896 282.005 263.839 285.09C258.783 288.175 252.97 289.785 247.053 289.739C240.997 289.706 235.056 288.075 229.826 285.009C224.596 281.943 220.261 277.55 217.256 272.271C225.781 266.436 235.868 263.335 246.186 263.376C256.67 263.399 266.919 266.49 275.68 272.271Z" fill="#166FFF"/>
<path opacity="0.6" d="M256.298 255.551C261.934 249.795 261.694 240.384 255.763 234.531C249.831 228.677 240.455 228.597 234.819 234.353C229.184 240.108 229.424 249.519 235.355 255.373C241.286 261.227 250.663 261.306 256.298 255.551Z" fill="#166FFF"/>
<path d="M294.348 337.515H203.044L202.429 319.299H293.733L294.348 337.515Z" fill="white"/>
<path d="M295.457 370.071H204.142L203.527 351.855H294.842L295.457 370.071Z" fill="white"/>
<path d="M260.217 354.365L238.213 357.401C238.003 357.425 237.8 357.492 237.617 357.599C237.434 357.705 237.276 357.848 237.151 358.02C237.026 358.191 236.937 358.386 236.891 358.593C236.845 358.8 236.842 359.014 236.882 359.222L239.775 374.028C239.87 374.463 240.123 374.846 240.485 375.102C240.847 375.359 241.291 375.47 241.731 375.414L263.735 372.378C263.945 372.352 264.147 372.282 264.328 372.174C264.51 372.066 264.667 371.922 264.791 371.75C264.915 371.578 265.002 371.383 265.048 371.176C265.093 370.969 265.096 370.755 265.056 370.547L262.173 355.741C262.078 355.307 261.825 354.925 261.462 354.67C261.1 354.415 260.656 354.306 260.217 354.365ZM253.897 369.363L249.865 369.899L249.472 365.122C249.057 364.942 248.69 364.664 248.404 364.312C248.119 363.959 247.921 363.543 247.829 363.098C247.755 362.754 247.754 362.397 247.825 362.052C247.897 361.707 248.04 361.381 248.246 361.095C248.451 360.808 248.714 360.569 249.017 360.391C249.32 360.213 249.657 360.101 250.006 360.062C250.722 359.97 251.447 360.15 252.036 360.568C252.626 360.986 253.038 361.611 253.192 362.319C253.279 362.747 253.252 363.19 253.114 363.604C252.976 364.018 252.732 364.388 252.405 364.677L253.897 369.363Z" fill="#166FFF"/>
<path d="M258.04 353.565C257.651 353.615 257.258 353.517 256.937 353.291C256.616 353.064 256.391 352.725 256.306 352.341L256.024 350.894C255.621 348.919 254.519 347.158 252.921 345.937C251.323 344.716 249.338 344.119 247.335 344.255C246.324 344.313 245.338 344.588 244.442 345.063C243.547 345.538 242.764 346.2 242.146 347.006C241.528 347.811 241.09 348.741 240.862 349.731C240.634 350.722 240.621 351.75 240.823 352.746L241.146 354.416C241.184 354.601 241.182 354.791 241.142 354.976C241.102 355.16 241.024 355.334 240.913 355.487C240.802 355.639 240.66 355.767 240.497 355.861C240.334 355.955 240.154 356.015 239.967 356.035C239.577 356.089 239.181 355.993 238.859 355.766C238.537 355.539 238.313 355.197 238.233 354.81L237.961 353.404C237.684 352.089 237.675 350.732 237.934 349.413C238.193 348.095 238.715 346.843 239.468 345.732C240.221 344.621 241.19 343.675 242.317 342.95C243.444 342.225 244.705 341.736 246.025 341.513C248.886 341.03 251.823 341.672 254.226 343.306C256.628 344.94 258.312 347.44 258.927 350.287L259.25 351.946C259.287 352.134 259.285 352.327 259.243 352.513C259.201 352.7 259.12 352.875 259.006 353.028C258.892 353.181 258.747 353.308 258.58 353.4C258.414 353.493 258.23 353.549 258.04 353.565Z" fill="#166FFF"/>
<path d="M280.387 395.584H220.946L220.552 383.723H279.984L280.387 395.584Z" fill="#166FFF"/>
<path d="M251.71 328.407C251.728 328.84 251.658 329.271 251.504 329.676C251.351 330.081 251.117 330.45 250.818 330.761C250.518 331.073 250.158 331.32 249.761 331.487C249.363 331.655 248.936 331.74 248.504 331.737C247.616 331.73 246.763 331.38 246.124 330.761C245.484 330.141 245.106 329.299 245.067 328.407C245.049 327.974 245.119 327.543 245.273 327.138C245.426 326.733 245.66 326.364 245.959 326.053C246.259 325.742 246.619 325.495 247.016 325.327C247.414 325.159 247.841 325.074 248.273 325.078C249.162 325.082 250.016 325.431 250.656 326.051C251.296 326.671 251.674 327.515 251.71 328.407Z" fill="#263238"/>
<path d="M237.376 328.407C237.395 328.84 237.326 329.272 237.173 329.678C237.021 330.083 236.787 330.453 236.487 330.764C236.187 331.076 235.827 331.323 235.429 331.49C235.03 331.657 234.602 331.741 234.171 331.737C233.283 331.729 232.432 331.38 231.794 330.76C231.156 330.14 230.78 329.298 230.743 328.407C230.726 327.974 230.796 327.543 230.949 327.138C231.102 326.733 231.336 326.364 231.636 326.053C231.935 325.742 232.295 325.495 232.693 325.327C233.09 325.159 233.518 325.074 233.949 325.078C234.837 325.082 235.69 325.431 236.328 326.051C236.967 326.672 237.342 327.516 237.376 328.407Z" fill="#263238"/>
<path d="M223.133 328.407C223.151 328.84 223.081 329.271 222.927 329.676C222.774 330.081 222.54 330.45 222.241 330.761C221.941 331.073 221.581 331.32 221.184 331.487C220.786 331.655 220.359 331.74 219.928 331.737C219.039 331.732 218.187 331.383 217.548 330.763C216.909 330.142 216.534 329.299 216.5 328.407C216.483 327.974 216.553 327.543 216.706 327.138C216.859 326.733 217.093 326.364 217.393 326.053C217.692 325.742 218.052 325.495 218.45 325.327C218.847 325.159 219.275 325.074 219.706 325.078C220.594 325.082 221.447 325.431 222.085 326.051C222.724 326.672 223.099 327.516 223.133 328.407Z" fill="#263238"/>
<path d="M265.993 328.407C266.011 328.84 265.941 329.271 265.788 329.676C265.634 330.081 265.401 330.45 265.101 330.761C264.801 331.073 264.442 331.319 264.044 331.487C263.646 331.655 263.219 331.74 262.788 331.737C261.899 331.732 261.047 331.383 260.408 330.763C259.77 330.142 259.394 329.299 259.36 328.407C259.345 327.976 259.418 327.546 259.573 327.143C259.728 326.741 259.964 326.374 260.264 326.066C260.565 325.757 260.925 325.513 261.322 325.349C261.72 325.184 262.146 325.102 262.576 325.108C263.458 325.115 264.303 325.461 264.939 326.074C265.575 326.688 265.952 327.523 265.993 328.407Z" fill="#263238"/>
<path d="M280.277 328.407C280.296 328.84 280.227 329.272 280.074 329.678C279.921 330.083 279.688 330.453 279.388 330.764C279.088 331.076 278.727 331.323 278.329 331.49C277.931 331.657 277.503 331.741 277.071 331.737C276.183 331.729 275.332 331.38 274.694 330.76C274.056 330.14 273.68 329.298 273.644 328.407C273.626 327.974 273.696 327.543 273.85 327.138C274.003 326.733 274.237 326.364 274.536 326.053C274.836 325.742 275.196 325.495 275.593 325.327C275.991 325.159 276.418 325.074 276.849 325.078C277.738 325.082 278.59 325.431 279.229 326.051C279.868 326.672 280.243 327.516 280.277 328.407Z" fill="#263238"/>
<path d="M400.581 239.371C401.922 241.537 403.041 243.601 404.19 245.757C405.339 247.913 406.377 250.078 407.395 252.295C409.473 256.782 411.192 261.428 412.536 266.189C412.718 266.786 412.849 267.424 413 268.041L413.222 268.982L413.332 269.448L413.463 270.217C413.691 271.962 413.585 273.734 413.151 275.439C412.455 278.086 411.397 280.623 410.006 282.978C407.518 287.258 404.512 291.211 401.055 294.748L396.811 291.53C398.941 287.599 400.836 283.543 402.486 279.386C403.221 277.554 403.739 275.642 404.029 273.688C404.121 273.092 404.094 272.483 403.948 271.897L403.545 270.662C403.383 270.156 403.232 269.65 403.041 269.134C401.508 264.959 399.734 260.877 397.729 256.909C395.713 252.861 393.545 248.813 391.378 244.947L400.581 239.371Z" fill="#FF8B7B"/>
<path d="M397.89 290.123L393.253 292.582L398.575 298.836C398.575 298.836 401.902 296.58 402.053 293.139L397.89 290.123Z" fill="#FF8B7B"/>
<path d="M387.034 296.438L392.729 300.982L398.575 298.836L393.253 292.582L387.034 296.438Z" fill="#FF8B7B"/>
<path d="M367.559 206.259C367.448 206.825 367.055 207.22 366.692 207.149C366.329 207.078 366.118 206.552 366.229 205.996C366.339 205.439 366.733 204.984 367.106 205.105C367.479 205.226 367.67 205.692 367.559 206.259Z" fill="#263238"/>
<path d="M367.106 207.23C366.09 208.815 364.863 210.252 363.457 211.501C363.789 211.846 364.191 212.116 364.637 212.29C365.082 212.465 365.56 212.541 366.037 212.513L367.106 207.23Z" fill="#FF5652"/>
<path d="M365.291 227.086V220.447L374.041 221.459C374.041 221.459 373.899 227.167 369.001 228.847L365.291 227.086Z" fill="#FF8B7B"/>
<path d="M367.811 215.67L373.97 217.451L374.081 221.51L365.332 220.447L367.811 215.67Z" fill="#FF8B7B"/>
<path opacity="0.2" d="M373.97 217.451L367.811 215.67L366.612 217.978C366.677 219.796 367.243 221.56 368.247 223.075C369.25 224.59 370.652 225.796 372.297 226.559C373.355 225.075 373.974 223.321 374.081 221.499L373.97 217.451Z" fill="black"/>
<path d="M370.24 203.557C370.305 203.555 370.368 203.535 370.422 203.499C370.475 203.463 370.518 203.412 370.544 203.353C370.571 203.294 370.58 203.228 370.571 203.164C370.561 203.1 370.534 203.039 370.492 202.99C370.138 202.589 369.694 202.278 369.196 202.084C368.698 201.891 368.161 201.82 367.63 201.877C367.543 201.892 367.466 201.94 367.415 202.013C367.363 202.085 367.343 202.174 367.358 202.261C367.373 202.349 367.421 202.428 367.492 202.481C367.564 202.533 367.653 202.556 367.741 202.545C368.161 202.503 368.586 202.563 368.978 202.72C369.371 202.877 369.721 203.125 369.999 203.445C370.029 203.479 370.067 203.506 370.108 203.526C370.15 203.545 370.195 203.555 370.24 203.557Z" fill="#263238"/>
<path d="M383.123 216.5C382.115 221.712 381.49 228.927 385.139 232.399C385.139 232.399 383.728 237.681 374.051 237.681C363.457 237.681 368.96 233.046 368.96 233.046C373.365 231.67 373.325 226.64 372.317 222.592L383.123 216.5Z" fill="#FF8B7B"/>
<path d="M387.104 235.88C388.052 234.544 388.012 230.304 387.004 229.555C385.381 228.351 378.415 228.067 369.051 230.233C370.059 234.342 367.892 236.487 367.892 236.487L387.104 235.88Z" fill="#166FFF"/>
<path d="M418.614 476.139C418.327 476.24 418.022 476.284 417.717 476.266C417.413 476.249 417.115 476.171 416.84 476.038C416.736 475.941 416.665 475.813 416.636 475.674C416.607 475.534 416.622 475.389 416.679 475.258C416.711 475.149 416.766 475.048 416.841 474.962C416.916 474.876 417.008 474.808 417.112 474.763C418.07 474.297 420.267 475.198 420.368 475.238C420.398 475.25 420.424 475.271 420.442 475.298C420.46 475.326 420.469 475.357 420.469 475.39C420.469 475.422 420.46 475.454 420.444 475.483C420.429 475.511 420.406 475.535 420.378 475.552C419.81 475.803 419.219 475.999 418.614 476.139ZM417.455 474.995C417.389 475.011 417.324 475.035 417.264 475.066C417.201 475.089 417.144 475.127 417.099 475.176C417.053 475.225 417.02 475.285 417.002 475.349C416.911 475.653 417.002 475.754 417.062 475.785C417.445 476.108 418.856 475.785 419.854 475.41C419.095 475.095 418.276 474.953 417.455 474.995Z" fill="#166FFF"/>
<path d="M420.338 475.562H420.257C419.451 475.329 417.737 474.105 417.717 473.305C417.717 473.178 417.759 473.055 417.838 472.955C417.917 472.856 418.027 472.786 418.151 472.759C418.27 472.714 418.398 472.696 418.525 472.707C418.653 472.717 418.776 472.756 418.887 472.819C419.834 473.305 420.439 475.269 420.459 475.36C420.473 475.384 420.481 475.412 420.481 475.441C420.481 475.469 420.473 475.497 420.459 475.522C420.443 475.537 420.424 475.549 420.403 475.556C420.382 475.563 420.36 475.565 420.338 475.562ZM418.322 473.042H418.241C418.04 473.113 418.04 473.214 418.04 473.265C418.04 473.74 419.189 474.702 420.056 475.086C419.844 474.52 419.381 473.396 418.766 473.062C418.629 473 418.474 472.993 418.332 473.042H418.322Z" fill="#166FFF"/>
<path d="M366.259 477.333C365.352 477.333 364.475 477.201 364.182 476.797C364.106 476.689 364.065 476.56 364.065 476.427C364.065 476.295 364.106 476.166 364.182 476.058C364.24 475.959 364.317 475.873 364.409 475.805C364.501 475.737 364.605 475.689 364.717 475.663C365.896 475.339 368.376 476.756 368.476 476.817C368.507 476.832 368.532 476.857 368.547 476.889C368.562 476.92 368.565 476.955 368.557 476.989C368.553 477.024 368.539 477.056 368.515 477.082C368.491 477.107 368.46 477.124 368.426 477.131C367.711 477.262 366.986 477.33 366.259 477.333ZM365.14 475.947C365.033 475.929 364.924 475.929 364.817 475.947C364.749 475.961 364.684 475.989 364.627 476.029C364.57 476.069 364.522 476.12 364.485 476.179C364.364 476.392 364.414 476.493 364.485 476.554C364.817 477.019 366.602 477.029 367.922 476.837C367.06 476.364 366.116 476.062 365.14 475.947Z" fill="#166FFF"/>
<path d="M368.416 477.131H368.345C367.489 476.746 365.795 475.208 365.926 474.398C365.926 474.206 366.088 473.973 366.551 473.933C366.717 473.913 366.885 473.928 367.044 473.977C367.204 474.026 367.352 474.107 367.479 474.216C368.125 474.991 368.512 475.951 368.587 476.959C368.587 476.987 368.581 477.016 368.568 477.042C368.556 477.068 368.539 477.092 368.517 477.11C368.486 477.126 368.451 477.133 368.416 477.131ZM366.682 474.246H366.581C366.279 474.246 366.259 474.388 366.259 474.429C366.178 474.914 367.327 476.129 368.204 476.655C368.127 475.843 367.8 475.075 367.267 474.459C367.101 474.317 366.89 474.242 366.672 474.246H366.682Z" fill="#166FFF"/>
<path d="M376.198 476.969H369.111L368.406 460.483H375.492L376.198 476.969Z" fill="#FF8B7B"/>
<path d="M428.241 473.67L421.316 475.178L414.351 459.825L421.286 458.318L428.241 473.67Z" fill="#FF8B7B"/>
<path d="M420.64 474.479L428.432 472.789C428.568 472.76 428.71 472.778 428.835 472.841C428.959 472.903 429.059 473.006 429.118 473.133L431.819 479.023C431.891 479.166 431.928 479.323 431.928 479.483C431.927 479.643 431.889 479.8 431.816 479.943C431.744 480.085 431.638 480.208 431.509 480.301C431.38 480.395 431.231 480.456 431.073 480.48C428.352 481.017 426.991 481.148 423.574 481.887C421.467 482.353 416.709 483.516 413.796 484.144C410.883 484.771 409.885 481.968 411.024 481.452C416.114 479.114 418.231 477.06 419.612 475.147C419.862 474.806 420.228 474.568 420.64 474.479Z" fill="#263238"/>
<path d="M369.162 476.139H376.903C377.044 476.14 377.18 476.188 377.29 476.276C377.399 476.365 377.476 476.487 377.508 476.625L378.909 482.95C378.95 483.103 378.955 483.263 378.923 483.418C378.891 483.573 378.824 483.719 378.726 483.843C378.628 483.967 378.502 484.066 378.359 484.132C378.216 484.199 378.059 484.23 377.901 484.225C375.109 484.174 371.077 484.012 367.569 484.012C363.457 484.012 359.919 484.235 355.1 484.235C352.187 484.235 351.381 481.28 352.6 481.007C358.144 479.792 362.68 479.661 367.468 476.696C367.971 476.357 368.557 476.165 369.162 476.139Z" fill="#263238"/>
<path d="M397.819 234.028C404.462 235.556 409.915 252.588 409.915 252.588L396.64 262.779C393.194 259.08 390.763 254.547 389.584 249.623C387.235 240.697 391.025 232.449 397.819 234.028Z" fill="#166FFF"/>
<path opacity="0.4" d="M397.819 234.028C404.462 235.556 409.915 252.588 409.915 252.588L396.64 262.779C393.194 259.08 390.763 254.547 389.584 249.623C387.235 240.697 391.025 232.449 397.819 234.028Z" fill="black"/>
<path d="M362.872 254.339C361.219 256.13 359.566 257.729 357.832 259.399C356.975 260.208 356.108 261.018 355.221 261.797L353.881 262.981L353.548 263.275L352.973 263.74C352.382 264.215 351.727 264.603 351.028 264.894C350.25 265.226 349.414 265.398 348.568 265.4C347.846 265.403 347.129 265.276 346.452 265.026C345.7 264.738 345.014 264.301 344.436 263.74C343.697 263.016 343.156 262.113 342.863 261.119C342.71 260.629 342.612 260.123 342.571 259.611C342.518 259.012 342.518 258.409 342.571 257.81C342.621 257.324 342.682 256.899 342.762 256.504C343.038 255.125 343.429 253.77 343.932 252.456C344.385 251.207 344.907 249.984 345.494 248.793C346.139 247.508 346.754 246.567 347.369 245.494C349.866 241.386 352.716 237.506 355.887 233.896C359.025 230.308 362.483 227.016 366.219 224.06L369.928 227.895C367.327 231.397 364.767 235.151 362.398 238.845C360.041 242.518 357.887 246.319 355.947 250.23C355.514 251.181 354.939 252.254 354.667 253.023C354.306 253.917 353.993 254.829 353.729 255.756C353.475 256.59 353.283 257.443 353.155 258.306C353.148 258.441 353.148 258.576 353.155 258.711C353.155 258.792 353.155 258.832 353.155 258.62C353.138 258.392 353.094 258.168 353.024 257.952C352.806 257.234 352.406 256.586 351.865 256.069C351.382 255.625 350.817 255.281 350.201 255.057C349.66 254.851 349.087 254.745 348.508 254.744C347.951 254.737 347.399 254.844 346.885 255.057C346.711 255.129 346.542 255.213 346.381 255.31L346.764 254.956L347.984 253.843L350.393 251.576C351.986 250.068 353.588 248.459 355.1 246.961L362.872 254.339Z" fill="#FF8B7B"/>
<path opacity="0.2" d="M392.124 246.536C395.733 250.119 396.912 256.656 397.164 262.324L396.58 262.779C393.134 259.08 390.703 254.547 389.524 249.623C389.392 249.097 389.272 248.611 389.181 248.034L392.124 246.536Z" fill="black"/>
<path d="M355.826 241.112C354.375 248.803 353.467 264.601 357.671 295.871H395.632C395.894 290.032 392.235 261.514 397.85 233.977C393.655 233.169 389.412 232.631 385.149 232.368C379.777 232.059 374.392 232.059 369.021 232.368C367.247 232.53 365.493 232.793 363.981 233.067C361.97 233.421 360.114 234.38 358.657 235.816C357.201 237.253 356.214 239.1 355.826 241.112Z" fill="#166FFF"/>
<path opacity="0.4" d="M355.826 241.112C354.375 248.803 353.467 264.601 357.671 295.871H395.632C395.894 290.032 392.235 261.514 397.85 233.977C393.655 233.169 389.412 232.631 385.149 232.368C379.777 232.059 374.392 232.059 369.021 232.368C367.247 232.53 365.493 232.793 363.981 233.067C361.97 233.421 360.114 234.38 358.657 235.816C357.201 237.253 356.214 239.1 355.826 241.112Z" fill="black"/>
<path opacity="0.2" d="M361.632 252.517L354.778 250.868C354.566 255.037 354.546 260.198 354.848 266.584C358.003 262.981 362.035 257.355 361.632 252.517Z" fill="black"/>
<path opacity="0.2" d="M368.406 460.483L368.769 468.984H375.865L375.502 460.483H368.406Z" fill="black"/>
<path opacity="0.2" d="M421.286 458.318L414.351 459.825L417.939 467.739L424.874 466.231L421.286 458.318Z" fill="black"/>
<path d="M386.489 208.89C384.675 215.711 383.949 219.799 379.756 222.633C373.456 226.944 365.594 222.005 365.392 214.8C365.17 208.293 368.184 198.223 375.472 196.847C377.073 196.545 378.725 196.658 380.271 197.174C381.818 197.691 383.207 198.594 384.309 199.799C385.412 201.004 386.19 202.471 386.572 204.061C386.953 205.652 386.925 207.313 386.489 208.89Z" fill="#FF8B7B"/>
<path d="M370.583 209.143C370.24 208.232 368.678 201.178 370.15 199.347C371.621 197.515 388.405 198.841 390.884 201.29C395.007 205.338 392.144 208.981 387.639 213.667C384.252 217.188 384.121 221.155 382.407 221.763C379.383 222.775 374.766 221.823 373.839 218.615C372.912 215.407 370.583 209.143 370.583 209.143Z" fill="#263238"/>
<path d="M388.848 193.265C382.921 190.735 371.803 193.538 365.795 192.081C365.719 194.323 366.453 196.518 367.863 198.259C369.273 200 371.264 201.17 373.466 201.553C378.45 202.506 383.513 202.977 388.586 202.96C395.178 202.656 393.888 195.42 388.848 193.265Z" fill="#263238"/>
<path d="M389.776 201.502C391.941 201.716 394.121 201.298 396.055 200.298C397.164 202.99 391.066 203.729 389.776 201.502Z" fill="#263238"/>
<path d="M373.809 209.426C373.673 211.181 372.964 212.842 371.793 214.152C370.241 215.863 368.628 214.79 368.356 212.715C368.114 210.833 368.618 207.655 370.513 206.744C372.408 205.834 373.94 207.311 373.809 209.426Z" fill="#FF8B7B"/>
<path d="M371.127 295.902C371.127 295.902 379.191 350.297 383.596 370.678C388.425 392.993 414.371 466.818 414.371 466.818L427.061 464.056C427.061 464.056 408.917 403.882 404.885 372.682C401.761 348.718 395.622 295.881 395.622 295.881L371.127 295.902Z" fill="#166FFF"/>
<path d="M411.327 462.578C411.276 462.578 413.695 467.193 413.695 467.193L427.969 464.086L426.769 459.775L411.327 462.578Z" fill="#263238"/>
<path opacity="0.3" d="M376.218 315.281C385.522 317.113 384.534 351.946 383.415 369.869C380.734 357.198 376.802 332.829 374.121 315.534C374.771 315.212 375.511 315.123 376.218 315.281Z" fill="black"/>
<path d="M357.671 295.902C357.671 295.902 356.663 349.123 357.469 370.79C358.275 393.367 366.128 467.294 366.128 467.294H378.143C378.143 467.294 378.577 394.683 379.151 372.51C379.736 348.344 382.639 295.861 382.639 295.861L357.671 295.902Z" fill="#166FFF"/>
<path d="M363.819 462.538C363.759 462.538 364.495 467.537 364.495 467.537H379.101L379.504 463.074L363.819 462.538Z" fill="#263238"/>
<path d="M370.684 243.48C374.081 252.679 354.112 263.518 354.112 263.518L345.464 252.386C345.464 252.386 351.28 240.829 358.336 235.627C367.055 229.211 368.093 236.477 370.684 243.48Z" fill="#166FFF"/>
<path opacity="0.4" d="M370.684 243.48C374.081 252.679 354.112 263.518 354.112 263.518L345.464 252.386C345.464 252.386 351.28 240.829 358.336 235.627C367.055 229.211 368.093 236.477 370.684 243.48Z" fill="black"/>
<path d="M448.925 173.642C469.016 173.642 485.304 163.221 485.304 150.366C485.304 137.511 469.016 127.09 448.925 127.09C428.834 127.09 412.546 137.511 412.546 150.366C412.546 163.221 428.834 173.642 448.925 173.642Z" fill="#166FFF"/>
<path d="M435.801 162.085C433.404 162.077 431.087 161.222 429.257 159.669C427.426 158.116 426.199 155.965 425.791 153.594C425.39 151.026 425.967 148.4 427.408 146.24C428.848 144.08 431.045 142.543 433.563 141.936C435.629 141.458 437.792 141.642 439.749 142.463C441.705 143.283 443.356 144.699 444.47 146.51L467.825 141.673C468.723 141.476 469.661 141.625 470.453 142.093C471.246 142.56 471.833 143.31 472.099 144.193C472.221 144.657 472.248 145.142 472.177 145.616C472.107 146.091 471.94 146.547 471.688 146.955C471.436 147.363 471.104 147.716 470.712 147.991C470.32 148.266 469.876 148.458 469.408 148.555L468.803 148.676C468.713 148.692 468.628 148.729 468.555 148.783C468.481 148.838 468.421 148.908 468.379 148.99C468.342 149.072 468.323 149.162 468.323 149.253C468.323 149.344 468.342 149.433 468.379 149.516L468.793 150.589C468.931 150.936 468.945 151.322 468.83 151.678C468.716 152.035 468.482 152.34 468.168 152.542C467.92 152.695 467.71 152.904 467.555 153.151C467.399 153.398 467.302 153.678 467.271 153.969C467.241 154.302 467.107 154.618 466.888 154.871C466.669 155.123 466.376 155.3 466.051 155.375L465.577 155.477C465.249 155.538 464.91 155.492 464.609 155.346C464.308 155.201 464.061 154.963 463.904 154.667C463.695 154.314 463.381 154.035 463.006 153.87C462.632 153.704 462.215 153.66 461.815 153.744C461.414 153.828 461.05 154.035 460.772 154.336C460.494 154.638 460.317 155.019 460.265 155.426C460.237 155.757 460.105 156.071 459.887 156.322C459.67 156.573 459.378 156.749 459.055 156.823L458.582 156.924C458.253 156.983 457.915 156.937 457.614 156.791C457.314 156.646 457.067 156.409 456.908 156.114C456.757 155.863 456.554 155.648 456.312 155.484C456.07 155.32 455.795 155.21 455.507 155.163C455.12 155.116 454.762 154.929 454.503 154.636C454.243 154.344 454.098 153.966 454.096 153.574V152.42C454.092 152.33 454.069 152.242 454.027 152.161C453.986 152.081 453.928 152.011 453.857 151.955C453.786 151.899 453.704 151.86 453.617 151.839C453.529 151.818 453.438 151.816 453.35 151.833L445.901 153.372C445.597 155.444 444.665 157.371 443.231 158.892C441.797 160.413 439.931 161.454 437.887 161.872C437.201 162.013 436.502 162.085 435.801 162.085ZM433.785 142.857C431.499 143.393 429.5 144.779 428.19 146.736C426.881 148.692 426.359 151.074 426.729 153.402C427.125 155.568 428.281 157.519 429.986 158.904C431.691 160.288 433.833 161.015 436.026 160.951C438.218 160.887 440.315 160.038 441.938 158.557C443.56 157.076 444.602 155.061 444.873 152.876V152.511L453.088 150.842C453.324 150.784 453.569 150.781 453.806 150.83C454.044 150.88 454.267 150.983 454.46 151.13C454.653 151.277 454.811 151.466 454.922 151.682C455.034 151.898 455.096 152.137 455.104 152.38V153.534C455.106 153.671 455.156 153.803 455.244 153.908C455.332 154.013 455.453 154.085 455.588 154.11C456.029 154.174 456.449 154.337 456.818 154.588C457.186 154.838 457.493 155.17 457.715 155.558C457.768 155.667 457.854 155.757 457.961 155.815C458.067 155.873 458.189 155.896 458.309 155.881L458.773 155.78C458.891 155.75 458.995 155.682 459.072 155.587C459.148 155.493 459.192 155.376 459.197 155.254C459.26 154.624 459.521 154.031 459.943 153.56C460.364 153.088 460.924 152.764 461.541 152.634C462.158 152.503 462.801 152.573 463.376 152.833C463.951 153.093 464.429 153.529 464.741 154.08C464.792 154.188 464.876 154.278 464.981 154.336C465.086 154.394 465.206 154.418 465.325 154.404L465.809 154.303C465.925 154.27 466.027 154.202 466.101 154.107C466.176 154.013 466.218 153.897 466.222 153.776C466.272 153.332 466.423 152.905 466.662 152.528C466.901 152.151 467.223 151.834 467.603 151.601C467.714 151.52 467.795 151.405 467.834 151.273C467.872 151.141 467.865 151 467.815 150.872L467.402 149.799C467.316 149.578 467.28 149.341 467.295 149.104C467.311 148.867 467.377 148.637 467.49 148.429C467.604 148.221 467.761 148.04 467.951 147.899C468.141 147.758 468.36 147.661 468.591 147.613L469.206 147.482C469.539 147.411 469.854 147.273 470.132 147.076C470.411 146.88 470.647 146.629 470.827 146.339C471.006 146.049 471.126 145.726 471.178 145.388C471.231 145.051 471.215 144.706 471.131 144.375C470.935 143.738 470.505 143.199 469.929 142.867C469.353 142.535 468.674 142.434 468.027 142.584L444.016 147.593L443.835 147.279C442.87 145.555 441.372 144.193 439.568 143.399C437.764 142.605 435.752 142.422 433.835 142.877L433.785 142.857ZM435.801 158.32C434.549 158.334 433.32 157.983 432.263 157.308C431.013 156.484 430.086 155.251 429.641 153.818C429.195 152.385 429.259 150.841 429.82 149.45C430.382 148.058 431.407 146.906 432.72 146.188C434.033 145.47 435.554 145.232 437.023 145.514C438.491 145.796 439.817 146.581 440.774 147.734C441.731 148.888 442.259 150.339 442.27 151.84C442.28 153.341 441.772 154.8 440.831 155.967C439.89 157.134 438.576 157.937 437.111 158.239C436.682 158.317 436.247 158.351 435.811 158.341L435.801 158.32ZM435.801 146.369C435.425 146.371 435.051 146.408 434.682 146.48C433.98 146.63 433.314 146.918 432.722 147.326C432.131 147.735 431.625 148.256 431.234 148.861C430.844 149.466 430.575 150.142 430.445 150.851C430.314 151.559 430.324 152.287 430.474 152.992C430.623 153.697 430.91 154.366 431.316 154.96C431.723 155.553 432.243 156.061 432.845 156.453C433.448 156.846 434.121 157.115 434.827 157.246C435.533 157.377 436.258 157.367 436.96 157.217C438.014 156.997 438.98 156.468 439.735 155.698C440.491 154.927 441.002 153.949 441.204 152.888C441.407 151.826 441.292 150.728 440.874 149.731C440.456 148.735 439.753 147.886 438.855 147.29C437.963 146.694 436.913 146.38 435.841 146.389L435.801 146.369Z" fill="white"/>
<path opacity="0.6" d="M419.32 187.294C425.923 187.294 431.275 183.868 431.275 179.643C431.275 175.418 425.923 171.992 419.32 171.992C412.718 171.992 407.365 175.418 407.365 179.643C407.365 183.868 412.718 187.294 419.32 187.294Z" fill="#166FFF"/>
<path opacity="0.3" d="M400.299 190.431C403.01 190.431 405.208 189.026 405.208 187.294C405.208 185.561 403.01 184.157 400.299 184.157C397.588 184.157 395.39 185.561 395.39 187.294C395.39 189.026 397.588 190.431 400.299 190.431Z" fill="#166FFF"/>
</svg>
