<svg width="110" height="24" viewBox="0 0 110 24" fill="none" xmlns="http://www.w3.org/2000/svg">
<path d="M3.46405 8.66749V11.4759H8.10304V14.0865H3.46405V17.1323H8.71077V19.8418H0V5.95797H8.71077V8.66749H3.46405Z" fill="#F5F5F5"/>
<path d="M19.3666 11.4957V14.3041H10.4532V11.4957H19.3666Z" fill="#F5F5F5"/>
<path d="M21.5155 12.8801C21.5155 11.5089 21.8193 10.2892 22.4271 9.22126C23.0348 8.14009 23.8789 7.30284 24.9593 6.70952C26.0532 6.10301 27.2889 5.79975 28.6664 5.79975C30.3545 5.79975 31.7996 6.23486 33.0015 7.10507C34.2035 7.97528 35.007 9.16193 35.4122 10.665H31.6038C31.3202 10.0849 30.915 9.64318 30.3883 9.33993C29.8751 9.03667 29.2876 8.88504 28.6259 8.88504C27.559 8.88504 26.6947 9.24763 26.0329 9.97281C25.3712 10.698 25.0403 11.6671 25.0403 12.8801C25.0403 14.0931 25.3712 15.0622 26.0329 15.7874C26.6947 16.5126 27.559 16.8752 28.6259 16.8752C29.2876 16.8752 29.8751 16.7235 30.3883 16.4203C30.915 16.117 31.3202 15.6753 31.6038 15.0952H35.4122C35.007 16.5983 34.2035 17.7849 33.0015 18.6551C31.7996 19.5122 30.3545 19.9407 28.6664 19.9407C27.2889 19.9407 26.0532 19.644 24.9593 19.0507C23.8789 18.4442 23.0348 17.6069 22.4271 16.5389C21.8193 15.471 21.5155 14.2513 21.5155 12.8801Z" fill="#F5F5F5"/>
<path d="M40.6937 5.20643V19.8418H37.2297V5.20643H40.6937Z" fill="#F5F5F5"/>
<path d="M44.6424 7.65884C44.0346 7.65884 43.535 7.48743 43.1433 7.14462C42.7652 6.78863 42.5761 6.35352 42.5761 5.83931C42.5761 5.31191 42.7652 4.8768 43.1433 4.53399C43.535 4.178 44.0346 4 44.6424 4C45.2366 4 45.7228 4.178 46.1009 4.53399C46.4926 4.8768 46.6884 5.31191 46.6884 5.83931C46.6884 6.35352 46.4926 6.78863 46.1009 7.14462C45.7228 7.48743 45.2366 7.65884 44.6424 7.65884ZM46.3643 8.80593V19.8418H42.9002V8.80593H46.3643Z" fill="#F5F5F5"/>
<path d="M55.4583 8.68727C56.7818 8.68727 57.8352 9.10919 58.6185 9.95303C59.4153 10.7837 59.8137 11.9308 59.8137 13.3943V19.8418H56.3699V13.8492C56.3699 13.1108 56.1741 12.5373 55.7825 12.1286C55.3908 11.7198 54.8641 11.5155 54.2024 11.5155C53.5406 11.5155 53.0139 11.7198 52.6223 12.1286C52.2306 12.5373 52.0348 13.1108 52.0348 13.8492V19.8418H48.5708V8.80593H52.0348V10.2695C52.3859 9.78162 52.8586 9.39926 53.4528 9.12237C54.0471 8.8323 54.7156 8.68727 55.4583 8.68727Z" fill="#F5F5F5"/>
<path d="M63.6592 7.65884C63.0515 7.65884 62.5518 7.48743 62.1601 7.14462C61.782 6.78863 61.5929 6.35352 61.5929 5.83931C61.5929 5.31191 61.782 4.8768 62.1601 4.53399C62.5518 4.178 63.0515 4 63.6592 4C64.2534 4 64.7396 4.178 65.1177 4.53399C65.5094 4.8768 65.7052 5.31191 65.7052 5.83931C65.7052 6.35352 65.5094 6.78863 65.1177 7.14462C64.7396 7.48743 64.2534 7.65884 63.6592 7.65884ZM65.3811 8.80593V19.8418H61.917V8.80593H65.3811Z" fill="#F5F5F5"/>
<path d="M66.8988 14.3239C66.8988 13.1768 67.1352 12.1747 67.6078 11.3177C68.094 10.4607 68.7625 9.8014 69.6133 9.33993C70.4777 8.87845 71.4635 8.64771 72.571 8.64771C73.989 8.64771 75.1707 9.0103 76.116 9.73548C77.0749 10.4607 77.7029 11.4825 78 12.801H74.3131C74.0025 11.9571 73.4015 11.5352 72.5102 11.5352C71.8755 11.5352 71.369 11.7792 70.9909 12.267C70.6127 12.7417 70.4237 13.4273 70.4237 14.3239C70.4237 15.2204 70.6127 15.9127 70.9909 16.4005C71.369 16.8752 71.8755 17.1125 72.5102 17.1125C73.4015 17.1125 74.0025 16.6906 74.3131 15.8467H78C77.7029 17.1389 77.0749 18.1541 76.116 18.8925C75.1572 19.6308 73.9755 20 72.571 20C71.4635 20 70.4777 19.7693 69.6133 19.3078C68.7625 18.8463 68.094 18.1871 67.6078 17.33C67.1352 16.473 66.8988 15.471 66.8988 14.3239Z" fill="#F5F5F5"/>
<g clip-path="url(#clip0_317_14916)">
<path d="M89.9768 2.66667C90.7141 2.66667 91.3117 2.06971 91.3117 1.33333C91.3117 0.596953 90.7141 0 89.9768 0C89.4827 0 89.0514 0.268133 88.8206 0.666667H88.642C87.5361 0.666667 86.6397 1.5621 86.6397 2.66667V8.66667C86.2711 8.66667 85.9691 8.9658 86.0025 9.33247C86.1577 11.0333 86.9037 12.6347 88.1226 13.8521C89.0164 14.7449 90.1169 15.3837 91.3117 15.722V17.3333C91.3117 18.2043 91.869 18.9451 92.6469 19.2196C92.6753 21.8646 94.8308 24 97.4855 24C100.158 24 102.324 21.8361 102.324 19.1667V16.5C102.324 15.1193 103.445 14 104.827 14C106.21 14 107.33 15.1193 107.33 16.5V18.1138C106.553 18.3883 105.995 19.1292 105.995 20C105.995 21.1046 106.892 22 107.998 22C109.104 22 110 21.1046 110 20C110 19.1292 109.443 18.3883 108.665 18.1138V16.5C108.665 14.3829 106.947 12.6667 104.827 12.6667C102.708 12.6667 100.99 14.3829 100.99 16.5V19.1667C100.99 21.0997 99.4208 22.6667 97.4855 22.6667C95.5679 22.6667 94.0101 21.1281 93.9819 19.2194C94.7594 18.9447 95.3164 18.204 95.3164 17.3333V15.722C96.5112 15.3837 97.6117 14.7449 98.5055 13.8521C99.7244 12.6347 100.47 11.0333 100.626 9.33247C100.659 8.9658 100.357 8.66667 99.9884 8.66667V2.66667C99.9884 1.5621 99.092 0.666667 97.9861 0.666667H97.8075C97.5767 0.268133 97.1453 0 96.6512 0C95.914 0 95.3164 0.596953 95.3164 1.33333C95.3164 2.06971 95.914 2.66667 96.6512 2.66667C97.1453 2.66667 97.5767 2.39853 97.8075 2H97.9861C98.3547 2 98.6535 2.29848 98.6535 2.66667V8.66667H98.7934C98.4247 8.66667 98.1307 8.9666 98.0798 9.33127C97.9359 10.3604 97.4606 11.322 96.7166 12.0653C95.8141 12.9666 94.5902 13.473 93.314 13.473C92.0379 13.473 90.8139 12.9666 89.9116 12.0653C89.1674 11.322 88.6922 10.3604 88.5484 9.33127C88.4974 8.9666 88.2034 8.66667 87.8347 8.66667H87.9745V2.66667C87.9745 2.29848 88.2734 2 88.642 2H88.8206C89.0514 2.39853 89.4827 2.66667 89.9768 2.66667Z" fill="#F5F5F5"/>
</g>
<defs>
<clipPath id="clip0_317_14916">
<rect width="24" height="24" fill="white" transform="translate(86)"/>
</clipPath>
</defs>
</svg>
