<svg width="109" height="24" viewBox="0 0 109 24" fill="none" xmlns="http://www.w3.org/2000/svg">
<path d="M3.41964 8.66749V11.4759H7.99916V14.0865H3.41964V17.1323H8.59909V19.8418H0V5.95797H8.59909V8.66749H3.41964Z" fill="#166FFF"/>
<path d="M19.1183 11.4957V14.3041H10.3192V11.4957H19.1183Z" fill="#166FFF"/>
<path d="M21.2396 12.8801C21.2396 11.5089 21.5396 10.2892 22.1395 9.22126C22.7395 8.14009 23.5727 7.30284 24.6393 6.70952C25.7192 6.10301 26.939 5.79975 28.2989 5.79975C29.9654 5.79975 31.3919 6.23486 32.5784 7.10507C33.765 7.97528 34.5582 9.16193 34.9582 10.665H31.1986C30.9186 10.0849 30.5187 9.64318 29.9987 9.33993C29.4921 9.03667 28.9122 8.88504 28.2589 8.88504C27.2057 8.88504 26.3524 9.24763 25.6992 9.97281C25.0459 10.698 24.7193 11.6671 24.7193 12.8801C24.7193 14.0931 25.0459 15.0622 25.6992 15.7874C26.3524 16.5126 27.2057 16.8752 28.2589 16.8752C28.9122 16.8752 29.4921 16.7235 29.9987 16.4203C30.5187 16.117 30.9186 15.6753 31.1986 15.0952H34.9582C34.5582 16.5983 33.765 17.7849 32.5784 18.6551C31.3919 19.5122 29.9654 19.9407 28.2989 19.9407C26.939 19.9407 25.7192 19.644 24.6393 19.0507C23.5727 18.4442 22.7395 17.6069 22.1395 16.5389C21.5396 15.471 21.2396 14.2513 21.2396 12.8801Z" fill="#166FFF"/>
<path d="M40.172 5.20643V19.8418H36.7524V5.20643H40.172Z" fill="#166FFF"/>
<path d="M44.07 7.65884C43.4701 7.65884 42.9768 7.48743 42.5902 7.14462C42.2169 6.78863 42.0302 6.35352 42.0302 5.83931C42.0302 5.31191 42.2169 4.8768 42.5902 4.53399C42.9768 4.178 43.4701 4 44.07 4C44.6566 4 45.1366 4.178 45.5099 4.53399C45.8965 4.8768 46.0898 5.31191 46.0898 5.83931C46.0898 6.35352 45.8965 6.78863 45.5099 7.14462C45.1366 7.48743 44.6566 7.65884 44.07 7.65884ZM45.7699 8.80593V19.8418H42.3502V8.80593H45.7699Z" fill="#166FFF"/>
<path d="M54.7473 8.68727C56.0539 8.68727 57.0938 9.10919 57.867 9.95303C58.6536 10.7837 59.0469 11.9308 59.0469 13.3943V19.8418H55.6472V13.8492C55.6472 13.1108 55.4539 12.5373 55.0673 12.1286C54.6807 11.7198 54.1607 11.5155 53.5075 11.5155C52.8542 11.5155 52.3343 11.7198 51.9476 12.1286C51.561 12.5373 51.3677 13.1108 51.3677 13.8492V19.8418H47.9481V8.80593H51.3677V10.2695C51.7143 9.78162 52.1809 9.39926 52.7676 9.12237C53.3542 8.8323 54.0141 8.68727 54.7473 8.68727Z" fill="#166FFF"/>
<path d="M62.8431 7.65884C62.2431 7.65884 61.7498 7.48743 61.3632 7.14462C60.9899 6.78863 60.8033 6.35352 60.8033 5.83931C60.8033 5.31191 60.9899 4.8768 61.3632 4.53399C61.7498 4.178 62.2431 4 62.8431 4C63.4297 4 63.9096 4.178 64.2829 4.53399C64.6695 4.8768 64.8628 5.31191 64.8628 5.83931C64.8628 6.35352 64.6695 6.78863 64.2829 7.14462C63.9096 7.48743 63.4297 7.65884 62.8431 7.65884ZM64.5429 8.80593V19.8418H61.1232V8.80593H64.5429Z" fill="#166FFF"/>
<path d="M66.0412 14.3239C66.0412 13.1768 66.2745 12.1747 66.7411 11.3177C67.221 10.4607 67.881 9.8014 68.7209 9.33993C69.5741 8.87845 70.5473 8.64771 71.6406 8.64771C73.0404 8.64771 74.207 9.0103 75.1402 9.73548C76.0868 10.4607 76.7067 11.4825 77 12.801H73.3604C73.0537 11.9571 72.4605 11.5352 71.5806 11.5352C70.954 11.5352 70.454 11.7792 70.0807 12.267C69.7074 12.7417 69.5208 13.4273 69.5208 14.3239C69.5208 15.2204 69.7074 15.9127 70.0807 16.4005C70.454 16.8752 70.954 17.1125 71.5806 17.1125C72.4605 17.1125 73.0537 16.6906 73.3604 15.8467H77C76.7067 17.1389 76.0868 18.1541 75.1402 18.8925C74.1936 19.6308 73.0271 20 71.6406 20C70.5473 20 69.5741 19.7693 68.7209 19.3078C67.881 18.8463 67.221 18.1871 66.7411 17.33C66.2745 16.473 66.0412 15.471 66.0412 14.3239Z" fill="#166FFF"/>
<g clip-path="url(#clip0_929_6958)">
<path d="M88.9768 2.66667C89.7141 2.66667 90.3117 2.06971 90.3117 1.33333C90.3117 0.596953 89.7141 0 88.9768 0C88.4827 0 88.0514 0.268133 87.8206 0.666667H87.642C86.5361 0.666667 85.6397 1.5621 85.6397 2.66667V8.66667C85.2711 8.66667 84.9691 8.9658 85.0025 9.33247C85.1577 11.0333 85.9037 12.6347 87.1226 13.8521C88.0164 14.7449 89.1169 15.3837 90.3117 15.722V17.3333C90.3117 18.2043 90.869 18.9451 91.6469 19.2196C91.6753 21.8646 93.8308 24 96.4855 24C99.158 24 101.324 21.8361 101.324 19.1667V16.5C101.324 15.1193 102.445 14 103.827 14C105.21 14 106.33 15.1193 106.33 16.5V18.1138C105.553 18.3883 104.995 19.1292 104.995 20C104.995 21.1046 105.892 22 106.998 22C108.104 22 109 21.1046 109 20C109 19.1292 108.443 18.3883 107.665 18.1138V16.5C107.665 14.3829 105.947 12.6667 103.827 12.6667C101.708 12.6667 99.9896 14.3829 99.9896 16.5V19.1667C99.9896 21.0997 98.4208 22.6667 96.4855 22.6667C94.5679 22.6667 93.0101 21.1281 92.9819 19.2194C93.7594 18.9447 94.3164 18.204 94.3164 17.3333V15.722C95.5112 15.3837 96.6117 14.7449 97.5055 13.8521C98.7244 12.6347 99.4704 11.0333 99.6256 9.33247C99.6591 8.9658 99.357 8.66667 98.9884 8.66667V2.66667C98.9884 1.5621 98.092 0.666667 96.9861 0.666667H96.8075C96.5767 0.268133 96.1453 0 95.6512 0C94.914 0 94.3164 0.596953 94.3164 1.33333C94.3164 2.06971 94.914 2.66667 95.6512 2.66667C96.1453 2.66667 96.5767 2.39853 96.8075 2H96.9861C97.3547 2 97.6535 2.29848 97.6535 2.66667V8.66667H97.7934C97.4247 8.66667 97.1307 8.9666 97.0797 9.33127C96.9359 10.3604 96.4606 11.322 95.7166 12.0653C94.8141 12.9666 93.5902 13.473 92.314 13.473C91.0379 13.473 89.8139 12.9666 88.9116 12.0653C88.1674 11.322 87.6922 10.3604 87.5484 9.33127C87.4974 8.9666 87.2034 8.66667 86.8347 8.66667H86.9745V2.66667C86.9745 2.29848 87.2734 2 87.642 2H87.8206C88.0514 2.39853 88.4827 2.66667 88.9768 2.66667Z" fill="#166FFF"/>
</g>
<defs>
<clipPath id="clip0_929_6958">
<rect width="24" height="24" fill="white" transform="translate(85)"/>
</clipPath>
</defs>
</svg>
