<svg width="632" height="632" viewBox="0 0 632 632" fill="none" xmlns="http://www.w3.org/2000/svg">
<g style="mix-blend-mode:color-dodge" opacity="0.5">
<circle opacity="0.1" cx="316" cy="316" r="280" fill="white"/>
<circle opacity="0.1" cx="316" cy="316" r="316" fill="white"/>
<circle opacity="0.1" cx="316" cy="316" r="242" fill="white"/>
</g>
<path d="M568 449.989H64V450.242H568V449.989Z" fill="#EBEBEB"/>
<path d="M302.896 404.854H108.261C106.736 404.851 105.275 404.241 104.198 403.158C103.121 402.074 102.516 400.606 102.516 399.075V124.388C102.529 122.866 103.14 121.411 104.216 120.338C105.291 119.266 106.745 118.663 108.261 118.66H302.896C304.422 118.66 305.886 119.269 306.966 120.353C308.045 121.436 308.652 122.906 308.652 124.439V399.075C308.652 400.608 308.045 402.077 306.966 403.161C305.886 404.245 304.422 404.854 302.896 404.854ZM108.261 118.862C106.803 118.865 105.406 119.448 104.376 120.484C103.346 121.52 102.768 122.924 102.768 124.388V399.075C102.768 400.539 103.346 401.943 104.376 402.979C105.406 404.015 106.803 404.598 108.261 404.601H302.896C304.355 404.598 305.753 404.015 306.785 402.979C307.816 401.944 308.397 400.54 308.4 399.075V124.388C308.397 122.923 307.816 121.519 306.785 120.484C305.753 119.448 304.355 118.865 302.896 118.862H108.261Z" fill="#EBEBEB"/>
<path d="M520.936 404.854H326.292C324.766 404.851 323.304 404.241 322.225 403.158C321.146 402.075 320.539 400.607 320.536 399.075V124.388C320.552 122.865 321.165 121.41 322.242 120.338C323.32 119.265 324.775 118.663 326.292 118.66H520.936C522.451 118.665 523.902 119.27 524.976 120.342C526.049 121.414 526.659 122.868 526.672 124.388V399.075C526.672 400.604 526.068 402.071 524.993 403.154C523.918 404.237 522.46 404.848 520.936 404.854ZM326.292 118.862C324.833 118.865 323.435 119.448 322.403 120.484C321.371 121.519 320.791 122.923 320.788 124.388V399.075C320.791 400.54 321.371 401.944 322.403 402.979C323.435 404.015 324.833 404.598 326.292 404.601H520.936C522.395 404.598 523.794 404.015 524.825 402.979C525.857 401.944 526.438 400.54 526.44 399.075V124.388C526.438 122.923 525.857 121.519 524.825 120.484C523.794 119.448 522.395 118.865 520.936 118.862H326.292Z" fill="#EBEBEB"/>
<path d="M517.499 466.272H491.291V466.525H517.499V466.272Z" fill="#EBEBEB"/>
<path d="M422.878 469.025H377.488V469.278H422.878V469.025Z" fill="#EBEBEB"/>
<path d="M490.283 456.881H429.007V457.134H490.283V456.881Z" fill="#EBEBEB"/>
<path d="M136.263 458.581H116.88V458.834H136.263V458.581Z" fill="#EBEBEB"/>
<path d="M200.977 458.581H145.245V458.834H200.977V458.581Z" fill="#EBEBEB"/>
<path d="M310.093 462.851H235.027V463.104H310.093V462.851Z" fill="#EBEBEB"/>
<path d="M445.619 444.807H453.683V294.981H445.619V444.807Z" fill="#F0F0F0"/>
<path d="M406.922 449.969H451.566V444.797H406.922V449.969Z" fill="#F0F0F0"/>
<path d="M445.629 294.971H404.785V444.797H445.629V294.971Z" fill="#F5F5F5"/>
<path d="M441.274 372.996H409.139V399.753H441.274V372.996Z" fill="#F0F0F0"/>
<path d="M441.274 408.011H409.139V434.768H441.274V408.011Z" fill="#F0F0F0"/>
<path d="M420.923 388.206H429.481C430.138 388.206 430.67 387.672 430.67 387.012V385.727C430.67 385.067 430.138 384.533 429.481 384.533H420.923C420.266 384.533 419.733 385.067 419.733 385.727V387.012C419.733 387.672 420.266 388.206 420.923 388.206Z" fill="#F5F5F5"/>
<path d="M420.923 423.221H429.481C430.138 423.221 430.67 422.687 430.67 422.027V420.742C430.67 420.083 430.138 419.548 429.481 419.548H420.923C420.266 419.548 419.733 420.083 419.733 420.742V422.027C419.733 422.687 420.266 423.221 420.923 423.221Z" fill="#F5F5F5"/>
<path d="M441.274 303.239H409.139V329.996H441.274V303.239Z" fill="#F0F0F0"/>
<path d="M441.274 337.971H409.139V364.728H441.274V337.971Z" fill="#F0F0F0"/>
<path d="M420.923 318.449H429.481C430.138 318.449 430.67 317.914 430.67 317.255V315.97C430.67 315.31 430.138 314.776 429.481 314.776H420.923C420.266 314.776 419.733 315.31 419.733 315.97V317.255C419.733 317.914 420.266 318.449 420.923 318.449Z" fill="#F5F5F5"/>
<path d="M420.923 353.191H429.481C430.138 353.191 430.67 352.656 430.67 351.997V350.712C430.67 350.052 430.138 349.517 429.481 349.517H420.923C420.266 349.517 419.733 350.052 419.733 350.712V351.997C419.733 352.656 420.266 353.191 420.923 353.191Z" fill="#F5F5F5"/>
<path d="M490.324 444.807H514.516V294.981H490.324V444.807Z" fill="#F0F0F0"/>
<path d="M451.596 449.969H512.026V444.797H451.596V449.969Z" fill="#F0F0F0"/>
<path d="M490.324 294.971H449.479V444.797H490.324V294.971Z" fill="#F5F5F5"/>
<path d="M485.969 372.996H453.834V399.753H485.969V372.996Z" fill="#F0F0F0"/>
<path d="M485.969 408.011H453.834V434.768H485.969V408.011Z" fill="#F0F0F0"/>
<path d="M465.617 388.206H474.175C474.832 388.206 475.365 387.672 475.365 387.012V385.727C475.365 385.067 474.832 384.533 474.175 384.533H465.617C464.96 384.533 464.428 385.067 464.428 385.727V387.012C464.428 387.672 464.96 388.206 465.617 388.206Z" fill="#F5F5F5"/>
<path d="M465.617 423.221H474.175C474.832 423.221 475.365 422.687 475.365 422.027V420.742C475.365 420.083 474.832 419.548 474.175 419.548H465.617C464.96 419.548 464.428 420.083 464.428 420.742V422.027C464.428 422.687 464.96 423.221 465.617 423.221Z" fill="#F5F5F5"/>
<path d="M485.969 303.239H453.834V329.996H485.969V303.239Z" fill="#F0F0F0"/>
<path d="M485.969 337.971H453.834V364.728H485.969V337.971Z" fill="#F0F0F0"/>
<path d="M465.617 318.449H474.175C474.832 318.449 475.365 317.914 475.365 317.255V315.97C475.365 315.31 474.832 314.776 474.175 314.776H465.617C464.96 314.776 464.428 315.31 464.428 315.97V317.255C464.428 317.914 464.96 318.449 465.617 318.449Z" fill="#F5F5F5"/>
<path d="M465.617 353.191H474.175C474.832 353.191 475.365 352.656 475.365 351.997V350.712C475.365 350.052 474.832 349.517 474.175 349.517H465.617C464.96 349.517 464.428 350.052 464.428 350.712V351.997C464.428 352.656 464.96 353.191 465.617 353.191Z" fill="#F5F5F5"/>
<path d="M358.971 263.7H494.759V144.021H358.971V263.7Z" fill="#E6E6E6"/>
<path d="M344.415 139.366H503.548C503.907 139.366 504.25 139.508 504.504 139.763C504.757 140.017 504.899 140.362 504.899 140.722C504.896 141.08 504.753 141.422 504.5 141.674C504.247 141.926 503.905 142.068 503.548 142.068H344.415C344.061 142.065 343.721 141.922 343.47 141.67C343.22 141.419 343.077 141.078 343.075 140.722C343.075 140.364 343.216 140.02 343.467 139.766C343.718 139.512 344.059 139.368 344.415 139.366Z" fill="#E6E6E6"/>
<path d="M353.215 263.7H492.077V144.021H353.215V263.7Z" fill="#F0F0F0"/>
<path d="M358.971 263.7H494.759V267.535H355L358.971 263.7Z" fill="#E6E6E6"/>
<path d="M343.609 263.7H482.471L478.5 267.535H339.638L343.609 263.7Z" fill="#F0F0F0"/>
<path d="M484.003 255.604V152.117H361.279V255.604H484.003Z" fill="#FAFAFA"/>
<path d="M456.142 255.604L408.796 152.117H386.449L433.795 255.604H456.142Z" fill="white"/>
<path d="M428.997 255.604L381.651 152.117H372.932L420.278 255.604H428.997Z" fill="white"/>
<path d="M362.297 255.604V152.117H361.269V255.604H362.297Z" fill="#E6E6E6"/>
<g opacity="0.4">
<path d="M483.903 235.698H497.783V136.937H483.903V235.698Z" fill="#F0F0F0"/>
<path d="M478.5 235.698H489.316V136.937H478.5V235.698Z" fill="#E6E6E6"/>
<path d="M470.033 235.698H483.913V136.937H470.033V235.698Z" fill="#F0F0F0"/>
<path d="M464.62 235.698H475.436V136.937H464.62V235.698Z" fill="#E6E6E6"/>
<path d="M456.142 235.698H470.022V136.937H456.142V235.698Z" fill="#F0F0F0"/>
</g>
<g opacity="0.4">
<path d="M366.44 235.698H374.444V136.937H366.44V235.698Z" fill="#F0F0F0"/>
<path d="M363.326 235.698H369.555V136.937H363.326V235.698Z" fill="#E6E6E6"/>
<path d="M358.437 235.698H366.44V136.937H358.437V235.698Z" fill="#F0F0F0"/>
<path d="M355.332 235.698H361.562V136.937H355.332V235.698Z" fill="#E6E6E6"/>
<path d="M350.433 235.698H358.437V136.937H350.433V235.698Z" fill="#F0F0F0"/>
</g>
<path d="M229.534 216.52H248.746L246.478 167.6H229.534V216.52Z" fill="#F5F5F5"/>
<path d="M259.602 219.162L263.745 240.889H259.602L234.191 219.162H259.602Z" fill="#F5F5F5"/>
<path d="M263.745 219.162V240.889L238.334 219.162H263.745Z" fill="#E6E6E6"/>
<path d="M159.941 219.162L164.084 240.889H159.941L134.53 219.162H159.941Z" fill="#F5F5F5"/>
<path d="M164.084 219.162V240.889L138.673 219.162H164.084Z" fill="#E6E6E6"/>
<path d="M282.403 216.591H254.764V219.728H282.403V216.591Z" fill="#E6E6E6"/>
<path d="M117.353 219.729L254.764 219.729V216.591L117.353 216.591V219.729Z" fill="#F5F5F5"/>
<path d="M201.3 216.52H242.547L247.648 157.237H206.4L201.3 216.52Z" fill="#E6E6E6"/>
<path d="M199.163 216.52H240.41L245.511 157.237H204.263L199.163 216.52Z" fill="#F0F0F0"/>
<path d="M236.953 209.953L241.62 163.795H207.731L203.064 209.953H236.953Z" fill="white"/>
<path d="M182.833 216.52H196.068L194.506 182.831H182.833V216.52Z" fill="#E0E0E0"/>
<path d="M163.399 216.52H191.794L195.312 175.696H166.907L163.399 216.52Z" fill="#F0F0F0"/>
<path d="M161.927 216.52H190.333L193.841 175.696H165.435L161.927 216.52Z" fill="#F5F5F5"/>
<path d="M187.944 211.997L191.149 180.22H167.824L164.609 211.997H187.944Z" fill="#E0E0E0"/>
<path d="M328.459 302.277C328.553 303.409 328.31 304.543 327.762 305.536C327.214 306.529 326.385 307.336 325.379 307.856C324.374 308.376 323.237 308.584 322.114 308.455C320.99 308.326 319.93 307.865 319.067 307.131C318.205 306.397 317.579 305.422 317.268 304.331C316.957 303.239 316.976 302.079 317.322 300.998C317.668 299.917 318.326 298.964 319.212 298.258C320.098 297.553 321.173 297.127 322.3 297.035C323.047 296.973 323.8 297.059 324.514 297.289C325.228 297.519 325.89 297.887 326.462 298.374C327.034 298.861 327.505 299.457 327.847 300.126C328.19 300.796 328.398 301.527 328.459 302.277Z" fill="#E0E0E0"/>
<path d="M339.073 305.273C339.167 306.404 338.925 307.538 338.376 308.531C337.828 309.524 336.999 310.332 335.993 310.852C334.988 311.371 333.851 311.58 332.728 311.451C331.604 311.322 330.544 310.861 329.682 310.127C328.819 309.392 328.193 308.418 327.882 307.326C327.571 306.234 327.59 305.075 327.936 303.994C328.282 302.913 328.94 301.959 329.826 301.254C330.712 300.548 331.787 300.123 332.914 300.031C334.423 299.907 335.919 300.39 337.073 301.373C338.228 302.356 338.947 303.758 339.073 305.273Z" fill="#E0E0E0"/>
<path d="M346.744 301.832C346.836 302.963 346.592 304.097 346.042 305.088C345.493 306.08 344.663 306.886 343.657 307.404C342.651 307.922 341.515 308.129 340.392 307.999C339.268 307.869 338.209 307.407 337.348 306.672C336.486 305.938 335.861 304.963 335.551 303.871C335.241 302.78 335.261 301.62 335.607 300.54C335.954 299.46 336.612 298.507 337.498 297.802C338.384 297.097 339.458 296.672 340.585 296.58C342.095 296.459 343.591 296.945 344.745 297.929C345.899 298.913 346.618 300.317 346.744 301.832Z" fill="#E0E0E0"/>
<path d="M354.838 303.977C354.928 305.106 354.683 306.236 354.133 307.225C353.584 308.213 352.755 309.016 351.751 309.532C350.747 310.048 349.614 310.254 348.494 310.123C347.373 309.993 346.317 309.532 345.458 308.799C344.598 308.066 343.974 307.094 343.665 306.005C343.355 304.917 343.374 303.76 343.719 302.682C344.064 301.604 344.719 300.653 345.602 299.949C346.485 299.245 347.556 298.819 348.679 298.725C349.428 298.663 350.181 298.749 350.895 298.98C351.61 299.21 352.272 299.58 352.845 300.068C353.417 300.556 353.887 301.152 354.23 301.823C354.572 302.494 354.778 303.226 354.838 303.977Z" fill="#E0E0E0"/>
<path d="M362.106 304.868C362.106 304.868 361.441 320.797 335.958 320.797C310.476 320.797 309.75 304.868 309.75 304.868H362.106Z" fill="#F0F0F0"/>
<path d="M124.359 449.989H133.623L133.623 320.827H124.359L124.359 449.989Z" fill="#E6E6E6"/>
<path d="M121.889 449.989H127.343L127.343 320.827H121.889L121.889 449.989Z" fill="#F0F0F0"/>
<path d="M251.7 320.827H120.196V330.512H251.7V320.827Z" fill="#F0F0F0"/>
<path d="M376.238 449.989H385.502V320.827H376.238V449.989Z" fill="#E6E6E6"/>
<path d="M374.504 449.989H379.958V320.827H374.504V449.989Z" fill="#F0F0F0"/>
<path d="M387.155 320.827H255.651V330.512H387.155V320.827Z" fill="#E6E6E6"/>
<path d="M252.476 449.989H261.739V320.827H252.476L252.476 449.989Z" fill="#E6E6E6"/>
<path d="M250.006 449.989H255.459L255.459 320.827H250.006L250.006 449.989Z" fill="#F0F0F0"/>
<path d="M282.877 277.868H214.222L201.985 318.571H270.65L282.877 277.868Z" fill="#E6E6E6"/>
<path d="M270.65 318.571L270.378 320.827H201.713L201.985 318.571H270.65Z" fill="#E6E6E6"/>
<path d="M280.77 277.868H212.105L199.878 318.571H268.533L280.77 277.868Z" fill="#F0F0F0"/>
<path d="M267.193 316.719L278.301 279.73H213.456L202.338 316.719H267.193Z" fill="white"/>
<path d="M250.651 318.571L250.369 320.827H174.759L175.031 318.571H250.651Z" fill="#F0F0F0"/>
<path d="M316 495.691C423.939 495.691 511.441 490.562 511.441 484.235C511.441 477.908 423.939 472.779 316 472.779C208.061 472.779 120.559 477.908 120.559 484.235C120.559 490.562 208.061 495.691 316 495.691Z" fill="#F5F5F5"/>
<path d="M444.57 173.46H328.56C324.581 173.526 320.769 175.078 317.869 177.814C314.968 180.549 313.188 184.272 312.875 188.255L294.832 467.122C294.685 469.021 294.933 470.93 295.561 472.727C296.189 474.524 297.182 476.17 298.479 477.561C299.775 478.952 301.345 480.056 303.089 480.805C304.834 481.553 306.714 481.928 308.611 481.907H424.662C428.64 481.844 432.452 480.294 435.353 477.56C438.253 474.826 440.034 471.104 440.347 467.122L453.29 266.685C453.839 266.493 454.322 266.145 454.68 265.683C455.037 265.222 455.255 264.667 455.306 264.084L457.624 228.219C457.665 227.662 457.523 227.107 457.221 226.637C456.919 226.168 456.473 225.81 455.951 225.618L458.36 188.255C458.507 186.355 458.258 184.445 457.63 182.647C457.002 180.848 456.007 179.201 454.71 177.809C453.413 176.417 451.842 175.312 450.096 174.563C448.35 173.814 446.469 173.439 444.57 173.46Z" fill="#407BFF"/>
<path d="M303.481 245.666H305.759C306.464 245.653 307.139 245.378 307.653 244.894C308.167 244.409 308.483 243.75 308.541 243.045L309.549 228.067C309.574 227.73 309.529 227.392 309.417 227.073C309.305 226.755 309.128 226.463 308.898 226.216C308.668 225.97 308.389 225.774 308.079 225.642C307.77 225.509 307.436 225.443 307.099 225.446H304.831C304.126 225.457 303.449 225.731 302.935 226.216C302.42 226.701 302.105 227.361 302.049 228.067L301.041 243.045C301.016 243.381 301.061 243.719 301.172 244.037C301.284 244.355 301.46 244.646 301.689 244.892C301.918 245.139 302.196 245.335 302.504 245.468C302.812 245.601 303.145 245.668 303.481 245.666Z" fill="#407BFF"/>
<path d="M301.757 272.403H304.025C304.733 272.39 305.41 272.114 305.926 271.628C306.442 271.141 306.76 270.48 306.817 269.772L307.825 254.804C307.85 254.467 307.805 254.129 307.693 253.81C307.581 253.491 307.405 253.2 307.174 252.953C306.944 252.707 306.665 252.511 306.356 252.379C306.046 252.246 305.712 252.18 305.376 252.183H303.108C302.401 252.193 301.723 252.468 301.207 252.952C300.691 253.437 300.373 254.097 300.316 254.804L299.308 269.772C299.279 270.11 299.322 270.45 299.433 270.771C299.544 271.091 299.72 271.385 299.951 271.633C300.182 271.881 300.462 272.077 300.773 272.21C301.084 272.343 301.419 272.408 301.757 272.403Z" fill="#407BFF"/>
<path d="M418.493 481.907H302.483C300.586 481.928 298.705 481.553 296.961 480.805C295.216 480.057 293.646 478.952 292.35 477.561C291.054 476.17 290.06 474.524 289.432 472.727C288.805 470.93 288.556 469.021 288.703 467.122L306.706 188.255C307.022 184.271 308.804 180.548 311.706 177.813C314.608 175.077 318.421 173.525 322.401 173.46H438.401C440.299 173.44 442.18 173.817 443.924 174.566C445.669 175.316 447.239 176.421 448.535 177.813C449.831 179.204 450.824 180.851 451.452 182.649C452.079 184.447 452.328 186.356 452.181 188.255L434.178 467.122C433.865 471.104 432.084 474.826 429.184 477.56C426.283 480.294 422.472 481.844 418.493 481.907Z" fill="#263238"/>
<path opacity="0.2" d="M368.373 470.049C372.437 466.1 372.743 459.799 369.057 455.976C365.371 452.153 359.088 452.255 355.025 456.205C350.961 460.155 350.655 466.456 354.341 470.279C358.027 474.102 364.31 473.999 368.373 470.049Z" fill="white"/>
<path d="M428.977 445.708H297.1C296.651 445.708 296.207 445.615 295.795 445.435C295.383 445.256 295.012 444.993 294.705 444.664C294.398 444.335 294.161 443.946 294.01 443.522C293.858 443.098 293.795 442.646 293.824 442.196L309.256 203.041C309.325 202.215 309.699 201.444 310.306 200.882C310.912 200.32 311.707 200.007 312.532 200.005H444.419C444.868 200.005 445.312 200.098 445.724 200.277C446.136 200.457 446.507 200.719 446.814 201.048C447.121 201.378 447.358 201.766 447.509 202.191C447.661 202.615 447.724 203.066 447.695 203.516L432.253 442.622C432.199 443.457 431.83 444.241 431.222 444.815C430.614 445.388 429.811 445.707 428.977 445.708Z" fill="white"/>
<path opacity="0.2" d="M392.181 351.446C406.932 337.109 408.043 314.236 394.661 300.358C381.279 286.48 358.472 286.851 343.721 301.188C328.969 315.525 327.859 338.398 341.241 352.276C354.623 366.155 377.429 365.783 392.181 351.446Z" fill="#407BFF"/>
<path opacity="0.2" d="M364.384 382.043C333.771 382.043 310.476 357.037 312.462 326.302C314.448 295.568 340.958 270.561 371.581 270.561C402.204 270.561 425.489 295.568 423.503 326.302C421.517 357.037 394.967 382.043 364.384 382.043ZM371.44 271.573C341.381 271.573 315.345 296.124 313.399 326.302C311.454 356.48 334.315 381.031 364.374 381.031C394.433 381.031 420.469 356.48 422.425 326.302C424.38 296.124 401.539 271.573 371.44 271.573Z" fill="#407BFF"/>
<path d="M359.344 343.82L356.32 337.96C349.768 325.199 334.678 313.794 329.406 310.474L334.386 302.996C340.625 306.922 353.094 316.648 360.916 328.205C375.381 311.001 395.824 293.281 423.191 274.164L427.858 281.248C398.626 301.67 377.589 320.342 363.598 338.335L359.344 343.82Z" fill="#407BFF"/>
<path opacity="0.2" d="M357.914 189.379C359.558 187.781 359.679 185.23 358.185 183.68C356.69 182.129 354.146 182.168 352.502 183.766C350.858 185.364 350.737 187.915 352.232 189.465C353.726 191.016 356.27 190.977 357.914 189.379Z" fill="white"/>
<path opacity="0.2" d="M369.333 182.537H402.688C403.206 182.531 403.72 182.634 404.197 182.839C404.673 183.044 405.102 183.347 405.455 183.728C405.808 184.11 406.078 184.561 406.247 185.053C406.416 185.545 406.481 186.067 406.438 186.585C406.355 187.673 405.871 188.691 405.081 189.44C404.29 190.188 403.25 190.614 402.164 190.633H368.819C368.301 190.638 367.787 190.534 367.311 190.329C366.835 190.123 366.406 189.82 366.052 189.44C365.699 189.059 365.428 188.609 365.257 188.117C365.086 187.626 365.019 187.104 365.059 186.585C365.142 185.498 365.626 184.48 366.416 183.731C367.207 182.983 368.247 182.557 369.333 182.537Z" fill="white"/>
<path d="M245.178 257.304C243.475 259.055 241.65 260.988 239.967 262.91C238.283 264.833 236.6 266.807 235.017 268.831C233.435 270.855 231.993 272.879 230.502 275.014L229.494 276.603L228.486 278.212C228.153 278.748 227.85 279.295 227.558 279.851L226.752 281.339C226.423 282.19 226.236 283.089 226.197 284.001C226.117 285.173 226.117 286.35 226.197 287.522C226.395 290.052 226.732 292.569 227.205 295.062C227.649 297.612 228.213 300.172 228.808 302.723C229.403 305.273 230.058 307.853 230.723 310.363L226.994 311.77C224.702 306.82 222.781 301.705 221.248 296.468C220.469 293.769 219.873 291.021 219.464 288.241C219.26 286.759 219.156 285.264 219.151 283.768C219.128 282.005 219.425 280.252 220.028 278.596C220.26 278.03 220.381 277.807 220.543 277.463L221.006 276.502C221.309 275.864 221.621 275.227 222.014 274.609L223.022 272.747L224.091 270.936C225.514 268.549 227.066 266.242 228.738 264.024C230.391 261.807 232.104 259.652 233.909 257.567C235.713 255.482 237.537 253.519 239.634 251.495L245.178 257.304Z" fill="#B55B52"/>
<path d="M245.611 245.16C240.148 245.403 234.957 254.511 234.957 254.511L242.174 269.296C242.174 269.296 251.952 261.119 252.073 253.104C252.153 247.852 250.984 244.907 245.611 245.16Z" fill="#407BFF"/>
<path opacity="0.7" d="M245.611 245.16C240.148 245.403 234.957 254.511 234.957 254.511L242.174 269.296C242.174 269.296 251.952 261.119 252.073 253.104C252.153 247.852 250.984 244.907 245.611 245.16Z" fill="white"/>
<path opacity="0.2" d="M246.912 255.786C245.319 258.205 244.553 264.479 244.311 267.272C246.716 264.924 248.755 262.225 250.359 259.267C249.28 256.565 247.96 254.197 246.912 255.786Z" fill="black"/>
<path d="M229.645 308.825L236.287 310.849L231.862 315.342C231.862 315.342 227.074 313.855 226.409 310.586L229.645 308.825Z" fill="#B55B52"/>
<path d="M240.309 315.939L239.19 320.24L231.862 315.302L236.287 310.808L240.309 315.939Z" fill="#B55B52"/>
<path d="M284.016 227.602C283.805 228.199 283.956 228.806 284.349 228.948C284.742 229.089 285.226 228.735 285.427 228.138C285.629 227.541 285.488 226.924 285.095 226.782C284.702 226.64 284.228 226.995 284.016 227.602Z" fill="#263238"/>
<path d="M284.913 226.752L286.496 226.883C286.496 226.883 285.367 227.723 284.913 226.752Z" fill="#263238"/>
<path d="M284.319 228.371C284.378 229.945 284.65 231.504 285.125 233.006C284.74 233.107 284.338 233.123 283.947 233.053C283.555 232.983 283.184 232.829 282.857 232.601L284.319 228.371Z" fill="#A02724"/>
<path d="M285.972 225.264C285.9 225.254 285.833 225.223 285.779 225.174C285.725 225.125 285.687 225.062 285.669 224.991C285.559 224.533 285.346 224.107 285.048 223.744C284.749 223.381 284.372 223.091 283.946 222.896C283.854 222.862 283.779 222.793 283.738 222.704C283.696 222.615 283.691 222.513 283.724 222.42C283.74 222.374 283.765 222.331 283.797 222.295C283.83 222.258 283.869 222.229 283.914 222.208C283.958 222.187 284.006 222.175 284.055 222.174C284.103 222.172 284.152 222.18 284.198 222.198C284.746 222.437 285.231 222.803 285.613 223.265C285.995 223.727 286.263 224.274 286.395 224.859C286.407 224.907 286.41 224.957 286.403 225.006C286.395 225.055 286.379 225.101 286.353 225.144C286.328 225.186 286.295 225.223 286.255 225.252C286.216 225.282 286.171 225.303 286.123 225.315L285.972 225.264Z" fill="#263238"/>
<path d="M263.312 230.142C263.453 234.929 262.969 243.541 259.28 245.98C259.28 245.98 259.774 250.898 268.352 252.568C277.777 254.4 273.624 248.773 273.624 248.773C268.685 246.546 269.441 242.762 270.922 239.361L263.312 230.142Z" fill="#B55B52"/>
<path d="M291.324 262.9C292.171 265.218 293.139 267.728 294.167 270.106C295.195 272.484 296.183 274.893 297.382 277.19C298.582 279.487 299.751 281.794 301.021 284.031C301.676 285.134 302.332 286.237 303.037 287.29C303.38 287.836 303.733 288.362 304.106 288.858L304.65 289.627L304.922 290.022L305.063 290.214L305.154 290.315C305.809 291.064 306.562 291.721 307.392 292.269C308.391 292.954 309.427 293.582 310.496 294.151C312.704 295.345 315.073 296.428 317.482 297.45C319.891 298.472 322.35 299.474 324.84 300.355C327.33 301.235 329.88 302.166 332.33 303.026L331.392 306.922C325.99 306.016 320.653 304.755 315.415 303.148C312.734 302.327 310.102 301.35 307.533 300.223C306.186 299.623 304.873 298.947 303.602 298.199C302.126 297.355 300.79 296.286 299.64 295.031L299.398 294.758L299.227 294.546L298.894 294.131L298.229 293.281C297.775 292.724 297.342 292.157 296.939 291.58C296.082 290.437 295.296 289.263 294.52 288.079C292.99 285.73 291.58 283.305 290.296 280.813C289.016 278.333 287.806 275.834 286.697 273.284C285.589 270.733 284.591 268.224 283.673 265.43L291.324 262.9Z" fill="#B55B52"/>
<path d="M330.999 303.006L336.946 300.699L336.654 307.59C336.654 307.59 331.836 308.876 329.598 306.437L330.999 303.006Z" fill="#B55B52"/>
<path d="M341.432 303.067L343.468 307.469L336.654 307.59L336.946 300.699L341.432 303.067Z" fill="#B55B52"/>
<path d="M242.799 475.785L250.672 476.372L253.01 458.227L245.138 457.64L242.799 475.785Z" fill="#B55B52"/>
<path d="M180.444 434.738L185.585 440.871L200.846 431.024L195.705 424.891L180.444 434.738Z" fill="#B55B52"/>
<path d="M187.984 440.081L183.841 432.086C183.775 431.948 183.661 431.838 183.52 431.778C183.378 431.718 183.22 431.713 183.075 431.763L176.493 434.05C176.328 434.116 176.178 434.218 176.055 434.346C175.932 434.475 175.837 434.629 175.777 434.797C175.717 434.965 175.693 435.145 175.707 435.323C175.721 435.501 175.772 435.674 175.858 435.831C177.35 438.594 178.206 439.879 180.021 443.37C181.15 445.526 182.571 448.805 184.113 451.79C185.656 454.776 188.599 453.45 188.216 452.063C186.482 445.88 187.631 444.17 188.216 441.488C188.299 441.006 188.217 440.51 187.984 440.081Z" fill="#263238"/>
<path d="M251.165 475.248H242.315C242.163 475.246 242.015 475.3 241.898 475.398C241.782 475.496 241.704 475.634 241.68 475.785L240.491 482.808C240.466 482.983 240.479 483.161 240.529 483.331C240.58 483.501 240.665 483.657 240.781 483.791C240.897 483.924 241.039 484.031 241.2 484.104C241.36 484.177 241.534 484.215 241.71 484.215C244.805 484.164 246.287 483.982 250.178 483.982C252.577 483.982 257.516 484.235 260.822 484.235C264.128 484.235 264.39 480.956 263.02 480.652C256.881 479.327 254.502 477.485 252.466 475.734C252.107 475.417 251.644 475.244 251.165 475.248Z" fill="#263238"/>
<path opacity="0.2" d="M253.01 458.227L251.71 468.316L243.868 467.527L245.138 457.65L253.01 458.227Z" fill="black"/>
<path opacity="0.2" d="M195.705 424.891L200.846 431.024L194.526 435.102L189.194 429.091L195.705 424.891Z" fill="black"/>
<path d="M243.424 293.281L274.995 299.423C289.913 255.331 286.345 253.883 286.345 253.883C284.025 252.625 281.632 251.51 279.178 250.544L278.744 250.382C276.728 249.643 276.305 249.532 273.604 248.742C268.947 247.639 264.622 246.718 259.27 245.959L258.262 245.818C257.254 245.696 256.326 245.595 255.399 245.504C254.774 245.433 254.149 245.393 253.554 245.352L251.538 245.241C248.091 245.069 245.622 245.119 245.622 245.119C247.355 272.656 246.035 280.58 243.424 293.281Z" fill="#407BFF"/>
<path opacity="0.7" d="M243.424 293.281L274.995 299.423C289.913 255.331 286.345 253.883 286.345 253.883C284.025 252.625 281.632 251.51 279.178 250.544L278.744 250.382C276.728 249.643 276.305 249.532 273.604 248.742C268.947 247.639 264.622 246.718 259.27 245.959L258.262 245.818C257.254 245.696 256.326 245.595 255.399 245.504C254.774 245.433 254.149 245.393 253.554 245.352L251.538 245.241C248.091 245.069 245.622 245.119 245.622 245.119C247.355 272.656 246.035 280.58 243.424 293.281Z" fill="white"/>
<path opacity="0.2" d="M281.809 264.175L278.956 263.71C278.956 267.485 280.387 273.962 281.778 278.08C282.958 274.032 283.875 270.703 284.571 267.9L281.809 264.175Z" fill="black"/>
<path d="M285.246 253.347C289.913 254.845 293.31 264.115 294.58 268.112L285.508 278.809C285.508 278.809 276.214 265.4 277.696 261.241C279.148 256.909 282.988 252.608 285.246 253.347Z" fill="#407BFF"/>
<path opacity="0.7" d="M285.246 253.347C289.913 254.845 293.31 264.115 294.58 268.112L285.508 278.809C285.508 278.809 276.214 265.4 277.696 261.241C279.148 256.909 282.988 252.608 285.246 253.347Z" fill="white"/>
<path d="M288.27 219.121C287.333 221.884 283.23 222.987 279.148 221.601C275.065 220.214 272.485 216.824 273.422 214.061C274.36 211.299 278.462 210.195 282.494 211.592C286.526 212.989 289.197 216.359 288.27 219.121Z" fill="#263238"/>
<path d="M264.592 218.362C262.495 225.892 261.447 229.029 263.846 234.21C267.455 242.013 277.111 243.237 281.405 236.548C285.266 230.537 288.048 219.233 281.879 213.575C280.577 212.312 278.97 211.412 277.215 210.963C275.461 210.514 273.62 210.532 271.875 211.015C270.129 211.498 268.54 212.43 267.263 213.719C265.985 215.007 265.065 216.608 264.592 218.362Z" fill="#B55B52"/>
<path d="M276.305 209.568C273.281 211.309 266.86 200.409 258.887 209.568C253.181 216.136 256.82 225.76 256.82 225.76C256.82 225.76 252.274 217.735 248.645 221.651C243.908 226.711 248.807 244.816 264.431 243.571C280.055 242.326 278.543 229.595 278.543 229.595C278.543 229.595 285.861 222.127 285.498 215.427C285.226 210.408 281.345 206.704 276.305 209.568Z" fill="#263238"/>
<path d="M278.2 224.829C277.81 226.23 277.86 227.717 278.341 229.089C278.986 231.022 280.468 231.032 281.254 229.697C282.041 228.361 282.474 226.043 281.355 224.485C280.236 222.926 278.704 223.281 278.2 224.829Z" fill="#B55B52"/>
<path d="M266.608 297.784C266.608 297.784 263.241 309.503 258.917 324.966C256.044 335.269 252.738 347.23 249.724 358.494C248 364.94 246.377 371.154 244.976 376.71C237.053 408.132 197.54 435.143 197.54 435.143L189.889 426.693C189.889 426.693 216.44 404.246 224.161 374.929C239.755 315.413 230.985 305.374 243.414 293.281L266.608 297.784Z" fill="#263238"/>
<path opacity="0.2" d="M263.201 308.289C262.032 312.832 260.56 318.57 258.937 324.987C256.064 335.289 252.758 347.251 249.744 358.514C248.454 344.144 247.728 317.72 258.262 309.503C260.338 307.904 261.981 307.57 263.201 308.289Z" fill="black"/>
<path d="M198.195 436.357L188.639 425.802L191.532 422.887L203.255 433.979L198.195 436.357Z" fill="#407BFF"/>
<path opacity="0.7" d="M198.195 436.357L188.639 425.802L191.532 422.887L203.255 433.979L198.195 436.357Z" fill="white"/>
<path d="M189.425 444.372C189.329 444.37 189.234 444.353 189.143 444.322C188.206 443.978 187.611 442.176 187.339 441.134C187.33 441.098 187.332 441.061 187.345 441.027C187.357 440.993 187.38 440.963 187.409 440.942C187.439 440.92 187.474 440.909 187.51 440.909C187.546 440.909 187.582 440.92 187.611 440.942C187.893 441.104 190.373 442.561 190.423 443.583C190.432 443.694 190.41 443.806 190.36 443.905C190.31 444.005 190.235 444.09 190.141 444.15C189.935 444.304 189.682 444.383 189.425 444.372ZM187.823 441.488C188.236 442.854 188.76 443.775 189.274 443.957C189.384 443.992 189.501 443.997 189.614 443.974C189.726 443.951 189.831 443.9 189.919 443.826C190.05 443.735 190.06 443.644 190.05 443.583C190 443.057 188.8 442.105 187.823 441.488Z" fill="#407BFF"/>
<path d="M274.491 299.423C274.491 299.423 276.507 361.985 272.051 385.555C267.475 410.116 253.504 465.776 253.504 465.776L242.154 464.309C242.154 464.309 249.331 407.981 252.385 383.632C255.701 357.077 251.377 294.89 251.377 294.89L274.491 299.423Z" fill="#263238"/>
<path d="M255.943 466.474L239.765 464.379L239.957 460.514L257.566 461.283L255.943 466.474Z" fill="#407BFF"/>
<path opacity="0.7" d="M255.943 466.474L239.765 464.379L239.957 460.514L257.566 461.283L255.943 466.474Z" fill="white"/>
<path d="M189.809 441.923C188.971 441.883 188.154 441.651 187.42 441.245C187.392 441.228 187.369 441.204 187.353 441.176C187.338 441.148 187.329 441.116 187.329 441.083C187.333 441.051 187.345 441.019 187.362 440.991C187.379 440.964 187.402 440.94 187.43 440.921C187.52 440.921 189.446 439.859 190.554 440.274C190.693 440.324 190.82 440.405 190.924 440.51C191.029 440.615 191.109 440.741 191.159 440.881C191.226 441.015 191.245 441.169 191.214 441.315C191.182 441.462 191.103 441.594 190.988 441.69C190.63 441.893 190.216 441.975 189.809 441.923ZM187.924 441.103C188.801 441.508 190.333 441.731 190.756 441.397C190.827 441.336 190.897 441.245 190.756 441.012C190.726 440.923 190.676 440.841 190.61 440.775C190.543 440.708 190.462 440.658 190.373 440.628C189.527 440.533 188.673 440.698 187.924 441.103Z" fill="#407BFF"/>
<path d="M254.089 476.625C253.259 476.607 252.432 476.512 251.619 476.341C251.58 476.337 251.544 476.32 251.517 476.292C251.49 476.264 251.472 476.228 251.468 476.189C251.462 476.151 251.468 476.111 251.487 476.077C251.505 476.042 251.534 476.014 251.569 475.997C251.932 475.805 255.117 474.196 256.064 474.732C256.155 474.782 256.23 474.855 256.283 474.944C256.337 475.033 256.365 475.135 256.367 475.238C256.386 475.407 256.363 475.578 256.3 475.735C256.237 475.893 256.135 476.031 256.004 476.139C255.438 476.511 254.763 476.683 254.089 476.625ZM252.244 476.078C253.978 476.372 255.268 476.291 255.762 475.866C255.847 475.791 255.912 475.697 255.953 475.591C255.993 475.485 256.007 475.371 255.994 475.258C255.997 475.218 255.988 475.177 255.968 475.141C255.948 475.105 255.919 475.075 255.883 475.056C255.369 474.773 253.554 475.451 252.244 476.078Z" fill="#407BFF"/>
<path d="M251.659 476.351C251.623 476.361 251.585 476.361 251.548 476.351C251.521 476.332 251.5 476.306 251.486 476.276C251.471 476.246 251.465 476.213 251.468 476.179C251.468 476.038 251.861 472.617 253.766 472.819C254.27 472.87 254.421 473.123 254.452 473.336C254.593 474.226 252.688 475.947 251.73 476.372L251.659 476.351ZM253.615 473.143C252.486 473.143 252.032 475.015 251.891 475.825C252.899 475.238 254.169 473.892 254.089 473.356C254.089 473.356 254.089 473.184 253.726 473.153L253.615 473.143Z" fill="#407BFF"/>
<path d="M243.222 291.348L241.338 293.888C241.196 294.09 241.418 294.364 241.781 294.434L274.894 300.871C275.176 300.871 275.438 300.871 275.478 300.658L276.234 297.885C276.234 297.703 276.063 297.48 275.751 297.42L243.777 291.206C243.68 291.18 243.578 291.179 243.481 291.204C243.384 291.229 243.295 291.278 243.222 291.348Z" fill="#407BFF"/>
<path d="M246.932 295.76L246.075 295.588C245.904 295.588 245.793 295.446 245.823 295.345L246.831 291.752C246.831 291.651 247.033 291.591 247.194 291.621L248.051 291.793C248.222 291.793 248.343 291.935 248.313 292.036L247.305 295.628C247.265 295.76 247.103 295.76 246.932 295.76Z" fill="#263238"/>
<path d="M268.553 300L267.697 299.838C267.525 299.838 267.414 299.687 267.445 299.585L268.453 296.003C268.453 295.892 268.644 295.831 268.816 295.871L269.672 296.033C269.834 296.033 269.955 296.185 269.924 296.286L268.916 299.869C268.886 299.98 268.725 300.041 268.553 300Z" fill="#263238"/>
</svg>
