<svg width="152" height="137" viewBox="0 0 152 137" fill="none" xmlns="http://www.w3.org/2000/svg">
<path id="Vector" d="M77.7438 74.4685L77.7823 74.545L77.82 74.6223L77.8569 74.7003L77.893 74.779L77.9283 74.8585L77.9627 74.9387L77.9963 75.0195L78.029 75.1011L78.0609 75.1834L78.0919 75.2664L78.122 75.3501L78.1512 75.4344L78.1795 75.5194L78.2068 75.605L78.2332 75.6913L78.2587 75.7782L78.2832 75.8657L78.3068 75.9539L78.3294 76.0426L78.351 76.1319L78.3716 76.2218L78.3912 76.3123L78.4098 76.4033L78.4274 76.4949L78.444 76.5871L78.4595 76.6797L78.4739 76.7728L78.4873 76.8665L78.4997 76.9607L78.5109 77.0553L78.5211 77.1504L78.5302 77.246L78.5382 77.342L78.545 77.4384L78.5508 77.5353L78.5554 77.6325L78.5589 77.7302L78.5613 77.8282L78.5625 77.9266L78.5625 78.0254L78.5614 78.1245L78.5592 78.224L78.5557 78.3238L78.5511 78.4238L78.5452 78.5242L78.5382 78.6249L78.53 78.7258L78.5206 78.8269L78.5099 78.9283L78.498 79.03L78.4849 79.1318L78.4706 79.2339L78.4551 79.3361L78.4382 79.4385L78.4202 79.541L78.4009 79.6437L78.3803 79.7466L78.3585 79.8495L78.3354 79.9525L78.3111 80.0557L78.2854 80.1588L78.2585 80.2621L78.2303 80.3654L78.2009 80.4687L78.1701 80.572L78.1381 80.6753L78.1047 80.7786L78.0701 80.8819L78.0341 80.9851L77.9969 81.0882L77.9583 81.1913L77.9185 81.2943L77.8773 81.3971L77.8348 81.4999L77.7911 81.6024L77.746 81.7049L77.6996 81.8071L77.6518 81.9092L77.6028 82.0111L77.5524 82.1128L77.5008 82.2142L77.4478 82.3154L77.3935 82.4163L77.3378 82.5169L77.2809 82.6172L77.2227 82.7172L77.1631 82.8169L77.1022 82.9163L77.04 83.0153L76.9765 83.1139L76.9117 83.2121L76.8456 83.3099L76.7781 83.4073L76.7094 83.5042L76.6394 83.6007L76.568 83.6967L76.4954 83.7923L76.4215 83.8873L76.3462 83.9818L76.2697 84.0758L76.1919 84.1693L76.1129 84.2621L76.0325 84.3544L75.9509 84.4461L75.868 84.5372L75.7838 84.6276L75.6984 84.7174L75.6117 84.8066L75.5238 84.8951L75.4346 84.9828L75.3442 85.0699L75.2526 85.1563L75.1597 85.2419L75.0656 85.3268L74.9703 85.4109L74.8738 85.4942L74.776 85.5767L74.6771 85.6584L74.577 85.7393L74.4757 85.8193L74.3732 85.8985L74.2696 85.9767L74.1648 86.0542L74.0588 86.1307L73.9517 86.2062L73.8435 86.2809L73.7341 86.3546L73.6236 86.4273L73.5121 86.4991L73.3994 86.5698L73.2856 86.6396L73.1707 86.7083L73.0548 86.776L72.9377 86.8427L72.8197 86.9083L72.7006 86.9728L72.5804 87.0362L72.4593 87.0985L72.3371 87.1597L72.2139 87.2198L72.0897 87.2787L71.9646 87.3365L71.8385 87.3931L71.7114 87.4485L71.5834 87.5027L71.4544 87.5557L71.3245 87.6075L71.1938 87.658L71.0621 87.7073L70.9295 87.7553L70.7961 87.802L70.6618 87.8475L70.5266 87.8917L70.3906 87.9345L70.2538 87.976L70.1162 88.0162L69.9778 88.0551L69.8387 88.0925L69.6987 88.1287L69.558 88.1634L69.4166 88.1967L69.2744 88.2287L69.1316 88.2592L68.988 88.2883L68.8438 88.316L68.6989 88.3422L68.5534 88.367L68.4072 88.3903L68.2604 88.4121L68.113 88.4324L67.965 88.4513L67.8165 88.4686L67.6674 88.4845L67.5178 88.4988L67.3676 88.5116L67.2169 88.5228L67.0658 88.5325L66.9142 88.5406L66.7621 88.5472L66.6095 88.5522L66.4566 88.5556L66.3033 88.5574L66.1495 88.5576L65.9954 88.5563L65.841 88.5533L65.6862 88.5487L65.5311 88.5424L65.3757 88.5346L65.22 88.5251L65.064 88.5139L64.9078 88.5011L64.7514 88.4867L64.5947 88.4706L64.4379 88.4528L64.2809 88.4333L64.1238 88.4122L63.9665 88.3894L63.8091 88.3649L63.6516 88.3387L63.494 88.3108L63.3363 88.2812L63.1787 88.2499L63.021 88.2169L62.8632 88.1821L62.7056 88.1457L62.5479 88.1076L62.3903 88.0677L62.2328 88.0261L62.0754 87.9827L61.918 87.9377L61.7608 87.8909L61.6038 87.8424L61.447 87.7921L61.2903 87.7401L61.1339 87.6864L60.9776 87.6309L60.8217 87.5737L60.666 87.5148L60.5106 87.4541L60.3555 87.3917L60.2007 87.3275L60.0463 87.2616L59.8923 87.1939L59.7387 87.1246L59.5854 87.0534L59.4326 86.9806L59.2803 86.906L59.1284 86.8296L58.9771 86.7516L58.8262 86.6718L58.6759 86.5903L58.5261 86.507L58.3769 86.4221L58.2283 86.3354L58.0803 86.247L57.933 86.1569L57.7863 86.0651L57.6403 85.9715L57.4949 85.8763L57.3503 85.7794L57.2064 85.6808L57.0633 85.5805L56.921 85.4785L56.7795 85.3748L56.6387 85.2695L56.4988 85.1625L56.3598 85.0538L56.2217 84.9435L56.0844 84.8315L55.9481 84.7179L55.8127 84.6027L55.6782 84.4858L55.5447 84.3673L55.4123 84.2472L55.2808 84.1255L55.1504 84.0022L55.021 83.8773L54.8927 83.7508L54.7655 83.6228L54.6394 83.4931L54.5145 83.362L54.3906 83.2293L54.268 83.095L54.1466 82.9592L54.0263 82.8219L53.9073 82.6831L53.7895 82.5429L53.673 82.4011L53.5578 82.2578L53.4439 82.1131L53.3313 81.9669L53.22 81.8193L53.1101 81.6703L53.0016 81.5198L52.8944 81.3679L52.7887 81.2147L52.6844 81.06L52.5816 80.904L52.4802 80.7467L52.3803 80.588L52.2818 80.4279L52.185 80.2666L52.0896 80.1039L51.9958 79.94L51.9035 79.7748L51.8129 79.6083L51.7238 79.4406L51.6363 79.2716L51.5505 79.1015L51.4663 78.9301L51.3838 78.7576L51.303 78.5838L51.2239 78.409L51.1465 78.2329L51.0708 78.0558L50.9968 77.8776L50.9246 77.6982L50.8542 77.5178L50.7855 77.3364L50.7187 77.1539L50.6537 76.9704L50.5905 76.7858L50.5291 76.6003L50.4696 76.4138L50.412 76.2264L50.3563 76.038L50.3024 75.8488L50.2505 75.6586L50.2005 75.4675L50.1524 75.2756L50.1063 75.0828L50.0622 74.8893L50.02 74.6949L49.9798 74.4997L49.9416 74.3038L49.9054 74.1071L49.8712 73.9097L49.8391 73.7116L49.809 73.5128L49.7809 73.3133L49.7549 73.1132L49.731 72.9125L49.7092 72.7112L49.6895 72.5093L49.6718 72.3068L49.6563 72.1038L49.6429 71.9002L49.6317 71.6962L49.6226 71.4917L49.6156 71.2867L49.6108 71.0813L49.6082 70.8755L49.6077 70.6693L49.6094 70.4628L49.6133 70.2559L49.6194 70.0486L49.6277 69.8411L49.6382 69.6333L49.6509 69.4252L49.6659 69.2169L49.6831 69.0084L49.7025 68.7997L49.7241 68.5908L49.748 68.3818L49.7742 68.1727L49.8026 67.9635L49.8333 67.7542L49.8662 67.5448L49.9014 67.3355L49.9389 67.1261L49.9786 66.9167L50.0206 66.7074L50.0649 66.4982L50.1115 66.2891L50.1604 66.08L50.2116 65.8711L50.265 65.6624L50.3208 65.4539L50.3788 65.2456L50.4392 65.0375L50.5018 64.8296L50.5668 64.6221L50.634 64.4149L50.7035 64.208L50.7754 64.0014L50.8495 63.7953L50.9259 63.5895L51.0046 63.3842L51.0857 63.1793L51.169 62.9749L51.2546 62.7711L51.3425 62.5677L51.4326 62.3649L51.5251 62.1627L51.6199 61.961L51.7169 61.76L51.8162 61.5597L51.9178 61.36L52.0216 61.1611L52.1277 60.9628L52.2361 60.7653L52.3467 60.5686L52.4596 60.3726L52.5747 60.1775L52.6921 59.9833L52.8116 59.7899L52.9335 59.5974L53.0575 59.4058L53.1837 59.2152L53.3122 59.0255L53.4429 58.8368L53.5757 58.6492L53.7108 58.4626L53.848 58.277L53.9874 58.0925L54.1289 57.9092L54.2726 57.727L54.4184 57.5459L54.5664 57.366L54.7165 57.1873L54.8687 57.0099L55.023 56.8337L55.1794 56.6588L55.3379 56.4852L55.4985 56.3129L55.6611 56.142L55.8258 55.9724L55.9925 55.8043L56.1612 55.6375L56.3319 55.4722L56.5047 55.3083L56.6794 55.146L56.8561 54.9851L57.0348 54.8258L57.2154 54.668L57.3979 54.5118L57.5824 54.3572L57.7688 54.2042L57.957 54.0529L58.1471 53.9032L58.3391 53.7552L58.533 53.6089L58.7286 53.4643L58.9261 53.3215L59.1254 53.1804L59.3264 53.0411L59.5292 52.9037L59.7338 52.768L59.9401 52.6343L60.1481 52.5024L60.3578 52.3723L60.5692 52.2442L60.7822 52.1181L60.9969 51.9939L61.2132 51.8716L61.4311 51.7513L61.6506 51.6331L61.8716 51.5169L62.0942 51.4027L62.3183 51.2906L62.5439 51.1806L62.771 51.0726L62.9996 50.9668L63.2296 50.8632L63.4611 50.7616L63.6939 50.6623L63.9281 50.5652L64.1637 50.4702L64.4006 50.3775L64.6388 50.287L64.8783 50.1988L65.1191 50.1129L65.3612 50.0292L65.6044 49.9479L65.8489 49.8689L66.0946 49.7922L66.3414 49.7178L66.5893 49.6459L66.8383 49.5763L67.0885 49.5091L67.3396 49.4443L67.5919 49.3819L67.8451 49.322L68.0993 49.2646L68.3545 49.2096L68.6106 49.157L68.8677 49.107L69.1256 49.0595L69.3844 49.0145L69.644 48.972L69.9044 48.9321L70.1657 48.8947L70.4276 48.8598L70.6903 48.8276L70.9537 48.7979L71.2178 48.7708L71.4826 48.7464L71.7479 48.7245L72.0139 48.7053L72.2804 48.6887L72.5475 48.6748L72.8151 48.6635L73.0832 48.6549L73.3517 48.6489L73.6207 48.6456L73.8901 48.645L74.1598 48.6471L74.4299 48.6519L74.7003 48.6594L74.9711 48.6697L75.242 48.6826L75.5133 48.6983L75.7847 48.7167L76.0563 48.7379L76.328 48.7618L76.5999 48.7884L76.8718 48.8178L77.1439 48.85L77.4159 48.8849L77.688 48.9226L77.96 48.963L78.232 49.0063L78.5039 49.0523L78.7756 49.1011L79.0473 49.1526L79.3187 49.207L79.59 49.2641L79.861 49.3241L80.1317 49.3868L80.4022 49.4523L80.6723 49.5206L80.9421 49.5917L81.2115 49.6655L81.4805 49.7422L81.749 49.8216L82.0171 49.9039L82.2847 49.9889L82.5517 50.0767L82.8182 50.1673L83.084 50.2607L83.3493 50.3568L83.6139 50.4557L83.8778 50.5574L84.141 50.6619L84.4034 50.7691L84.6651 50.8791L84.9259 50.9918L85.186 51.1073L85.4451 51.2256L85.7034 51.3465L85.9607 51.4702L86.2171 51.5967L86.4725 51.7258L86.7269 51.8577L86.9802 51.9923L87.2325 52.1296L87.4836 52.2695L87.7336 52.4122L87.9825 52.5575L88.2301 52.7055L88.4766 52.8562L88.7217 53.0095L88.9656 53.1655L89.2082 53.3241L89.4494 53.4853L89.6893 53.6491L89.9277 53.8155L90.1648 53.9845L90.4003 54.1561L90.6344 54.3302L90.867 54.5069L91.098 54.6862L91.3274 54.8679L91.5552 55.0522L91.7814 55.239L92.006 55.4283L92.2288 55.62L92.4499 55.8142L92.6693 56.0109L92.8869 56.21L93.1027 56.4115L93.3167 56.6154L93.5288 56.8217L93.7391 57.0303L93.9474 57.2414L94.1538 57.4547L94.3582 57.6704L94.5607 57.8883L94.7611 58.1086L94.9595 58.3311L95.1558 58.5559L95.35 58.7829L95.5421 59.0121L95.732 59.2435L95.9197 59.4771L96.1053 59.7128L96.2886 59.9507L96.4697 60.1907L96.6485 60.4328L96.825 60.6769L96.9992 60.9231L97.1711 61.1714L97.3405 61.4216L97.5076 61.6738L97.6722 61.928L97.8344 62.1842L97.9942 62.4423L98.1514 62.7022L98.3061 62.9641L98.4583 63.2278L98.608 63.4933L98.755 63.7607L98.8995 64.0298L99.0413 64.3007L99.1805 64.5733L99.317 64.8476L99.4508 65.1236L99.5819 65.4013L99.7103 65.6806L99.836 65.9615L99.9588 66.244L100.079 66.528L100.196 66.8136L100.311 67.1006L100.422 67.3892L100.531 67.6792L100.637 67.9706L100.74 68.2634L100.84 68.5576L100.937 68.8531L101.031 69.1499L101.122 69.448L101.21 69.7474L101.295 70.048L101.378 70.3498L101.457 70.6527L101.533 70.9568L101.606 71.262L101.676 71.5683L101.742 71.8756L101.806 72.1839L101.867 72.4932L101.924 72.8035L101.978 73.1147L102.029 73.4268L102.077 73.7398L102.122 74.0536L102.164 74.3682L102.202 74.6835L102.237 74.9997L102.269 75.3165L102.297 75.634L102.323 75.9521L102.345 76.2709L102.364 76.5902L102.379 76.9101L102.391 77.2305L102.4 77.5514L102.406 77.8727L102.408 78.1944L102.407 78.5166L102.402 78.839L102.394 79.1618L102.383 79.4849L102.369 79.8082L102.351 80.1318L102.33 80.4555L102.305 80.7794L102.277 81.1034L102.245 81.4274L102.211 81.7516L102.172 82.0757L102.131 82.3998L102.086 82.7239L102.037 83.0478L101.985 83.3717L101.93 83.6954L101.871 84.0188L101.809 84.3421L101.744 84.6651L101.675 84.9878L101.603 85.3102L101.527 85.6322L101.448 85.9538L101.365 86.275L101.279 86.5957L101.189 86.9159L101.097 87.2356L101 87.5547L100.901 87.8731L100.797 88.191L100.691 88.5081L100.581 88.8246L100.468 89.1402L100.351 89.4551L100.231 89.7692L100.107 90.0825L99.9806 90.3948L99.8503 90.7062L99.7167 91.0167L99.5798 91.3262L99.4395 91.6346L99.2958 91.942L99.1488 92.2483L98.9985 92.5534L98.8449 92.8574L98.6879 93.1602L98.5277 93.4617L98.3641 93.762L98.1973 94.061L98.0272 94.3586L97.8538 94.6549L97.6772 94.9497L97.4974 95.2431L97.3143 95.5351L97.128 95.8255L96.9385 96.1144L96.7458 96.4017L96.5499 96.6874L96.3509 96.9715L96.1487 97.2539L95.9434 97.5345L95.735 97.8135L95.5234 98.0906L95.3088 98.366L95.0911 98.6395L94.8703 98.9111L94.6465 99.1808L94.4197 99.4486L94.1899 99.7144L93.9571 99.9782L93.7213 100.24L93.4825 100.5L93.2408 100.757L92.9962 101.013L92.7487 101.266L92.4984 101.517L92.2452 101.766L91.9891 102.013L91.7302 102.257L91.4685 102.499L91.2041 102.739L90.9369 102.976L90.667 103.211L90.3944 103.444L90.1191 103.674L89.8411 103.901L89.5605 104.126L89.2773 104.349L88.9915 104.568L88.7031 104.786L88.4122 105L88.1188 105.212L87.8229 105.422L87.5245 105.628L87.2237 105.832L86.9205 106.033L86.6149 106.231L86.3069 106.426L85.9966 106.619L85.684 106.809L85.3692 106.995L85.0521 107.179L84.7327 107.36L84.4112 107.538L84.0875 107.713L83.7617 107.885L83.4338 108.053L83.1039 108.219L82.7718 108.382L82.4378 108.541L82.1018 108.697L81.7638 108.85L81.424 109L81.0822 109.147L80.7386 109.291L80.3932 109.431L80.046 109.568L79.697 109.701L79.3463 109.832L78.9939 109.959L78.6398 110.082L78.2842 110.202L77.9269 110.319L77.5681 110.433L77.2077 110.543L76.8459 110.649L76.4826 110.752L76.1179 110.852L75.7518 110.948L75.3844 111.04L75.0157 111.129L74.6457 111.214L74.2744 111.296L73.902 111.374L73.5283 111.449L73.1536 111.52L72.7777 111.587L72.4008 111.651L72.0229 111.711L71.644 111.767L71.2641 111.819L70.8834 111.868L70.5017 111.913L70.1193 111.955L69.736 111.993L69.352 112.026L68.9673 112.057L68.5819 112.083L68.1959 112.106L67.8092 112.124L67.422 112.139L67.0343 112.15L66.6461 112.158L66.2575 112.161L65.8684 112.161L65.479 112.157L65.0893 112.149L64.6992 112.137L64.309 112.121L63.9185 112.101L63.5279 112.078L63.1371 112.05L62.7463 112.019L62.3554 111.984L61.9645 111.945L61.5737 111.902L61.1829 111.855L60.7923 111.804L60.4018 111.749L60.0115 111.691L59.6215 111.628L59.2317 111.561L58.8423 111.491L58.4532 111.417L58.0646 111.339L57.6764 111.256L57.2887 111.17L56.9015 111.08L56.5149 110.986L56.1289 110.889L55.7435 110.787L55.3589 110.681L54.975 110.572L54.5919 110.458L54.2096 110.341L53.8281 110.22L53.4476 110.095L53.068 109.966L52.6893 109.833L52.3117 109.696L51.9352 109.556L51.5598 109.411L51.1855 109.263L50.8125 109.111L50.4406 108.955L50.0701 108.795L49.7008 108.632L49.3329 108.464L48.9664 108.293L48.6013 108.118L48.2377 107.94L47.8756 107.757L47.5151 107.571L47.1562 107.381L46.7989 107.188L46.4433 106.99L46.0894 106.789L45.7372 106.585L45.3869 106.376L45.0384 106.164L44.6918 105.949L44.3471 105.729L44.0043 105.507L43.6636 105.28L43.3248 105.05L42.9882 104.817L42.6536 104.58L42.3212 104.339L41.991 104.095L41.663 103.847L41.3373 103.596L41.0139 103.342L40.6928 103.084L40.3742 102.822L40.0579 102.558L39.744 102.29L39.4327 102.018L39.1239 101.744L38.8177 101.466L38.514 101.184L38.213 100.9L37.9146 100.612L37.619 100.321L37.3261 100.027L37.036 99.7299L36.7487 99.4295L36.4643 99.126L36.1827 98.8195L35.904 98.5099L35.6283 98.1972L35.3556 97.8816L35.0859 97.563L34.8193 97.2415L34.5557 96.9171L34.2953 96.5898L34.038 96.2596L33.7839 95.9266L33.533 95.5908L33.2853 95.2522L33.041 94.9109L32.7999 94.5669L32.5622 94.2202L32.3279 93.8709L32.0969 93.519L31.8694 93.1644L31.6454 92.8074L31.4248 92.4478L31.2078 92.0857L30.9943 91.7212L30.7844 91.3542L30.578 90.9849L30.3754 90.6132L30.1763 90.2392L29.981 89.8629L29.7894 89.4844L29.6015 89.1036L29.4174 88.7207L29.2371 88.3356L29.0606 87.9485L28.8879 87.5592L28.7191 87.168L28.5542 86.7747L28.3933 86.3795L28.2362 85.9823L28.0831 85.5833L27.934 85.1824L27.7889 84.7797L27.6479 84.3753L27.5109 83.9691L27.3779 83.5612L27.2491 83.1517L27.1243 82.7405L27.0037 82.3278L26.8873 81.9136L26.775 81.4978L26.6669 81.0806L26.5631 80.662L26.4634 80.242L26.368 79.8207L26.2769 79.3981L26.19 78.9742L26.1075 78.5492L26.0292 78.1229L25.9553 77.6956L25.8857 77.2672L25.8205 76.8377L25.7597 76.4072L25.7032 75.9758L25.6512 75.5434L25.6035 75.1102L25.5603 74.6762L25.5215 74.2414L25.4872 73.8058L25.4573 73.3696L25.4319 72.9327L25.411 72.4952L25.3945 72.0571L25.3826 71.6185L25.3752 71.1795L25.3723 70.74L25.3739 70.3001L25.38 69.8599L25.3907 69.4194L25.4059 68.9786L25.4257 68.5376L25.4501 68.0965L25.479 67.6553L25.5125 67.2139L25.5505 66.7726L25.5932 66.3313L25.6404 65.89L25.6922 65.4489L25.7486 65.0079L25.8095 64.5671L25.8751 64.1266L25.9452 63.6863L26.02 63.2464L26.0993 62.8069L26.1832 62.3678L26.2718 61.9292L26.3649 61.4911L26.4625 61.0536L26.5648 60.6167L26.6717 60.1804L26.7831 59.7449L26.8991 59.3101L27.0197 58.8761L27.1448 58.443L27.2745 58.0108L27.4088 57.5795L27.5476 57.1491L27.6909 56.7198L27.8388 56.2916L27.9912 55.8645L28.1481 55.4386L28.3095 55.0139L28.4755 54.5904L28.6459 54.1683L28.8208 53.7475L29.0002 53.3281L29.184 52.9101L29.3723 52.4936L29.565 52.0787L29.7622 51.6653L29.9637 51.2536L30.1697 50.8435L30.38 50.4351L30.5947 50.0285L30.8137 49.6237L31.0371 49.2207L31.2648 48.8196L31.4969 48.4205L31.7332 48.0233L31.9738 47.6282L32.2186 47.2351L32.4677 46.8441L32.721 46.4553L32.9784 46.0687L33.2401 45.6843L33.5059 45.3022L33.7759 44.9225L34.05 44.5451L34.3282 44.1701L34.6104 43.7976L34.8967 43.4276L35.1871 43.0601L35.4814 42.6952L35.7797 42.3329L36.082 41.9733L36.3882 41.6164L36.6983 41.2622L37.0123 40.9108L37.3302 40.5623L37.6518 40.2166L37.9773 39.8738L38.3066 39.534L38.6396 39.1972L38.9763 38.8634L39.3168 38.5326L39.6608 38.205L40.0086 37.8805L40.3599 37.5592L40.7148 37.2411L41.0732 36.9263L41.4351 36.6148L41.8006 36.3066L42.1694 36.0018L42.5417 35.7003L42.9174 35.4024L43.2964 35.1079L43.6787 34.8169L44.0643 34.5295L44.4532 34.2456L44.8453 33.9654L45.2405 33.6888L45.6389 33.416L46.0404 33.1468L46.4449 32.8814L46.8525 32.6198L47.2631 32.362L47.6767 32.1081L48.0932 31.858L48.5125 31.6119L48.9347 31.3698L49.3597 31.1316L49.7875 30.8974L50.218 30.6673L50.6511 30.4412L51.087 30.2192L51.5254 30.0014L51.9664 29.7877L52.4099 29.5783L52.8559 29.373L53.3043 29.172L53.7552 28.9752L54.2084 28.7828L54.6639 28.5947L55.1217 28.4109L55.5817 28.2315L56.0438 28.0565L56.5082 27.886L56.9746 27.7198L57.4431 27.5582L57.9135 27.4011L58.386 27.2484L58.8603 27.1004L59.3365 26.9569L59.8146 26.8179L60.2944 26.6836L60.7759 26.554L61.2591 26.4289L61.744 26.3086L62.2305 26.1929L62.7184 26.082L63.2079 25.9757L63.6989 25.8742L64.1912 25.7775L64.6849 25.6856L65.1799 25.5985L65.6761 25.5161L66.1736 25.4386L66.6722 25.366L67.1719 25.2982L67.6726 25.2353L68.1744 25.1773L68.6771 25.1241L69.1807 25.0759L69.6852 25.0327L70.1905 24.9943L70.6965 24.9609L71.2033 24.9325L71.7107 24.909L72.2187 24.8906L72.7273 24.8771L73.2363 24.8686L73.7458 24.8651L74.2557 24.8667L74.766 24.8732L75.2765 24.8848L75.7873 24.9015L76.2983 24.9232L76.8094 24.9499L77.3206 24.9817L77.8319 25.0185L78.3431 25.0604L78.8542 25.1074L79.3653 25.1594L79.8761 25.2165L80.3867 25.2787L80.8971 25.346L81.4071 25.4183L81.9167 25.4957L82.4259 25.5782L82.9346 25.6657L83.4427 25.7583L83.9503 25.856L84.4572 25.9588L84.9634 26.0666L85.4688 26.1795L85.9735 26.2974L86.4772 26.4204L86.9801 26.5485L87.482 26.6815L87.9829 26.8197L88.4827 26.9628L88.9814 27.111L89.4789 27.2642L89.9751 27.4223L90.4701 27.5855L90.9638 27.7537L91.456 27.9269L91.9469 28.105L92.4362 28.2881L92.924 28.4761L93.4102 28.669L93.8947 28.8669L94.3776 29.0697L94.8586 29.2774L95.3379 29.4899L95.8154 29.7073L96.2909 29.9296L96.7644 30.1567L97.236 30.3887L97.7055 30.6254L98.1728 30.8669L98.6381 31.1132L99.101 31.3642L99.5618 31.62L100.02 31.8804L100.476 32.1456L100.93 32.4154L101.381 32.6899L101.83 32.969L102.276 33.2528L102.719 33.5411L103.16 33.8339L103.598 34.1313L104.034 34.4333L104.466 34.7397L104.896 35.0506L105.323 35.3659L105.746 35.6856L106.167 36.0097L106.585 36.3382L107 36.671L107.411 37.0082L107.819 37.3496L108.225 37.6952L108.626 38.0451L109.025 38.3991L109.42 38.7574L109.812 39.1197L110.2 39.4862L110.585 39.8567L110.966 40.2312L111.344 40.6098L111.717 40.9923L112.088 41.3788L112.454 41.7692L112.817 42.1634L113.176 42.5615L113.531 42.9633L113.882 43.369L114.23 43.7783L114.573 44.1914L114.912 44.6081L115.248 45.0284L115.579 45.4523L115.906 45.8797L116.228 46.3106L116.547 46.745L116.861 47.1828L117.172 47.624L117.477 48.0686L117.779 48.5164L118.076 48.9675L118.368 49.4219L118.656 49.8794L118.94 50.34L119.219 50.8037L119.493 51.2705L119.763 51.7403L120.028 52.213L120.288 52.6887L120.544 53.1672L120.795 53.6486L121.041 54.1328L121.283 54.6197L121.519 55.1093L121.751 55.6015L121.978 56.0963L122.2 56.5937L122.416 57.0936L122.628 57.596L122.835 58.1007L123.037 58.6078L123.234 59.1173L123.425 59.629L123.612 60.1429L123.793 60.659L123.969 61.1772L124.14 61.6975L124.306 62.2197L124.466 62.744L124.621 63.2702L124.771 63.7982L124.916 64.3281L125.055 64.8597L125.188 65.393L125.317 65.928L125.44 66.4645L125.557 67.0027L125.669 67.5423L125.776 68.0834L125.877 68.6259L125.973 69.1697L126.063 69.7148L126.147 70.2612L126.226 70.8087L126.3 71.3573L126.368 71.907L126.43 72.4578L126.486 73.0095L126.537 73.5621L126.583 74.1155L126.622 74.6698L126.656 75.2248L126.685 75.7805L126.707 76.3368L126.724 76.8937L126.735 77.4511L126.741 78.0089L126.741 78.5672L126.735 79.1258L126.723 79.6847L126.705 80.2439L126.682 80.8032L126.653 81.3626L126.619 81.9221L126.578 82.4817L126.532 83.0411L126.48 83.6005L126.422 84.1597L126.358 84.7187L126.289 85.2774L126.214 85.8358L126.133 86.3938L126.046 86.9513L125.953 87.5084L125.855 88.0648L125.751 88.6207L125.641 89.1758L125.526 89.7303L125.404 90.2839L125.277 90.8367L125.144 91.3886L125.006 91.9395L124.861 92.4894L124.711 93.0382L124.555 93.5859L124.394 94.1323L124.226 94.6776L124.053 95.2215L123.875 95.764L123.69 96.3052L123.5 96.8448L123.305 97.3829L123.103 97.9194L122.896 98.4543L122.684 98.9874L122.465 99.5188L122.242 100.048L122.012 100.576L121.777 101.102L121.537 101.626L121.291 102.147L121.039 102.667L120.782 103.184L120.52 103.7L120.252 104.213L119.979 104.723L119.7 105.232L119.416 105.737L119.126 106.241L118.831 106.742L118.531 107.24L118.226 107.735L117.915 108.228L117.599 108.718L117.278 109.206L116.951 109.69L116.62 110.172L116.283 110.65L115.941 111.126L115.594 111.598L115.242 112.068L114.885 112.534L114.523 112.997L114.156 113.456L113.784 113.913L113.407 114.365L113.026 114.815L112.639 115.261L112.248 115.703L111.852 116.142L111.451 116.577L111.045 117.009L110.635 117.437L110.22 117.861L109.8 118.281L109.376 118.697L108.948 119.11L108.515 119.518L108.077 119.923L107.635 120.323L107.189 120.719L106.738 121.111L106.283 121.499L105.824 121.883L105.361 122.262L104.893 122.637L104.421 123.008L103.945 123.374L103.466 123.736L102.982 124.093L102.494 124.446L102.002 124.794L101.507 125.138L101.007 125.477L100.504 125.811L99.9972 126.14L99.4867 126.465L98.9725 126.785L98.4547 127.099L97.9334 127.409L97.4086 127.714L96.8803 128.015L96.3487 128.31L95.8137 128.6L95.2755 128.884L94.734 129.164L94.1893 129.439L93.6415 129.708L93.0906 129.972L92.5366 130.231L91.9797 130.485L91.4199 130.733L90.8572 130.976L90.2916 131.214L89.7233 131.446L89.1523 131.673L88.5786 131.894L88.0024 132.109L87.4235 132.32L86.8422 132.524L86.2585 132.723L85.6723 132.916L85.0839 133.104L84.4932 133.286L83.9002 133.462L83.3052 133.633L82.708 133.798L82.1088 133.957L81.5076 134.11L80.9045 134.258L80.2995 134.399L79.6928 134.535L79.0843 134.665L78.4741 134.789L77.8623 134.907L77.2489 135.019L76.634 135.125L76.0177 135.225L75.4001 135.319L74.7811 135.407L74.1608 135.489L73.5393 135.565L72.9168 135.635L72.2931 135.699L71.6684 135.757L71.0428 135.808L70.4163 135.854L69.789 135.893L69.1609 135.926L68.5321 135.953L67.9027 135.974L67.2727 135.989L66.6422 135.998L66.0113 136L65.3799 135.996L64.7483 135.986L64.1164 135.97L63.4843 135.947L62.8521 135.919L62.2199 135.884L61.5876 135.843L60.9554 135.795L60.3233 135.742L59.6915 135.682L59.0599 135.616L58.4286 135.543L57.7977 135.465L57.1672 135.38L56.5373 135.289L55.908 135.191L55.2793 135.088L54.6513 134.978L54.0241 134.862L53.3977 134.739L52.7723 134.611L52.1478 134.476L51.5243 134.335L50.902 134.188L50.2808 134.035L49.6608 133.875L49.0422 133.709L48.4249 133.537L47.809 133.359L47.1946 133.175L46.5817 132.985L45.9705 132.788L45.3609 132.586L44.7531 132.377L44.1471 132.162L43.543 131.941L42.9408 131.714L42.3406 131.481L41.7424 131.242L41.1464 130.997L40.5525 130.746L39.9609 130.489L39.3717 130.226L38.7847 129.958L38.2003 129.683L37.6183 129.402L37.0389 129.116L36.4621 128.823L35.888 128.525L35.3167 128.221L34.7481 127.911L34.1824 127.595L33.6197 127.274L33.0599 126.947L32.5032 126.614L31.9496 126.276L31.3992 125.932L30.852 125.582L30.308 125.227L29.7675 124.867L29.2303 124.5L28.6966 124.129L28.1665 123.752L27.6399 123.369L27.1169 122.981L26.5977 122.588L26.0822 122.189L25.5705 121.786L25.0627 121.377L24.5588 120.962L24.0588 120.543L23.563 120.118L23.0712 119.688L22.5835 119.254L22.1001 118.814L21.6209 118.369L21.146 117.919L20.6754 117.465L20.2093 117.005L19.7476 116.541L19.2905 116.072L18.8379 115.598L18.3899 115.119L17.9467 114.636L17.5081 114.148L17.0743 113.656L16.6453 113.159L16.2212 112.657L15.802 112.151L15.3878 111.641L14.9786 111.126L14.5744 110.608L14.1754 110.084L13.7815 109.557L13.3928 109.026L13.0093 108.49L12.6312 107.95L12.2584 107.407L11.8909 106.859L11.5289 106.308L11.1724 105.752L10.8213 105.193L10.4758 104.63L10.1359 104.064L9.80164 103.493L9.47304 102.92L9.15016 102.342L8.83302 101.762L8.52168 101.177L8.21617 100.59L7.91652 99.9988L7.62277 99.4047L7.33497 98.8073L7.05314 98.2068L6.77732 97.6032L6.50755 96.9966L6.24386 96.387L5.98629 95.7745L5.73486 95.1592L5.48961 94.5411L5.25058 93.9202L5.01779 93.2966L4.79127 92.6705L4.57105 92.0418L4.35717 91.4106L4.14965 90.777L3.94853 90.141L3.75382 89.5027L3.56555 88.8621L3.38376 88.2194L3.20847 87.5746L3.0397 86.9277L2.87747 86.2788L2.72182 85.6279L2.57276 84.9752L2.43032 84.3207L2.29452 83.6645L2.16538 83.0066L2.04292 82.3471L1.92716 81.686L1.81812 81.0235L1.71581 80.3595L1.62027 79.6942L1.5315 79.0276L1.44952 78.3598L1.37435 77.6909L1.30599 77.0209L1.24448 76.3498L1.18981 75.6778L1.14201 75.005L1.10109 74.3313L1.06705 73.6568L1.03991 72.9817L1.01969 72.306L1.00638 71.6297L1 70.953L1.00056 70.2758L1.00806 69.5983L1.02251 68.9205L1.04393 68.2426L1.0723 67.5645L1.10765 66.8863L1.14997 66.2081L1.19926 65.53L1.25553 64.852L1.31879 64.1743L1.38902 63.4968L1.46624 62.8197L1.55044 62.1429L1.64163 61.4667L1.7398 60.791L1.84494 60.116L1.95706 59.4416L2.07615 58.768L2.20222 58.0952L2.33524 57.4233L2.47522 56.7524L2.62215 56.0825L2.77602 55.4138L2.93683 54.7462L3.10457 54.0798L3.27923 53.4148L3.46079 52.7511L3.64925 52.0889L3.84459 51.4282L4.04681 50.7691L4.25588 50.1117L4.4718 49.4559L4.69456 48.802L4.92413 48.1499L5.16051 47.4998L5.40366 46.8516L5.65359 46.2055L5.91027 45.5616L6.17367 44.9198L6.44379 44.2804L6.72061 43.6432L7.00409 43.0085L7.29422 42.3762L7.59098 41.7464L7.89434 41.1193L8.20429 40.4948L8.52079 39.8731L8.84383 39.2541L9.17337 38.638L9.5094 38.0249L9.85187 37.4147L10.2008 36.8076L10.5561 36.2037L10.9177 35.6029L11.2858 35.0054L11.6601 34.4112L12.0407 33.8204L12.4275 33.233L12.8206 32.6491L13.2198 32.0688L13.6252 31.4922L14.0367 30.9192L14.4542 30.35L14.8778 29.7846L15.3075 29.2231L15.743 28.6656L16.1845 28.112L16.632 27.5626L17.0852 27.0172L17.5443 26.476L18.0091 25.9391L18.4797 25.4065L18.956 24.8782L19.4379 24.3544L19.9254 23.835L20.4185 23.3201L20.9171 22.8099L21.4212 22.3043L21.9307 21.8034L22.4456 21.3073L22.9658 20.8159L23.4914 20.3295L24.0221 19.848L24.5581 19.3714L25.0992 18.8999L25.6454 18.4335L26.1967 17.9722L26.7529 17.5161L27.3141 17.0652L27.8802 16.6196L28.4511 16.1794L29.0268 15.7446L29.6073 15.3152L30.1924 14.8913L30.7822 14.4729L31.3765 14.0602L31.9754 13.653L32.5787 13.2516L33.1865 12.8559L33.7985 12.4659L34.4149 12.0818L35.0355 11.7036L35.6603 11.3312L36.2892 10.9649L36.9221 10.6045L37.5591 10.2501L38.2 9.90189L38.8447 9.55976L39.4933 9.22381L40.1457 8.89406L40.8017 8.57056L41.4614 8.25334L42.1246 7.94245L42.7913 7.63793L43.4615 7.33981L44.1351 7.04812L44.8119 6.76291L45.492 6.48422L46.1753 6.21206L46.8617 5.94649L47.5512 5.68753L48.2436 5.43522L48.939 5.18958L49.6372 4.95066L50.3381 4.71848L51.0418 4.49307L51.7482 4.27447L52.4571 4.06269L53.1685 3.85778L53.8823 3.65976L54.5986 3.46865L55.3171 3.28448L56.0378 3.10728L56.7607 2.93708L57.4857 2.77389L58.2127 2.61775L58.9417 2.46867L59.6725 2.32667L60.4051 2.19179L61.1395 2.06403L61.8755 1.94343L62.6131 1.82999L63.3522 1.72375L64.0927 1.62471L64.8346 1.53289L65.5778 1.44832L66.3222 1.371L67.0677 1.30096L67.8143 1.2382L68.5619 1.18275L69.3104 1.1346L70.0598 1.09379L70.8099 1.06031L71.5607 1.03419L72.3122 1.01542L73.0641 1.00402L73.8166 1L74.5694 1.00337L75.3226 1.01412L76.076 1.03228L76.8295 1.05784L77.5832 1.09082L78.3369 1.13121L79.0905 1.17901L79.8439 1.23424L80.5972 1.29689L81.3501 1.36696L82.1027 1.44446L82.8548 1.52939L83.6064 1.62173L84.3574 1.7215L85.1078 1.82869L85.8573 1.9433L86.6061 2.06531L87.3539 2.19474L88.1008 2.33156L88.8466 2.47578L89.5913 2.62739L90.3348 2.78638L91.0769 2.95275L91.8177 3.12647L92.5571 3.30755L93.295 3.49597L94.0312 3.69172L94.7658 3.89479L95.4987 4.10516L96.2297 4.32282L96.9588 4.54776L97.686 4.77996L98.4111 5.01941L99.1341 5.26608L99.8549 5.51997L100.573 5.78105L101.29 6.04929L102.003 6.3247L102.715 6.60723L103.423 6.89688L104.129 7.19361L104.833 7.49742L105.533 7.80826L106.231 8.12612L106.926 8.45098L107.617 8.7828L108.306 9.12156L108.991 9.46724L109.674 9.81981L110.352 10.1792L111.028 10.5455L111.7 10.9185L112.369 11.2983L113.034 11.6849L113.695 12.0781L114.353 12.478L115.006 12.8846L115.656 13.2978L116.302 13.7175L116.944 14.1437L117.582 14.5765L118.216 15.0157L118.845 15.4613L119.471 15.9133L120.092 16.3716L120.708 16.8363L121.32 17.3072L121.927 17.7843L122.53 18.2676L123.128 18.757L123.722 19.2526L124.31 19.7541L124.894 20.2617L125.473 20.7752L126.047 21.2947L126.615 21.82L127.179 22.3511L127.737 22.888L128.29 23.4306L128.838 23.9789L129.381 24.5328L129.918 25.0922L130.449 25.6572L130.975 26.2277L131.495 26.8036L132.01 27.3848L132.519 27.9714L133.022 28.5632L133.519 29.1602L134.011 29.7623L134.496 30.3696L134.976 30.9818L135.449 31.5991L135.916 32.2213L136.377 32.8483L136.832 33.4801L137.281 34.1167L137.723 34.758L138.159 35.4039L138.589 36.0543L139.012 36.7093L139.428 37.3687L139.838 38.0325L140.241 38.7005L140.638 39.3729L141.028 40.0494L141.411 40.7301L141.787 41.4148L142.157 42.1035L142.519 42.7961L142.875 43.4926L143.224 44.1929L143.565 44.8969L143.9 45.6046L144.227 46.3159L144.548 47.0307L144.861 47.749L145.167 48.4706L145.465 49.1956L145.757 49.9238L146.041 50.6552L146.317 51.3897L146.587 52.1272L146.849 52.8677L147.103 53.6111L147.35 54.3573L147.589 55.1062L147.821 55.8578L148.045 56.6121L148.261 57.3688L148.47 58.128L148.671 58.8896L148.865 59.6535L149.05 60.4196L149.228 61.1879L149.398 61.9582L149.561 62.7306L149.715 63.5048L149.862 64.281L150.001 65.0589L150.131 65.8385L150.254 66.6197L150.369 67.4024L150.476 68.1866L150.575 68.9723L150.666 69.7592L150.749 70.5473L150.824 71.3366L150.891 72.127L150.949 72.9184L151 73.7107L77.7438 74.4685Z" stroke="#166FFF"/>
</svg>
