<svg width="88" height="16" viewBox="0 0 88 16" fill="none" xmlns="http://www.w3.org/2000/svg">
<g id="Group 36">
<path id="Star 1" d="M7.23916 2.34164C7.47864 1.60459 8.52136 1.60459 8.76085 2.34164L9.6165 4.97508C9.7236 5.3047 10.0308 5.52786 10.3773 5.52786H13.1463C13.9213 5.52786 14.2435 6.51956 13.6165 6.97508L11.3764 8.60263C11.096 8.80635 10.9787 9.16744 11.0858 9.49706L11.9414 12.1305C12.1809 12.8675 11.3373 13.4804 10.7104 13.0249L8.47023 11.3974C8.18984 11.1937 7.81016 11.1937 7.52977 11.3974L5.28964 13.0249C4.66266 13.4804 3.81908 12.8675 4.05856 12.1305L4.91422 9.49706C5.02132 9.16744 4.90399 8.80635 4.6236 8.60263L2.38347 6.97508C1.75649 6.51956 2.07872 5.52786 2.85369 5.52786H5.62265C5.96924 5.52786 6.2764 5.3047 6.3835 4.97508L7.23916 2.34164Z" fill="#FFE606"/>
<path id="Star 2" d="M25.2392 2.34164C25.4786 1.60459 26.5214 1.60459 26.7608 2.34164L27.6165 4.97508C27.7236 5.3047 28.0308 5.52786 28.3773 5.52786H31.1463C31.9213 5.52786 32.2435 6.51956 31.6165 6.97508L29.3764 8.60263C29.096 8.80635 28.9787 9.16744 29.0858 9.49706L29.9414 12.1305C30.1809 12.8675 29.3373 13.4804 28.7104 13.0249L26.4702 11.3974C26.1898 11.1937 25.8102 11.1937 25.5298 11.3974L23.2896 13.0249C22.6627 13.4804 21.8191 12.8675 22.0586 12.1305L22.9142 9.49706C23.0213 9.16744 22.904 8.80635 22.6236 8.60263L20.3835 6.97508C19.7565 6.51956 20.0787 5.52786 20.8537 5.52786H23.6227C23.9692 5.52786 24.2764 5.3047 24.3835 4.97508L25.2392 2.34164Z" fill="#FFE606"/>
<path id="Star 3" d="M43.2392 2.34164C43.4786 1.60459 44.5214 1.60459 44.7608 2.34164L45.6165 4.97508C45.7236 5.3047 46.0308 5.52786 46.3773 5.52786H49.1463C49.9213 5.52786 50.2435 6.51956 49.6165 6.97508L47.3764 8.60263C47.096 8.80635 46.9787 9.16744 47.0858 9.49706L47.9414 12.1305C48.1809 12.8675 47.3373 13.4804 46.7104 13.0249L44.4702 11.3974C44.1898 11.1937 43.8102 11.1937 43.5298 11.3974L41.2896 13.0249C40.6627 13.4804 39.8191 12.8675 40.0586 12.1305L40.9142 9.49706C41.0213 9.16744 40.904 8.80635 40.6236 8.60263L38.3835 6.97508C37.7565 6.51956 38.0787 5.52786 38.8537 5.52786H41.6227C41.9692 5.52786 42.2764 5.3047 42.3835 4.97508L43.2392 2.34164Z" fill="#FFE606"/>
<path id="Star 4" d="M61.2392 2.34164C61.4786 1.60459 62.5214 1.60459 62.7608 2.34164L63.6165 4.97508C63.7236 5.3047 64.0308 5.52786 64.3773 5.52786H67.1463C67.9213 5.52786 68.2435 6.51956 67.6165 6.97508L65.3764 8.60263C65.096 8.80635 64.9787 9.16744 65.0858 9.49706L65.9414 12.1305C66.1809 12.8675 65.3373 13.4804 64.7104 13.0249L62.4702 11.3974C62.1898 11.1937 61.8102 11.1937 61.5298 11.3974L59.2896 13.0249C58.6627 13.4804 57.8191 12.8675 58.0586 12.1305L58.9142 9.49706C59.0213 9.16744 58.904 8.80635 58.6236 8.60263L56.3835 6.97508C55.7565 6.51956 56.0787 5.52786 56.8537 5.52786H59.6227C59.9692 5.52786 60.2764 5.3047 60.3835 4.97508L61.2392 2.34164Z" fill="#FFE606"/>
<path id="Star 5" d="M79.2392 2.34164C79.4786 1.60459 80.5214 1.60459 80.7608 2.34164L81.6165 4.97508C81.7236 5.3047 82.0308 5.52786 82.3773 5.52786H85.1463C85.9213 5.52786 86.2435 6.51956 85.6165 6.97508L83.3764 8.60263C83.096 8.80635 82.9787 9.16744 83.0858 9.49706L83.9414 12.1305C84.1809 12.8675 83.3373 13.4804 82.7104 13.0249L80.4702 11.3974C80.1898 11.1937 79.8102 11.1937 79.5298 11.3974L77.2896 13.0249C76.6627 13.4804 75.8191 12.8675 76.0586 12.1305L76.9142 9.49706C77.0213 9.16744 76.904 8.80635 76.6236 8.60263L74.3835 6.97508C73.7565 6.51956 74.0787 5.52786 74.8537 5.52786H77.6227C77.9692 5.52786 78.2764 5.3047 78.3835 4.97508L79.2392 2.34164Z" fill="#FFE606"/>
</g>
</svg>
