<svg width="632" height="632" viewBox="0 0 632 632" fill="none" xmlns="http://www.w3.org/2000/svg">
<g style="mix-blend-mode:color-dodge" opacity="0.5">
<circle opacity="0.1" cx="316" cy="316" r="280" fill="white"/>
<circle opacity="0.1" cx="316" cy="316" r="316" fill="white"/>
<circle opacity="0.1" cx="316" cy="316" r="242" fill="white"/>
</g>
<path d="M493.68 203.931C493.68 203.931 486.372 198.294 475.718 216.075C465.063 233.856 460.759 244.148 460.759 244.148C460.759 244.148 458.017 247.832 455.558 245.16C453.098 242.488 449.993 235.04 445.407 236.001C440.659 237.013 438.754 242.073 439.097 249.836C439.44 257.598 439.581 274.508 439.581 276.046C439.581 277.585 438.573 279.69 436.557 278.07C434.541 276.451 423.614 262.313 417.223 267.95C410.833 273.587 415.298 294.95 415.752 297.298C416.205 299.646 415.671 300.587 414.542 301.083C413.413 301.579 410.177 296.458 406.891 292.552C403.605 288.646 399.11 284.689 395.692 288.251C392.275 291.813 390.149 307.479 403.232 334.034L410.097 345.955L423.866 346.168C453.37 344.832 465.98 335.42 467.442 330.694C468.904 325.968 463.279 323.934 458.279 322.932C453.28 321.93 447.262 321.546 447.141 320.311C447.02 319.077 447.604 318.166 449.873 317.427C452.141 316.688 472.925 310.343 474.75 301.974C476.574 293.605 458.904 290.842 456.606 289.83C454.308 288.818 455.668 286.935 456.979 286.217C458.289 285.498 473.177 277.413 480.082 273.982C486.987 270.551 490.515 266.412 489.094 261.757C487.733 257.264 479.76 258.114 476.212 257.253C472.663 256.393 474.548 252.193 474.548 252.193C474.548 252.193 481.514 243.409 491.846 225.477C502.178 207.544 493.499 203.79 493.499 203.79" fill="#EBEBEB"/>
<path d="M484.104 219.86C484.104 219.86 484.044 219.992 483.913 220.245L483.288 221.358C482.733 222.37 481.917 223.777 480.879 225.618C478.782 229.312 475.708 234.645 471.887 241.213C464.247 254.369 453.542 272.423 441.647 292.34C429.753 312.256 419.008 330.3 411.306 343.395L402.234 358.929L399.755 363.139L399.1 364.232C398.948 364.485 398.868 364.596 398.868 364.596C398.868 364.596 398.928 364.465 399.059 364.212C399.19 363.959 399.412 363.574 399.674 363.099L402.093 358.838C404.19 355.144 407.264 349.811 411.085 343.243C418.725 330.087 429.43 312.033 441.325 292.117C453.219 272.201 463.964 254.157 471.665 241.062L480.737 225.537L483.217 221.317L483.872 220.224C484.024 219.921 484.104 219.86 484.104 219.86Z" fill="#E0E0E0"/>
<path d="M449.338 246.506C449.471 246.81 449.566 247.13 449.621 247.457C449.772 248.085 449.973 248.986 450.205 250.109C450.669 252.345 451.213 255.452 451.788 258.903C452.362 262.354 452.796 265.37 453.189 267.718C453.36 268.78 453.511 269.671 453.622 270.389C453.698 270.722 453.742 271.061 453.753 271.401C453.62 271.097 453.522 270.777 453.461 270.45C453.31 269.833 453.108 268.922 452.887 267.799C452.443 265.562 451.929 262.445 451.364 258.994C450.8 255.543 450.296 252.538 449.913 250.19C449.732 249.178 449.58 248.247 449.459 247.528C449.383 247.193 449.342 246.85 449.338 246.506Z" fill="#E0E0E0"/>
<path d="M454.983 271.705C454.983 271.594 461.303 270.146 469.095 268.487C476.887 266.827 483.308 265.562 483.338 265.673C483.368 265.785 477.028 267.232 469.226 268.902C461.424 270.571 455.013 271.826 454.983 271.705Z" fill="#E0E0E0"/>
<path d="M435.357 301.468C435.692 301.428 436.031 301.428 436.365 301.468L439.107 301.67C441.426 301.842 444.631 302.065 448.179 302.176C451.727 302.287 454.933 302.298 457.251 302.277H460.003C460.338 302.234 460.676 302.234 461.011 302.277C460.681 302.357 460.343 302.398 460.003 302.399C459.348 302.399 458.41 302.51 457.251 302.551C454.923 302.652 451.707 302.702 448.179 302.551C444.651 302.399 441.416 302.166 439.107 301.923C437.948 301.792 437.011 301.68 436.365 301.579C436.026 301.586 435.687 301.548 435.357 301.468Z" fill="#E0E0E0"/>
<path d="M425.247 279.801C425.443 280.048 425.606 280.32 425.731 280.61C426.043 281.228 426.436 281.977 426.9 282.877C427.908 284.8 429.178 287.472 430.61 290.437C432.041 293.402 433.311 296.084 434.208 298.047C434.621 298.958 434.974 299.737 435.216 300.375C435.366 300.652 435.478 300.948 435.549 301.255C435.353 301.008 435.19 300.736 435.065 300.446C434.753 299.828 434.359 299.069 433.896 298.179C432.888 296.256 431.618 293.584 430.186 290.619C428.755 287.654 427.485 284.962 426.588 283.009L425.58 280.681C425.437 280.401 425.326 280.105 425.247 279.801Z" fill="#E0E0E0"/>
<path d="M404.593 303.856C404.82 304.177 405.023 304.515 405.198 304.868L406.71 307.772C407.96 310.232 409.673 313.642 411.538 317.417C413.403 321.192 415.076 324.632 416.266 327.122L417.647 330.087C417.838 330.44 417.99 330.814 418.1 331.2C417.878 330.876 417.675 330.538 417.496 330.188L415.994 327.284C414.734 324.825 413.02 321.414 411.155 317.639C409.29 313.865 407.627 310.434 406.438 307.934L405.047 304.969C404.854 304.617 404.702 304.243 404.593 303.856Z" fill="#E0E0E0"/>
<path d="M417.969 330.482C418.395 330.442 418.824 330.442 419.249 330.482L422.737 330.624C425.68 330.735 429.793 330.866 434.248 330.897C438.704 330.927 442.816 330.846 445.76 330.765L449.258 330.674C449.684 330.64 450.112 330.64 450.538 330.674C450.116 330.762 449.688 330.812 449.258 330.826C448.441 330.897 447.242 330.978 445.77 331.049C442.827 331.2 438.714 331.332 434.248 331.302C429.783 331.271 425.67 331.089 422.727 330.897C421.245 330.806 420.056 330.715 419.239 330.634C418.812 330.624 418.387 330.573 417.969 330.482Z" fill="#E0E0E0"/>
<path d="M127.851 237.844L122.055 237.876L123.448 496.458L129.244 496.427L127.851 237.844Z" fill="#E0E0E0"/>
<path d="M141.72 237.769L135.924 237.801L137.318 496.383L143.114 496.352L141.72 237.769Z" fill="#E0E0E0"/>
<path d="M262.957 237.111L257.161 237.142L258.555 495.725L264.351 495.693L262.957 237.111Z" fill="#E0E0E0"/>
<path d="M276.837 237.035L271.041 237.067L272.434 495.649L278.23 495.618L276.837 237.035Z" fill="#E0E0E0"/>
<path d="M276.829 237.029L122.053 237.869L122.084 243.769L276.861 242.929L276.829 237.029Z" fill="#E0E0E0"/>
<path d="M277.115 290.116L122.339 290.957L122.348 292.718L277.124 291.877L277.115 290.116Z" fill="#E0E0E0"/>
<path d="M277.385 340.167L122.608 341.008L122.618 342.769L277.394 341.928L277.385 340.167Z" fill="#E0E0E0"/>
<path d="M277.654 390.198L122.878 391.039L122.888 392.8L277.664 391.959L277.654 390.198Z" fill="#E0E0E0"/>
<path d="M277.924 440.24L123.148 441.08L123.157 442.841L277.933 442L277.924 440.24Z" fill="#E0E0E0"/>
<path d="M214.83 410.712L187.413 410.987L187.704 440.194L215.121 439.918L214.83 410.712Z" fill="#EBEBEB"/>
<path d="M240.531 411.236L213.114 411.385L213.271 440.591L240.688 440.442L240.531 411.236Z" fill="#F5F5F5"/>
<path d="M185.847 419.538C204.062 419.72 222.337 419.538 240.551 419.275C240.607 419.275 240.661 419.252 240.701 419.212C240.741 419.172 240.763 419.118 240.763 419.062C240.763 419.006 240.741 418.952 240.701 418.912C240.661 418.872 240.607 418.849 240.551 418.849C222.337 418.758 204.062 418.799 185.847 419.173C185.799 419.173 185.753 419.193 185.719 419.227C185.685 419.261 185.666 419.307 185.666 419.355C185.666 419.404 185.685 419.45 185.719 419.484C185.753 419.518 185.799 419.538 185.847 419.538Z" fill="#E0E0E0"/>
<path d="M206.397 300.818L186.318 301.019L186.531 322.403L206.61 322.201L206.397 300.818Z" fill="#EBEBEB"/>
<path d="M226.385 300.617L206.305 300.819L206.518 322.202L226.598 322.001L226.385 300.617Z" fill="#F5F5F5"/>
<path d="M185.252 307.489C198.598 307.597 211.954 307.536 225.32 307.307C225.37 307.296 225.414 307.269 225.446 307.229C225.478 307.189 225.495 307.14 225.495 307.089C225.495 307.038 225.478 306.989 225.446 306.949C225.414 306.91 225.37 306.882 225.32 306.872C211.985 306.801 198.598 306.872 185.252 307.125C185.204 307.125 185.158 307.144 185.124 307.178C185.09 307.212 185.071 307.259 185.071 307.307C185.071 307.355 185.09 307.401 185.124 307.436C185.158 307.47 185.204 307.489 185.252 307.489Z" fill="#E0E0E0"/>
<path d="M210.387 321.838L173.897 322.205L174.071 339.631L210.561 339.265L210.387 321.838Z" fill="#EBEBEB"/>
<path d="M246.693 321.464L210.204 321.83L210.377 339.257L246.867 338.89L246.693 321.464Z" fill="#F5F5F5"/>
<path d="M172.723 327.547C196.915 327.82 221.288 327.547 245.521 327.193C245.57 327.182 245.615 327.155 245.646 327.115C245.678 327.075 245.695 327.026 245.695 326.975C245.695 326.924 245.678 326.875 245.646 326.835C245.615 326.796 245.57 326.768 245.521 326.758C221.278 326.636 196.955 326.646 172.723 327.183C172.675 327.183 172.629 327.202 172.595 327.236C172.561 327.27 172.542 327.316 172.542 327.365C172.542 327.413 172.561 327.459 172.595 327.494C172.629 327.528 172.675 327.547 172.723 327.547Z" fill="#E0E0E0"/>
<path d="M182.868 254.854L173.705 254.904L173.898 290.778L183.061 290.729L182.868 254.854Z" fill="#EBEBEB"/>
<path d="M173.576 264.599L164.413 264.649L164.554 290.738L173.717 290.688L173.576 264.599Z" fill="#E0E0E0"/>
<path d="M197.257 261.495L183.014 261.573L183.171 290.647L197.414 290.569L197.257 261.495Z" fill="#E0E0E0"/>
<path d="M202.481 260.841L197.955 260.886L198.244 289.961L202.77 289.915L202.481 260.841Z" fill="#EBEBEB"/>
<path d="M206.123 268.167L201.597 268.191L201.718 290.546L206.243 290.522L206.123 268.167Z" fill="#E0E0E0"/>
<path d="M180.938 359.919L172.46 356.429L159.752 387.555L168.23 391.044L180.938 359.919Z" fill="#E0E0E0"/>
<path d="M188.871 355.018L179.708 355.068L179.901 390.943L189.064 390.893L188.871 355.018Z" fill="#EBEBEB"/>
<path d="M207.846 361.645L193.604 361.722L193.76 390.796L208.003 390.719L207.846 361.645Z" fill="#E0E0E0"/>
<path d="M193.546 350.955L190.431 350.971L190.646 390.813L193.761 390.796L193.546 350.955Z" fill="#EBEBEB"/>
<path d="M190.465 357.175L188.902 357.183L189.084 390.822L190.646 390.813L190.465 357.175Z" fill="#F5F5F5"/>
<path d="M208.122 389.223L208.13 390.791L241.636 390.609L241.627 389.041L208.122 389.223Z" fill="#F5F5F5"/>
<path d="M244.464 379.733L207.944 379.931L207.994 389.231L244.514 389.033L244.464 379.733Z" fill="#EBEBEB"/>
<path d="M238.634 369.607L209.302 369.902L209.394 379.202L238.727 378.907L238.634 369.607Z" fill="#E0E0E0"/>
<path d="M315.929 106.516C317.23 100.343 316.444 93.2993 316.514 87.0047C316.585 80.71 317.381 73.6766 316.262 67.463C316.207 67.2866 316.097 67.1326 315.948 67.0232C315.799 66.9139 315.62 66.855 315.436 66.855C315.251 66.855 315.072 66.9139 314.923 67.0232C314.775 67.1326 314.665 67.2866 314.609 67.463C313.48 73.6868 314.145 80.6797 314.085 87.0047C314.024 93.3297 313.077 100.343 314.387 106.516C314.438 106.682 314.54 106.827 314.679 106.93C314.818 107.033 314.986 107.089 315.158 107.089C315.331 107.089 315.499 107.033 315.638 106.93C315.777 106.827 315.879 106.682 315.929 106.516Z" fill="#E0E0E0"/>
<path d="M260.5 155.547H371.5C371.5 155.547 361.249 106.293 315.163 106.293C274.158 106.293 260.5 155.547 260.5 155.547Z" fill="#F5F5F5"/>
<path d="M546.268 496.51C546.268 496.652 444.117 496.774 318.137 496.774C192.157 496.774 89.9762 496.652 89.9762 496.51C89.9762 496.369 192.107 496.247 318.137 496.247C444.167 496.247 546.268 496.359 546.268 496.51Z" fill="#263238"/>
<path d="M398.928 203.081H233.072C226.642 203.081 221.429 208.314 221.429 214.77V484.488C221.429 490.943 226.642 496.176 233.072 496.176H398.928C405.358 496.176 410.571 490.943 410.571 484.488V214.77C410.571 208.314 405.358 203.081 398.928 203.081Z" fill="#455A64"/>
<path d="M321.796 482.545C321.694 483.964 321.181 485.322 320.321 486.453C319.461 487.584 318.291 488.438 316.955 488.91C315.618 489.383 314.173 489.453 312.797 489.113C311.421 488.773 310.174 488.037 309.208 486.995C308.243 485.953 307.602 484.651 307.363 483.249C307.125 481.847 307.299 480.405 307.865 479.1C308.431 477.796 309.364 476.686 310.549 475.906C311.735 475.127 313.121 474.712 314.538 474.712C316.534 474.788 318.418 475.656 319.778 477.124C321.139 478.592 321.864 480.541 321.796 482.545Z" fill="#263238"/>
<path d="M343.246 211.521H288.744C288.064 211.521 287.514 212.074 287.514 212.756V213.525C287.514 214.207 288.064 214.76 288.744 214.76H343.246C343.925 214.76 344.476 214.207 344.476 213.525V212.756C344.476 212.074 343.925 211.521 343.246 211.521Z" fill="#263238"/>
<path d="M405.087 219.9H227.881V467.183H405.087V219.9Z" fill="#263238"/>
<path d="M359.082 441.66L359.737 441.599C360.374 441.56 361.007 441.475 361.632 441.346C362.644 441.13 363.626 440.79 364.555 440.334C365.832 439.73 366.995 438.908 367.993 437.905C369.255 436.657 370.237 435.153 370.876 433.493C371.621 431.52 371.9 429.4 371.692 427.3C371.467 424.729 370.466 422.288 368.824 420.303C367.181 418.317 364.975 416.882 362.499 416.188C361.811 416.001 361.11 415.865 360.402 415.783C359.677 415.783 358.951 415.702 358.195 415.712H353.598H343.851H322.33H273.029C270.892 415.728 268.793 416.277 266.921 417.311C265.086 418.354 263.543 419.844 262.431 421.642C261.32 423.44 260.676 425.49 260.56 427.603C260.396 429.671 260.71 431.749 261.477 433.675C262.261 435.534 263.466 437.183 264.995 438.492C266.508 439.763 268.296 440.661 270.217 441.114C272.128 441.46 274.074 441.578 276.013 441.468H281.728L321.998 441.528L349.143 441.609L356.522 441.66H349.143L321.998 441.741L281.728 441.802H273.049C272.555 441.802 272.041 441.802 271.547 441.711C271.049 441.648 270.555 441.561 270.065 441.447C268.067 440.98 266.206 440.047 264.632 438.725C263.039 437.364 261.782 435.649 260.963 433.716C260.173 431.732 259.845 429.592 260.006 427.462C260.138 425.303 260.814 423.214 261.971 421.39C263.133 419.517 264.75 417.971 266.669 416.896C268.62 415.814 270.81 415.24 273.039 415.227H322.34H343.861H358.205C358.951 415.227 359.707 415.227 360.453 415.297C361.181 415.39 361.902 415.535 362.61 415.733C365.168 416.465 367.439 417.97 369.117 420.043C370.794 422.116 371.795 424.656 371.984 427.32C372.183 429.461 371.883 431.62 371.107 433.625C370.446 435.306 369.436 436.828 368.144 438.088C367.12 439.096 365.93 439.918 364.626 440.516C363.679 440.974 362.681 441.314 361.652 441.528C361.02 441.644 360.38 441.708 359.737 441.721C359.344 441.67 359.082 441.66 359.082 441.66Z" fill="white"/>
<path d="M293.753 426.895L293.129 427.684C292.905 427.436 292.633 427.236 292.33 427.097C292.026 426.958 291.698 426.882 291.365 426.875C291.059 426.854 290.752 426.897 290.463 427C290.174 427.103 289.91 427.265 289.686 427.475C289.462 427.685 289.284 427.94 289.162 428.222C289.04 428.504 288.977 428.809 288.977 429.116C288.977 429.424 289.04 429.729 289.162 430.011C289.284 430.293 289.462 430.547 289.686 430.757C289.91 430.968 290.174 431.129 290.463 431.233C290.752 431.336 291.059 431.379 291.365 431.358C292.026 431.344 292.657 431.076 293.129 430.609L293.764 431.317C293.102 431.957 292.222 432.319 291.304 432.329C290.867 432.354 290.43 432.289 290.019 432.138C289.609 431.987 289.233 431.754 288.915 431.452C288.597 431.15 288.344 430.787 288.171 430.383C287.998 429.98 287.909 429.545 287.909 429.106C287.909 428.667 287.998 428.233 288.171 427.829C288.344 427.426 288.597 427.062 288.915 426.76C289.233 426.459 289.609 426.225 290.019 426.074C290.43 425.924 290.867 425.858 291.304 425.883C292.221 425.886 293.1 426.249 293.753 426.895Z" fill="white"/>
<path d="M300.88 429.132C300.912 429.806 300.742 430.475 300.393 431.051C300.043 431.628 299.529 432.087 298.917 432.367C298.306 432.648 297.624 432.739 296.961 432.627C296.298 432.516 295.683 432.207 295.196 431.741C294.708 431.276 294.371 430.674 294.228 430.015C294.084 429.355 294.141 428.667 294.39 428.04C294.64 427.413 295.071 426.875 295.627 426.496C296.184 426.117 296.841 425.914 297.513 425.913C297.946 425.897 298.378 425.968 298.783 426.122C299.188 426.276 299.559 426.51 299.873 426.81C300.186 427.11 300.437 427.47 300.61 427.868C300.783 428.267 300.875 428.697 300.88 429.132ZM295.235 429.132C295.24 429.736 295.484 430.314 295.913 430.739C296.342 431.164 296.921 431.401 297.523 431.398C297.969 431.392 298.402 431.254 298.769 431.002C299.137 430.749 299.421 430.393 299.588 429.978C299.754 429.564 299.794 429.109 299.704 428.671C299.613 428.233 299.396 427.832 299.079 427.518C298.762 427.204 298.36 426.991 297.923 426.906C297.485 426.821 297.033 426.868 296.622 427.04C296.211 427.213 295.86 427.503 295.614 427.875C295.367 428.247 295.235 428.685 295.235 429.132Z" fill="white"/>
<path d="M306.525 432.319L303.138 427.745V432.319H302.069V425.944H303.077L306.485 430.528V425.944H307.493V432.319H306.525Z" fill="white"/>
<path d="M310.325 426.905V428.747H313.208V429.708H310.325V432.319H309.246V425.944H313.52V426.905H310.325Z" fill="white"/>
<path d="M314.468 432.319V425.944H315.536V432.319H314.468Z" fill="white"/>
<path d="M320.032 430.356H318.238V432.279H317.21V425.903H319.78C321.403 425.903 322.34 426.693 322.34 428.079C322.367 428.513 322.255 428.944 322.019 429.309C321.783 429.673 321.436 429.952 321.03 430.103L322.451 432.238H321.232L320.032 430.356ZM319.74 429.405C320.748 429.405 321.282 428.98 321.282 428.12C321.282 427.259 320.728 426.875 319.74 426.875H318.238V429.405H319.74Z" fill="white"/>
<path d="M329.487 432.319V427.553L327.471 431.601H326.765L324.749 427.553V432.319H323.741V425.944H325.072L327.169 430.174L329.255 425.944H330.525V432.319H329.487Z" fill="white"/>
<path d="M333.227 426.905V428.626H336.331V429.638H333.227V431.368H336.805V432.329H332.128V425.954H336.664V426.915L333.227 426.905Z" fill="white"/>
<path d="M340.716 425.944C341.558 425.944 342.366 426.279 342.961 426.877C343.557 427.475 343.891 428.286 343.891 429.131C343.891 429.977 343.557 430.788 342.961 431.386C342.366 431.983 341.558 432.319 340.716 432.319H338.136V425.944H340.716ZM339.184 431.368H340.736C341.027 431.375 341.316 431.322 341.585 431.213C341.854 431.104 342.099 430.94 342.303 430.733C342.507 430.525 342.666 430.278 342.771 430.006C342.876 429.734 342.925 429.443 342.914 429.152C342.922 428.857 342.87 428.563 342.762 428.288C342.654 428.014 342.491 427.765 342.283 427.555C342.076 427.346 341.828 427.181 341.555 427.071C341.282 426.961 340.99 426.908 340.696 426.915H339.184V431.368Z" fill="white"/>
<path d="M248.01 306.103L382.236 305.131L385.975 396.747L246.992 395.452L248.01 306.103Z" fill="#166FFF"/>
<path d="M248.01 306.103L316.151 250.746L382.236 305.131" fill="#166FFF"/>
<g opacity="0.3">
<path d="M248.01 306.103L316.151 250.746L382.236 305.131" fill="black"/>
</g>
<path d="M246.992 395.452C246.821 395.3 257.566 383.521 270.993 369.14C284.419 354.76 295.427 343.243 295.598 343.405C295.769 343.567 285.024 355.336 271.598 369.717C258.171 384.098 247.164 395.614 246.992 395.452Z" fill="#263238"/>
<path d="M385.975 396.748C385.804 396.899 375.341 385.363 362.61 370.972C349.879 356.581 339.688 344.792 339.859 344.66C340.031 344.528 350.494 356.045 363.225 370.436C375.956 384.826 386.147 396.596 385.975 396.748Z" fill="#263238"/>
<g opacity="0.5">
<path d="M382.236 305.131L314.831 359.192L248.01 306.103" fill="black"/>
</g>
<path d="M254.774 311.112L254.572 271.917L372.135 269.023L373.416 311.912L314.831 358.484L254.774 311.112Z" fill="#EBEBEB"/>
<path d="M316.474 344.397C312.35 344.408 308.27 343.542 304.502 341.857C300.735 340.173 297.365 337.706 294.615 334.621C291.864 331.536 289.795 327.901 288.544 323.956C287.292 320.01 286.886 315.844 287.353 311.73C288.225 303.992 292.124 296.919 298.191 292.067C304.259 287.215 311.997 284.981 319.704 285.858C327.412 286.734 334.457 290.648 339.289 296.74C344.122 302.831 346.347 310.6 345.474 318.338C344.67 325.498 341.269 332.111 335.921 336.917C330.573 341.723 323.651 344.385 316.474 344.397ZM316.393 286.713C310.949 286.719 305.622 288.306 301.055 291.282C296.488 294.258 292.877 298.497 290.655 303.488C288.434 308.478 287.698 314.008 288.535 319.409C289.373 324.81 291.749 329.852 295.377 333.929C299.004 338.005 303.729 340.94 308.981 342.382C314.233 343.823 319.788 343.709 324.976 342.053C330.165 340.396 334.765 337.268 338.223 333.046C341.682 328.824 343.849 323.688 344.466 318.257C344.887 314.557 344.577 310.809 343.554 307.229C342.531 303.649 340.816 300.307 338.505 297.393C336.194 294.48 333.335 292.052 330.089 290.249C326.843 288.446 323.275 287.302 319.588 286.885C318.529 286.747 317.462 286.669 316.393 286.652V286.713Z" fill="#166FFF"/>
<path d="M296.535 319.107L301.424 313.096L312.855 321.384L331.432 299.403L337.037 304.352L313.137 332L296.535 319.107Z" fill="#166FFF"/>
<path d="M442.937 358.848C442.987 359.028 443.078 359.194 443.202 359.333C443.326 359.472 443.48 359.581 443.653 359.65C443.825 359.72 444.011 359.748 444.197 359.734C444.382 359.719 444.562 359.662 444.722 359.567C445.031 359.339 445.269 359.028 445.408 358.669C445.547 358.311 445.582 357.92 445.508 357.543C445.347 356.796 445.042 356.087 444.611 355.458C444.905 355.623 445.233 355.719 445.57 355.738C445.907 355.756 446.243 355.698 446.554 355.566C446.865 355.435 447.142 355.234 447.364 354.978C447.585 354.723 447.746 354.421 447.834 354.094C447.922 353.767 447.934 353.424 447.87 353.092C447.806 352.759 447.667 352.446 447.464 352.175C447.261 351.905 446.999 351.684 446.699 351.53C446.398 351.377 446.067 351.294 445.73 351.288C446.688 351.148 447.596 350.769 448.37 350.185C448.748 349.881 449.022 349.466 449.156 348.999C449.289 348.531 449.275 348.034 449.116 347.574C449.017 347.36 448.869 347.172 448.684 347.027C448.498 346.881 448.281 346.781 448.05 346.736C447.819 346.69 447.581 346.701 447.354 346.765C447.128 346.83 446.92 346.948 446.748 347.109C447.269 346.817 447.726 346.421 448.088 345.945C448.266 345.704 448.368 345.416 448.38 345.116C448.393 344.817 448.316 344.52 448.159 344.265C447.922 344.014 447.611 343.846 447.272 343.784C446.933 343.722 446.584 343.77 446.274 343.921C445.658 344.219 445.062 344.557 444.49 344.933C443.764 345.319 442.949 345.507 442.128 345.477C441.307 345.446 440.508 345.2 439.813 344.761L436.053 347.878L442.937 358.848Z" fill="#263238"/>
<path d="M422.848 341.715C421.805 342.061 420.883 342.7 420.19 343.555C419.497 344.41 419.062 345.447 418.937 346.542C418.874 346.94 418.891 347.346 418.986 347.737C419.082 348.128 419.253 348.496 419.491 348.819C419.828 349.167 420.252 349.418 420.718 349.546C421.184 349.674 421.676 349.675 422.142 349.548C423.069 349.289 423.931 348.838 424.672 348.222C425.261 347.882 425.775 347.427 426.184 346.882C426.593 346.338 426.888 345.716 427.051 345.055C427.085 344.382 426.909 343.715 426.548 343.147C426.187 342.579 425.658 342.139 425.035 341.887C424.412 341.65 423.747 341.548 423.081 341.586C422.416 341.624 421.767 341.803 421.175 342.11" fill="#263238"/>
<path d="M426.104 360.407C425.774 361.75 425.211 363.024 424.441 364.171C424.053 364.743 423.551 365.227 422.966 365.591C422.381 365.955 421.726 366.192 421.044 366.286C420.36 366.363 419.671 366.212 419.081 365.857C418.491 365.503 418.034 364.964 417.778 364.323C417.664 364.717 417.45 365.073 417.157 365.357C416.863 365.641 416.5 365.843 416.104 365.942C415.705 366.029 415.288 365.985 414.915 365.817C414.541 365.65 414.231 365.368 414.028 365.011C413.846 364.646 413.806 364.225 413.914 363.831C414.022 363.437 414.27 363.097 414.613 362.876C413.806 363.331 412.798 363.797 412.002 363.321C411.66 363.105 411.409 362.77 411.296 362.38C410.883 361.105 411.669 359.769 412.546 358.757C413.423 357.745 414.451 356.733 414.663 355.438C414.724 354.364 414.563 353.289 414.189 352.28C413.861 351.128 413.812 349.913 414.048 348.738C414.169 348.148 414.411 347.59 414.758 347.099C415.105 346.608 415.55 346.194 416.064 345.884C416.579 345.582 417.171 345.438 417.766 345.472C418.362 345.507 418.934 345.717 419.411 346.077L419.582 347.797L426.134 360.407" fill="#263238"/>
<path d="M441.778 380.464C441.778 380.464 444.127 405.41 442.151 408.659C440.176 411.907 415.943 445.86 415.943 445.86H416.004C415.53 446.062 414.996 446.255 414.472 446.467C413.626 446.768 412.737 446.925 411.841 446.933C410.729 446.984 409.616 446.879 408.534 446.619C407.526 446.275 406.69 447.297 407.214 448.066C407.738 448.835 410.389 449.827 413.675 449.513C416.961 449.199 413.262 452.853 411.941 454.209C410.621 455.565 406.73 459.967 406.831 460.706C406.972 461.789 408.151 461.839 409.442 460.453C410.732 459.066 414.875 455.17 415.56 455.909C416.246 456.648 409.411 463.459 409.411 463.459C409.411 463.459 407.718 464.683 408.484 465.564C409.845 467.142 416.548 459.35 417.183 458.591C417.617 458.065 418.383 458.834 417.889 459.37C417.395 459.906 410.933 466.029 412.314 467.648C413.373 468.893 417.899 461.283 419.935 460.767C421.971 460.251 415.903 466.181 416.981 467.335C417.375 467.76 417.727 468.023 420.711 464.106C423.072 460.695 425.243 457.154 427.213 453.5C430.388 450.05 461.686 415.935 461.928 409.559C462.18 402.85 463.38 380.141 463.38 380.141L441.778 380.464Z" fill="#EB996E"/>
<path d="M404.452 491.501L404.16 482.241L421.437 481.594L422.001 495.134L420.933 495.246C416.175 495.691 396.741 497.168 393.485 496.318C389.896 495.367 404.452 491.501 404.452 491.501Z" fill="#166FFF"/>
<g opacity="0.4">
<path d="M397.346 493.646C397.346 493.646 392.255 495.326 392.93 496.156C393.606 496.986 413.322 496.227 422.001 495.144L421.951 494.76L398.958 495.832C398.958 495.832 398.354 493.646 397.346 493.646Z" fill="white"/>
</g>
<path d="M422.223 494.729H421.931L421.084 494.81L417.949 495.074C415.298 495.266 411.639 495.488 407.587 495.65C403.535 495.812 399.866 495.863 397.215 495.873H394.07H393.213C393.113 495.888 393.011 495.888 392.91 495.873H393.213H394.07L397.204 495.822C399.866 495.772 403.535 495.691 407.577 495.529C411.619 495.367 415.288 495.175 417.939 495.013L421.074 494.821H421.931L422.223 494.729Z" fill="#263238"/>
<path d="M398.969 496.136C398.815 495.617 398.602 495.118 398.333 494.648C398.004 494.221 397.629 493.83 397.215 493.485C397.753 493.652 398.212 494.012 398.505 494.497C398.866 494.962 399.032 495.55 398.969 496.136Z" fill="#263238"/>
<path d="M403.968 493.302C403.968 493.302 403.666 493.049 403.404 492.655C403.213 492.436 403.075 492.176 403 491.896C403.051 491.896 403.303 492.149 403.575 492.533C403.847 492.918 404.019 493.272 403.968 493.302Z" fill="#263238"/>
<path d="M405.339 492.503C405.339 492.503 405.027 492.382 404.714 492.118C404.402 491.855 404.19 491.623 404.23 491.572C404.271 491.521 404.543 491.704 404.855 491.957C405.168 492.21 405.379 492.463 405.339 492.503Z" fill="#263238"/>
<path d="M406.166 490.833C405.881 490.949 405.575 491.001 405.268 490.985C405.243 491.093 405.178 491.189 405.087 491.252C404.996 491.316 404.884 491.344 404.774 491.331C404.664 491.318 404.562 491.265 404.488 491.181C404.415 491.098 404.374 490.99 404.374 490.879C404.374 490.767 404.415 490.66 404.488 490.576C404.562 490.493 404.664 490.44 404.774 490.426C404.884 490.413 404.996 490.441 405.087 490.505C405.178 490.569 405.243 490.664 405.268 490.772C405.568 490.726 405.875 490.747 406.166 490.833Z" fill="#263238"/>
<path d="M406.428 489.669C406.132 489.879 405.781 489.995 405.42 490.003C405.081 490.063 404.732 490.028 404.412 489.902C404.744 489.838 405.081 489.801 405.42 489.791C405.751 489.717 406.088 489.677 406.428 489.669Z" fill="#263238"/>
<path d="M403.323 491.815C402.956 491.88 402.581 491.88 402.214 491.815C401.812 491.78 401.414 491.709 401.025 491.602C400.788 491.542 400.559 491.457 400.339 491.349C400.203 491.275 400.098 491.153 400.047 491.005C400.027 490.924 400.031 490.839 400.057 490.76C400.084 490.681 400.133 490.612 400.198 490.56C400.612 490.33 401.094 490.254 401.558 490.345C402.022 490.435 402.44 490.687 402.738 491.056C402.92 491.268 403.054 491.516 403.131 491.785C403.154 491.885 403.154 491.988 403.131 492.088C403.004 491.749 402.82 491.434 402.587 491.157C402.316 490.866 401.965 490.662 401.579 490.57C401.361 490.505 401.131 490.484 400.905 490.508C400.678 490.533 400.458 490.602 400.259 490.712C400.087 490.854 400.168 491.056 400.37 491.167C400.569 491.269 400.779 491.35 400.995 491.41C401.373 491.527 401.761 491.612 402.154 491.663C402.9 491.795 403.323 491.774 403.323 491.815Z" fill="#263238"/>
<path d="M403.041 491.875C402.898 491.646 402.844 491.373 402.89 491.106C402.907 490.814 403.001 490.531 403.162 490.287C403.246 490.116 403.372 489.97 403.53 489.863C403.687 489.757 403.87 489.693 404.059 489.679C404.171 489.699 404.272 489.762 404.339 489.854C404.407 489.947 404.436 490.062 404.422 490.175C404.408 490.356 404.349 490.53 404.25 490.681C404.116 490.934 403.95 491.169 403.756 491.38C403.414 491.734 403.152 491.875 403.131 491.855C403.111 491.835 403.343 491.643 403.646 491.278C403.814 491.069 403.959 490.841 404.079 490.6C404.22 490.357 404.311 489.922 404.029 489.892C403.746 489.862 403.484 490.155 403.323 490.388C403.175 490.611 403.076 490.863 403.031 491.127C403.011 491.376 403.015 491.627 403.041 491.875Z" fill="#263238"/>
<path d="M421.689 489.993C421.689 489.993 421.195 489.993 420.419 490.084C419.407 490.247 418.459 490.684 417.677 491.349C416.907 492.024 416.339 492.9 416.034 493.879C415.792 494.638 415.792 495.134 415.752 495.134C415.734 495.017 415.734 494.897 415.752 494.78C415.771 494.462 415.821 494.147 415.903 493.839C416.174 492.808 416.749 491.884 417.554 491.189C418.358 490.493 419.353 490.059 420.409 489.943C420.724 489.907 421.041 489.907 421.356 489.943C421.469 489.939 421.582 489.956 421.689 489.993Z" fill="#263238"/>
<path d="M419.633 482.849C419.796 484.026 419.89 485.212 419.915 486.401C420.012 487.589 420.036 488.782 419.985 489.973C419.828 488.792 419.734 487.603 419.703 486.411C419.606 485.226 419.582 484.036 419.633 482.849Z" fill="#263238"/>
<path d="M413.494 493.626C412.675 493.849 411.832 493.965 410.984 493.97C410.136 494.044 409.283 494.01 408.444 493.869C408.444 493.808 409.583 493.869 410.974 493.758C412.365 493.646 413.484 493.566 413.494 493.626Z" fill="#263238"/>
<path d="M416.881 493.495C416.881 493.495 416.79 493.738 416.689 494.001C416.588 494.264 416.528 494.497 416.467 494.497C416.407 494.497 416.366 494.224 416.467 493.92C416.568 493.616 416.8 493.454 416.881 493.495Z" fill="#263238"/>
<path d="M418.09 491.845C418.09 491.845 418.03 492.068 417.858 492.26C417.687 492.452 417.516 492.574 417.465 492.533C417.415 492.493 417.536 492.311 417.707 492.118C417.879 491.926 418.05 491.805 418.09 491.845Z" fill="#263238"/>
<path d="M419.894 491.076C419.894 491.137 419.653 491.147 419.401 491.248C419.149 491.349 418.967 491.491 418.927 491.45C418.886 491.41 419.018 491.167 419.33 491.046C419.642 490.924 419.905 490.995 419.894 491.076Z" fill="#263238"/>
<path d="M421.175 490.661C421.175 490.712 421.104 490.803 420.963 490.864C420.822 490.924 420.691 490.935 420.661 490.864C420.63 490.793 420.741 490.712 420.882 490.651C421.024 490.59 421.155 490.601 421.175 490.661Z" fill="#263238"/>
<g opacity="0.3">
<path d="M421.648 489.528L404.381 489.902L404.331 487.807L421.749 488.425L421.648 489.528Z" fill="black"/>
</g>
<path d="M469.488 428.676L414.875 427.927C414.875 427.927 399.664 429.344 399.664 449.22L401.589 488.354H424.864L423.281 450.849C424.582 450.849 442.202 451.436 442.202 451.436L469.488 428.676Z" fill="#263238"/>
<path d="M401.599 488.354C401.552 488.131 401.529 487.904 401.529 487.676C401.529 487.18 401.458 486.532 401.418 485.733L401.005 478.588C400.652 472.516 399.997 464.228 399.513 454.998C399.351 450.394 398.999 445.981 399.513 441.964C399.636 440.985 399.835 440.017 400.107 439.069C400.392 438.18 400.767 437.322 401.226 436.509C402.054 435.055 403.125 433.754 404.391 432.663C405.436 431.771 406.587 431.013 407.819 430.407C408.755 429.984 409.726 429.645 410.722 429.395L411.81 429.132L412.627 429C412.849 428.954 413.075 428.93 413.302 428.929C413.091 429.013 412.871 429.07 412.647 429.101L411.851 429.283L410.772 429.587C409.806 429.894 408.863 430.269 407.95 430.71C406.757 431.328 405.643 432.089 404.633 432.977C403.425 434.064 402.403 435.342 401.609 436.762C401.193 437.557 400.855 438.391 400.601 439.252C400.346 440.178 400.157 441.121 400.037 442.075C399.523 446.002 399.886 450.414 400.037 455.019C400.49 464.228 401.115 472.557 401.378 478.608C401.519 481.644 401.589 484.073 401.619 485.763C401.619 486.573 401.619 487.21 401.619 487.716C401.636 487.929 401.629 488.143 401.599 488.354Z" fill="#455A64"/>
<path d="M505.837 491.511L496.624 492.128L495.424 474.823L508.881 473.811L509.032 474.823C509.637 479.58 511.794 499.111 511.048 502.319C510.201 505.983 505.837 491.511 505.837 491.511Z" fill="#166FFF"/>
<g opacity="0.4">
<path d="M508.226 498.565C508.226 498.565 510.07 503.625 510.877 502.906C511.683 502.188 510.232 482.444 508.861 473.781H508.478L510.363 496.824C510.363 496.824 508.185 497.553 508.226 498.565Z" fill="white"/>
</g>
<path d="M508.417 473.569C508.449 473.664 508.47 473.762 508.477 473.862C508.477 474.115 508.548 474.398 508.588 474.712C508.689 475.562 508.81 476.615 508.951 477.849C509.244 480.501 509.596 484.164 509.889 488.222C510.181 492.28 510.383 495.954 510.483 498.626C510.483 499.86 510.554 500.923 510.584 501.773C510.584 502.097 510.584 502.38 510.584 502.633C510.595 502.734 510.595 502.836 510.584 502.937C510.578 502.836 510.578 502.734 510.584 502.633C510.584 502.38 510.584 502.097 510.534 501.783C510.534 500.923 510.433 499.87 510.362 498.626C510.221 495.964 510.01 492.291 509.717 488.232C509.425 484.174 509.082 480.511 508.83 477.859C508.719 476.625 508.619 475.572 508.538 474.722C508.538 474.398 508.488 474.125 508.457 473.862C508.427 473.599 508.417 473.569 508.417 473.569Z" fill="#263238"/>
<path d="M510.594 496.844C510.088 497.028 509.602 497.261 509.143 497.543C508.725 497.885 508.349 498.275 508.024 498.707C508.181 498.15 508.541 497.673 509.032 497.371C509.471 497.01 510.027 496.823 510.594 496.844Z" fill="#263238"/>
<path d="M507.641 491.926C507.641 491.977 507.399 492.24 507.026 492.523C506.653 492.807 506.31 492.999 506.27 492.948C506.23 492.898 506.522 492.635 506.895 492.351C507.112 492.16 507.366 492.016 507.641 491.926Z" fill="#263238"/>
<path d="M506.804 490.58C506.804 490.58 506.683 490.904 506.441 491.228C506.199 491.552 505.957 491.774 505.917 491.734C505.877 491.693 506.028 491.41 506.28 491.096C506.532 490.783 506.754 490.55 506.804 490.58Z" fill="#263238"/>
<path d="M505.111 489.821C505.171 489.821 505.252 490.216 505.292 490.712C505.361 491.012 505.361 491.323 505.292 491.623C505.232 491.623 505.151 491.228 505.111 490.732C505.071 490.236 505.05 489.821 505.111 489.821Z" fill="#263238"/>
<path d="M503.942 489.599C504.166 489.889 504.293 490.243 504.305 490.611C504.382 490.947 504.361 491.298 504.244 491.623C504.165 491.291 504.117 490.952 504.103 490.611C504.016 490.279 503.962 489.94 503.942 489.599Z" fill="#263238"/>
<path d="M506.179 492.625C506.275 492.987 506.302 493.365 506.26 493.738C506.238 494.144 506.177 494.547 506.079 494.942C506.029 495.182 505.955 495.416 505.857 495.64C505.789 495.777 505.675 495.885 505.534 495.944C505.453 495.968 505.366 495.968 505.284 495.945C505.202 495.922 505.128 495.876 505.071 495.812C504.827 495.404 504.735 494.922 504.811 494.452C504.887 493.981 505.125 493.553 505.484 493.242C505.69 493.053 505.934 492.912 506.2 492.827C506.291 492.786 506.392 492.768 506.492 492.776C506.156 492.91 505.849 493.106 505.585 493.353C505.307 493.628 505.117 493.981 505.04 494.365C504.981 494.586 504.967 494.817 505 495.043C505.033 495.269 505.112 495.486 505.232 495.681C505.373 495.853 505.575 495.772 505.675 495.559C505.769 495.354 505.843 495.141 505.897 494.922C505.999 494.537 506.07 494.144 506.109 493.748C506.179 493.1 506.149 492.635 506.179 492.625Z" fill="#263238"/>
<path d="M506.26 492.908C506.037 493.065 505.764 493.134 505.494 493.1C505.203 493.084 504.921 493 504.667 492.857C504.495 492.775 504.347 492.65 504.235 492.494C504.124 492.338 504.055 492.157 504.032 491.967C504.05 491.854 504.11 491.752 504.2 491.682C504.29 491.613 504.403 491.58 504.516 491.592C504.697 491.601 504.873 491.653 505.03 491.744C505.286 491.868 505.524 492.029 505.736 492.22C505.945 492.377 506.114 492.582 506.23 492.817C506.23 492.817 506.018 492.614 505.645 492.331C505.426 492.171 505.194 492.032 504.95 491.916C504.698 491.784 504.274 491.704 504.244 491.987C504.214 492.27 504.536 492.533 504.768 492.685C504.994 492.827 505.249 492.917 505.514 492.948C505.763 492.962 506.013 492.949 506.26 492.908Z" fill="#263238"/>
<path d="M503.73 474.267C503.73 474.267 503.73 474.763 503.871 475.542C504.063 476.549 504.527 477.484 505.212 478.244C505.914 478.992 506.806 479.534 507.792 479.813C508.558 480.015 509.052 480.005 509.052 480.045C508.935 480.065 508.816 480.065 508.699 480.045C508.383 480.04 508.069 479.999 507.762 479.924C506.727 479.686 505.788 479.139 505.068 478.355C504.349 477.571 503.882 476.587 503.73 475.532C503.693 475.216 503.693 474.897 503.73 474.581C503.714 474.477 503.714 474.371 503.73 474.267Z" fill="#263238"/>
<path d="M496.684 476.584C497.851 476.382 499.029 476.247 500.212 476.18C501.39 476.039 502.574 475.972 503.76 475.977C502.594 476.186 501.416 476.321 500.232 476.382C499.055 476.522 497.87 476.59 496.684 476.584Z" fill="#263238"/>
<path d="M507.631 482.363C507.883 483.177 508.028 484.021 508.064 484.873C508.18 485.719 508.18 486.577 508.064 487.423C508.004 487.423 507.994 486.289 507.873 484.893C507.752 483.496 507.57 482.383 507.631 482.363Z" fill="#263238"/>
<path d="M507.379 478.932C507.379 478.932 507.621 479.013 507.893 479.104C508.165 479.195 508.387 479.246 508.387 479.307C508.387 479.367 508.125 479.418 507.822 479.307C507.52 479.195 507.339 479.013 507.379 478.932Z" fill="#263238"/>
<path d="M505.696 477.809C505.696 477.809 505.927 477.87 506.119 478.031C506.31 478.193 506.442 478.365 506.401 478.416C506.361 478.467 506.179 478.355 505.978 478.193C505.776 478.031 505.665 477.859 505.696 477.809Z" fill="#263238"/>
<path d="M504.839 476.038C504.899 476.038 504.919 476.271 505.02 476.524C505.121 476.777 505.282 476.949 505.242 476.989C505.202 477.03 504.96 476.918 504.829 476.605C504.698 476.291 504.788 476.028 504.839 476.038Z" fill="#263238"/>
<path d="M504.405 474.763C504.405 474.763 504.556 474.823 504.617 474.965C504.677 475.107 504.697 475.238 504.617 475.269C504.536 475.299 504.466 475.198 504.395 475.056C504.324 474.915 504.355 474.783 504.405 474.763Z" fill="#263238"/>
<g opacity="0.3">
<path d="M503.266 474.317L504.244 491.633L502.167 491.764V474.267L503.266 474.317Z" fill="black"/>
</g>
<path d="M449.358 474.398C449.358 474.398 495.898 448.886 501.17 440.577C502.751 438.145 503.718 435.363 503.989 432.471C504.259 429.58 503.824 426.666 502.722 423.98L463.561 429.233L435.71 457.235C429.662 462.062 418.705 472.152 418.705 482.1C418.705 499.121 440.629 496.338 456.364 496.379C477.875 496.43 502.016 496.521 502.016 496.521L502.077 473.315L449.358 474.398Z" fill="#263238"/>
<path d="M438.301 479.256C440.263 478.641 442.18 477.887 444.036 476.999C445.951 476.245 447.808 475.349 449.59 474.317C447.626 474.933 445.709 475.691 443.855 476.584C441.94 477.335 440.083 478.228 438.301 479.256Z" fill="#455A64"/>
<path d="M442 473.568C443.327 473.832 444.679 473.951 446.032 473.923C447.396 474.038 448.767 474.007 450.124 473.832C448.797 473.569 447.445 473.447 446.092 473.467C444.729 473.344 443.356 473.378 442 473.568Z" fill="#455A64"/>
<path d="M460.497 433.169C460.367 433.344 460.222 433.507 460.063 433.655L458.733 434.971L453.784 439.758L437.323 455.403C434.107 458.439 430.983 461.303 428.251 464.005C425.816 466.359 423.664 468.991 421.84 471.848C420.628 473.783 419.736 475.902 419.199 478.122L418.967 479.134C418.967 479.438 418.897 479.691 418.856 479.924C418.843 480.141 418.803 480.355 418.735 480.561C418.711 480.346 418.711 480.129 418.735 479.914C418.735 479.681 418.735 479.418 418.796 479.114C418.856 478.811 418.907 478.446 418.977 478.042C419.445 475.769 420.301 473.595 421.507 471.615C423.305 468.698 425.447 466.01 427.888 463.61C430.6 460.868 433.714 458.024 436.96 454.968L453.532 439.464L458.572 434.809L459.973 433.554C460.137 433.412 460.312 433.284 460.497 433.169Z" fill="#455A64"/>
<path d="M446.526 382.478C445.543 383.011 444.459 383.33 443.345 383.415C442.232 383.5 441.113 383.35 440.061 382.973C439.008 382.596 438.047 382.001 437.239 381.228C436.43 380.454 435.793 379.518 435.367 378.481L433.593 374.14C433.593 374.14 427.545 376.285 424.521 370.749C422.808 367.643 420.378 362.34 418.584 358.282C417.843 356.594 417.546 354.743 417.723 352.907C417.899 351.071 418.543 349.311 419.592 347.797C424.521 341.553 428.432 342.596 436.264 343.871L437.434 344.063L450.044 372.146C450.869 373.995 450.965 376.09 450.312 378.008C449.659 379.926 448.306 381.523 446.526 382.478Z" fill="#FFBE9D"/>
<path d="M422.425 361.024C422.487 360.852 422.497 360.665 422.453 360.488C422.409 360.31 422.314 360.15 422.179 360.027C422.044 359.904 421.876 359.825 421.695 359.798C421.515 359.772 421.331 359.8 421.167 359.878C421.002 359.957 420.865 360.084 420.773 360.241C420.68 360.399 420.636 360.58 420.647 360.763C420.657 360.945 420.722 361.121 420.832 361.266C420.942 361.412 421.093 361.521 421.265 361.581C421.378 361.621 421.497 361.638 421.616 361.632C421.736 361.625 421.852 361.595 421.96 361.544C422.068 361.492 422.164 361.42 422.244 361.33C422.324 361.241 422.385 361.137 422.425 361.024Z" fill="#263238"/>
<path d="M419.945 360.093C420.086 360.144 420.398 359.425 421.165 359.01C421.931 358.595 422.697 358.686 422.727 358.545C422.757 358.403 422.566 358.352 422.223 358.302C421.77 358.234 421.308 358.323 420.913 358.555C420.507 358.782 420.188 359.138 420.005 359.567C419.824 359.86 419.884 360.073 419.945 360.093Z" fill="#263238"/>
<path d="M429.057 356.48C428.966 356.638 428.923 356.819 428.934 357.001C428.945 357.183 429.01 357.357 429.12 357.502C429.23 357.648 429.381 357.756 429.553 357.816C429.724 357.875 429.91 357.881 430.085 357.834C430.261 357.787 430.419 357.689 430.539 357.552C430.659 357.415 430.735 357.245 430.759 357.065C430.783 356.884 430.752 356.7 430.672 356.536C430.592 356.373 430.465 356.237 430.307 356.146C430.204 356.085 430.089 356.044 429.969 356.028C429.85 356.012 429.729 356.019 429.613 356.05C429.496 356.081 429.387 356.135 429.292 356.209C429.197 356.283 429.117 356.375 429.057 356.48Z" fill="#263238"/>
<path d="M428.291 356.298C428.432 356.349 428.745 355.63 429.511 355.215C430.277 354.8 431.043 354.891 431.073 354.75C431.103 354.608 430.912 354.557 430.569 354.507C430.116 354.439 429.654 354.529 429.259 354.76C428.854 354.988 428.535 355.343 428.352 355.772C428.21 356.065 428.231 356.278 428.291 356.298Z" fill="#263238"/>
<path d="M428.896 364.424C428.418 364.473 427.953 364.61 427.525 364.829C427.313 364.91 427.132 364.951 427.061 364.829C426.946 364.633 426.887 364.409 426.89 364.181C426.819 363.564 426.739 362.947 426.658 362.299C426.529 360.67 426.228 359.058 425.761 357.492C425.738 359.125 425.876 360.755 426.174 362.36C426.265 363.008 426.356 363.625 426.446 364.242C426.452 364.569 426.569 364.883 426.779 365.133C426.848 365.195 426.931 365.239 427.02 365.262C427.11 365.285 427.203 365.286 427.293 365.264C427.424 365.236 427.55 365.189 427.666 365.123C428.493 364.758 428.966 364.485 428.896 364.424Z" fill="#263238"/>
<path d="M433.543 374.069C436.13 372.731 438.261 370.649 439.661 368.088C439.661 368.088 440.105 373.016 434.309 375.516L433.543 374.069Z" fill="#EB996E"/>
<path d="M439.913 350.297C440.004 350.196 444.349 347.615 445.639 352.371C446.758 356.49 442.121 357.199 442.06 357.067C442 356.936 439.913 350.297 439.913 350.297Z" fill="#FFBE9D"/>
<path d="M442.897 354.648C442.897 354.648 442.978 354.648 443.119 354.648C443.307 354.655 443.491 354.59 443.633 354.466C443.825 354.21 443.947 353.908 443.986 353.59C444.025 353.272 443.98 352.95 443.855 352.655C443.742 352.312 443.552 352.001 443.3 351.744C443.219 351.635 443.112 351.547 442.989 351.489C442.866 351.431 442.73 351.404 442.595 351.41C442.51 351.42 442.432 351.459 442.371 351.52C442.311 351.58 442.273 351.659 442.262 351.744C442.262 351.875 442.262 351.946 442.262 351.956C442.262 351.967 442.151 351.956 442.131 351.754C442.113 351.649 442.135 351.541 442.191 351.45C442.27 351.327 442.393 351.24 442.534 351.208C442.707 351.178 442.884 351.195 443.048 351.255C443.213 351.315 443.359 351.417 443.472 351.552C443.761 351.833 443.979 352.18 444.107 352.564C444.247 352.901 444.286 353.272 444.22 353.631C444.154 353.991 443.985 354.323 443.734 354.588C443.641 354.658 443.535 354.706 443.421 354.729C443.308 354.752 443.191 354.748 443.079 354.719C442.937 354.75 442.887 354.669 442.897 354.648Z" fill="#EB996E"/>
<path d="M437.897 381.78C437.897 381.78 448.733 363.564 465.486 378.896C476.423 388.915 494.265 409.58 500.635 417.676C502.067 419.487 504.294 422.25 502.732 423.95C497.954 429.132 484.931 440.749 460.829 432.046L437.968 400.128C436.059 397.459 435.024 394.259 435.008 390.974C434.992 387.688 435.995 384.478 437.877 381.79L437.897 381.78Z" fill="#166FFF"/>
<path d="M451.788 373.107L448.733 368.088L433.13 380.555L436.043 385.261L451.788 373.107Z" fill="#166FFF"/>
<g opacity="0.3">
<path d="M451.122 373.755C451.122 373.755 438.835 384.421 438.663 384.239C438.492 384.057 433.755 380.636 433.755 380.636L438.079 383.075L451.122 373.755Z" fill="black"/>
</g>
<path d="M451.919 373.047C451.639 373.154 451.375 373.297 451.132 373.472C450.649 373.775 449.953 374.231 449.116 374.818C447.423 375.981 445.155 377.671 442.655 379.534C440.952 380.799 439.349 381.962 437.978 382.914H438.18C436.718 382.124 435.498 381.466 434.642 381.031C434.203 380.772 433.74 380.555 433.261 380.384C433.652 380.71 434.078 380.991 434.531 381.224C435.357 381.73 436.547 382.428 437.988 383.248L438.089 383.298L438.19 383.237C439.591 382.306 441.214 381.163 442.917 379.898L449.298 375.081L451.233 373.623C451.485 373.46 451.715 373.267 451.919 373.047Z" fill="#263238"/>
<path d="M385.3 420.934L382.336 419.73C380.597 419.251 378.908 418.6 377.296 417.787C376.49 417.402 375.756 416.878 375.129 416.239C374.314 415.477 373.608 414.605 373.033 413.648C372.971 413.431 372.838 413.241 372.656 413.108C372.473 412.975 372.252 412.907 372.027 412.915C371.802 412.924 371.586 413.007 371.414 413.153C371.242 413.298 371.123 413.498 371.077 413.719C370.906 414.64 372.085 417.231 374.575 419.356C377.065 421.481 371.914 421.38 370.029 421.38C368.144 421.38 362.287 421.683 361.824 422.27C361.148 423.12 361.945 424.001 363.84 423.95C365.735 423.9 371.41 424.153 371.359 425.155C371.309 426.156 361.693 426.045 361.693 426.045C361.693 426.045 359.677 425.691 359.546 426.845C359.384 428.939 369.626 428.282 370.634 428.191C371.309 428.13 371.299 429.203 370.563 429.253C369.827 429.304 360.967 428.929 360.775 431.054C360.634 432.684 369.212 430.599 371.007 431.692C372.801 432.785 364.344 432.613 364.273 434.171C364.273 434.758 364.273 435.183 369.182 434.586C374.091 433.989 387.417 430.093 387.417 430.093L385.179 420.773" fill="#FFBE9D"/>
<path d="M443.199 388.135C443.199 388.135 427.263 410.197 423.574 411.057C419.884 411.917 378.798 418.404 378.798 418.404L380.814 431.864C380.814 431.864 431.809 430.427 436.748 425.903C441.687 421.38 456.606 398.377 456.606 398.377L443.199 388.135Z" fill="#FFBE9D"/>
<path d="M431.98 425.519C431.98 425.519 432.091 425.701 432.404 425.893C432.865 426.147 433.392 426.256 433.916 426.207C434.312 426.173 434.695 426.049 435.036 425.844C435.376 425.639 435.666 425.358 435.881 425.023C436.16 424.614 436.32 424.135 436.343 423.64C436.366 423.145 436.252 422.653 436.012 422.22C435.763 421.747 435.345 421.386 434.843 421.208C434.367 421.054 433.849 421.094 433.402 421.319C433.216 421.418 433.052 421.554 432.92 421.719C432.788 421.884 432.692 422.074 432.636 422.278C432.58 422.481 432.567 422.695 432.596 422.904C432.625 423.113 432.697 423.314 432.807 423.495C432.972 423.721 433.206 423.887 433.473 423.967C433.741 424.048 434.027 424.038 434.289 423.94C434.642 423.788 434.732 423.565 434.712 423.555C434.692 423.545 434.551 423.687 434.228 423.768C434.014 423.82 433.79 423.806 433.584 423.726C433.379 423.647 433.203 423.506 433.079 423.323C433.006 423.182 432.961 423.028 432.947 422.87C432.933 422.711 432.951 422.552 432.998 422.401C433.046 422.249 433.123 422.109 433.225 421.987C433.328 421.866 433.453 421.766 433.593 421.693C433.942 421.532 434.338 421.51 434.702 421.633C435.094 421.774 435.421 422.055 435.619 422.422C435.794 422.757 435.886 423.13 435.888 423.508C435.89 423.887 435.802 424.26 435.632 424.598C435.461 424.935 435.213 425.227 434.907 425.449C434.602 425.671 434.248 425.816 433.876 425.873C433.223 425.938 432.566 425.815 431.98 425.519Z" fill="#EB996E"/>
<path d="M461.394 394.855L446.274 420.914L428.835 406.422C428.835 406.422 440.931 386.567 446.627 380.414L461.394 394.855Z" fill="#166FFF"/>
<path d="M418.03 444.605C419.43 445.111 420.655 446.011 421.56 447.197C422.464 448.383 423.009 449.805 423.13 451.294C422.219 448.557 420.424 446.203 418.03 444.605Z" fill="#455A64"/>
<path d="M436.083 352.665C436.192 352.871 436.347 353.049 436.535 353.184C436.724 353.319 436.942 353.408 437.172 353.444C437.625 353.535 438.089 353.525 438.553 353.616C439.273 353.753 439.925 354.136 440.397 354.699C440.585 354.956 440.797 355.193 441.032 355.407C441.154 355.511 441.303 355.575 441.462 355.591C441.62 355.608 441.78 355.575 441.919 355.498C442.323 355.195 442.141 354.567 441.919 354.112C440.972 352.23 440.031 350.347 439.097 348.465L433.755 349.629L436.053 352.311" fill="#263238"/>
<path d="M418.635 346.259C419.249 345.52 420.167 344.913 420.892 345.551C421.564 346.257 422.001 347.155 422.142 348.121C422.292 349.082 422.613 350.007 423.09 350.853C423.435 351.359 423.911 351.762 424.466 352.018C425.021 352.274 425.634 352.374 426.241 352.307C426.849 352.241 427.426 352.01 427.913 351.64C428.4 351.27 428.778 350.774 429.007 350.206C429.67 351.353 430.522 352.38 431.527 353.242C432.035 353.662 432.639 353.948 433.285 354.074C433.932 354.199 434.599 354.16 435.226 353.96C435.529 353.844 435.806 353.669 436.04 353.443C436.274 353.218 436.461 352.947 436.589 352.648C436.717 352.349 436.783 352.027 436.785 351.701C436.786 351.375 436.722 351.053 436.597 350.752C437.282 351.323 438.136 351.651 439.026 351.683C439.467 351.696 439.903 351.579 440.279 351.347C440.655 351.115 440.955 350.778 441.143 350.378C441.222 350.172 441.259 349.953 441.251 349.732C441.243 349.512 441.19 349.296 441.095 349.097C441.001 348.898 440.867 348.721 440.702 348.575C440.537 348.43 440.344 348.32 440.135 348.253C440.627 348.578 441.206 348.745 441.794 348.732C442.383 348.72 442.954 348.528 443.431 348.182C443.893 347.815 444.211 347.295 444.327 346.715C444.443 346.135 444.351 345.532 444.066 345.014C443.748 344.529 443.25 344.191 442.683 344.073C442.117 343.956 441.527 344.068 441.042 344.387C441.737 344.041 442.325 343.513 442.746 342.859C442.943 342.525 443.004 342.128 442.916 341.751C442.827 341.373 442.597 341.045 442.272 340.835C441.435 340.45 440.538 341.229 439.621 341.401C438.129 341.675 436.91 340.329 435.71 339.377C434.591 338.582 433.319 338.031 431.975 337.761C430.631 337.491 429.245 337.507 427.908 337.809C425.23 338.439 422.76 339.757 420.741 341.634C419.391 342.818 418.09 344.539 418.635 346.249" fill="#263238"/>
<path d="M421.84 357.168C421.84 357.603 421.427 357.978 420.923 358.18C420.71 358.295 420.469 358.347 420.228 358.329C419.987 358.311 419.756 358.224 419.562 358.079C419.27 357.765 419.562 357.067 420.348 356.713C421.134 356.359 421.84 356.733 421.84 357.168Z" fill="#263238"/>
<path d="M429.783 353.323C429.692 353.758 429.158 354.031 428.624 354.284C428.09 354.537 427.515 354.739 427.132 354.507C427.037 354.414 426.975 354.292 426.957 354.16C426.938 354.028 426.965 353.893 427.031 353.778C427.218 353.358 427.557 353.025 427.979 352.847C428.394 352.645 428.871 352.612 429.309 352.756C429.642 352.887 429.803 353.11 429.783 353.323Z" fill="#263238"/>
<path d="M432.091 362.653C432.222 362.603 432.565 363.665 432.091 364.779C431.618 365.892 430.61 366.377 430.559 366.246C430.509 366.114 431.184 365.558 431.567 364.566C431.95 363.574 431.92 362.674 432.091 362.653Z" fill="#263238"/>
<path d="M443.724 346.481C443.724 346.481 443.653 346.542 443.492 346.623C443.249 346.725 442.989 346.78 442.726 346.785C442.225 346.801 441.731 346.675 441.299 346.42C440.868 346.166 440.516 345.794 440.286 345.348L440.559 345.409C439.649 346.244 438.465 346.716 437.232 346.734C436.478 346.763 435.727 346.627 435.031 346.335C434.335 346.043 433.71 345.603 433.2 345.044L433.644 344.862C433.644 345.206 433.558 345.545 433.392 345.846C433.226 346.147 432.987 346.4 432.696 346.583C432.122 346.971 431.428 347.14 430.741 347.058C429.663 346.828 428.696 346.235 427.999 345.378C427.303 344.619 426.749 343.83 426.104 343.213C425.536 342.601 424.799 342.175 423.987 341.988C423.274 341.871 422.543 341.963 421.88 342.251C420.895 342.694 420.012 343.338 419.29 344.144C419.025 344.451 418.735 344.735 418.423 344.994C418.621 344.629 418.861 344.29 419.139 343.982C419.832 343.094 420.718 342.378 421.729 341.887C422.459 341.547 423.27 341.424 424.068 341.533C424.971 341.715 425.798 342.17 426.436 342.838C427.132 343.496 427.707 344.285 428.372 345.004C428.992 345.763 429.847 346.294 430.801 346.512C431.91 346.674 433.19 345.884 433.14 344.862V344.123L433.624 344.69C434.091 345.199 434.66 345.603 435.294 345.876C435.929 346.148 436.613 346.282 437.303 346.269C438.435 346.27 439.531 345.868 440.397 345.135L440.579 344.974L440.669 345.186C440.863 345.592 441.164 345.938 441.538 346.186C441.913 346.434 442.348 346.574 442.796 346.593C443.108 346.583 443.418 346.545 443.724 346.481Z" fill="#455A64"/>
<path d="M463.924 390.827C463.874 390.827 463.924 390.22 463.692 389.168C463.423 387.67 462.865 386.24 462.049 384.958C460.86 383.053 459.119 381.559 457.06 380.677C454.525 379.626 451.699 379.525 449.096 380.394C447.772 380.858 446.535 381.542 445.437 382.418C444.402 383.243 443.456 384.176 442.615 385.201C441.204 386.97 439.924 388.841 438.785 390.797C437.777 392.447 436.95 393.833 436.335 394.693C436.043 395.149 435.791 395.483 435.619 395.705C435.448 395.928 435.357 396.049 435.337 396.039C435.577 395.531 435.853 395.04 436.164 394.572C436.748 393.56 437.524 392.214 438.462 390.595C439.571 388.592 440.835 386.68 442.242 384.877C443.965 382.602 446.282 380.851 448.935 379.817C451.654 378.903 454.613 379.022 457.251 380.151C459.021 380.943 460.56 382.176 461.723 383.733C462.885 385.289 463.633 387.118 463.894 389.046C463.951 389.465 463.975 389.888 463.964 390.311C463.984 390.484 463.97 390.659 463.924 390.827Z" fill="#263238"/>
<path d="M459.479 400.36C459.473 400.202 459.434 400.046 459.364 399.903C459.295 399.76 459.196 399.633 459.075 399.531C458.785 399.305 458.434 399.171 458.067 399.146C457.532 399.133 457.001 399.038 456.495 398.863C455.876 398.512 455.343 398.028 454.933 397.445C454.523 396.862 454.248 396.195 454.126 395.493C453.914 394.744 453.753 393.965 453.471 393.206C453.23 392.426 452.755 391.74 452.11 391.242C451.43 390.788 450.646 390.513 449.832 390.443C449.047 390.387 448.259 390.387 447.473 390.443C446.1 390.596 444.71 390.386 443.441 389.836C443.014 389.623 442.635 389.324 442.33 388.956C442.024 388.588 441.799 388.161 441.667 387.7C441.599 387.45 441.582 387.188 441.617 386.931C441.623 386.843 441.647 386.757 441.687 386.678C441.72 387.019 441.778 387.357 441.859 387.69C442.184 388.514 442.812 389.181 443.613 389.552C444.853 390.019 446.19 390.172 447.504 389.998C448.985 389.937 450.86 389.795 452.463 390.898C453.191 391.455 453.727 392.226 453.995 393.104C454.287 393.914 454.439 394.714 454.63 395.452C454.724 396.091 454.953 396.701 455.3 397.244C455.648 397.787 456.107 398.249 456.646 398.6C457.118 398.784 457.613 398.899 458.118 398.944C458.535 398.99 458.926 399.175 459.227 399.47C459.328 399.559 459.411 399.668 459.469 399.789C459.528 399.911 459.562 400.043 459.569 400.178C459.539 400.279 459.489 400.36 459.479 400.36Z" fill="#FAFAFA"/>
<path d="M453.461 409.013C453.401 409.013 453.38 408.679 453.028 408.203C452.504 407.578 451.8 407.132 451.012 406.928C450.004 406.594 448.713 406.635 447.292 406.169C446.525 405.93 445.854 405.452 445.377 404.803C444.903 404.125 444.641 403.336 444.208 402.698C443.321 401.403 441.728 400.968 440.377 400.674C439.102 400.465 437.881 400 436.789 399.308C436.061 398.784 435.552 398.009 435.357 397.132C435.275 396.812 435.304 396.473 435.438 396.171C435.488 396.171 435.438 396.515 435.559 397.081C435.795 397.858 436.29 398.53 436.96 398.984C438.035 399.599 439.214 400.007 440.438 400.188C441.187 400.336 441.92 400.56 442.625 400.856C443.415 401.182 444.097 401.726 444.591 402.425C445.074 403.153 445.326 403.933 445.75 404.52C446.157 405.091 446.737 405.517 447.403 405.734C448.703 406.189 450.024 406.2 451.082 406.594C451.937 406.842 452.681 407.378 453.189 408.112C453.317 408.319 453.403 408.55 453.441 408.79C453.471 408.932 453.481 409.013 453.461 409.013Z" fill="#FAFAFA"/>
<path d="M481.312 395.3C481.339 395.441 481.339 395.585 481.312 395.725C481.221 396.123 481.072 396.505 480.868 396.859C480.05 398.123 478.869 399.107 477.482 399.682C476.635 400.077 475.677 400.431 474.689 400.866C473.638 401.295 472.677 401.92 471.857 402.708C470.143 404.408 469.307 407.04 468.097 409.62C467.544 410.922 466.75 412.106 465.759 413.111C465.517 413.355 465.25 413.572 464.962 413.759C464.695 413.966 464.408 414.146 464.105 414.296C463.52 414.575 462.904 414.786 462.271 414.923C459.821 415.449 457.594 415.318 455.85 415.874C454.447 416.212 453.233 417.092 452.473 418.323C452.226 418.793 452.052 419.298 451.959 419.821C451.959 419.821 451.959 419.669 451.959 419.396C452.001 418.99 452.117 418.596 452.302 418.232C452.664 417.569 453.156 416.986 453.749 416.518C454.341 416.05 455.021 415.707 455.749 415.51C457.563 414.893 459.831 414.984 462.17 414.447C462.766 414.313 463.345 414.11 463.894 413.84C464.172 413.702 464.435 413.536 464.68 413.344C464.947 413.171 465.194 412.967 465.416 412.737C466.356 411.768 467.108 410.632 467.633 409.387C468.823 406.867 469.649 404.165 471.524 402.364C472.398 401.539 473.426 400.896 474.548 400.472C475.556 400.036 476.514 399.713 477.351 399.338C478.7 398.817 479.872 397.917 480.727 396.747C480.983 396.292 481.179 395.806 481.312 395.3Z" fill="#FAFAFA"/>
<path d="M491.442 407.819C491.367 408.392 491.145 408.936 490.797 409.398C489.861 410.664 488.585 411.636 487.118 412.201C485.324 413.031 482.985 413.405 480.768 414.609C479.61 415.221 478.655 416.156 478.016 417.301C477.379 418.584 476.813 419.902 476.322 421.248C475.198 423.894 473.249 426.103 470.768 427.543C468.752 428.713 466.454 429.305 464.126 429.253C462.573 429.226 461.038 428.91 459.6 428.322C459.209 428.163 458.829 427.98 458.461 427.775C458.209 427.624 458.088 427.543 458.098 427.522C458.108 427.502 458.652 427.765 459.67 428.13C461.106 428.63 462.616 428.883 464.136 428.879C466.383 428.876 468.589 428.272 470.526 427.128C472.894 425.722 474.755 423.595 475.839 421.056C476.334 419.672 476.913 418.321 477.572 417.008C478.267 415.791 479.296 414.8 480.536 414.154C482.874 412.919 485.213 412.595 486.977 411.826C488.4 411.307 489.662 410.421 490.636 409.256C490.952 408.805 491.222 408.324 491.442 407.819Z" fill="#FAFAFA"/>
<path d="M500.585 417.716C499.142 418.364 497.787 419.194 496.553 420.185C495.242 421.296 494.157 422.65 493.358 424.173C492.894 425.013 492.571 425.984 492.148 426.986C491.754 428.077 491.054 429.029 490.132 429.729C489.151 430.323 488.04 430.67 486.896 430.741C485.818 430.862 484.8 430.892 483.872 431.054C482.179 431.324 480.534 431.846 478.994 432.603C477.574 433.337 476.224 434.201 474.962 435.183C475.222 434.834 475.527 434.521 475.869 434.252C476.769 433.471 477.753 432.792 478.802 432.228C480.363 431.405 482.044 430.835 483.782 430.538C484.79 430.356 485.798 430.316 486.806 430.184C487.874 430.116 488.911 429.793 489.83 429.243C490.67 428.599 491.31 427.729 491.674 426.733C492.088 425.721 492.44 424.77 492.924 423.889C493.771 422.326 494.923 420.949 496.311 419.841C497.23 419.098 498.248 418.489 499.335 418.03C499.728 417.878 500.031 417.777 500.242 417.716C500.454 417.655 500.575 417.696 500.585 417.716Z" fill="#FAFAFA"/>
<path d="M460.144 398.984C461.004 398.667 461.788 398.171 462.442 397.527C463.128 396.808 463.675 395.967 464.055 395.047C464.511 393.902 464.872 392.72 465.134 391.515C465.413 390.281 465.815 389.077 466.333 387.923C466.784 386.972 467.43 386.127 468.228 385.443C468.761 384.968 469.396 384.622 470.083 384.431C470.33 384.351 470.592 384.33 470.849 384.371C469.973 384.636 469.162 385.084 468.47 385.686C467.755 386.377 467.177 387.198 466.767 388.105C466.286 389.238 465.912 390.414 465.648 391.617C465.369 392.849 464.985 394.054 464.499 395.219C464.074 396.18 463.464 397.046 462.704 397.77C462.189 398.258 461.573 398.628 460.9 398.852C460.665 398.965 460.403 399.011 460.144 398.984Z" fill="#FAFAFA"/>
<path d="M457.231 380.768C457.436 379.691 457.935 378.693 458.672 377.884C459.409 377.074 460.354 376.486 461.404 376.184C461.465 376.326 460.195 376.963 459.055 378.208C457.916 379.453 457.372 380.859 457.231 380.768Z" fill="#FAFAFA"/>
<path d="M450.155 370.405C449.701 371.245 449.171 372.041 448.572 372.783C447.983 373.639 447.351 374.463 446.677 375.253C446.248 375.733 445.727 376.122 445.145 376.396C444.503 376.647 443.817 376.761 443.129 376.73C442.488 376.684 441.845 376.684 441.204 376.73C440.635 376.814 440.085 376.999 439.581 377.277C438.716 377.761 438.036 378.519 437.645 379.432C437.311 380.302 437.17 381.235 437.232 382.165C437.104 381.932 437.034 381.672 437.031 381.406C436.951 380.689 437.045 379.964 437.303 379.291C437.673 378.271 438.386 377.412 439.319 376.862C439.869 376.532 440.479 376.315 441.113 376.224C441.783 376.156 442.457 376.139 443.129 376.174C443.725 376.228 444.325 376.14 444.88 375.916C445.436 375.693 445.931 375.341 446.324 374.888C447.1 374.069 447.715 373.198 448.28 372.52C448.837 371.757 449.465 371.049 450.155 370.405Z" fill="#FAFAFA"/>
<g opacity="0.2">
<path d="M463.541 394.096L455.89 425.215L449.197 415.854L463.541 394.096Z" fill="black"/>
</g>
<path d="M496.724 496.541C496.583 496.541 496.462 491.37 496.462 484.994C496.462 478.618 496.583 473.437 496.724 473.437C496.865 473.437 496.986 478.608 496.986 484.994C496.986 491.38 496.875 496.541 496.724 496.541Z" fill="#455A64"/>
<path d="M155.919 439.191C157.441 439.308 158.922 439.734 160.275 440.441C161.628 441.149 162.825 442.125 163.792 443.309C165.712 445.69 167.064 448.48 167.743 451.466C169.215 457.184 168.227 463.904 166.554 469.561C160.425 467.304 156.696 460.686 155.002 457.214C152.341 451.719 150.849 440.172 155.94 439.191" fill="#166FFF"/>
<path d="M175.324 476.554C174.412 475.108 173.898 473.446 173.832 471.736C173.767 470.027 174.152 468.33 174.951 466.818C175.776 465.324 176.889 464.01 178.225 462.952C179.561 461.894 181.093 461.113 182.732 460.655C183.462 460.366 184.245 460.238 185.028 460.282C185.811 460.325 186.575 460.539 187.268 460.908C187.853 461.359 188.306 461.96 188.581 462.647C188.856 463.334 188.942 464.083 188.831 464.814C188.589 466.277 187.967 467.649 187.026 468.792C184.002 472.84 180.343 476.179 175.324 476.554Z" fill="#166FFF"/>
<path d="M175.888 495.61C175.764 495.22 175.673 494.82 175.616 494.415C175.465 493.575 175.263 492.483 175.011 491.167C174.241 487.581 174.047 483.895 174.436 480.247C174.884 476.565 176.308 473.07 178.559 470.127C179.247 469.254 180.035 468.466 180.908 467.78C181.141 467.591 181.387 467.418 181.644 467.263C181.729 467.2 181.82 467.146 181.916 467.102C180.774 468.068 179.728 469.142 178.791 470.31C176.664 473.243 175.312 476.668 174.86 480.268C174.477 483.873 174.63 487.516 175.313 491.076C175.525 492.452 175.686 493.575 175.787 494.355C175.86 494.769 175.894 495.189 175.888 495.61Z" fill="#263238"/>
<path d="M157.835 447.884C157.929 448.031 158.01 448.187 158.077 448.349L158.692 449.736C159.226 450.93 159.982 452.681 160.889 454.846C162.703 459.178 165.123 465.199 167.653 471.909C170.183 478.618 172.33 484.751 173.822 489.214C174.568 491.44 175.162 493.262 175.545 494.497C175.727 495.094 175.878 495.569 175.989 495.944C176.049 496.111 176.092 496.284 176.12 496.46C176.036 496.304 175.965 496.142 175.908 495.974L175.394 494.557C174.94 493.262 174.305 491.521 173.539 489.305C171.967 484.882 169.78 478.77 167.249 472.101C164.719 465.432 162.351 459.36 160.607 454.998C159.75 452.863 159.054 451.102 158.591 449.837L158.046 448.43C157.949 448.26 157.878 448.076 157.835 447.884Z" fill="#263238"/>
<path d="M168.641 482.98C166.826 479.867 164.298 477.234 161.267 475.298C158.236 473.362 154.789 472.179 151.212 471.848C149.388 471.706 147.18 471.99 146.384 473.619C145.588 475.248 146.626 477.212 147.845 478.568C150.457 481.355 153.832 483.304 157.545 484.17C161.258 485.036 165.143 484.781 168.711 483.435" fill="#166FFF"/>
<path d="M153.934 476.756C154.314 476.749 154.695 476.769 155.073 476.817C155.516 476.839 155.958 476.893 156.393 476.979C156.907 477.08 157.502 477.141 158.137 477.323C158.82 477.484 159.493 477.683 160.153 477.92C160.937 478.173 161.704 478.474 162.451 478.82C165.918 480.38 168.951 482.771 171.281 485.783C171.783 486.433 172.25 487.109 172.683 487.807C173.05 488.421 173.386 489.052 173.691 489.699C174.003 490.286 174.195 490.853 174.396 491.329C174.573 491.743 174.721 492.169 174.84 492.604C174.974 492.96 175.068 493.33 175.122 493.707C175.031 493.707 174.608 492.159 173.418 489.841C173.097 489.208 172.74 488.593 172.35 487.999C171.917 487.299 171.446 486.623 170.939 485.975C169.772 484.522 168.45 483.202 166.997 482.039C165.523 480.905 163.935 479.928 162.26 479.124C161.525 478.774 160.771 478.467 160.002 478.203C159.341 477.956 158.668 477.743 157.986 477.566C155.547 476.958 153.924 476.908 153.934 476.756Z" fill="#263238"/>
</svg>
