<svg width="32" height="32" viewBox="0 0 32 32" fill="none" xmlns="http://www.w3.org/2000/svg">
<g id="vuesax/bold/frame">
<g id="frame">
<path id="Vector" d="M15.9974 2.66663C12.5041 2.66663 9.66406 5.50663 9.66406 8.99996C9.66406 12.4266 12.3441 15.2 15.8374 15.32C15.9441 15.3066 16.0507 15.3066 16.1307 15.32C16.1574 15.32 16.1707 15.32 16.1974 15.32C16.2107 15.32 16.2107 15.32 16.2241 15.32C19.6374 15.2 22.3174 12.4266 22.3307 8.99996C22.3307 5.50663 19.4907 2.66663 15.9974 2.66663Z" fill="#166FFF"/>
<path id="Vector_2" d="M22.7733 18.8667C19.0533 16.3867 12.9866 16.3867 9.23995 18.8667C7.54661 20 6.61328 21.5333 6.61328 23.1733C6.61328 24.8133 7.54661 26.3333 9.22661 27.4533C11.0933 28.7067 13.5466 29.3333 15.9999 29.3333C18.4533 29.3333 20.9066 28.7067 22.7733 27.4533C24.4533 26.32 25.3866 24.8 25.3866 23.1467C25.3733 21.5067 24.4533 19.9867 22.7733 18.8667Z" fill="#166FFF"/>
</g>
</g>
</svg>
