<svg width="33" height="36" viewBox="0 0 33 36" fill="none" xmlns="http://www.w3.org/2000/svg">
<path id="Vector" d="M0.538372 17.964C0.512791 18.396 0.5 18.828 0.5 19.26C0.5 20.8924 0.747674 22.6193 1.24419 24.444C1.88953 26.7716 2.9186 28.98 4.33256 31.068C6.5407 34.3316 8.67325 35.9764 10.7326 36C11.4767 36 12.4442 35.748 13.6349 35.244C14.8256 34.74 16.0047 34.488 17.1698 34.488H17.3186C18.4593 34.488 19.5884 34.7287 20.7047 35.208C21.8709 35.7368 22.8128 36 23.5337 36C24.7488 35.9764 25.8779 35.4848 26.9198 34.524C27.9616 33.5633 29.0151 32.3156 30.0814 30.78C30.8512 29.6291 31.657 28.1768 32.5 26.424C31.2605 25.9684 30.2058 25.2844 29.3372 24.372C28.4686 23.4596 27.8733 22.4393 27.5512 21.312C27.3035 20.4727 27.1919 19.6324 27.2174 18.792V17.928C27.3163 16.776 27.7302 15.678 28.4628 14.634C29.1954 13.59 30.1686 12.744 31.3849 12.096C30.4419 10.944 29.3372 10.044 28.0721 9.396C26.807 8.748 25.5291 8.424 24.2395 8.424C23.05 8.424 21.7407 8.68163 20.314 9.198C18.8872 9.71437 17.8267 9.972 17.1337 9.972C16.3884 9.972 15.2674 9.71437 13.7663 9.198C12.2651 8.68163 11.0058 8.424 9.98954 8.424C8.55116 8.424 7.13023 8.82563 5.72907 9.63C4.32674 10.4344 3.14186 11.5436 2.17442 12.96C1.25698 14.3044 0.711628 15.9716 0.538372 17.964ZM15.9802 8.676C15.9058 8.316 15.8674 7.956 15.8674 7.596C15.8674 6.03562 16.5244 4.48763 17.8395 2.952C18.5093 2.16 19.3709 1.48837 20.4267 0.936C21.4802 0.38475 22.5035 0.072 23.4954 0C23.5454 0.36 23.5698 0.72 23.5698 1.08C23.5698 2.736 22.95 4.32 21.7093 5.832C21.014 6.696 20.1465 7.39237 19.1047 7.92C18.0872 8.44875 17.0942 8.69963 16.1267 8.676H15.9802Z" fill="white"/>
</svg>
