<svg width="24" height="24" viewBox="0 0 24 24" fill="none" xmlns="http://www.w3.org/2000/svg">
<g id="Iconly/Bold/Arrow---Down-Circle">
<g id="Arrow---Down-Circle">
<path id="Vector" d="M12 0C18.612 0 24 5.376 24 12C24 18.612 18.612 24 12 24C5.376 24 0 18.612 0 12C0 5.376 5.376 0 12 0ZM8.472 9.636C8.124 9.276 7.548 9.276 7.2 9.624C6.84 9.984 6.84 10.548 7.2 10.896L11.364 15.084C11.532 15.252 11.76 15.348 12 15.348C12.24 15.348 12.468 15.252 12.636 15.084L16.8 10.896C16.98 10.728 17.064 10.5 17.064 10.272C17.064 10.032 16.98 9.804 16.8 9.624C16.44 9.276 15.876 9.276 15.528 9.636L12 13.176L8.472 9.636Z" fill="#333333"/>
</g>
</g>
</svg>
