<svg width="56" height="56" viewBox="0 0 56 56" fill="none" xmlns="http://www.w3.org/2000/svg">
<g id="i_schedule_school_date_time (1) 1">
<path id="Vector" fill-rule="evenodd" clip-rule="evenodd" d="M40.8346 46.6667C44.0563 46.6667 46.668 44.055 46.668 40.8333C46.668 37.6117 44.0563 35 40.8346 35C37.613 35 35.0013 37.6117 35.0013 40.8333C35.0013 44.055 37.613 46.6667 40.8346 46.6667ZM40.8346 49C45.345 49 49.0013 45.3437 49.0013 40.8333C49.0013 36.323 45.345 32.6667 40.8346 32.6667C36.3243 32.6667 32.668 36.323 32.668 40.8333C32.668 45.3437 36.3243 49 40.8346 49Z" fill="white"/>
<path id="Vector_2" fill-rule="evenodd" clip-rule="evenodd" d="M40.8346 36.75C41.479 36.75 42.0013 37.2723 42.0013 37.9167V40.3501L42.8263 41.1751C43.2818 41.6306 43.2818 42.3694 42.8263 42.825C42.3707 43.2805 41.6319 43.2805 41.1764 42.825L39.668 41.3166V37.9167C39.668 37.2723 40.1903 36.75 40.8346 36.75Z" fill="white"/>
<path id="Vector_3" fill-rule="evenodd" clip-rule="evenodd" d="M16.3346 26.8333H14.0013V29.1667H16.3346V26.8333ZM14.0013 24.5C12.7126 24.5 11.668 25.5446 11.668 26.8333V29.1667C11.668 30.4554 12.7126 31.5 14.0013 31.5H16.3346C17.6233 31.5 18.668 30.4554 18.668 29.1667V26.8333C18.668 25.5446 17.6233 24.5 16.3346 24.5H14.0013Z" fill="white"/>
<path id="Vector_4" fill-rule="evenodd" clip-rule="evenodd" d="M25.6667 26.8333H23.3333V29.1667H25.6667V26.8333ZM23.3333 24.5C22.0446 24.5 21 25.5446 21 26.8333V29.1667C21 30.4554 22.0446 31.5 23.3333 31.5H25.6667C26.9554 31.5 28 30.4554 28 29.1667V26.8333C28 25.5446 26.9554 24.5 25.6667 24.5H23.3333Z" fill="white"/>
<path id="Vector_5" fill-rule="evenodd" clip-rule="evenodd" d="M34.9987 26.8333H32.6654V29.1667H34.9987V26.8333ZM32.6654 24.5C31.3767 24.5 30.332 25.5446 30.332 26.8333V29.1667C30.332 30.4554 31.3767 31.5 32.6654 31.5H34.9987C36.2874 31.5 37.332 30.4554 37.332 29.1667V26.8333C37.332 25.5446 36.2874 24.5 34.9987 24.5H32.6654Z" fill="white"/>
<path id="Vector_6" fill-rule="evenodd" clip-rule="evenodd" d="M16.3346 36.1667H14.0013V38.5H16.3346V36.1667ZM14.0013 33.8333C12.7126 33.8333 11.668 34.878 11.668 36.1667V38.5C11.668 39.7887 12.7126 40.8333 14.0013 40.8333H16.3346C17.6233 40.8333 18.668 39.7887 18.668 38.5V36.1667C18.668 34.878 17.6233 33.8333 16.3346 33.8333H14.0013Z" fill="white"/>
<path id="Vector_7" fill-rule="evenodd" clip-rule="evenodd" d="M25.6667 36.1667H23.3333V38.5H25.6667V36.1667ZM23.3333 33.8333C22.0446 33.8333 21 34.878 21 36.1667V38.5C21 39.7887 22.0446 40.8333 23.3333 40.8333H25.6667C26.9554 40.8333 28 39.7887 28 38.5V36.1667C28 34.878 26.9554 33.8333 25.6667 33.8333H23.3333Z" fill="white"/>
<path id="Vector_8" fill-rule="evenodd" clip-rule="evenodd" d="M9.33333 14C9.33333 13.3556 9.85567 12.8333 10.5 12.8333H16.3333V10.5H10.5C8.56701 10.5 7 12.0669 7 14V42C7 43.933 8.56701 45.5 10.5 45.5H34.1305C33.639 44.7953 33.2557 44.0095 33.0049 43.1667H10.5C9.85567 43.1667 9.33333 42.6443 9.33333 42V14ZM39.6667 32.7494C40.0477 32.6949 40.4372 32.6667 40.8333 32.6667C41.2294 32.6667 41.619 32.6949 42 32.7494V14C42 12.0671 40.433 10.5 38.5 10.5H35V12.8333H38.5C39.1443 12.8333 39.6667 13.3556 39.6667 14V32.7494ZM18.6667 12.8333H30.9896V10.5H18.6667V12.8333Z" fill="white"/>
<path id="Vector_9" fill-rule="evenodd" clip-rule="evenodd" d="M32.668 10.5H18.668V14C18.668 14.6444 18.1457 15.1667 17.5013 15.1667C16.857 15.1667 16.3346 14.6444 16.3346 14V10.5H10.5013C9.21264 10.5 8.16797 11.5447 8.16797 12.8333V18.6667C8.16797 19.9554 9.21264 21 10.5013 21H38.5013C39.79 21 40.8346 19.9545 40.8346 18.6658V12.834C40.8346 11.5454 39.79 10.5 38.5013 10.5H35.0013V14C35.0013 14.6444 34.479 15.1667 33.8346 15.1667C33.1903 15.1667 32.668 14.6444 32.668 14V10.5Z" fill="white"/>
<path id="Vector_10" fill-rule="evenodd" clip-rule="evenodd" d="M41.9987 21H9.33203V18.6667H41.9987V21Z" fill="white"/>
<path id="Vector_11" d="M14 8.16667C14 7.52234 14.5223 7 15.1667 7C15.811 7 16.3333 7.52234 16.3333 8.16667V12.8333C16.3333 13.4777 15.811 14 15.1667 14C14.5223 14 14 13.4777 14 12.8333V8.16667Z" fill="white"/>
<path id="Vector_12" d="M30.332 8.16667C30.332 7.52234 30.8543 7 31.4987 7C32.143 7 32.6654 7.52234 32.6654 8.16667V12.8333C32.6654 13.4777 32.143 14 31.4987 14C30.8543 14 30.332 13.4777 30.332 12.8333V8.16667Z" fill="white"/>
</g>
</svg>
