<svg width="56" height="56" viewBox="0 0 56 56" fill="none" xmlns="http://www.w3.org/2000/svg">
<path d="M9.81201 6.27266V12.0695H12.7651V7.65625C12.7651 7.56923 12.7997 7.48577 12.8612 7.42423C12.9228 7.3627 13.0062 7.32813 13.0933 7.32813H14.6628C14.8568 7.32827 15.049 7.29019 15.2284 7.21606C15.4077 7.14194 15.5707 7.03321 15.708 6.8961C15.8453 6.75899 15.9543 6.59618 16.0286 6.41695C16.103 6.23773 16.1414 6.04561 16.1415 5.85156C16.1413 5.45985 15.9854 5.08429 15.7084 4.80741C15.4313 4.53053 15.0556 4.375 14.6639 4.375H11.7108C11.4615 4.37486 11.2146 4.42383 10.9842 4.51914C10.7539 4.61444 10.5445 4.7542 10.3682 4.93042C10.1919 5.10665 10.052 5.3159 9.95657 5.5462C9.86113 5.77651 9.81201 6.02336 9.81201 6.27266ZM25.0709 4.375H22.1178C21.7261 4.375 21.3504 4.53053 21.0733 4.80741C20.7962 5.08429 20.6404 5.45985 20.6401 5.85156C20.6404 6.24327 20.7962 6.61884 21.0733 6.89572C21.3504 7.17259 21.7261 7.32813 22.1178 7.32813H23.7661C23.8322 7.32813 23.8956 7.3544 23.9424 7.40117C23.9892 7.44793 24.0155 7.51136 24.0155 7.5775V12.0673H26.9686V6.27047C26.968 5.76756 26.7678 5.28544 26.412 4.93004C26.0562 4.57463 25.5738 4.375 25.0709 4.375Z" fill="#3B4347"/>
<g opacity="0.15">
<path d="M12.7662 10.8697H9.81201V12.0684H12.7662V10.8697Z" fill="black"/>
<path d="M14.6638 6.13047H13.0942C13.0072 6.13047 12.9238 6.16504 12.8622 6.22657C12.8007 6.28811 12.7661 6.37157 12.7661 6.45859V7.65625C12.7661 7.56923 12.8007 7.48577 12.8622 7.42423C12.9238 7.36269 13.0072 7.32812 13.0942 7.32812H14.6638C14.9102 7.32861 15.1528 7.26739 15.3694 7.15004C15.5861 7.03269 15.7699 6.86295 15.9041 6.65631C16.0383 6.44968 16.1186 6.21272 16.1377 5.96707C16.1568 5.72143 16.1141 5.4749 16.0135 5.25C15.898 5.51174 15.7089 5.73428 15.4693 5.89059C15.2297 6.0469 14.9499 6.13024 14.6638 6.13047Z" fill="black"/>
</g>
<g opacity="0.15">
<path d="M24.0157 6.37987C24.0157 6.31373 23.9894 6.2503 23.9426 6.20353C23.8959 6.15677 23.8324 6.13049 23.7663 6.13049H22.118C21.8326 6.13059 21.5532 6.04801 21.3137 5.89273C21.0742 5.73745 20.8848 5.51612 20.7683 5.25549C20.6677 5.48039 20.625 5.72692 20.6441 5.97257C20.6632 6.21822 20.7435 6.45517 20.8777 6.66181C21.0119 6.86844 21.1957 7.03818 21.4124 7.15553C21.629 7.27288 21.8716 7.3341 22.118 7.33362H23.7663C23.8324 7.33362 23.8959 7.35989 23.9426 7.40666C23.9894 7.45343 24.0157 7.51686 24.0157 7.58299V6.37987Z" fill="black"/>
<path d="M26.9698 10.8697H24.0156V12.0684H26.9698V10.8697Z" fill="black"/>
</g>
<path d="M45.033 35.2992C47.988 32.3442 47.988 27.5534 45.033 24.5984C42.0781 21.6435 37.2872 21.6435 34.3323 24.5984C31.3774 27.5534 31.3774 32.3442 34.3323 35.2992C37.2872 38.2541 42.0781 38.2541 45.033 35.2992Z" fill="#D1E1F2"/>
<path d="M39.6833 23.7891C41.5682 23.7891 43.3852 24.4928 44.7785 25.7622C46.1717 27.0317 47.041 28.7756 47.2159 30.6524C47.2378 30.4216 47.2498 30.1864 47.2498 29.9491C47.2498 27.9423 46.4526 26.0177 45.0336 24.5987C43.6146 23.1797 41.69 22.3825 39.6833 22.3825C37.6765 22.3825 35.7519 23.1797 34.3329 24.5987C32.9139 26.0177 32.1167 27.9423 32.1167 29.9491C32.1167 30.1864 32.1287 30.4216 32.1506 30.6524C32.3256 28.7756 33.1948 27.0317 34.5881 25.7622C35.9814 24.4928 37.7984 23.7891 39.6833 23.7891Z" fill="#E9F6FF"/>
<path opacity="0.15" d="M39.6833 32.1092C38.1515 32.1091 36.6558 31.6442 35.3938 30.7759C34.1319 29.9077 33.1631 28.6769 32.6155 27.2464C32.1775 28.3922 32.0246 29.6273 32.1701 30.8453C32.3156 32.0634 32.755 33.2277 33.4505 34.2382C34.146 35.2486 35.0767 36.0748 36.1625 36.6456C37.2483 37.2164 38.4566 37.5146 39.6833 37.5146C40.9099 37.5146 42.1182 37.2164 43.204 36.6456C44.2898 36.0748 45.2205 35.2486 45.916 34.2382C46.6115 33.2277 47.051 32.0634 47.1964 30.8453C47.3419 29.6273 47.1891 28.3922 46.7511 27.2464C46.2032 28.6768 45.2343 29.9073 43.9724 30.7755C42.7105 31.6437 41.215 32.1088 39.6833 32.1092Z" fill="black"/>
<path d="M36.4917 29.949H42.8748V39.6397C42.8748 40.2198 42.6444 40.7762 42.2341 41.1865C41.8239 41.5967 41.2675 41.8272 40.6873 41.8272H38.6792C38.099 41.8272 37.5426 41.5967 37.1324 41.1865C36.7222 40.7762 36.4917 40.2198 36.4917 39.6397V29.949Z" fill="#3AAF4B"/>
<path opacity="0.15" d="M42.8748 29.949V36.4492C42.8748 37.0294 42.6444 37.5858 42.2341 37.996C41.8239 38.4062 41.2675 38.6367 40.6873 38.6367H38.6792C38.099 38.6367 37.5426 38.4062 37.1324 37.996C36.7222 37.5858 36.4917 37.0294 36.4917 36.4492V39.6408C36.4917 40.2209 36.7222 40.7773 37.1324 41.1876C37.5426 41.5978 38.099 41.8283 38.6792 41.8283H40.6873C41.2675 41.8283 41.8239 41.5978 42.2341 41.1876C42.6444 40.7773 42.8748 40.2209 42.8748 39.6408V29.949Z" fill="black"/>
<path d="M11.7108 5.12533H14.6639C14.99 5.1255 15.307 5.23365 15.5652 5.4329C15.8234 5.63215 16.0084 5.91129 16.0912 6.22674C16.15 6.00825 16.1575 5.77915 16.1132 5.55728C16.0689 5.33541 15.974 5.12675 15.8359 4.94756C15.6978 4.76837 15.5202 4.62348 15.3169 4.52417C15.1136 4.42487 14.8901 4.37382 14.6639 4.37502H11.7108C11.4615 4.37488 11.2146 4.42386 10.9842 4.51916C10.7539 4.61446 10.5445 4.75422 10.3682 4.93044C10.1919 5.10667 10.052 5.31592 9.95657 5.54622C9.86113 5.77653 9.81201 6.02338 9.81201 6.27268V7.02299C9.81201 6.77369 9.86113 6.52684 9.95657 6.29653C10.052 6.06623 10.1919 5.85698 10.3682 5.68076C10.5445 5.50453 10.7539 5.36477 10.9842 5.26947C11.2146 5.17417 11.4615 5.12519 11.7108 5.12533ZM25.0709 4.37502H22.1178C21.8915 4.37382 21.6681 4.42487 21.4648 4.52417C21.2615 4.62348 21.0839 4.76837 20.9458 4.94756C20.8076 5.12675 20.7127 5.33541 20.6684 5.55728C20.6242 5.77915 20.6317 6.00825 20.6904 6.22674C20.7733 5.91129 20.9583 5.63215 21.2165 5.4329C21.4747 5.23365 21.7916 5.1255 22.1178 5.12533H25.0709C25.3202 5.12519 25.5671 5.17417 25.7975 5.26947C26.0278 5.36477 26.2371 5.50453 26.4135 5.68076C26.5898 5.85698 26.7297 6.06623 26.8251 6.29653C26.9205 6.52684 26.9697 6.77369 26.9697 7.02299V6.27268C26.9697 6.02338 26.9205 5.77653 26.8251 5.54622C26.7297 5.31592 26.5898 5.10667 26.4135 4.93044C26.2371 4.75422 26.0278 4.61446 25.7975 4.51916C25.5671 4.42386 25.3202 4.37488 25.0709 4.37502Z" fill="#4A5254"/>
<path d="M26.938 12.0684H24.0472C23.7571 12.0684 23.4789 12.1837 23.2738 12.3888C23.0687 12.5939 22.9534 12.8721 22.9534 13.1622V17.0275C22.9534 17.2695 22.9057 17.5091 22.813 17.7327C22.7203 17.9562 22.5844 18.1593 22.4131 18.3303C22.2418 18.5012 22.0385 18.6368 21.8148 18.7291C21.5911 18.8214 21.3514 18.8687 21.1094 18.8683H15.6691C15.1809 18.8683 14.7126 18.6743 14.3674 18.3291C14.0222 17.9839 13.8283 17.5157 13.8283 17.0275V13.1622C13.8283 12.8721 13.713 12.5939 13.5079 12.3888C13.3028 12.1837 13.0246 12.0684 12.7345 12.0684H9.84375C9.55367 12.0684 9.27547 12.1837 9.07035 12.3888C8.86524 12.5939 8.75 12.8721 8.75 13.1622V17.1194C8.74943 18.0165 8.92561 18.9049 9.2685 19.7339C9.61138 20.563 10.1142 21.3163 10.7483 21.9509C11.3825 22.5855 12.1354 23.089 12.9641 23.4325C13.7929 23.7761 14.6812 23.953 15.5783 23.9531V29.9272C15.5783 30.5073 15.8088 31.0637 16.219 31.474C16.6292 31.8842 17.1856 32.1147 17.7658 32.1147H19.0159C19.5961 32.1147 20.1525 31.8842 20.5627 31.474C20.973 31.0637 21.2034 30.5073 21.2034 29.9272V23.9531C23.0143 23.9528 24.751 23.2333 26.0314 21.9528C27.3119 20.6723 28.0314 18.9357 28.0317 17.1248V13.1622C28.0317 13.0185 28.0034 12.8763 27.9485 12.7436C27.8935 12.6109 27.8129 12.4903 27.7114 12.3888C27.6098 12.2872 27.4892 12.2066 27.3565 12.1517C27.2238 12.0967 27.0816 12.0684 26.938 12.0684Z" fill="#EF5B5B"/>
<path opacity="0.15" d="M15.5783 21.6803C13.7675 21.6803 12.0309 20.9611 10.7503 19.6808C9.46983 18.4005 8.75029 16.6639 8.75 14.8531V17.1194C8.74943 18.0165 8.92561 18.905 9.2685 19.734C9.61138 20.563 10.1142 21.3163 10.7483 21.9509C11.3825 22.5856 12.1354 23.089 12.9641 23.4326C13.7929 23.7761 14.6812 23.953 15.5783 23.9531V21.6803ZM21.2034 21.6803V23.9531C23.0143 23.9529 24.751 23.2334 26.0314 21.9529C27.3119 20.6724 28.0314 18.9358 28.0317 17.1249V14.8531C28.0314 16.6639 27.3119 18.4005 26.0314 19.6808C24.7509 20.9611 23.0142 21.6803 21.2034 21.6803ZM19.0159 29.843H17.7658C17.1856 29.843 16.6292 29.6125 16.219 29.2023C15.8088 28.7921 15.5783 28.2357 15.5783 27.6555V29.9217C15.5783 30.5019 15.8088 31.0583 16.219 31.4685C16.6292 31.8788 17.1856 32.1092 17.7658 32.1092H19.0159C19.5961 32.1092 20.1525 31.8788 20.5627 31.4685C20.973 31.0583 21.2034 30.5019 21.2034 29.9217V27.6555C21.2034 27.9428 21.1469 28.2272 21.0369 28.4926C20.927 28.758 20.7659 28.9992 20.5627 29.2023C20.3596 29.4054 20.1185 29.5665 19.8531 29.6765C19.5877 29.7864 19.3032 29.843 19.0159 29.843Z" fill="black"/>
<path d="M13.8283 17.9823C13.8286 18.4704 14.0226 18.9385 14.3678 19.2836C14.7129 19.6288 15.1809 19.8228 15.6691 19.8231H21.1094C21.5975 19.8228 22.0655 19.6288 22.4107 19.2836C22.7558 18.9385 22.9499 18.4704 22.9502 17.9823V17.0275C22.9502 17.5157 22.7562 17.9839 22.411 18.3291C22.0658 18.6743 21.5976 18.8683 21.1094 18.8683H15.6691C15.1809 18.8683 14.7126 18.6743 14.3674 18.3291C14.0222 17.9839 13.8283 17.5157 13.8283 17.0275V17.9823ZM26.938 12.0684H24.0472C23.7571 12.0684 23.4789 12.1837 23.2738 12.3888C23.0687 12.5939 22.9534 12.8721 22.9534 13.1622V14.117C22.9534 13.8269 23.0687 13.5487 23.2738 13.3436C23.4789 13.1385 23.7571 13.0233 24.0472 13.0233H26.938C27.228 13.0233 27.5062 13.1385 27.7114 13.3436C27.9165 13.5487 28.0317 13.8269 28.0317 14.117V13.1622C28.0317 13.0185 28.0034 12.8763 27.9485 12.7436C27.8935 12.6109 27.8129 12.4903 27.7114 12.3888C27.6098 12.2872 27.4892 12.2066 27.3565 12.1517C27.2238 12.0967 27.0816 12.0684 26.938 12.0684ZM9.84375 13.0233H12.7345C13.0246 13.0233 13.3028 13.1385 13.5079 13.3436C13.713 13.5487 13.8283 13.8269 13.8283 14.117V13.1622C13.8283 12.8721 13.713 12.5939 13.5079 12.3888C13.3028 12.1837 13.0246 12.0684 12.7345 12.0684H9.84375C9.55367 12.0684 9.27547 12.1837 9.07035 12.3888C8.86523 12.5939 8.75 12.8721 8.75 13.1622V14.117C8.75 13.8269 8.86523 13.5487 9.07035 13.3436C9.27547 13.1385 9.55367 13.0233 9.84375 13.0233Z" fill="#FF7D7D"/>
<path d="M38.5899 41.8283V47.25C38.5899 47.8301 38.3594 48.3865 37.9492 48.7968C37.5389 49.207 36.9825 49.4375 36.4024 49.4375H21.6729C21.0927 49.4375 20.5363 49.207 20.1261 48.7968C19.7158 48.3865 19.4854 47.8301 19.4854 47.25V32.1092H17.2979V47.25C17.2979 48.4103 17.7588 49.5231 18.5793 50.3436C19.3997 51.164 20.5125 51.625 21.6729 51.625H36.4024C37.5627 51.625 38.6755 51.164 39.496 50.3436C40.3164 49.5231 40.7774 48.4103 40.7774 47.25V41.8283H38.5899Z" fill="#99ACBA"/>
<path d="M19.4854 48.2344C19.4854 48.8145 19.7158 49.3709 20.1261 49.7812C20.5363 50.1914 21.0927 50.4219 21.6729 50.4219H36.4024C36.9825 50.4219 37.5389 50.1914 37.9492 49.7812C38.3594 49.3709 38.5899 48.8145 38.5899 48.2344V47.25C38.5899 47.8302 38.3594 48.3866 37.9492 48.7968C37.5389 49.207 36.9825 49.4375 36.4024 49.4375H21.6729C21.0927 49.4375 20.5363 49.207 20.1261 48.7968C19.7158 48.3866 19.4854 47.8302 19.4854 47.25V48.2344Z" fill="#BACED8"/>
<path d="M40.7773 41.8283H38.5898V42.8127H40.7773V41.8283Z" fill="#BACED8"/>
<path d="M19.4854 32.1092H17.2979V33.0936H19.4854V32.1092Z" fill="#BACED8"/>
<path d="M42.7874 30.6813C43.1923 28.9658 42.1298 27.2468 40.4143 26.8419C38.6988 26.437 36.9798 27.4995 36.5749 29.215C36.17 30.9305 37.2325 32.6495 38.948 33.0544C40.6635 33.4593 42.3825 32.3968 42.7874 30.6813Z" fill="#3B4347"/>
<path d="M39.6833 27.6478C40.4523 27.6489 41.1951 27.9271 41.7755 28.4316C42.3559 28.9361 42.7349 29.6329 42.8431 30.3942C42.8642 30.2468 42.8748 30.098 42.8748 29.9491C42.8748 29.1026 42.5386 28.2908 41.94 27.6923C41.3415 27.0938 40.5297 26.7575 39.6833 26.7575C38.8368 26.7575 38.025 27.0938 37.4265 27.6923C36.8279 28.2908 36.4917 29.1026 36.4917 29.9491C36.4917 30.098 36.5023 30.2468 36.5234 30.3942C36.6314 29.6328 37.0103 28.9358 37.5908 28.4313C38.1712 27.9268 38.9142 27.6486 39.6833 27.6478Z" fill="#4A5254"/>
<path opacity="0.15" d="M39.6832 31.1916C39.0067 31.1915 38.3477 30.9768 37.8009 30.5785C37.2541 30.1801 36.8478 29.6185 36.6404 28.9745C36.5017 29.4129 36.4593 29.8761 36.5162 30.3324C36.5731 30.7887 36.728 31.2273 36.9701 31.6182C37.2123 32.0091 37.536 32.3431 37.9192 32.5972C38.3024 32.8514 38.736 33.0197 39.1904 33.0907C39.6447 33.1618 40.109 33.1338 40.5514 33.0087C40.9939 32.8836 41.4042 32.6644 41.7541 32.366C42.1039 32.0677 42.3852 31.6973 42.5787 31.2801C42.7721 30.8629 42.8731 30.4089 42.8748 29.9491C42.8751 29.6182 42.8234 29.2894 42.7217 28.9745C42.5148 29.618 42.1093 30.1792 41.5633 30.5776C41.0173 30.976 40.3591 31.1909 39.6832 31.1916Z" fill="black"/>
</svg>
