<svg width="48" height="48" viewBox="0 0 48 48" fill="none" xmlns="http://www.w3.org/2000/svg">
<g id="clarity:flask-solid" clip-path="url(#clip0_1528_2246)">
<path id="Vector" d="M41.9882 36.5333L30.6682 19.92V5.33333H32.0016C32.3552 5.33333 32.6943 5.19286 32.9444 4.94281C33.1944 4.69276 33.3349 4.35362 33.3349 4C33.3349 3.64638 33.1944 3.30724 32.9444 3.05719C32.6943 2.80714 32.3552 2.66667 32.0016 2.66667H16.1082C15.7546 2.66667 15.4155 2.80714 15.1654 3.05719C14.9154 3.30724 14.7749 3.64638 14.7749 4C14.7749 4.35362 14.9154 4.69276 15.1654 4.94281C15.4155 5.19286 15.7546 5.33333 16.1082 5.33333H17.3349V19.92L6.10822 36.4133C5.27749 37.5716 4.90683 38.9972 5.06822 40.4133C5.24339 41.7743 5.9087 43.0247 6.93955 43.9304C7.97039 44.836 9.29604 45.3348 10.6682 45.3333H37.1482C37.9172 45.3569 38.6833 45.2277 39.4019 44.953C40.1206 44.6784 40.7776 44.2638 41.3349 43.7333C42.2699 42.7998 42.8475 41.5676 42.9669 40.2518C43.0863 38.9359 42.7399 37.6199 41.9882 36.5333ZM20.0016 20.6533V5.33333H28.0016V20.6533L34.8682 30.6667H13.1349L20.0016 20.6533Z" fill="white"/>
</g>
<defs>
<clipPath id="clip0_1528_2246">
<rect width="48" height="48" fill="white"/>
</clipPath>
</defs>
</svg>
