<svg width="42" height="26" viewBox="0 0 42 26" fill="none" xmlns="http://www.w3.org/2000/svg">
<path d="M1 25C5.75705 19.8556 12.1893 15.3867 18.9367 14.1476C20.7715 13.8107 29.6987 12.1299 29.6987 15.8718C29.6987 17.664 27.8414 17.3456 26.8617 16.7846C24.9331 15.6805 23.4959 14.6193 22.1489 12.677C20.0696 9.67893 17.7839 4.84025 20.8359 1.72317C22.153 0.377892 24.6733 1.1431 25.9003 2.12886C27.1034 3.09534 27.904 4.33565 28.8077 5.60264C29.5423 6.6324 29.3451 6.52789 29.9097 5.37444C31.327 2.47934 35.8373 0.445577 36.6155 4.96874C37.0521 7.50653 36.2795 9.70987 35.5604 12.0431C35.2902 12.9195 34.8714 14.443 34.2943 15.1365C33.6659 15.8916 33.3255 14.6875 33.544 14.0462C34.0872 12.4518 34.8207 11.7642 36.4044 11.7642C37.8368 11.7642 39.7371 12.9687 39.8277 14.7308C39.8779 15.7085 40.1065 15.4693 40.4138 14.7308C40.6522 14.1579 41 12.3276 41 12.9559C41 13.1772 40.9887 15.0095 40.789 15.1365C40.0781 15.5887 39.1127 15.5971 38.3505 15.8718" stroke="url(#paint0_linear_94_4438)" stroke-width="2" stroke-linecap="round"/>
<defs>
<linearGradient id="paint0_linear_94_4438" x1="1" y1="19" x2="43.6039" y2="22.1166" gradientUnits="userSpaceOnUse">
<stop stop-color="#166FFF"/>
<stop offset="1" stop-color="#76AFFB"/>
</linearGradient>
</defs>
</svg>
