<svg width="28" height="28" viewBox="0 0 28 28" fill="none" xmlns="http://www.w3.org/2000/svg">
<g id="Social Media Icon Square/LinkedIn">
<g id="Group 73">
<rect id="Social Media Icon" width="28" height="28" rx="4" fill="#166FFF"/>
<path id="LinkedIn" d="M7 8.88183C7 8.43289 7.15766 8.06252 7.47297 7.77072C7.78828 7.47891 8.1982 7.33301 8.7027 7.33301C9.1982 7.33301 9.59909 7.47666 9.90541 7.76398C10.2207 8.06028 10.3784 8.44635 10.3784 8.92223C10.3784 9.35321 10.2252 9.71235 9.91892 9.99967C9.60361 10.296 9.18919 10.4441 8.67568 10.4441H8.66216C8.16666 10.4441 7.76577 10.296 7.45946 9.99967C7.15315 9.70338 7 9.33076 7 8.88183ZM7.17568 20.6663V11.6697H10.1757V20.6663H7.17568ZM11.8378 20.6663H14.8378V15.6428C14.8378 15.3285 14.8739 15.0861 14.9459 14.9155C15.0721 14.6102 15.2635 14.3521 15.5203 14.1411C15.777 13.9301 16.0991 13.8246 16.4865 13.8246C17.4955 13.8246 18 14.5025 18 15.8583V20.6663H21V15.5081C21 14.1792 20.6847 13.1714 20.0541 12.4845C19.4234 11.7977 18.5901 11.4542 17.5541 11.4542C16.3919 11.4542 15.4865 11.9525 14.8378 12.9492V12.9761H14.8243L14.8378 12.9492V11.6697H11.8378C11.8559 11.957 11.8649 12.8504 11.8649 14.3498C11.8649 15.8493 11.8559 17.9548 11.8378 20.6663Z" fill="white"/>
</g>
</g>
</svg>
