<svg width="14" height="20" viewBox="0 0 14 20" fill="none" xmlns="http://www.w3.org/2000/svg">
<g id="Frame" clip-path="url(#clip0_1182_7842)">
<path id="Vector" d="M12.133 10.632V8.83197C12.1337 7.61541 11.724 6.43419 10.9702 5.47931C10.2163 4.52443 9.16249 3.85172 7.979 3.56998C7.98801 3.53507 7.99503 3.49968 8 3.46398V1.09998C8 0.834759 7.89464 0.580405 7.70711 0.392869C7.51957 0.205332 7.26522 0.0999756 7 0.0999756C6.73478 0.0999756 6.48043 0.205332 6.29289 0.392869C6.10536 0.580405 6 0.834759 6 1.09998V3.46398C6.00497 3.49968 6.01199 3.53507 6.021 3.56998C4.83751 3.85172 3.78365 4.52443 3.02984 5.47931C2.27603 6.43419 1.86633 7.61541 1.867 8.83197V10.632C1.867 13.018 0 13.614 0 14.807C0 15.4 0 16 0.538 16H13.462C14 16 14 15.4 14 14.807C14 13.614 12.133 13.018 12.133 10.632ZM3.823 17C4.08828 17.623 4.53089 18.1543 5.09576 18.5277C5.66064 18.9011 6.32285 19.1002 7 19.1002C7.67715 19.1002 8.33936 18.9011 8.90424 18.5277C9.46911 18.1543 9.91172 17.623 10.177 17H3.823Z" fill="#999999"/>
</g>
<defs>
<clipPath id="clip0_1182_7842">
<rect width="14" height="20" fill="white"/>
</clipPath>
</defs>
</svg>
