<svg width="56" height="56" viewBox="0 0 56 56" fill="none" xmlns="http://www.w3.org/2000/svg">
<path d="M18.6666 4.66667H38.0041C39.3005 4.66667 40.5439 5.18169 41.4606 6.09843C42.3774 7.01517 42.8924 8.25854 42.8924 9.55501V19.075C42.8924 20.0156 42.5187 20.9178 41.8536 21.5829C41.1885 22.248 40.2864 22.6217 39.3457 22.6217H16.5374C15.5968 22.6217 14.6946 22.248 14.0295 21.5829C13.3644 20.9178 12.9907 20.0156 12.9907 19.075V10.325C12.99 9.58025 13.1364 8.84269 13.4215 8.15469C13.7067 7.4667 14.125 6.84185 14.6525 6.31604C15.1799 5.79023 15.8061 5.37384 16.4949 5.09078C17.1838 4.80773 17.9218 4.6636 18.6666 4.66667Z" fill="#B44755"/>
<path d="M46.9523 55.4167H9.03564L10.144 46.5908C10.3038 45.327 10.8512 44.1437 11.7109 43.2036C12.5705 42.2635 13.7003 41.6128 14.9448 41.3408L27.9998 38.5L41.0431 41.3467C42.2877 41.6186 43.4174 42.2694 44.2771 43.2095C45.1367 44.1496 45.6841 45.3328 45.844 46.5967L46.9523 55.4167Z" fill="#2E94A5"/>
<path d="M42.3556 52.9317H39.614V55.4167H16.4615V52.9317H13.644C13.4518 52.9314 13.262 52.8904 13.0868 52.8114C12.9117 52.7324 12.7553 52.6172 12.628 52.4733C12.5007 52.3294 12.4053 52.1602 12.3481 51.9768C12.291 51.7933 12.2734 51.5999 12.2965 51.4092L12.7456 47.8683C12.8555 46.9597 13.2028 46.096 13.7525 45.3643C14.3023 44.6326 15.0352 44.0586 15.8774 43.7002C16.7195 43.3418 17.6413 43.2117 18.5497 43.3228C19.4582 43.4339 20.3214 43.7825 21.0523 44.3333L26.2031 48.3233C26.7161 48.7245 27.3486 48.9424 27.9998 48.9424C28.651 48.9424 29.2835 48.7245 29.7965 48.3233L34.9473 44.3333C35.6794 43.7821 36.544 43.4338 37.4538 43.3235C38.3635 43.2133 39.2863 43.345 40.1289 43.7053C40.9715 44.0657 41.7041 44.6419 42.2528 45.3759C42.8015 46.1099 43.1468 46.9757 43.254 47.8858L43.7031 51.4208C43.7245 51.6107 43.7055 51.8028 43.6476 51.9849C43.5896 52.1669 43.4939 52.3346 43.3668 52.4772C43.2397 52.6197 43.0839 52.7339 42.9097 52.8122C42.7354 52.8905 42.5467 52.9312 42.3556 52.9317Z" fill="#38C6A5"/>
<path d="M30.9164 49.7175C30.0897 50.357 29.0741 50.704 28.0289 50.704C26.9838 50.704 25.9681 50.357 25.1414 49.7175L22.0498 47.3492C21.8776 47.22 21.6731 47.141 21.4589 47.1208C21.2446 47.1007 21.029 47.1402 20.8358 47.235C20.6426 47.3298 20.4793 47.4762 20.3642 47.6579C20.249 47.8397 20.1863 48.0498 20.1831 48.265V52.5C20.1831 52.8094 20.306 53.1062 20.5248 53.3249C20.7436 53.5437 21.0404 53.6667 21.3498 53.6667H34.6556C34.965 53.6667 35.2618 53.5437 35.4806 53.3249C35.6994 53.1062 35.8223 52.8094 35.8223 52.5V48.265C35.8191 48.0498 35.7564 47.8397 35.6412 47.6579C35.526 47.4762 35.3628 47.3298 35.1696 47.235C34.9764 47.1402 34.7608 47.1007 34.5465 47.1208C34.3323 47.141 34.1277 47.22 33.9556 47.3492L30.9164 49.7175Z" fill="#6FE4A5"/>
<path d="M41.9004 24.535H14.5304C13.9173 24.5047 13.3393 24.2398 12.9161 23.7951C12.4929 23.3505 12.2568 22.7601 12.2568 22.1463C12.2568 21.5324 12.4929 20.942 12.9161 20.4974C13.3393 20.0527 13.9173 19.7878 14.5304 19.7575H41.9004C42.5135 19.7878 43.0915 20.0527 43.5148 20.4974C43.938 20.942 44.174 21.5324 44.174 22.1463C44.174 22.7601 43.938 23.3505 43.5148 23.7951C43.0915 24.2398 42.5135 24.5047 41.9004 24.535Z" fill="#FFB087"/>
<path d="M41.3056 19.7575H15.0439V24.5292H41.3056V19.7575Z" fill="#FF8873"/>
<path d="M32.7715 39.515V40.7225L27.9998 44.4208L23.2281 40.7225V39.515L20.8481 40.0341V41.895L27.9998 47.4366L35.1515 41.895V40.0341L32.7715 39.515Z" fill="#FF8E6E"/>
<path d="M31.4996 41.6967L27.9996 44.4208L24.4996 41.6967L21.4604 42.3675L27.9996 47.4367L34.5446 42.3675L31.4996 41.6967Z" fill="#FFCA6E"/>
<path d="M32.7714 32.5267V40.7225L27.9997 44.4208L23.228 40.7225V32.5267H32.7714Z" fill="#FFB087"/>
<path d="M32.7714 32.5267V36.75C32.7717 37.1475 32.6808 37.5398 32.5059 37.8968C32.331 38.2537 32.0766 38.5658 31.7622 38.8092L29.9539 40.2092C29.395 40.6434 28.7074 40.8791 27.9997 40.8791C27.292 40.8791 26.6044 40.6434 26.0455 40.2092L24.6864 39.1592C24.231 38.8048 23.8628 38.3508 23.61 37.8321C23.3573 37.3134 23.2266 36.7437 23.228 36.1667V32.5267H32.7714Z" fill="#FF8873"/>
<path d="M40.0922 19.4425V24.5408C40.0922 33.2091 31.4997 39.3516 23.4497 36.0558C23.0508 35.9021 22.6287 35.8173 22.2014 35.805C20.7447 35.712 19.3759 35.0762 18.3651 34.0233C17.3542 32.9703 16.7749 31.5767 16.7414 30.1175C16.7536 29.6511 16.6885 29.1859 16.5489 28.7408C16.1226 27.4879 15.9058 26.1734 15.9072 24.85C15.9072 19.5358 15.8372 18.97 16.1172 17.4941C16.5972 14.4948 18.1911 11.787 20.5804 9.91149C22.9697 8.03598 25.9785 7.13085 29.006 7.37688C32.0335 7.62291 34.8568 9.00199 36.9119 11.2387C38.967 13.4754 40.1027 16.405 40.0922 19.4425Z" fill="#FFDDBE"/>
<path d="M39.5029 15.715H34.1538C32.5119 15.7214 30.9013 16.1643 29.4871 16.9983C28.4967 17.586 27.3663 17.8963 26.2146 17.8967H18.0829C17.4017 17.8956 16.7274 17.7588 16.0996 17.4942C16.5325 14.8197 17.8535 12.369 19.8497 10.5372C21.8458 8.70533 24.4007 7.59915 27.1024 7.39697C29.8041 7.1948 32.4952 7.90842 34.7417 9.42277C36.9883 10.9371 38.6593 13.1639 39.4854 15.7442L39.5029 15.715Z" fill="#FFBFA5"/>
<path d="M44.9747 5.69331V8.44665C44.9732 9.80089 44.4341 11.0991 43.476 12.0562C42.5178 13.0132 41.219 13.5508 39.8647 13.5508H34.1539C32.5796 13.5487 31.0311 13.9504 29.6564 14.7175C28.6186 15.3696 27.4227 15.7266 26.1972 15.75H18.0831C15.1664 15.75 12.4714 13.2416 13.0489 9.51415C13.3212 7.38549 14.3598 5.42898 15.9703 4.01066C17.5808 2.59235 19.6529 1.8094 21.7989 1.80831C24.7797 1.80831 26.2322 1.97748 28.7114 0.968313C29.3235 0.714587 29.9796 0.58377 30.6422 0.583313H39.8647C41.22 0.583313 42.5197 1.12169 43.478 2.08C44.4363 3.03831 44.9747 4.33806 44.9747 5.69331Z" fill="#FF796E"/>
<path d="M44.9747 8.44663C44.9732 9.80088 44.4341 11.0991 43.476 12.0562C42.5178 13.0132 41.219 13.5508 39.8647 13.5508H34.1539C32.5796 13.5487 31.0311 13.9504 29.6564 14.7175C28.6186 15.3696 27.4227 15.7266 26.1972 15.75H18.0831C15.1664 15.75 12.4714 13.2416 13.0489 9.51413C13.1189 9.04746 13.1247 9.0008 13.1947 8.6858C13.5255 9.72197 14.1775 10.6259 15.0564 11.2667C15.9353 11.9076 16.9954 12.2519 18.0831 12.25H26.1972C27.3484 12.2514 28.4787 11.9431 29.4697 11.3575C30.884 10.5234 32.4946 10.0805 34.1364 10.0741H39.8472C41.1382 10.0746 42.3815 9.58648 43.3273 8.70779C44.2731 7.8291 44.8512 6.62499 44.9456 5.33746C44.9806 5.66996 44.9747 5.3608 44.9747 8.44663Z" fill="#FF476E"/>
<path d="M40.5414 8.51662C41.2568 8.47045 41.9274 8.15218 42.4156 7.62715C42.9037 7.10213 43.1724 6.41016 43.1664 5.69329C43.1664 4.81145 42.8161 3.96572 42.1925 3.34216C41.569 2.7186 40.7232 2.36829 39.8414 2.36829H35.4956C35.0859 2.36735 34.6855 2.49002 34.3467 2.72027C34.0079 2.95051 33.7464 3.27762 33.5964 3.65884C33.4464 4.04006 33.415 4.45765 33.5061 4.85704C33.5972 5.25643 33.8067 5.61903 34.1072 5.89746C35.9506 7.58329 38.0272 8.62746 40.5414 8.51662Z" fill="#FFBAA0"/>
<path d="M23.0066 22.6217C22.8519 22.6217 22.7036 22.5602 22.5942 22.4508C22.4848 22.3414 22.4233 22.193 22.4233 22.0383V21.14C22.4233 20.9853 22.4848 20.8369 22.5942 20.7275C22.7036 20.6181 22.8519 20.5567 23.0066 20.5567C23.1613 20.5567 23.3097 20.6181 23.4191 20.7275C23.5285 20.8369 23.59 20.9853 23.59 21.14V22.0267C23.5915 22.1043 23.5776 22.1814 23.549 22.2535C23.5203 22.3256 23.4776 22.3913 23.4233 22.4467C23.369 22.5021 23.3041 22.5461 23.2326 22.5762C23.161 22.6062 23.0842 22.6217 23.0066 22.6217ZM32.9933 22.6217C32.8386 22.6217 32.6902 22.5602 32.5808 22.4508C32.4714 22.3414 32.41 22.193 32.41 22.0383V21.14C32.41 20.9853 32.4714 20.8369 32.5808 20.7275C32.6902 20.6181 32.8386 20.5567 32.9933 20.5567C33.148 20.5567 33.2964 20.6181 33.4058 20.7275C33.5152 20.8369 33.5766 20.9853 33.5766 21.14V22.0267C33.5782 22.1043 33.5642 22.1814 33.5356 22.2535C33.507 22.3256 33.4643 22.3913 33.41 22.4467C33.3556 22.5021 33.2908 22.5461 33.2193 22.5762C33.1477 22.6062 33.0709 22.6217 32.9933 22.6217ZM20.2008 19.8858C20.0614 19.8999 19.9215 19.8632 19.8069 19.7826C19.6923 19.702 19.6105 19.5829 19.5765 19.4469C19.5425 19.311 19.5586 19.1673 19.6218 19.0423C19.685 18.9172 19.7912 18.8191 19.9208 18.7658L22.8375 17.2375C22.9068 17.2011 22.9826 17.1787 23.0606 17.1717C23.1386 17.1646 23.2172 17.1729 23.2919 17.1962C23.3667 17.2195 23.4361 17.2573 23.4962 17.3074C23.5564 17.3575 23.6061 17.419 23.6425 17.4883C23.6789 17.5577 23.7012 17.6335 23.7083 17.7115C23.7154 17.7894 23.7071 17.868 23.6838 17.9428C23.6605 18.0175 23.6227 18.087 23.5726 18.1471C23.5224 18.2073 23.461 18.257 23.3916 18.2933C20.2416 19.9442 20.4166 19.8858 20.2008 19.8858ZM35.6416 19.8858C35.4375 19.8858 35.6008 19.9442 32.4566 18.2933C32.3873 18.255 32.3262 18.2035 32.2768 18.1415C32.2274 18.0796 32.1907 18.0086 32.1688 17.9325C32.1468 17.8564 32.1401 17.7767 32.149 17.698C32.1578 17.6193 32.1821 17.5431 32.2204 17.4738C32.2587 17.4044 32.3103 17.3433 32.3722 17.2939C32.4341 17.2445 32.5051 17.2078 32.5812 17.1859C32.6573 17.164 32.737 17.1572 32.8157 17.1661C32.8944 17.1749 32.9706 17.1992 33.04 17.2375L35.9566 18.7658C36.095 18.8161 36.2093 18.9168 36.2765 19.0478C36.3437 19.1788 36.3589 19.3303 36.319 19.4721C36.2792 19.6138 36.1872 19.7352 36.0616 19.8119C35.9359 19.8887 35.7859 19.9151 35.6416 19.8858ZM25.7016 32.4683C25.5781 32.4753 25.4555 32.4428 25.3517 32.3755C25.2479 32.3082 25.1681 32.2097 25.1239 32.0941C25.0798 31.9785 25.0735 31.8519 25.1061 31.7325C25.1386 31.6131 25.2083 31.5072 25.305 31.43C26.0482 30.7833 27.0002 30.4271 27.9854 30.4271C28.9706 30.4271 29.9226 30.7833 30.6658 31.43C30.7248 31.4809 30.7732 31.543 30.8082 31.6126C30.8432 31.6823 30.8641 31.7581 30.8698 31.8359C30.8755 31.9136 30.8658 31.9917 30.8413 32.0657C30.8168 32.1397 30.778 32.2081 30.727 32.2671C30.6761 32.3261 30.614 32.3744 30.5444 32.4094C30.4748 32.4444 30.3989 32.4654 30.3212 32.4711C30.2435 32.4768 30.1654 32.4671 30.0914 32.4426C30.0174 32.4181 29.949 32.3793 29.89 32.3283C29.3582 31.8815 28.6858 31.6366 27.9912 31.6366C27.2966 31.6366 26.6243 31.8815 26.0925 32.3283C25.9838 32.4214 25.8447 32.4712 25.7016 32.4683Z" fill="#302D3D"/>
<path d="M25.2523 34.5275C25.1545 34.5303 25.0576 34.5086 24.9705 34.4642C24.8833 34.4199 24.8087 34.3543 24.7536 34.2735C24.6984 34.1928 24.6644 34.0995 24.6547 34.0022C24.645 33.9049 24.6599 33.8067 24.6981 33.7166C25.02 32.8929 25.1087 31.9964 24.9544 31.1256C24.8001 30.2548 24.4089 29.4433 23.8236 28.7803C23.2383 28.1173 22.4817 27.6284 21.6368 27.3672C20.7918 27.1061 19.8913 27.0828 19.034 27.3C18.8792 27.3394 18.7152 27.3158 18.5779 27.2343C18.4406 27.1528 18.3413 27.0201 18.3019 26.8654C18.2624 26.7107 18.286 26.5466 18.3675 26.4093C18.449 26.2721 18.5817 26.1728 18.7365 26.1333C19.8081 25.8592 20.9347 25.8866 21.9917 26.2124C23.0488 26.5381 23.9953 27.1497 24.7267 27.9795C25.4582 28.8093 25.9461 29.8251 26.1366 30.9147C26.3272 32.0043 26.2129 33.1254 25.8065 34.1541C25.7635 34.2656 25.6872 34.3612 25.5881 34.428C25.489 34.4948 25.3718 34.5295 25.2523 34.5275Z" fill="#FFB087"/>
<path d="M22.9656 32.0483C22.8355 32.0535 22.7073 32.015 22.6016 31.9389C22.4959 31.8627 22.4187 31.7534 22.3823 31.6283C22.2538 31.2294 22.0467 30.8602 21.7732 30.5426C21.4997 30.225 21.1653 29.9654 20.7898 29.7792C20.7185 29.7457 20.6547 29.6981 20.6023 29.6392C20.5499 29.5804 20.51 29.5116 20.4849 29.4369C20.4599 29.3622 20.4502 29.2832 20.4564 29.2047C20.4627 29.1262 20.4849 29.0497 20.5215 28.98C20.555 28.9087 20.6026 28.8449 20.6614 28.7925C20.7202 28.7401 20.7891 28.7002 20.8637 28.6751C20.9384 28.65 21.0174 28.6404 21.0959 28.6466C21.1745 28.6529 21.2509 28.675 21.3206 28.7117C21.8406 28.9686 22.3034 29.3279 22.6813 29.7679C23.0592 30.2079 23.3444 30.7197 23.5198 31.2725C23.5507 31.3607 23.5598 31.455 23.5466 31.5475C23.5334 31.64 23.4982 31.728 23.4438 31.8041C23.3895 31.8801 23.3177 31.942 23.2345 31.9845C23.1513 32.027 23.0591 32.0489 22.9656 32.0483Z" fill="#FFB087"/>
<path d="M34.1538 13.5508C32.5795 13.5487 31.031 13.9504 29.6563 14.7175H26.6171C26.4624 14.7175 26.314 14.656 26.2046 14.5466C26.0952 14.4372 26.0338 14.2888 26.0338 14.1341C26.0338 13.9794 26.0952 13.831 26.2046 13.7216C26.314 13.6122 26.4624 13.5508 26.6171 13.5508H34.1538ZM22.5688 14.7466H21.2738C21.1191 14.7466 20.9707 14.6852 20.8613 14.5758C20.7519 14.4664 20.6904 14.318 20.6904 14.1633C20.6904 14.0086 20.7519 13.8602 20.8613 13.7508C20.9707 13.6414 21.1191 13.58 21.2738 13.58H22.5688C22.7235 13.58 22.8718 13.6414 22.9812 13.7508C23.0906 13.8602 23.1521 14.0086 23.1521 14.1633C23.1521 14.318 23.0906 14.4664 22.9812 14.5758C22.8718 14.6852 22.7235 14.7466 22.5688 14.7466Z" fill="#C8296E"/>
<path d="M40.25 55.4166H39.0833L38.8383 49.7816C38.8321 49.6269 38.8877 49.4761 38.9927 49.3623C39.0977 49.2486 39.2436 49.1812 39.3983 49.175C39.553 49.1688 39.7039 49.2243 39.8176 49.3293C39.9314 49.4343 39.9988 49.5803 40.005 49.735C40.2908 56.1575 40.25 55.3466 40.25 55.4166ZM15.75 55.4166C15.75 55.3466 15.75 55.4166 15.995 49.735C15.9948 49.6548 16.0111 49.5755 16.043 49.5019C16.0748 49.4283 16.1215 49.3621 16.18 49.3074C16.2386 49.2526 16.3078 49.2105 16.3834 49.1837C16.4589 49.157 16.5392 49.146 16.6192 49.1516C16.6988 49.1515 16.7776 49.1677 16.8508 49.1991C16.9239 49.2306 16.9899 49.2767 17.0445 49.3347C17.0992 49.3926 17.1414 49.4611 17.1686 49.536C17.1957 49.6108 17.2073 49.6905 17.2025 49.77L16.9167 55.4166H15.75Z" fill="#2E94A5"/>
</svg>
