<svg width="41" height="34" viewBox="0 0 41 34" fill="none" xmlns="http://www.w3.org/2000/svg">
<g id="Vector (Stroke)">
<path fill-rule="evenodd" clip-rule="evenodd" d="M28.8545 10.9739C28.8545 10.2007 29.4813 9.57393 30.2545 9.57393C34.8185 9.57393 37.8128 13.1807 37.8128 17.4018C37.8128 19.3875 37.321 21.3279 36.1735 22.8056C36.0944 22.9074 36.0127 23.0064 35.9283 23.1026C37.579 23.6311 38.7088 24.4898 39.3779 25.7553C39.9352 26.8095 40.0673 27.9786 40.0933 29.0565C40.1064 29.6038 40.0921 30.1697 40.076 30.7212C40.0743 30.7819 40.0725 30.8425 40.0707 30.903C40.0559 31.4024 40.0413 31.8948 40.0413 32.4C40.0413 33.1732 39.4145 33.8 38.6413 33.8C37.8681 33.8 37.2413 33.1732 37.2413 32.4C37.2413 31.8506 37.2572 31.3153 37.2719 30.8203C37.2737 30.7595 37.2755 30.6992 37.2772 30.6396C37.2934 30.0847 37.3052 29.5875 37.2941 29.1239C37.2714 28.1802 37.1529 27.5375 36.9026 27.064C36.4873 26.2787 35.3259 25.3213 30.9242 25.2293C30.1568 25.2132 29.5455 24.5824 29.5535 23.8149C29.5615 23.0475 30.1859 22.4296 30.9534 22.4296C32.3922 22.4296 33.3389 21.8907 33.962 21.0882C34.6211 20.2395 35.0128 18.9659 35.0128 17.4018C35.0128 14.5228 33.0754 12.3739 30.2545 12.3739C29.4813 12.3739 28.8545 11.7471 28.8545 10.9739Z" fill="white"/>
<path d="M3.98416 10.84C3.98416 14.3246 5.66145 17.4166 8.25289 19.3571C5.64924 20.0306 3.85564 21.2075 2.69008 22.8918C1.74455 24.2581 1.31174 25.8285 1.10313 27.4229C0.89839 28.9876 0.898414 30.6846 0.898438 32.3462L0.898439 32.4C0.898439 33.1732 1.52524 33.8 2.29844 33.8H26.9842C27.7574 33.8 28.3842 33.1732 28.3842 32.4V32.3444C28.3842 30.6845 28.3842 29.0031 28.1792 27.458C27.9698 25.8807 27.5351 24.3338 26.5869 22.9841C25.4073 21.3052 23.585 20.1286 20.9275 19.4328C23.577 17.4975 25.2985 14.3703 25.2985 10.84C25.2985 4.96126 20.5246 0.200012 14.6413 0.200012C8.75798 0.200012 3.98416 4.96126 3.98416 10.84Z" fill="white"/>
</g>
</svg>
