<svg width="37" height="36" viewBox="0 0 37 36" fill="none" xmlns="http://www.w3.org/2000/svg">
<g id="Group 44">
<path id="Vector" d="M21.2815 17.9921L2.10363 35.2486C1.08624 34.5335 0.492704 33.4229 0.500068 32.2475V3.76671C0.492858 2.59134 1.08624 1.48055 2.10363 0.765625L21.2815 17.9921Z" fill="#2196F3"/>
<path id="Vector_2" d="M36.5002 17.9923C36.5003 19.3582 35.7006 20.6188 34.4057 21.2936L28.384 24.3548L21.2822 17.9923L28.3839 11.6299L34.4056 14.721C35.6923 15.3888 36.4914 16.6366 36.5002 17.9923Z" fill="#FFC107"/>
<path id="Vector_3" d="M28.3832 24.3546L6.52163 35.5488C5.91613 35.8415 5.24252 35.996 4.55802 35.999C3.84223 36.0115 3.13779 35.8342 2.52891 35.4887C2.38272 35.4154 2.24066 35.3352 2.10352 35.2486L21.2815 17.9922L28.3832 24.3546Z" fill="#F44336"/>
<path id="Vector_4" d="M28.3831 11.63L21.2815 17.9923L2.10364 0.765917C2.24094 0.67926 2.38284 0.599073 2.52903 0.52578C3.75077 -0.153131 5.2764 -0.176062 6.52175 0.465711L28.3831 11.63Z" fill="#4CAF50"/>
</g>
</svg>
