<svg width="56" height="56" viewBox="0 0 56 56" fill="none" xmlns="http://www.w3.org/2000/svg">
<g id="clinical_fe 1">
<path id="Vector" fill-rule="evenodd" clip-rule="evenodd" d="M14 10.5C14 8.56701 15.567 7 17.5 7H26.8333C28.7664 7 30.3333 8.56701 30.3333 10.5H33.8333C35.7664 10.5 37.3333 12.0669 37.3333 14V45.5C37.3333 47.433 35.7664 49 33.8333 49H10.5C8.56701 49 7 47.433 7 45.5V14C7 12.0669 8.56701 10.5 10.5 10.5H14ZM17.5 9.33333C16.8557 9.33333 16.3333 9.85567 16.3333 10.5V12.8333C16.3333 13.4777 16.8557 14 17.5 14H26.8333C27.4777 14 28 13.4777 28 12.8333V10.5C28 9.85567 27.4777 9.33333 26.8333 9.33333H17.5ZM16.3333 21V24.5H12.8333V26.8333H16.3333V30.3333H18.6667V26.8333H22.1667V24.5H18.6667V21H16.3333ZM14 33.8333C13.3557 33.8333 12.8333 34.3556 12.8333 35C12.8333 35.6443 13.3557 36.1667 14 36.1667H30.3333C30.9777 36.1667 31.5 35.6443 31.5 35C31.5 34.3556 30.9777 33.8333 30.3333 33.8333H14ZM12.8333 40.8333C12.8333 40.189 13.3557 39.6667 14 39.6667H30.3333C30.9777 39.6667 31.5 40.189 31.5 40.8333C31.5 41.4777 30.9777 42 30.3333 42H14C13.3557 42 12.8333 41.4777 12.8333 40.8333Z" fill="white"/>
<path id="Vector_2" d="M42 21C42 19.0669 43.5669 17.5 45.5 17.5C47.433 17.5 49 19.0669 49 21V24.5H42V21Z" fill="white"/>
<path id="Vector_3" d="M42 44.3333V26.8333H49V44.3333L45.5 49L42 44.3333Z" fill="white"/>
</g>
</svg>
