<svg width="56" height="56" viewBox="0 0 56 56" fill="none" xmlns="http://www.w3.org/2000/svg">
<g id="health_worker_form (1) 1">
<path id="Vector" fill-rule="evenodd" clip-rule="evenodd" d="M19.832 8.16666C19.832 6.23366 21.399 4.66666 23.332 4.66666H32.6654C34.5984 4.66666 36.1654 6.23366 36.1654 8.16666V10.5C36.1654 12.433 34.5984 14 32.6654 14H23.332C21.399 14 19.832 12.433 19.832 10.5V8.16666ZM23.332 6.99999C22.6877 6.99999 22.1654 7.52233 22.1654 8.16666V10.5C22.1654 11.1443 22.6877 11.6667 23.332 11.6667H32.6654C33.3097 11.6667 33.832 11.1443 33.832 10.5V8.16666C33.832 7.52233 33.3097 6.99999 32.6654 6.99999H23.332Z" fill="white"/>
<path id="Vector_2" fill-rule="evenodd" clip-rule="evenodd" d="M21.0013 8.16666H15.168C13.2349 8.16666 11.668 9.73366 11.668 11.6667V47.8333C11.668 49.7664 13.2349 51.3333 15.168 51.3333H40.8346C42.7677 51.3333 44.3346 49.7664 44.3346 47.8333V11.6667C44.3346 9.73366 42.7677 8.16666 40.8346 8.16666H35.0013V10.5C35.0013 11.7887 33.9567 12.8333 32.668 12.8333H23.3346C22.0459 12.8333 21.0013 11.7887 21.0013 10.5V8.16666ZM17.5013 24.5C17.5013 23.8556 18.0236 23.3333 18.668 23.3333H26.8346C27.479 23.3333 28.0013 23.8556 28.0013 24.5C28.0013 25.1443 27.479 25.6667 26.8346 25.6667H18.668C18.0236 25.6667 17.5013 25.1443 17.5013 24.5ZM18.668 17.5C18.0236 17.5 17.5013 18.0223 17.5013 18.6667C17.5013 19.311 18.0236 19.8333 18.668 19.8333H36.7513C37.3957 19.8333 37.918 19.311 37.918 18.6667C37.918 18.0223 37.3957 17.5 36.7513 17.5H18.668ZM19.8346 33.8333V36.1667H22.168V33.8333H19.8346ZM18.668 31.5C18.0236 31.5 17.5013 32.0223 17.5013 32.6667V37.3333C17.5013 37.9777 18.0236 38.5 18.668 38.5H23.3346C23.979 38.5 24.5013 37.9777 24.5013 37.3333V32.6667C24.5013 32.0223 23.979 31.5 23.3346 31.5H18.668ZM36.168 33.8333C36.168 35.7671 34.6017 37.3333 32.668 37.3333C30.7342 37.3333 29.168 35.7671 29.168 33.8333C29.168 31.8996 30.7342 30.3333 32.668 30.3333C34.6017 30.3333 36.168 31.8996 36.168 33.8333ZM32.668 38.8712C30.3317 38.8712 25.668 40.1149 25.668 42.5834V45.4999H39.668V42.5834C39.668 40.1149 35.0042 38.8712 32.668 38.8712Z" fill="white"/>
</g>
</svg>
