<svg width="28" height="28" viewBox="0 0 40 40" fill="none" xmlns="http://www.w3.org/2000/svg">
<g id="Frame">
<path id="Vector" d="M17.24 6.56667C17.39 5.66333 18.1733 5 19.09 5H20.9117C21.8283 5 22.6117 5.66333 22.7617 6.56667L23.01 8.05667C23.1267 8.76333 23.65 9.33 24.31 9.60667C24.9733 9.88 25.735 9.84333 26.3183 9.42667L27.5467 8.54833C27.9079 8.29009 28.3491 8.16845 28.7917 8.20508C29.2342 8.2417 29.6494 8.43422 29.9633 8.74833L31.2517 10.0383C31.9017 10.6867 31.985 11.7083 31.4517 12.455L30.5733 13.6833C30.1567 14.2667 30.12 15.0267 30.395 15.69C30.67 16.3517 31.2367 16.8733 31.945 16.99L33.4333 17.24C34.3383 17.39 35 18.1733 35 19.0883V20.9117C35 21.8283 34.3383 22.6117 33.4333 22.7617L31.945 23.01C31.2367 23.1267 30.67 23.6483 30.395 24.31C30.12 24.9733 30.1567 25.7333 30.5733 26.3167L31.4517 27.5467C31.985 28.2917 31.9 29.3133 31.2517 29.9633L29.9617 31.2517C29.6479 31.5654 29.233 31.7576 28.7908 31.7942C28.3486 31.8308 27.9078 31.7095 27.5467 31.4517L26.3167 30.5733C25.7333 30.1567 24.9733 30.12 24.3117 30.395C23.65 30.67 23.1283 31.2367 23.01 31.9433L22.7617 33.4333C22.6117 34.3367 21.8283 35 20.9117 35H19.0883C18.1717 35 17.39 34.3367 17.2383 33.4333L16.9917 31.9433C16.8733 31.2367 16.3517 30.67 15.69 30.3933C15.0267 30.12 14.2667 30.1567 13.6833 30.5733L12.4533 31.4517C11.7083 31.985 10.6867 31.9 10.0367 31.2517L8.74833 29.9617C8.43422 29.6478 8.2417 29.2326 8.20508 28.79C8.16845 28.3475 8.29009 27.9063 8.54833 27.545L9.42667 26.3167C9.84333 25.7333 9.88167 24.9733 9.60667 24.31C9.33167 23.6483 8.765 23.1267 8.05667 23.01L6.56667 22.76C5.66333 22.61 5 21.8267 5 20.9117V19.0883C5 18.1717 5.66333 17.3883 6.56667 17.2383L8.05667 16.99C8.76333 16.8733 9.33167 16.3517 9.60667 15.69C9.88167 15.0267 9.845 14.2667 9.42833 13.6833L8.55 12.4533C8.29176 12.0921 8.17012 11.6509 8.20674 11.2083C8.24337 10.7658 8.43588 10.3506 8.75 10.0367L10.0383 8.74833C10.3522 8.43422 10.7674 8.2417 11.21 8.20508C11.6525 8.16845 12.0937 8.29009 12.455 8.54833L13.6833 9.42667C14.2667 9.84333 15.0283 9.88 15.69 9.605C16.3517 9.33 16.8733 8.76333 16.99 8.05667L17.24 6.56667Z" fill="#999999"/>
<path id="Vector_2" d="M25 20C25 21.3261 24.4732 22.5979 23.5355 23.5355C22.5979 24.4732 21.3261 25 20 25C18.6739 25 17.4021 24.4732 16.4645 23.5355C15.5268 22.5979 15 21.3261 15 20C15 18.6739 15.5268 17.4021 16.4645 16.4645C17.4021 15.5268 18.6739 15 20 15C21.3261 15 22.5979 15.5268 23.5355 16.4645C24.4732 17.4021 25 18.6739 25 20Z" fill="white"/>
</g>
</svg>
