<svg width="28" height="28" viewBox="0 0 28 28" fill="none" xmlns="http://www.w3.org/2000/svg">
<g id="Social Media Icon Square/Twitter">
<rect id="Social Media Icon" width="28" height="28" rx="4" fill="#166FFF"/>
<path id="Twitter" d="M16.3544 8.32283V8.32031H17.0108L17.2507 8.36822C17.4106 8.39932 17.5558 8.44007 17.6862 8.4905C17.8167 8.54093 17.9429 8.59976 18.0649 8.66699C18.187 8.73422 18.2976 8.80273 18.3969 8.87248C18.4954 8.9414 18.5838 9.01452 18.6621 9.09183C18.7395 9.16999 18.8602 9.19016 19.0243 9.15234C19.1885 9.11452 19.3652 9.06199 19.5546 8.99476C19.7439 8.92753 19.9312 8.85189 20.1163 8.76784C20.3015 8.6838 20.4143 8.63043 20.4547 8.60774C20.4942 8.58422 20.5153 8.57161 20.5178 8.56992L20.5203 8.56614L20.5329 8.55984L20.5455 8.55353L20.5582 8.54723L20.5708 8.54093L20.5733 8.53714L20.5771 8.53462L20.5809 8.5321L20.5834 8.52832L20.596 8.52454L20.6087 8.52202L20.6061 8.54093L20.6023 8.55984L20.596 8.57875L20.5897 8.59766L20.5834 8.61026L20.5771 8.62287L20.5708 8.64178C20.5666 8.65439 20.5624 8.67119 20.5582 8.69221C20.554 8.71322 20.514 8.79726 20.4382 8.94434C20.3625 9.09142 20.2678 9.24059 20.1542 9.39187C20.0406 9.54315 19.9388 9.65744 19.8487 9.73477C19.7578 9.81293 19.6976 9.86755 19.6682 9.89865C19.6387 9.93058 19.603 9.95999 19.5609 9.9869L19.4977 10.0285L19.4851 10.0348L19.4725 10.0411L19.47 10.0449L19.4662 10.0474L19.4624 10.0499L19.4599 10.0537L19.4472 10.06L19.4346 10.0663L19.4321 10.0701L19.4283 10.0726L19.4245 10.0751L19.422 10.0789L19.4195 10.0827L19.4157 10.0852L19.4119 10.0877L19.4094 10.0915H19.4725L19.826 10.0159C20.0616 9.96547 20.2867 9.90454 20.5014 9.8331L20.8422 9.71964L20.8801 9.70703L20.899 9.70073L20.9116 9.69443L20.9243 9.68812L20.9369 9.68182L20.9495 9.67552L20.9748 9.67173L21 9.66921V9.69443L20.9937 9.69695L20.9874 9.70073L20.9849 9.70451L20.9811 9.70703L20.9773 9.70955L20.9748 9.71334L20.9722 9.71712L20.9684 9.71964L20.9647 9.72216L20.9621 9.72594L20.9596 9.72972L20.9558 9.73224L20.9495 9.74485L20.9432 9.75746L20.9394 9.75998C20.9377 9.7625 20.8843 9.83393 20.7791 9.97429C20.6739 10.1155 20.6171 10.1869 20.6087 10.1886C20.6002 10.1911 20.5885 10.2037 20.5733 10.2264C20.559 10.2499 20.4698 10.3437 20.3057 10.5075C20.1416 10.6714 19.9808 10.8172 19.8235 10.945C19.6652 11.0736 19.5853 11.2316 19.5836 11.419C19.5811 11.6056 19.5714 11.8165 19.5546 12.0518C19.5377 12.2872 19.5062 12.5414 19.4599 12.8145C19.4136 13.0877 19.3421 13.3965 19.2453 13.7411C19.1485 14.0857 19.0307 14.4219 18.8918 14.7496C18.7529 15.0774 18.6078 15.3716 18.4563 15.6321C18.3048 15.8926 18.1659 16.1133 18.0397 16.2939C17.9134 16.4746 17.7851 16.6448 17.6546 16.8045C17.5242 16.9642 17.3593 17.1441 17.1598 17.3441C16.9595 17.5433 16.8501 17.6525 16.8316 17.6718C16.8122 17.6903 16.7297 17.7593 16.5841 17.8786C16.4394 17.9988 16.2837 18.1189 16.117 18.2391C15.9513 18.3585 15.7989 18.4581 15.6601 18.5379C15.5212 18.6177 15.3537 18.7089 15.1576 18.8115C14.9624 18.9148 14.7511 19.0107 14.5239 19.0989C14.2967 19.1871 14.0568 19.2691 13.8043 19.3447C13.5518 19.4204 13.3078 19.4792 13.0721 19.5212C12.8365 19.5632 12.5693 19.599 12.2705 19.6284L11.8224 19.6725V19.6788H11.0018V19.6725L10.8945 19.6662C10.823 19.662 10.7641 19.6578 10.7178 19.6536C10.6715 19.6494 10.4968 19.6263 10.1939 19.5843C9.89089 19.5422 9.65315 19.5002 9.48061 19.4582C9.30809 19.4162 9.0514 19.3363 8.71055 19.2187C8.3697 19.101 8.07809 18.9821 7.83571 18.8619C7.59417 18.7426 7.44269 18.6669 7.38124 18.635C7.32065 18.6039 7.25248 18.5652 7.17674 18.519L7.06312 18.4497L7.06061 18.4459L7.05681 18.4434L7.05302 18.4408L7.0505 18.4371L7.03787 18.4308L7.02525 18.4245L7.02274 18.4207L7.01894 18.4181L7.01515 18.4156L7.01262 18.4118L7.01011 18.4081L7.00631 18.4055H7V18.3803L7.01262 18.3829L7.02525 18.3866L7.08206 18.3929C7.11993 18.3971 7.22303 18.4034 7.39134 18.4118C7.55967 18.4203 7.7385 18.4203 7.92786 18.4118C8.11722 18.4034 8.3108 18.3845 8.50857 18.3551C8.70635 18.3257 8.93989 18.2753 9.2092 18.2038C9.47852 18.1324 9.72595 18.0475 9.9515 17.9492C10.1762 17.85 10.3361 17.7761 10.4312 17.7273C10.5255 17.6794 10.6694 17.5903 10.8629 17.4601L11.1533 17.2647L11.1558 17.2609L11.1596 17.2583L11.1634 17.2558L11.1659 17.252L11.1684 17.2483L11.1722 17.2457L11.176 17.2432L11.1785 17.2394L11.1912 17.2357L11.2038 17.2331L11.2063 17.2205L11.2101 17.2079L11.2139 17.2054L11.2164 17.2016L11.1154 17.1953C11.0481 17.1911 10.9829 17.1869 10.9197 17.1827C10.8566 17.1785 10.7577 17.1596 10.6231 17.126C10.4884 17.0924 10.3433 17.0419 10.1876 16.9747C10.0319 16.9075 9.88038 16.8276 9.73309 16.7352C9.58582 16.6427 9.47935 16.5658 9.41371 16.5045C9.34891 16.444 9.26474 16.3582 9.16123 16.2473C9.05856 16.1355 8.96934 16.0208 8.8936 15.9031C8.81785 15.7855 8.74548 15.6497 8.67648 15.496L8.57169 15.2665L8.56537 15.2476L8.55906 15.2287L8.55527 15.2161L8.55275 15.2035L8.57169 15.206L8.59062 15.2098L8.72949 15.2287C8.82207 15.2413 8.96725 15.2455 9.16501 15.2413C9.36279 15.2371 9.49955 15.2287 9.57529 15.2161C9.65104 15.2035 9.69733 15.1951 9.71416 15.1909L9.7394 15.1846L9.77096 15.1783L9.80252 15.172L9.80505 15.1682L9.80884 15.1657L9.81264 15.1631L9.81515 15.1594L9.7899 15.1531L9.76465 15.1468L9.7394 15.1405L9.71416 15.1341L9.68891 15.1278C9.67208 15.1236 9.64263 15.1152 9.60054 15.1026C9.55847 15.09 9.44485 15.0438 9.25969 14.964C9.07455 14.8841 8.92727 14.8064 8.81785 14.7307C8.70817 14.6549 8.60359 14.5719 8.50478 14.4824C8.40631 14.3916 8.29817 14.2748 8.18034 14.1319C8.06252 13.9891 7.95733 13.8231 7.86474 13.634C7.77217 13.4449 7.70274 13.2642 7.65645 13.0919C7.61034 12.9206 7.57992 12.7455 7.56557 12.5687L7.54283 12.304L7.55546 12.3065L7.56808 12.3103L7.5807 12.3166L7.59333 12.3229L7.60595 12.3292L7.61858 12.3355L7.81425 12.4237C7.9447 12.4826 8.10671 12.533 8.30027 12.575C8.49385 12.617 8.60956 12.6402 8.64743 12.6444L8.70424 12.6507H8.81785L8.81534 12.6469L8.81154 12.6444L8.80775 12.6418L8.80523 12.6381L8.80272 12.6343L8.79892 12.6317L8.79513 12.6292L8.79261 12.6254L8.77998 12.6191L8.76736 12.6128L8.76485 12.6091L8.76105 12.6065L8.75726 12.604L8.75473 12.6002L8.74211 12.5939L8.72949 12.5876L8.72697 12.5838C8.72445 12.5822 8.68826 12.5553 8.61839 12.5032C8.54938 12.4502 8.47701 12.3817 8.40126 12.2977C8.32552 12.2136 8.24977 12.1254 8.17403 12.0329C8.09815 11.9403 8.03056 11.8412 7.97205 11.7367C7.91314 11.6316 7.85086 11.498 7.78521 11.3358C7.72041 11.1744 7.67118 11.0118 7.63751 10.8479C7.60386 10.684 7.58492 10.5223 7.5807 10.3626C7.5765 10.2029 7.5807 10.0663 7.59333 9.95286C7.60595 9.8394 7.6312 9.71123 7.66907 9.56836C7.70694 9.42549 7.76166 9.27421 7.83318 9.11452L7.94049 8.875L7.9468 8.85609L7.95311 8.83718L7.95691 8.83466L7.95942 8.83088L7.96195 8.8271L7.96573 8.82457L7.96953 8.8271L7.97205 8.83088L7.97457 8.83466L7.97836 8.83718L7.98216 8.8397L7.98467 8.84348L7.9872 8.84727L7.99098 8.84979L7.99729 8.86239L8.00361 8.875L8.00741 8.87752L8.00992 8.8813L8.18034 9.0704C8.29396 9.19647 8.42862 9.33724 8.58431 9.49272C8.74001 9.6482 8.82627 9.72888 8.8431 9.73477C8.85994 9.74149 8.88097 9.76081 8.90622 9.79276C8.93147 9.82386 9.01563 9.89824 9.1587 10.0159C9.30178 10.1335 9.48903 10.2701 9.72047 10.4256C9.95192 10.5811 10.2086 10.7345 10.4905 10.8857C10.7725 11.037 11.0755 11.1736 11.3995 11.2955C11.7235 11.4173 11.9507 11.4972 12.0812 11.535C12.2116 11.5728 12.4346 11.6211 12.7502 11.68C13.0658 11.7388 13.3036 11.7766 13.4635 11.7934C13.6234 11.8102 13.7328 11.8199 13.7917 11.8224L13.8801 11.8249L13.8776 11.806L13.8738 11.7871L13.8485 11.6295C13.8317 11.5245 13.8233 11.3774 13.8233 11.1883C13.8233 10.9992 13.838 10.8248 13.8674 10.6651C13.8969 10.5054 13.9411 10.3437 14 10.1798C14.0589 10.0159 14.1166 9.88436 14.1729 9.78519C14.2302 9.68686 14.3051 9.57466 14.3977 9.4486C14.4902 9.32253 14.6102 9.19227 14.7574 9.0578C14.9047 8.92332 15.073 8.80356 15.2624 8.69851C15.4518 8.59346 15.6264 8.51361 15.7863 8.45898C15.9462 8.40436 16.0809 8.36863 16.1903 8.35183C16.2997 8.33502 16.3544 8.32536 16.3544 8.32283Z" fill="white"/>
</g>
</svg>
